G04*
G04 #@! TF.GenerationSoftware,Altium Limited,Altium Designer,22.4.2 (48)*
G04*
G04 Layer_Color=32896*
%FSLAX25Y25*%
%MOIN*%
G70*
G04*
G04 #@! TF.SameCoordinates,507B7574-AD96-49B3-9928-A38505287C88*
G04*
G04*
G04 #@! TF.FilePolarity,Positive*
G04*
G01*
G75*
%ADD14C,0.01000*%
%ADD17C,0.02000*%
D14*
X147638Y395276D02*
X153543D01*
X147638Y414173D02*
X153543D01*
Y395276D02*
Y414173D01*
X147638Y395276D02*
Y414173D01*
X427165Y376772D02*
X437402D01*
X427165Y478740D02*
X437402D01*
Y376772D02*
Y478740D01*
X427165Y376772D02*
Y478740D01*
X317323Y288583D02*
X327559D01*
X317323Y349606D02*
X327559D01*
Y288583D02*
Y349606D01*
X317323Y288583D02*
Y349606D01*
X249016Y404724D02*
X254921D01*
X249016Y423622D02*
X254921D01*
Y404724D02*
Y423622D01*
X249016Y404724D02*
Y423622D01*
X145669Y393701D02*
X155512D01*
X145669Y425197D02*
X155512D01*
Y393701D02*
Y425197D01*
X145669Y393701D02*
Y425197D01*
X148622Y442520D02*
X154528D01*
X148622Y461417D02*
X154528D01*
Y442520D02*
Y461417D01*
X148622Y442520D02*
Y461417D01*
X146653Y440945D02*
X156496D01*
X146653Y472441D02*
X156496D01*
Y440945D02*
Y472441D01*
X146653Y440945D02*
Y472441D01*
X247047Y393701D02*
X256890D01*
X247047Y425197D02*
X256890D01*
Y393701D02*
Y425197D01*
X247047Y393701D02*
Y425197D01*
X248031Y440945D02*
X257874D01*
X248031Y472441D02*
X257874D01*
Y440945D02*
Y472441D01*
X248031Y440945D02*
Y472441D01*
X335433Y142913D02*
X345669D01*
X335433Y203937D02*
X345669D01*
Y142913D02*
Y203937D01*
X335433Y142913D02*
Y203937D01*
X250000Y451968D02*
X255906D01*
X250000Y470866D02*
X255906D01*
Y451968D02*
Y470866D01*
X250000Y451968D02*
Y470866D01*
X239173Y393701D02*
Y425197D01*
X249016Y422047D02*
X250590Y423622D01*
X253346Y404724D02*
X254921Y406299D01*
X249016Y413386D02*
X254921Y419291D01*
X249016Y408661D02*
X254921Y414567D01*
X249016Y404724D02*
X254921Y410630D01*
X249016Y417717D02*
X254921Y423622D01*
X151969Y414173D02*
X153543D01*
X147638Y412598D02*
X149213Y414173D01*
X147638Y408268D02*
X153543Y414173D01*
X147638Y403937D02*
X153543Y409842D01*
X147638Y399213D02*
X153543Y405118D01*
X147638Y395276D02*
X153543Y401181D01*
X151969Y395276D02*
X153543Y396850D01*
X152953Y442520D02*
X154528Y444095D01*
X148622Y442520D02*
X154528Y448425D01*
X148622Y446457D02*
X154528Y452362D01*
X148622Y451181D02*
X154528Y457087D01*
X148622Y455512D02*
X154528Y461417D01*
X148622Y459842D02*
X150197Y461417D01*
X152953Y461417D02*
X154528D01*
X250000Y464961D02*
X255906Y470866D01*
X250000Y451968D02*
X255906Y457874D01*
X250000Y455905D02*
X255906Y461811D01*
X250000Y460630D02*
X255906Y466535D01*
X254331Y451968D02*
X255906Y453543D01*
X250000Y469291D02*
X251575Y470866D01*
X239173Y440945D02*
Y472441D01*
X333646Y492141D02*
Y496077D01*
X331678Y498045D01*
X329710Y496077D01*
Y492141D01*
Y495093D01*
X333646D01*
X327742Y498045D02*
Y492141D01*
X324790D01*
X323806Y493125D01*
Y494109D01*
Y495093D01*
X324790Y496077D01*
X327742D01*
X320854Y492141D02*
X318887D01*
X317903Y493125D01*
Y495093D01*
X318887Y496077D01*
X320854D01*
X321838Y495093D01*
Y493125D01*
X320854Y492141D01*
X315935Y496077D02*
Y493125D01*
X314951Y492141D01*
X311999D01*
Y496077D01*
X309047Y497061D02*
Y496077D01*
X310031D01*
X308063D01*
X309047D01*
Y493125D01*
X308063Y492141D01*
X299208Y498045D02*
Y492141D01*
X296256D01*
X295272Y493125D01*
Y494109D01*
Y495093D01*
X296256Y496077D01*
X299208D01*
X292320Y492141D02*
X290353D01*
X289369Y493125D01*
Y495093D01*
X290353Y496077D01*
X292320D01*
X293304Y495093D01*
Y493125D01*
X292320Y492141D01*
X286417Y496077D02*
X284449D01*
X283465Y495093D01*
Y492141D01*
X286417D01*
X287401Y493125D01*
X286417Y494109D01*
X283465D01*
X281497Y496077D02*
Y492141D01*
Y494109D01*
X280513Y495093D01*
X279529Y496077D01*
X278545D01*
X271658Y498045D02*
Y492141D01*
X274610D01*
X275594Y493125D01*
Y495093D01*
X274610Y496077D01*
X271658D01*
X259851Y497061D02*
X260835Y498045D01*
X262803D01*
X263786Y497061D01*
Y493125D01*
X262803Y492141D01*
X260835D01*
X259851Y493125D01*
X256899Y492141D02*
X254931D01*
X253947Y493125D01*
Y495093D01*
X254931Y496077D01*
X256899D01*
X257883Y495093D01*
Y493125D01*
X256899Y492141D01*
X251979D02*
Y496077D01*
X249027D01*
X248043Y495093D01*
Y492141D01*
X245092D02*
Y497061D01*
Y495093D01*
X246076D01*
X244108D01*
X245092D01*
Y497061D01*
X244108Y498045D01*
X241156Y492141D02*
X239188D01*
X240172D01*
Y496077D01*
X241156D01*
X234268Y490173D02*
X233284D01*
X232300Y491157D01*
Y496077D01*
X235252D01*
X236236Y495093D01*
Y493125D01*
X235252Y492141D01*
X232300D01*
X230333Y496077D02*
X229349D01*
Y495093D01*
X230333D01*
Y496077D01*
Y493125D02*
X229349D01*
Y492141D01*
X230333D01*
Y493125D01*
X384692Y317549D02*
X386691D01*
X385691D01*
Y312551D01*
X386691Y311551D01*
X387691D01*
X388690Y312551D01*
X382692Y317549D02*
X378694D01*
X380693D01*
Y311551D01*
X376694D02*
Y317549D01*
X374695Y315550D01*
X372695Y317549D01*
Y311551D01*
X366697Y316550D02*
X367697Y317549D01*
X369696D01*
X370696Y316550D01*
Y315550D01*
X369696Y314550D01*
X367697D01*
X366697Y313550D01*
Y312551D01*
X367697Y311551D01*
X369696D01*
X370696Y312551D01*
X364698Y311551D02*
X360699Y315550D01*
X354701Y316550D02*
X355701Y317549D01*
X357700D01*
X358700Y316550D01*
Y315550D01*
X357700Y314550D01*
X355701D01*
X354701Y313550D01*
Y312551D01*
X355701Y311551D01*
X357700D01*
X358700Y312551D01*
X352702Y317549D02*
Y311551D01*
X350703Y313550D01*
X348703Y311551D01*
Y317549D01*
X346704D02*
Y311551D01*
X343705D01*
X342705Y312551D01*
Y316550D01*
X343705Y317549D01*
X346704D01*
X340706D02*
X338706D01*
X339706D01*
Y311551D01*
X340706D01*
X338706D01*
X332708Y317549D02*
X334708D01*
X335707Y316550D01*
Y312551D01*
X334708Y311551D01*
X332708D01*
X331709Y312551D01*
Y316550D01*
X332708Y317549D01*
X365420Y199896D02*
X364420Y200896D01*
X362421D01*
X361421Y199896D01*
Y198896D01*
X362421Y197897D01*
X363421D01*
X362421D01*
X361421Y196897D01*
Y195897D01*
X362421Y194898D01*
X364420D01*
X365420Y195897D01*
X359422Y200896D02*
Y196897D01*
X357423Y194898D01*
X355423Y196897D01*
Y200896D01*
X353424Y199896D02*
X352424Y200896D01*
X350425D01*
X349425Y199896D01*
Y198896D01*
X350425Y197897D01*
X351425D01*
X350425D01*
X349425Y196897D01*
Y195897D01*
X350425Y194898D01*
X352424D01*
X353424Y195897D01*
X402408Y170896D02*
X404407D01*
X403408D01*
Y165897D01*
X404407Y164898D01*
X405407D01*
X406407Y165897D01*
X400409Y170896D02*
X396410D01*
X398409D01*
Y164898D01*
X394411D02*
Y170896D01*
X392411Y168896D01*
X390412Y170896D01*
Y164898D01*
X384414Y169896D02*
X385414Y170896D01*
X387413D01*
X388413Y169896D01*
Y168896D01*
X387413Y167897D01*
X385414D01*
X384414Y166897D01*
Y165897D01*
X385414Y164898D01*
X387413D01*
X388413Y165897D01*
X382415Y164898D02*
X378416Y168896D01*
X372418Y169896D02*
X373417Y170896D01*
X375417D01*
X376416Y169896D01*
Y168896D01*
X375417Y167897D01*
X373417D01*
X372418Y166897D01*
Y165897D01*
X373417Y164898D01*
X375417D01*
X376416Y165897D01*
X370418Y170896D02*
Y164898D01*
X368419Y166897D01*
X366420Y164898D01*
Y170896D01*
X364420D02*
Y164898D01*
X361421D01*
X360422Y165897D01*
Y169896D01*
X361421Y170896D01*
X364420D01*
X358422D02*
X356423D01*
X357423D01*
Y164898D01*
X358422D01*
X356423D01*
X350425Y170896D02*
X352424D01*
X353424Y169896D01*
Y165897D01*
X352424Y164898D01*
X350425D01*
X349425Y165897D01*
Y169896D01*
X350425Y170896D01*
X330631Y471137D02*
X332631D01*
X331631D01*
Y466139D01*
X332631Y465139D01*
X333630D01*
X334630Y466139D01*
X328632Y469138D02*
Y466139D01*
X327632Y465139D01*
X324633D01*
Y469138D01*
X322634Y465139D02*
Y469138D01*
X321634D01*
X320635Y468138D01*
Y465139D01*
Y468138D01*
X319635Y469138D01*
X318635Y468138D01*
Y465139D01*
X316636Y463140D02*
Y469138D01*
X313637D01*
X312637Y468138D01*
Y466139D01*
X313637Y465139D01*
X316636D01*
X307639D02*
X309638D01*
X310638Y466139D01*
Y468138D01*
X309638Y469138D01*
X307639D01*
X306639Y468138D01*
Y467138D01*
X310638D01*
X304640Y469138D02*
Y465139D01*
Y467138D01*
X303640Y468138D01*
X302640Y469138D01*
X301641D01*
X292643Y465139D02*
X290644D01*
X291644D01*
Y469138D01*
X292643D01*
X287645Y465139D02*
Y469138D01*
X284646D01*
X283646Y468138D01*
Y465139D01*
X333630Y458540D02*
Y457541D01*
X334630D01*
X332631D01*
X333630D01*
Y454542D01*
X332631Y453542D01*
X329632Y459540D02*
Y453542D01*
Y456541D01*
X328632Y457541D01*
X326632D01*
X325633Y456541D01*
Y453542D01*
X323634D02*
X321634D01*
X322634D01*
Y457541D01*
X323634D01*
X318635Y453542D02*
X315636D01*
X314636Y454542D01*
X315636Y455541D01*
X317635D01*
X318635Y456541D01*
X317635Y457541D01*
X314636D01*
X306639Y451543D02*
Y457541D01*
X303640D01*
X302640Y456541D01*
Y454542D01*
X303640Y453542D01*
X306639D01*
X299641D02*
X297642D01*
X296642Y454542D01*
Y456541D01*
X297642Y457541D01*
X299641D01*
X300641Y456541D01*
Y454542D01*
X299641Y453542D01*
X294643D02*
X291644D01*
X290644Y454542D01*
X291644Y455541D01*
X293643D01*
X294643Y456541D01*
X293643Y457541D01*
X290644D01*
X288645Y453542D02*
X286646D01*
X287645D01*
Y457541D01*
X288645D01*
X282647Y458540D02*
Y457541D01*
X283646D01*
X281647D01*
X282647D01*
Y454542D01*
X281647Y453542D01*
X278648D02*
X276649D01*
X277648D01*
Y457541D01*
X278648D01*
X272650Y453542D02*
X270651D01*
X269651Y454542D01*
Y456541D01*
X270651Y457541D01*
X272650D01*
X273650Y456541D01*
Y454542D01*
X272650Y453542D01*
X267652D02*
Y457541D01*
X264653D01*
X263653Y456541D01*
Y453542D01*
X334630Y447943D02*
Y441945D01*
X331631D01*
X330631Y442945D01*
Y443944D01*
X331631Y444944D01*
X334630D01*
X331631D01*
X330631Y445944D01*
Y446943D01*
X331631Y447943D01*
X334630D01*
X325633D02*
X327632D01*
X328632Y446943D01*
Y442945D01*
X327632Y441945D01*
X325633D01*
X324633Y442945D01*
Y446943D01*
X325633Y447943D01*
X319635D02*
X321634D01*
X322634Y446943D01*
Y442945D01*
X321634Y441945D01*
X319635D01*
X318635Y442945D01*
Y446943D01*
X319635Y447943D01*
X316636D02*
X312637D01*
X314636D01*
Y441945D01*
X310638D02*
X308638D01*
X309638D01*
Y447943D01*
X310638Y446943D01*
X299641Y443944D02*
X295642D01*
X299641Y445944D02*
X295642D01*
X293643Y441945D02*
X290644Y444944D01*
X293643Y447943D01*
X282647Y441945D02*
X280647D01*
X281647D01*
Y447943D01*
X282647Y446943D01*
X371418Y154898D02*
Y160896D01*
X367419Y154898D01*
Y160896D01*
X365420Y154898D02*
Y160896D01*
X362421D01*
X361421Y159896D01*
Y157897D01*
X362421Y156897D01*
X365420D01*
X363421D02*
X361421Y154898D01*
X355423Y159896D02*
X356423Y160896D01*
X358422D01*
X359422Y159896D01*
Y158896D01*
X358422Y157897D01*
X356423D01*
X355423Y156897D01*
Y155897D01*
X356423Y154898D01*
X358422D01*
X359422Y155897D01*
X353424Y160896D02*
X349425D01*
X351425D01*
Y154898D01*
X343705Y296550D02*
X344705Y297549D01*
X346704D01*
X347704Y296550D01*
Y295550D01*
X346704Y294550D01*
X344705D01*
X343705Y293550D01*
Y292551D01*
X344705Y291551D01*
X346704D01*
X347704Y292551D01*
X341705Y297549D02*
Y291551D01*
X339706Y293550D01*
X337707Y291551D01*
Y297549D01*
X332708D02*
X334708D01*
X335707Y296550D01*
Y292551D01*
X334708Y291551D01*
X332708D01*
X331709Y292551D01*
Y296550D01*
X332708Y297549D01*
X230238Y471137D02*
X232237D01*
X231237D01*
Y466139D01*
X232237Y465139D01*
X233237D01*
X234236Y466139D01*
X228238Y469138D02*
Y466139D01*
X227238Y465139D01*
X224239D01*
Y469138D01*
X222240Y465139D02*
Y469138D01*
X221240D01*
X220241Y468138D01*
Y465139D01*
Y468138D01*
X219241Y469138D01*
X218241Y468138D01*
Y465139D01*
X216242Y463140D02*
Y469138D01*
X213243D01*
X212243Y468138D01*
Y466139D01*
X213243Y465139D01*
X216242D01*
X207245D02*
X209244D01*
X210244Y466139D01*
Y468138D01*
X209244Y469138D01*
X207245D01*
X206245Y468138D01*
Y467138D01*
X210244D01*
X204246Y469138D02*
Y465139D01*
Y467138D01*
X203246Y468138D01*
X202247Y469138D01*
X201247D01*
X192250Y465139D02*
X190251D01*
X191250D01*
Y469138D01*
X192250D01*
X187251Y465139D02*
Y469138D01*
X184252D01*
X183253Y468138D01*
Y465139D01*
X233237Y458540D02*
Y457541D01*
X234236D01*
X232237D01*
X233237D01*
Y454542D01*
X232237Y453542D01*
X229238Y459540D02*
Y453542D01*
Y456541D01*
X228238Y457541D01*
X226239D01*
X225239Y456541D01*
Y453542D01*
X223240D02*
X221240D01*
X222240D01*
Y457541D01*
X223240D01*
X218241Y453542D02*
X215242D01*
X214243Y454542D01*
X215242Y455541D01*
X217242D01*
X218241Y456541D01*
X217242Y457541D01*
X214243D01*
X206245Y451543D02*
Y457541D01*
X203246D01*
X202247Y456541D01*
Y454542D01*
X203246Y453542D01*
X206245D01*
X199248D02*
X197248D01*
X196248Y454542D01*
Y456541D01*
X197248Y457541D01*
X199248D01*
X200247Y456541D01*
Y454542D01*
X199248Y453542D01*
X194249D02*
X191250D01*
X190251Y454542D01*
X191250Y455541D01*
X193249D01*
X194249Y456541D01*
X193249Y457541D01*
X190251D01*
X188251Y453542D02*
X186252D01*
X187251D01*
Y457541D01*
X188251D01*
X182253Y458540D02*
Y457541D01*
X183253D01*
X181253D01*
X182253D01*
Y454542D01*
X181253Y453542D01*
X178254D02*
X176255D01*
X177255D01*
Y457541D01*
X178254D01*
X172256Y453542D02*
X170257D01*
X169257Y454542D01*
Y456541D01*
X170257Y457541D01*
X172256D01*
X173256Y456541D01*
Y454542D01*
X172256Y453542D01*
X167258D02*
Y457541D01*
X164259D01*
X163259Y456541D01*
Y453542D01*
X234236Y447943D02*
Y441945D01*
X231237D01*
X230238Y442945D01*
Y443944D01*
X231237Y444944D01*
X234236D01*
X231237D01*
X230238Y445944D01*
Y446943D01*
X231237Y447943D01*
X234236D01*
X225239D02*
X227238D01*
X228238Y446943D01*
Y442945D01*
X227238Y441945D01*
X225239D01*
X224239Y442945D01*
Y446943D01*
X225239Y447943D01*
X219241D02*
X221240D01*
X222240Y446943D01*
Y442945D01*
X221240Y441945D01*
X219241D01*
X218241Y442945D01*
Y446943D01*
X219241Y447943D01*
X216242D02*
X212243D01*
X214243D01*
Y441945D01*
X210244D02*
X208245D01*
X209244D01*
Y447943D01*
X210244Y446943D01*
X199248Y443944D02*
X195249D01*
X199248Y445944D02*
X195249D01*
X193249Y441945D02*
X190251Y444944D01*
X193249Y447943D01*
X182253Y446943D02*
X181253Y447943D01*
X179254D01*
X178254Y446943D01*
Y442945D01*
X179254Y441945D01*
X181253D01*
X182253Y442945D01*
Y446943D01*
X361421Y189896D02*
X362421Y190896D01*
X364420D01*
X365420Y189896D01*
Y185897D01*
X364420Y184898D01*
X362421D01*
X361421Y185897D01*
Y187897D01*
X363421D01*
X359422Y184898D02*
Y190896D01*
X355423Y184898D01*
Y190896D01*
X353424D02*
Y184898D01*
X350425D01*
X349425Y185897D01*
Y189896D01*
X350425Y190896D01*
X353424D01*
X347704Y346550D02*
X346704Y347549D01*
X344705D01*
X343705Y346550D01*
Y345550D01*
X344705Y344550D01*
X345704D01*
X344705D01*
X343705Y343550D01*
Y342551D01*
X344705Y341551D01*
X346704D01*
X347704Y342551D01*
X341705Y347549D02*
Y343550D01*
X339706Y341551D01*
X337707Y343550D01*
Y347549D01*
X335707Y346550D02*
X334708Y347549D01*
X332708D01*
X331709Y346550D01*
Y345550D01*
X332708Y344550D01*
X333708D01*
X332708D01*
X331709Y343550D01*
Y342551D01*
X332708Y341551D01*
X334708D01*
X335707Y342551D01*
X330631Y423893D02*
X332631D01*
X331631D01*
Y418894D01*
X332631Y417895D01*
X333630D01*
X334630Y418894D01*
X328632Y421894D02*
Y418894D01*
X327632Y417895D01*
X324633D01*
Y421894D01*
X322634Y417895D02*
Y421894D01*
X321634D01*
X320635Y420894D01*
Y417895D01*
Y420894D01*
X319635Y421894D01*
X318635Y420894D01*
Y417895D01*
X316636Y415896D02*
Y421894D01*
X313637D01*
X312637Y420894D01*
Y418894D01*
X313637Y417895D01*
X316636D01*
X307639D02*
X309638D01*
X310638Y418894D01*
Y420894D01*
X309638Y421894D01*
X307639D01*
X306639Y420894D01*
Y419894D01*
X310638D01*
X304640Y421894D02*
Y417895D01*
Y419894D01*
X303640Y420894D01*
X302640Y421894D01*
X301641D01*
X292643Y417895D02*
X290644D01*
X291644D01*
Y421894D01*
X292643D01*
X287645Y417895D02*
Y421894D01*
X284646D01*
X283646Y420894D01*
Y417895D01*
X333630Y411296D02*
Y410296D01*
X334630D01*
X332631D01*
X333630D01*
Y407298D01*
X332631Y406298D01*
X329631Y412296D02*
Y406298D01*
Y409297D01*
X328632Y410296D01*
X326632D01*
X325633Y409297D01*
Y406298D01*
X323634D02*
X321634D01*
X322634D01*
Y410296D01*
X323634D01*
X318635Y406298D02*
X315636D01*
X314636Y407298D01*
X315636Y408297D01*
X317635D01*
X318635Y409297D01*
X317635Y410296D01*
X314636D01*
X306639Y404298D02*
Y410296D01*
X303640D01*
X302640Y409297D01*
Y407298D01*
X303640Y406298D01*
X306639D01*
X299641D02*
X297642D01*
X296642Y407298D01*
Y409297D01*
X297642Y410296D01*
X299641D01*
X300641Y409297D01*
Y407298D01*
X299641Y406298D01*
X294643D02*
X291644D01*
X290644Y407298D01*
X291644Y408297D01*
X293643D01*
X294643Y409297D01*
X293643Y410296D01*
X290644D01*
X288645Y406298D02*
X286645D01*
X287645D01*
Y410296D01*
X288645D01*
X282647Y411296D02*
Y410296D01*
X283646D01*
X281647D01*
X282647D01*
Y407298D01*
X281647Y406298D01*
X278648D02*
X276649D01*
X277648D01*
Y410296D01*
X278648D01*
X272650Y406298D02*
X270651D01*
X269651Y407298D01*
Y409297D01*
X270651Y410296D01*
X272650D01*
X273650Y409297D01*
Y407298D01*
X272650Y406298D01*
X267652D02*
Y410296D01*
X264653D01*
X263653Y409297D01*
Y406298D01*
X334630Y400699D02*
Y394701D01*
X331631D01*
X330631Y395701D01*
Y396700D01*
X331631Y397700D01*
X334630D01*
X331631D01*
X330631Y398699D01*
Y399699D01*
X331631Y400699D01*
X334630D01*
X325633D02*
X327632D01*
X328632Y399699D01*
Y395701D01*
X327632Y394701D01*
X325633D01*
X324633Y395701D01*
Y399699D01*
X325633Y400699D01*
X319635D02*
X321634D01*
X322634Y399699D01*
Y395701D01*
X321634Y394701D01*
X319635D01*
X318635Y395701D01*
Y399699D01*
X319635Y400699D01*
X316636D02*
X312637D01*
X314636D01*
Y394701D01*
X306639D02*
X310638D01*
X306639Y398699D01*
Y399699D01*
X307639Y400699D01*
X309638D01*
X310638Y399699D01*
X298642Y396700D02*
X294643D01*
X298642Y398699D02*
X294643D01*
X292643Y394701D02*
X289645Y397700D01*
X292643Y400699D01*
X281647Y394701D02*
X279648D01*
X280647D01*
Y400699D01*
X281647Y399699D01*
X343705Y336550D02*
X344705Y337549D01*
X346704D01*
X347704Y336550D01*
Y332551D01*
X346704Y331551D01*
X344705D01*
X343705Y332551D01*
Y334550D01*
X345704D01*
X341705Y331551D02*
Y337549D01*
X337707Y331551D01*
Y337549D01*
X335707D02*
Y331551D01*
X332708D01*
X331709Y332551D01*
Y336550D01*
X332708Y337549D01*
X335707D01*
X353702Y301551D02*
Y307549D01*
X349703Y301551D01*
Y307549D01*
X347704Y301551D02*
Y307549D01*
X344705D01*
X343705Y306550D01*
Y304550D01*
X344705Y303551D01*
X347704D01*
X345704D02*
X343705Y301551D01*
X337707Y306550D02*
X338706Y307549D01*
X340706D01*
X341705Y306550D01*
Y305550D01*
X340706Y304550D01*
X338706D01*
X337707Y303551D01*
Y302551D01*
X338706Y301551D01*
X340706D01*
X341705Y302551D01*
X335707Y307549D02*
X331709D01*
X333708D01*
Y301551D01*
X361421Y149896D02*
X362421Y150896D01*
X364420D01*
X365420Y149896D01*
Y148896D01*
X364420Y147897D01*
X362421D01*
X361421Y146897D01*
Y145897D01*
X362421Y144898D01*
X364420D01*
X365420Y145897D01*
X359422Y150896D02*
Y144898D01*
X357423Y146897D01*
X355423Y144898D01*
Y150896D01*
X350425D02*
X352424D01*
X353424Y149896D01*
Y145897D01*
X352424Y144898D01*
X350425D01*
X349425Y145897D01*
Y149896D01*
X350425Y150896D01*
X230238Y423893D02*
X232237D01*
X231237D01*
Y418894D01*
X232237Y417895D01*
X233237D01*
X234236Y418894D01*
X228238Y421894D02*
Y418894D01*
X227238Y417895D01*
X224239D01*
Y421894D01*
X222240Y417895D02*
Y421894D01*
X221240D01*
X220241Y420894D01*
Y417895D01*
Y420894D01*
X219241Y421894D01*
X218241Y420894D01*
Y417895D01*
X216242Y415896D02*
Y421894D01*
X213243D01*
X212243Y420894D01*
Y418894D01*
X213243Y417895D01*
X216242D01*
X207245D02*
X209244D01*
X210244Y418894D01*
Y420894D01*
X209244Y421894D01*
X207245D01*
X206245Y420894D01*
Y419894D01*
X210244D01*
X204246Y421894D02*
Y417895D01*
Y419894D01*
X203246Y420894D01*
X202247Y421894D01*
X201247D01*
X192250Y417895D02*
X190251D01*
X191250D01*
Y421894D01*
X192250D01*
X187251Y417895D02*
Y421894D01*
X184252D01*
X183253Y420894D01*
Y417895D01*
X233237Y411296D02*
Y410296D01*
X234236D01*
X232237D01*
X233237D01*
Y407298D01*
X232237Y406298D01*
X229238Y412296D02*
Y406298D01*
Y409297D01*
X228238Y410296D01*
X226239D01*
X225239Y409297D01*
Y406298D01*
X223240D02*
X221240D01*
X222240D01*
Y410296D01*
X223240D01*
X218241Y406298D02*
X215242D01*
X214243Y407298D01*
X215242Y408297D01*
X217242D01*
X218241Y409297D01*
X217242Y410296D01*
X214243D01*
X206245Y404298D02*
Y410296D01*
X203246D01*
X202247Y409297D01*
Y407298D01*
X203246Y406298D01*
X206245D01*
X199248D02*
X197248D01*
X196248Y407298D01*
Y409297D01*
X197248Y410296D01*
X199248D01*
X200247Y409297D01*
Y407298D01*
X199248Y406298D01*
X194249D02*
X191250D01*
X190251Y407298D01*
X191250Y408297D01*
X193249D01*
X194249Y409297D01*
X193249Y410296D01*
X190251D01*
X188251Y406298D02*
X186252D01*
X187251D01*
Y410296D01*
X188251D01*
X182253Y411296D02*
Y410296D01*
X183253D01*
X181253D01*
X182253D01*
Y407298D01*
X181253Y406298D01*
X178254D02*
X176255D01*
X177255D01*
Y410296D01*
X178254D01*
X172256Y406298D02*
X170257D01*
X169257Y407298D01*
Y409297D01*
X170257Y410296D01*
X172256D01*
X173256Y409297D01*
Y407298D01*
X172256Y406298D01*
X167258D02*
Y410296D01*
X164259D01*
X163259Y409297D01*
Y406298D01*
X234236Y400699D02*
Y394701D01*
X231237D01*
X230238Y395701D01*
Y396700D01*
X231237Y397700D01*
X234236D01*
X231237D01*
X230238Y398699D01*
Y399699D01*
X231237Y400699D01*
X234236D01*
X225239D02*
X227238D01*
X228238Y399699D01*
Y395701D01*
X227238Y394701D01*
X225239D01*
X224239Y395701D01*
Y399699D01*
X225239Y400699D01*
X219241D02*
X221240D01*
X222240Y399699D01*
Y395701D01*
X221240Y394701D01*
X219241D01*
X218241Y395701D01*
Y399699D01*
X219241Y400699D01*
X216242D02*
X212243D01*
X214243D01*
Y394701D01*
X206245D02*
X210244D01*
X206245Y398699D01*
Y399699D01*
X207245Y400699D01*
X209244D01*
X210244Y399699D01*
X198248Y396700D02*
X194249D01*
X198248Y398699D02*
X194249D01*
X192250Y394701D02*
X189251Y397700D01*
X192250Y400699D01*
X181253Y399699D02*
X180254Y400699D01*
X178254D01*
X177255Y399699D01*
Y395701D01*
X178254Y394701D01*
X180254D01*
X181253Y395701D01*
Y399699D01*
X423410Y471472D02*
X421410D01*
X422410D01*
Y477470D01*
X423410Y476471D01*
X451259Y440764D02*
Y444699D01*
X449291D01*
X448635Y444044D01*
Y442732D01*
X449291Y442076D01*
X451259D01*
X447323Y440764D02*
Y443388D01*
X446011Y444699D01*
X444699Y443388D01*
Y440764D01*
Y442732D01*
X447323D01*
X440764Y444699D02*
X442076Y444044D01*
X443388Y442732D01*
Y441420D01*
X442732Y440764D01*
X441420D01*
X440764Y441420D01*
Y442076D01*
X441420Y442732D01*
X443388D01*
X454043Y380685D02*
Y384621D01*
X452075D01*
X451419Y383965D01*
Y382653D01*
X452075Y381997D01*
X454043D01*
X447484Y384621D02*
X450108D01*
Y380685D01*
X447484D01*
X450108Y382653D02*
X448796D01*
X446172Y380685D02*
X444860D01*
X445516D01*
Y384621D01*
X446172Y383965D01*
X440268Y380685D02*
X442892D01*
X440268Y383309D01*
Y383965D01*
X440924Y384621D01*
X442236D01*
X442892Y383965D01*
X454043Y390685D02*
Y394621D01*
X452075D01*
X451419Y393965D01*
Y392653D01*
X452075Y391997D01*
X454043D01*
X447484Y394621D02*
X450108D01*
Y390685D01*
X447484D01*
X450108Y392653D02*
X448796D01*
X446172Y390685D02*
X444860D01*
X445516D01*
Y394621D01*
X446172Y393965D01*
X442892D02*
X442236Y394621D01*
X440924D01*
X440268Y393965D01*
Y391341D01*
X440924Y390685D01*
X442236D01*
X442892Y391341D01*
Y393965D01*
X450764Y400685D02*
Y404621D01*
X448796D01*
X448140Y403965D01*
Y402653D01*
X448796Y401997D01*
X450764D01*
X444204Y404621D02*
X446828D01*
Y400685D01*
X444204D01*
X446828Y402653D02*
X445516D01*
X442892Y403965D02*
X442236Y404621D01*
X440924D01*
X440268Y403965D01*
Y403309D01*
X440924Y402653D01*
X440268Y401997D01*
Y401341D01*
X440924Y400685D01*
X442236D01*
X442892Y401341D01*
Y401997D01*
X442236Y402653D01*
X442892Y403309D01*
Y403965D01*
X442236Y402653D02*
X440924D01*
X450764Y410685D02*
Y414621D01*
X448796D01*
X448140Y413965D01*
Y412653D01*
X448796Y411997D01*
X450764D01*
X444204Y414621D02*
X446828D01*
Y410685D01*
X444204D01*
X446828Y412653D02*
X445516D01*
X442892Y414621D02*
X440268D01*
Y413965D01*
X442892Y411341D01*
Y410685D01*
X449452Y420685D02*
Y424621D01*
X447484D01*
X446828Y423965D01*
Y422653D01*
X447484Y421997D01*
X449452D01*
X445516Y424621D02*
Y420685D01*
X443548D01*
X442892Y421341D01*
Y421997D01*
X443548Y422653D01*
X445516D01*
X443548D01*
X442892Y423309D01*
Y423965D01*
X443548Y424621D01*
X445516D01*
X441580Y420685D02*
X440268D01*
X440924D01*
Y424621D01*
X441580Y423965D01*
X451157Y430528D02*
Y434463D01*
X449189D01*
X448533Y433807D01*
Y432495D01*
X449189Y431840D01*
X451157D01*
X447222Y434463D02*
Y430528D01*
X445254D01*
X444598Y431183D01*
Y431840D01*
X445254Y432495D01*
X447222D01*
X445254D01*
X444598Y433151D01*
Y433807D01*
X445254Y434463D01*
X447222D01*
X443286Y433807D02*
X442630Y434463D01*
X441318D01*
X440662Y433807D01*
Y431183D01*
X441318Y430528D01*
X442630D01*
X443286Y431183D01*
Y433807D01*
X448635Y453886D02*
X449291Y454542D01*
X450603D01*
X451259Y453886D01*
Y451262D01*
X450603Y450606D01*
X449291D01*
X448635Y451262D01*
Y452574D01*
X449947D01*
X447323Y450606D02*
Y454542D01*
X444699Y450606D01*
Y454542D01*
X443388D02*
Y450606D01*
X441420D01*
X440764Y451262D01*
Y453886D01*
X441420Y454542D01*
X443388D01*
X451259Y464122D02*
X450603Y464778D01*
X449291D01*
X448635Y464122D01*
Y463466D01*
X449291Y462810D01*
X449947D01*
X449291D01*
X448635Y462154D01*
Y461498D01*
X449291Y460843D01*
X450603D01*
X451259Y461498D01*
X447323Y464778D02*
Y462154D01*
X446011Y460843D01*
X444699Y462154D01*
Y464778D01*
X443388Y464122D02*
X442732Y464778D01*
X441420D01*
X440764Y464122D01*
Y463466D01*
X441420Y462810D01*
X442076D01*
X441420D01*
X440764Y462154D01*
Y461498D01*
X441420Y460843D01*
X442732D01*
X443388Y461498D01*
X444699Y474621D02*
X447323D01*
Y472653D01*
X446011Y473309D01*
X445356D01*
X444699Y472653D01*
Y471341D01*
X445356Y470685D01*
X446667D01*
X447323Y471341D01*
X443388Y474621D02*
Y471997D01*
X442076Y470685D01*
X440764Y471997D01*
Y474621D01*
X403466Y180896D02*
X405465D01*
X404465D01*
Y175897D01*
X405465Y174898D01*
X406465D01*
X407465Y175897D01*
X401467Y180896D02*
X397468D01*
X399467D01*
Y174898D01*
X391470Y179896D02*
X392469Y180896D01*
X394469D01*
X395468Y179896D01*
Y175897D01*
X394469Y174898D01*
X392469D01*
X391470Y175897D01*
X389470Y180896D02*
Y174898D01*
Y176897D01*
X385472Y180896D01*
X388471Y177897D01*
X385472Y174898D01*
X383472D02*
X379474Y178896D01*
X373476Y179896D02*
X374475Y180896D01*
X376475D01*
X377474Y179896D01*
Y178896D01*
X376475Y177897D01*
X374475D01*
X373476Y176897D01*
Y175897D01*
X374475Y174898D01*
X376475D01*
X377474Y175897D01*
X371476Y180896D02*
Y174898D01*
X369477Y176897D01*
X367477Y174898D01*
Y180896D01*
X361479Y179896D02*
X362479Y180896D01*
X364478D01*
X365478Y179896D01*
Y175897D01*
X364478Y174898D01*
X362479D01*
X361479Y175897D01*
X359480Y180896D02*
Y174898D01*
X355481D01*
X353482Y180896D02*
Y174898D01*
Y176897D01*
X349483Y180896D01*
X352482Y177897D01*
X349483Y174898D01*
X385749Y327549D02*
X387749D01*
X386749D01*
Y322551D01*
X387749Y321551D01*
X388748D01*
X389748Y322551D01*
X383750Y327549D02*
X379751D01*
X381751D01*
Y321551D01*
X373753Y326550D02*
X374753Y327549D01*
X376752D01*
X377752Y326550D01*
Y322551D01*
X376752Y321551D01*
X374753D01*
X373753Y322551D01*
X371754Y327549D02*
Y321551D01*
Y323551D01*
X367755Y327549D01*
X370754Y324550D01*
X367755Y321551D01*
X365756D02*
X361757Y325550D01*
X355759Y326550D02*
X356759Y327549D01*
X358758D01*
X359758Y326550D01*
Y325550D01*
X358758Y324550D01*
X356759D01*
X355759Y323551D01*
Y322551D01*
X356759Y321551D01*
X358758D01*
X359758Y322551D01*
X353760Y327549D02*
Y321551D01*
X351760Y323551D01*
X349761Y321551D01*
Y327549D01*
X343763Y326550D02*
X344763Y327549D01*
X346762D01*
X347762Y326550D01*
Y322551D01*
X346762Y321551D01*
X344763D01*
X343763Y322551D01*
X341764Y327549D02*
Y321551D01*
X337765D01*
X335766Y327549D02*
Y321551D01*
Y323551D01*
X331767Y327549D01*
X334766Y324550D01*
X331767Y321551D01*
X341714Y121406D02*
X342534Y120586D01*
Y118946D01*
X341714Y118126D01*
X340894D01*
X340074Y118946D01*
Y120586D01*
X339254Y121406D01*
X338434D01*
X337614Y120586D01*
Y118946D01*
X338434Y118126D01*
X342534Y123046D02*
X337614D01*
X339254Y124686D01*
X337614Y126325D01*
X342534D01*
Y127965D02*
X337614D01*
Y130425D01*
X338434Y131245D01*
X341714D01*
X342534Y130425D01*
Y127965D01*
Y132885D02*
Y134525D01*
Y133705D01*
X337614D01*
Y132885D01*
Y134525D01*
X342534Y139444D02*
Y137805D01*
X341714Y136985D01*
X338434D01*
X337614Y137805D01*
Y139444D01*
X338434Y140264D01*
X341714D01*
X342534Y139444D01*
X323997Y355658D02*
X324817Y354838D01*
Y353198D01*
X323997Y352378D01*
X323177D01*
X322358Y353198D01*
Y354838D01*
X321537Y355658D01*
X320718D01*
X319898Y354838D01*
Y353198D01*
X320718Y352378D01*
X324817Y357298D02*
X319898D01*
X321537Y358938D01*
X319898Y360577D01*
X324817D01*
Y362217D02*
X319898D01*
Y364677D01*
X320718Y365497D01*
X323997D01*
X324817Y364677D01*
Y362217D01*
Y367137D02*
Y368777D01*
Y367957D01*
X319898D01*
Y367137D01*
Y368777D01*
X324817Y373696D02*
Y372057D01*
X323997Y371237D01*
X320718D01*
X319898Y372057D01*
Y373696D01*
X320718Y374517D01*
X323997D01*
X324817Y373696D01*
X143685Y441945D02*
X141686D01*
X142685D01*
Y447943D01*
X143685Y446943D01*
X245063Y441945D02*
X243064D01*
X244063D01*
Y447943D01*
X245063Y446943D01*
X330631Y484376D02*
X334630D01*
Y481377D01*
X332631D01*
X334630D01*
Y478378D01*
X327632D02*
X325633D01*
X324633Y479377D01*
Y481377D01*
X325633Y482376D01*
X327632D01*
X328632Y481377D01*
Y479377D01*
X327632Y478378D01*
X322634Y482376D02*
Y478378D01*
Y480377D01*
X321634Y481377D01*
X320635Y482376D01*
X319635D01*
X310638Y484376D02*
Y478378D01*
X307639D01*
X306639Y479377D01*
Y480377D01*
X307639Y481377D01*
X310638D01*
X307639D01*
X306639Y482376D01*
Y483376D01*
X307639Y484376D01*
X310638D01*
X301641D02*
X303640D01*
X304640Y483376D01*
Y479377D01*
X303640Y478378D01*
X301641D01*
X300641Y479377D01*
Y483376D01*
X301641Y484376D01*
X295642D02*
X297642D01*
X298642Y483376D01*
Y479377D01*
X297642Y478378D01*
X295642D01*
X294643Y479377D01*
Y483376D01*
X295642Y484376D01*
X292643D02*
X288645D01*
X290644D01*
Y478378D01*
X286645D02*
X284646D01*
X285646D01*
Y484376D01*
X286645Y483376D01*
X281647Y481377D02*
Y482376D01*
X280647D01*
Y481377D01*
X281647D01*
Y479377D02*
X280647D01*
Y478378D01*
X281647Y477378D01*
X280647Y478378D02*
X281647D01*
Y479377D01*
X143685Y394701D02*
X141686D01*
X142685D01*
Y400699D01*
X143685Y399699D01*
X314945Y291354D02*
X312946D01*
X313945D01*
Y297352D01*
X314945Y296353D01*
X330631Y435163D02*
X334630D01*
Y432164D01*
X332631D01*
X334630D01*
Y429165D01*
X327632D02*
X325633D01*
X324633Y430165D01*
Y432164D01*
X325633Y433164D01*
X327632D01*
X328632Y432164D01*
Y430165D01*
X327632Y429165D01*
X322634Y433164D02*
Y429165D01*
Y431164D01*
X321634Y432164D01*
X320635Y433164D01*
X319635D01*
X310638Y435163D02*
Y429165D01*
X307639D01*
X306639Y430165D01*
Y431164D01*
X307639Y432164D01*
X310638D01*
X307639D01*
X306639Y433164D01*
Y434163D01*
X307639Y435163D01*
X310638D01*
X301641D02*
X303640D01*
X304640Y434163D01*
Y430165D01*
X303640Y429165D01*
X301641D01*
X300641Y430165D01*
Y434163D01*
X301641Y435163D01*
X295642D02*
X297642D01*
X298642Y434163D01*
Y430165D01*
X297642Y429165D01*
X295642D01*
X294643Y430165D01*
Y434163D01*
X295642Y435163D01*
X292643D02*
X288645D01*
X290644D01*
Y429165D01*
X282647D02*
X286645D01*
X282647Y433164D01*
Y434163D01*
X283646Y435163D01*
X285646D01*
X286645Y434163D01*
X280647Y432164D02*
Y433164D01*
X279648D01*
Y432164D01*
X280647D01*
Y430165D02*
X279648D01*
Y429165D01*
X280647Y428165D01*
X279648Y429165D02*
X280647D01*
Y430165D01*
X244079Y394701D02*
X242079D01*
X243079D01*
Y400699D01*
X244079Y399699D01*
X333646Y145685D02*
X331646D01*
X332646D01*
Y151683D01*
X333646Y150683D01*
D17*
X632366Y368774D02*
G03*
X632366Y368774I-1500J0D01*
G01*
M02*
