G04*
G04 #@! TF.GenerationSoftware,Altium Limited,Altium Designer,22.4.2 (48)*
G04*
G04 Layer_Physical_Order=2*
G04 Layer_Color=32768*
%FSLAX25Y25*%
%MOIN*%
G70*
G04*
G04 #@! TF.SameCoordinates,507B7574-AD96-49B3-9928-A38505287C88*
G04*
G04*
G04 #@! TF.FilePolarity,Negative*
G04*
G01*
G75*
%ADD14C,0.01000*%
%ADD179C,0.04000*%
%ADD180C,0.06693*%
%ADD181C,0.05906*%
%ADD182O,0.04724X0.07874*%
%ADD183C,0.05118*%
%ADD184C,0.11417*%
%ADD185C,0.05984*%
%ADD186C,0.06362*%
%ADD187C,0.15162*%
%ADD188C,0.09062*%
%ADD189C,0.05862*%
%ADD190C,0.08268*%
%ADD191O,0.06299X0.16142*%
%ADD192O,0.16142X0.06299*%
%ADD193C,0.14173*%
%ADD194C,0.03543*%
%ADD195C,0.03937*%
%ADD196C,0.04331*%
%ADD197C,0.05162*%
D14*
X426378Y448425D02*
X453937Y420866D01*
X425591Y448425D02*
X426378D01*
X453937Y388189D02*
Y420866D01*
X700787Y106299D02*
Y518504D01*
X644882Y523622D02*
X695669D01*
X700787Y518504D01*
X540551Y266535D02*
X561417Y245669D01*
X540551Y266535D02*
Y276378D01*
X561417Y216142D02*
Y245669D01*
X567717Y446457D02*
X644882Y523622D01*
X550000Y101969D02*
X696457D01*
X550000D02*
X662598Y214567D01*
X492520Y324409D02*
X540551Y276378D01*
X561417Y230906D02*
Y245669D01*
Y216142D02*
Y230906D01*
X559842Y214567D02*
X561417Y216142D01*
X552362Y207087D02*
X559842Y214567D01*
X552362Y170472D02*
Y207087D01*
X504724Y122835D02*
X552362Y170472D01*
X501181Y372835D02*
X515748Y358268D01*
X469291Y372835D02*
X501181D01*
X453937Y388189D02*
X469291Y372835D01*
X484646Y357850D02*
X492520Y349976D01*
X484646Y357850D02*
Y357874D01*
X477559Y399213D02*
X480315Y396457D01*
X435827Y357874D02*
X484646D01*
X424016Y369685D02*
X435827Y357874D01*
X424016Y369685D02*
Y399213D01*
X414173Y409055D02*
X424016Y399213D01*
X412598Y409055D02*
X414173D01*
X550000Y101969D02*
X624803Y176772D01*
X320472Y101969D02*
X550000D01*
X277953Y144488D02*
X320472Y101969D01*
X277953Y144488D02*
Y159055D01*
X279921Y161024D01*
X286221D01*
X288189Y159055D01*
Y152362D02*
Y159055D01*
Y152362D02*
X317717Y122835D01*
X504724D01*
X680709Y259449D02*
Y368898D01*
X653150Y396457D02*
X680709Y368898D01*
X480315Y396457D02*
X653150D01*
X696457Y101969D02*
X700787Y106299D01*
X567717Y442520D02*
Y446457D01*
X562205Y437008D02*
X567717Y442520D01*
X555118Y437008D02*
X562205D01*
X540551Y451575D02*
X555118Y437008D01*
X540551Y451575D02*
Y509842D01*
X537008Y513386D02*
X540551Y509842D01*
X516929Y513386D02*
X537008D01*
X477559Y474016D02*
X516929Y513386D01*
X477559Y399213D02*
Y474016D01*
X668898Y259449D02*
X679528D01*
X638189Y228740D02*
X668898Y259449D01*
X594095Y228740D02*
X638189D01*
X590945Y231890D02*
X594095Y228740D01*
X590945Y231890D02*
Y240945D01*
X585433Y246457D02*
X590945Y240945D01*
X579134Y246457D02*
X585433D01*
X576772Y248819D02*
X579134Y246457D01*
X576772Y248819D02*
Y288583D01*
X515748Y349606D02*
X576772Y288583D01*
X515748Y349606D02*
Y358268D01*
X336614Y448425D02*
X425591D01*
X324803Y460236D02*
X336614Y448425D01*
X324803Y460236D02*
Y503543D01*
X317323Y511024D02*
X324803Y503543D01*
X264567Y511024D02*
X317323D01*
X256693Y503150D02*
X264567Y511024D01*
X256693Y422441D02*
Y503150D01*
Y422441D02*
X279134Y400000D01*
X306299D01*
X315354Y409055D01*
X414173D01*
X492520Y324409D02*
Y349976D01*
X662598Y214567D02*
X687008Y238976D01*
Y256693D01*
X684252Y259449D02*
X687008Y256693D01*
X679528Y259449D02*
X684252D01*
X287795Y309449D02*
X294488D01*
X300787Y303150D01*
Y279134D02*
Y303150D01*
X275984Y325984D02*
X286221Y315748D01*
X285827Y307480D02*
X287795Y309449D01*
X285827Y304724D02*
Y307480D01*
X283858Y302756D02*
X285827Y304724D01*
X281102Y302756D02*
X283858D01*
X279528Y304331D02*
X281102Y302756D01*
X279528Y304331D02*
Y307480D01*
X281102Y309055D01*
X283071D01*
X286221Y312205D01*
Y315748D01*
X267323Y325984D02*
X275984D01*
X211024D02*
X235433D01*
X238189Y323228D01*
Y309055D02*
Y323228D01*
Y309055D02*
X241339Y305906D01*
X260630D01*
X262992Y308268D01*
Y309842D01*
Y321654D01*
X267323Y325984D01*
X491732Y214173D02*
X527953D01*
X483465Y222441D02*
X491732Y214173D01*
X390158Y222441D02*
X483465D01*
X377559Y209842D02*
X390158Y222441D01*
X303937Y209842D02*
X377559D01*
X208661Y305118D02*
X303937Y209842D01*
X208661Y305118D02*
Y323622D01*
X211024Y325984D01*
X300787Y279134D02*
X346850Y233071D01*
X427559D01*
X470472Y275984D01*
X491339D01*
X540158Y227165D01*
Y217717D02*
Y227165D01*
X536614Y214173D02*
X540158Y217717D01*
X527953Y214173D02*
X536614D01*
D179*
X133858Y110236D02*
G03*
X141732Y102362I7874J-0D01*
G01*
X692913D02*
G03*
X700787Y110236I-0J7874D01*
G01*
Y515748D02*
G03*
X692913Y523622I-7874J0D01*
G01*
X141732Y523622D02*
G03*
X133858Y515748I0J-7874D01*
G01*
X141732Y102362D02*
X692913D01*
X700787Y110236D02*
Y515748D01*
X141732Y523622D02*
X692913Y523622D01*
X133858Y110236D02*
Y515748D01*
D180*
X432283Y472835D02*
D03*
X621260Y508268D02*
D03*
X607480D02*
D03*
X644882D02*
D03*
X583858D02*
D03*
X570079D02*
D03*
X482677D02*
D03*
X496457D02*
D03*
X519685D02*
D03*
X445276D02*
D03*
X459055D02*
D03*
X148031Y402953D02*
D03*
Y389173D02*
D03*
X366142Y507874D02*
D03*
X379921D02*
D03*
X416535D02*
D03*
X402756D02*
D03*
X322358Y334575D02*
D03*
Y314575D02*
D03*
Y304575D02*
D03*
Y294575D02*
D03*
Y324575D02*
D03*
X340551Y188740D02*
D03*
Y168740D02*
D03*
Y158740D02*
D03*
Y148740D02*
D03*
Y178740D02*
D03*
X153622Y357480D02*
D03*
X163622D02*
D03*
X173622D02*
D03*
X143622D02*
D03*
X454724Y313543D02*
D03*
Y303543D02*
D03*
Y293543D02*
D03*
X305512Y314331D02*
D03*
Y304331D02*
D03*
Y294331D02*
D03*
X558661Y441732D02*
D03*
Y431732D02*
D03*
X457480Y441968D02*
D03*
Y431968D02*
D03*
X144882Y328346D02*
D03*
X164567Y295276D02*
D03*
X176772Y315748D02*
D03*
X144882Y291732D02*
D03*
Y309449D02*
D03*
X164567D02*
D03*
X176772Y303150D02*
D03*
D181*
X432283Y452835D02*
D03*
Y442835D02*
D03*
Y432835D02*
D03*
Y422835D02*
D03*
Y412835D02*
D03*
Y402835D02*
D03*
Y392835D02*
D03*
Y382835D02*
D03*
D182*
X257480Y512008D02*
D03*
X285827D02*
D03*
X295669D02*
D03*
X324016D02*
D03*
D183*
X262008Y501575D02*
D03*
X281299D02*
D03*
X300197D02*
D03*
X319488D02*
D03*
D184*
X322716Y145276D02*
D03*
X270984D02*
D03*
D185*
X292913Y155945D02*
D03*
X300787D02*
D03*
X310630D02*
D03*
D186*
X673858Y303898D02*
D03*
X665866D02*
D03*
Y356850D02*
D03*
X673858D02*
D03*
D187*
X655866Y307874D02*
D03*
Y352874D02*
D03*
D188*
X643858Y299370D02*
D03*
Y361378D02*
D03*
D189*
X620866Y307874D02*
D03*
Y317874D02*
D03*
X630866Y322874D02*
D03*
X620866Y327874D02*
D03*
X630866Y332874D02*
D03*
Y342874D02*
D03*
Y352874D02*
D03*
X620866Y347874D02*
D03*
D190*
X155118Y146653D02*
D03*
Y241929D02*
D03*
D191*
X666929Y131496D02*
D03*
D192*
X655118Y150000D02*
D03*
D193*
X147638Y116142D02*
D03*
Y509842D02*
D03*
X687008D02*
D03*
D194*
X545276Y298819D02*
D03*
Y295669D02*
D03*
Y311417D02*
D03*
Y308268D02*
D03*
X179134Y398819D02*
D03*
Y393307D02*
D03*
X437008Y307874D02*
D03*
X434252Y305118D02*
D03*
X431496Y302362D02*
D03*
X441339Y356299D02*
D03*
Y361024D02*
D03*
X416535Y324410D02*
D03*
Y320866D02*
D03*
Y317323D02*
D03*
Y303150D02*
D03*
Y306693D02*
D03*
Y310236D02*
D03*
Y313779D02*
D03*
X432677Y333858D02*
D03*
X364173Y168504D02*
D03*
X249213Y276378D02*
D03*
X257480D02*
D03*
X212205Y388976D02*
D03*
X216535Y253150D02*
D03*
X294094Y247638D02*
D03*
X250394Y253150D02*
D03*
X371654Y291732D02*
D03*
X375984D02*
D03*
X417717Y295669D02*
D03*
X394094Y305906D02*
D03*
X399213Y298819D02*
D03*
X391732Y309449D02*
D03*
X396063Y301969D02*
D03*
X384646Y291732D02*
D03*
X388583D02*
D03*
X392520D02*
D03*
X427559Y244488D02*
D03*
X402756Y278740D02*
D03*
X294488Y328740D02*
D03*
X297638Y330686D02*
D03*
X294488Y299213D02*
D03*
X297638Y301181D02*
D03*
X277559Y340551D02*
D03*
X409449Y212598D02*
D03*
X413386D02*
D03*
X374803Y316142D02*
D03*
Y320079D02*
D03*
Y324016D02*
D03*
Y327953D02*
D03*
X417323Y212598D02*
D03*
X461039Y208185D02*
D03*
X409228Y182402D02*
D03*
X470882Y208283D02*
D03*
X405905Y196063D02*
D03*
X402756D02*
D03*
X293701Y170866D02*
D03*
X293701Y167323D02*
D03*
X401354Y182402D02*
D03*
X419598Y171965D02*
D03*
X441339Y132382D02*
D03*
X409244Y161610D02*
D03*
X364173Y158268D02*
D03*
X430398Y193520D02*
D03*
X239370Y332283D02*
D03*
X192520Y263779D02*
D03*
X351575Y319685D02*
D03*
X345669Y325197D02*
D03*
X348425Y322047D02*
D03*
X267717Y307087D02*
D03*
X355512Y317323D02*
D03*
X351575Y299213D02*
D03*
X353937Y301575D02*
D03*
X356299Y303937D02*
D03*
X415354Y291339D02*
D03*
X503150Y290551D02*
D03*
X501181Y293307D02*
D03*
X513386Y325197D02*
D03*
X510630Y323228D02*
D03*
X507087Y322835D02*
D03*
X212205Y403543D02*
D03*
X357087Y325984D02*
D03*
Y329528D02*
D03*
X375984Y277559D02*
D03*
X372835D02*
D03*
X369685Y278346D02*
D03*
X366929Y280315D02*
D03*
X289764Y340551D02*
D03*
X258268Y334646D02*
D03*
X254724Y335039D02*
D03*
X249606D02*
D03*
X246063D02*
D03*
X268898Y322047D02*
D03*
X267323Y318504D02*
D03*
X266929Y329134D02*
D03*
X398425Y332677D02*
D03*
Y336614D02*
D03*
X307470Y406703D02*
D03*
X307480Y411811D02*
D03*
X297244Y392520D02*
D03*
Y396063D02*
D03*
X378740Y355906D02*
D03*
X309449Y496457D02*
D03*
X381496Y355906D02*
D03*
X312992Y496457D02*
D03*
X383465Y358268D02*
D03*
X376772D02*
D03*
X305906Y496457D02*
D03*
X316535D02*
D03*
X267717D02*
D03*
X278346D02*
D03*
X274803D02*
D03*
X271260D02*
D03*
X406693Y387795D02*
D03*
X388583Y362992D02*
D03*
X390551Y355906D02*
D03*
X369685Y403543D02*
D03*
X377559Y403543D02*
D03*
X409055D02*
D03*
X403937D02*
D03*
X387008D02*
D03*
X393307D02*
D03*
X417667Y370128D02*
D03*
X561417Y422047D02*
D03*
X576378Y416535D02*
D03*
X257874Y206693D02*
D03*
X417717Y299213D02*
D03*
X545276Y292520D02*
D03*
Y301969D02*
D03*
Y305118D02*
D03*
Y314567D02*
D03*
X386221Y388583D02*
D03*
X518504Y340551D02*
D03*
X521654Y340158D02*
D03*
X490158Y338189D02*
D03*
X495669Y310630D02*
D03*
X510630Y288976D02*
D03*
X495669Y321654D02*
D03*
X494488Y313779D02*
D03*
X421260Y284646D02*
D03*
X527165Y307874D02*
D03*
X526772Y316142D02*
D03*
D195*
X255512Y321260D02*
D03*
Y316929D02*
D03*
Y312598D02*
D03*
X251181Y321260D02*
D03*
Y316929D02*
D03*
Y312598D02*
D03*
X246850Y321260D02*
D03*
Y316929D02*
D03*
Y312598D02*
D03*
X573819Y438386D02*
D03*
Y442717D02*
D03*
X578150Y438386D02*
D03*
Y442717D02*
D03*
X476968D02*
D03*
Y438386D02*
D03*
X472638Y442717D02*
D03*
Y438386D02*
D03*
X393701Y378543D02*
D03*
X391142Y381102D02*
D03*
X396260D02*
D03*
Y375984D02*
D03*
X391142D02*
D03*
D196*
X224803Y301575D02*
D03*
X219291Y301181D02*
D03*
X204724Y285039D02*
D03*
X566535Y229134D02*
D03*
X204724Y301969D02*
D03*
X446850Y437795D02*
D03*
X444882Y350787D02*
D03*
X368110Y188976D02*
D03*
X314961Y283465D02*
D03*
X589370Y273228D02*
D03*
X585433D02*
D03*
X578740D02*
D03*
X574803D02*
D03*
X568504D02*
D03*
X564567D02*
D03*
X689764Y280315D02*
D03*
X684252D02*
D03*
X677953Y277953D02*
D03*
X673228D02*
D03*
X373622Y236221D02*
D03*
X375984Y256693D02*
D03*
X385433Y441339D02*
D03*
X382283Y403150D02*
D03*
X472047Y298819D02*
D03*
X498819Y364961D02*
D03*
X547244Y440650D02*
D03*
X568898Y350394D02*
D03*
X570472Y341339D02*
D03*
X568110Y331890D02*
D03*
X477559Y307480D02*
D03*
X490158Y329921D02*
D03*
X225984Y391732D02*
D03*
X674016Y238189D02*
D03*
X503150Y220079D02*
D03*
X516142D02*
D03*
X207874Y330315D02*
D03*
X201575Y321260D02*
D03*
X163386Y255906D02*
D03*
X168110Y129921D02*
D03*
X508661Y469291D02*
D03*
X512992Y469291D02*
D03*
X612598D02*
D03*
X616929Y469291D02*
D03*
X236614Y335039D02*
D03*
X225984Y357087D02*
D03*
X368110Y390158D02*
D03*
X503150Y116732D02*
D03*
X498819Y116732D02*
D03*
X535433Y115945D02*
D03*
X531102Y115945D02*
D03*
X608661Y115945D02*
D03*
X604331Y115945D02*
D03*
X567717D02*
D03*
X572047Y115945D02*
D03*
X506693Y346457D02*
D03*
Y355118D02*
D03*
X548819Y353543D02*
D03*
X568110Y321260D02*
D03*
X653543Y238583D02*
D03*
X658268D02*
D03*
X662992D02*
D03*
X576772Y228346D02*
D03*
X587402Y231102D02*
D03*
X554724Y237402D02*
D03*
X550000Y237256D02*
D03*
X545276D02*
D03*
X548819Y226772D02*
D03*
X485591Y175000D02*
D03*
X485445Y179724D02*
D03*
Y184449D02*
D03*
X485591Y189173D02*
D03*
X485445Y193898D02*
D03*
Y198622D02*
D03*
X485591Y203346D02*
D03*
X485445Y208071D02*
D03*
Y212795D02*
D03*
X541929Y212835D02*
D03*
X546654Y212980D02*
D03*
X551378D02*
D03*
X575984Y211811D02*
D03*
X571654D02*
D03*
X557480Y207087D02*
D03*
Y193701D02*
D03*
X453937Y217323D02*
D03*
X614961Y337795D02*
D03*
X616535Y312992D02*
D03*
X213386Y281102D02*
D03*
X198031Y260236D02*
D03*
Y284744D02*
D03*
X263779Y259842D02*
D03*
X403543Y244488D02*
D03*
X409842Y237008D02*
D03*
X288583Y330709D02*
D03*
X282677Y322835D02*
D03*
X439764Y277953D02*
D03*
X274016Y169291D02*
D03*
X572441Y472441D02*
D03*
X598032Y408268D02*
D03*
X472047Y470079D02*
D03*
X345276Y313779D02*
D03*
X443701Y289435D02*
D03*
X661811Y168110D02*
D03*
X653150D02*
D03*
X657480Y168110D02*
D03*
X405425Y201886D02*
D03*
X364173Y236811D02*
D03*
X383071Y237205D02*
D03*
X402362Y236909D02*
D03*
X421260Y237008D02*
D03*
X392913Y237008D02*
D03*
X354724Y236910D02*
D03*
X311221Y477953D02*
D03*
X273031Y478543D02*
D03*
X367717Y367717D02*
D03*
X449472Y341339D02*
D03*
X496063Y407874D02*
D03*
X496457Y418110D02*
D03*
X598032D02*
D03*
X318701Y236024D02*
D03*
X345276Y308268D02*
D03*
X348031Y286221D02*
D03*
X412992Y129528D02*
D03*
X405512Y210236D02*
D03*
X261024Y348425D02*
D03*
X367717Y374410D02*
D03*
X413779Y397244D02*
D03*
X376016Y338319D02*
D03*
X557874Y404724D02*
D03*
X528346D02*
D03*
X572441Y290158D02*
D03*
Y316929D02*
D03*
X400000Y264567D02*
D03*
X408661Y259055D02*
D03*
X258661Y216535D02*
D03*
Y189764D02*
D03*
X283465Y297244D02*
D03*
X362992Y362992D02*
D03*
X444488Y175197D02*
D03*
X205118Y380709D02*
D03*
X253543Y396850D02*
D03*
Y390158D02*
D03*
X291959Y419471D02*
D03*
X333465Y401968D02*
D03*
X348031Y438976D02*
D03*
X351969Y437402D02*
D03*
X350000Y433071D02*
D03*
X373622Y434252D02*
D03*
Y442520D02*
D03*
X359842Y467717D02*
D03*
X386221D02*
D03*
X395669Y467717D02*
D03*
X422441D02*
D03*
X649213Y288189D02*
D03*
X650000Y373228D02*
D03*
X453543Y269685D02*
D03*
X439764Y255906D02*
D03*
X472244Y269488D02*
D03*
X476772Y250787D02*
D03*
X480315Y155118D02*
D03*
X477165Y174409D02*
D03*
X452362Y182677D02*
D03*
X449705Y166535D02*
D03*
X448819Y127165D02*
D03*
X431890Y131595D02*
D03*
X372047Y132283D02*
D03*
X366929Y148819D02*
D03*
Y140551D02*
D03*
X398425Y130315D02*
D03*
X390551Y130413D02*
D03*
X373622Y170866D02*
D03*
X379528Y190059D02*
D03*
X241339Y253543D02*
D03*
X225197D02*
D03*
X182677Y263779D02*
D03*
X192126Y294094D02*
D03*
X231496Y351181D02*
D03*
X339779Y340244D02*
D03*
X348228Y236024D02*
D03*
X315354Y253937D02*
D03*
X381890Y257874D02*
D03*
X373228Y265354D02*
D03*
X379528D02*
D03*
X528445Y282677D02*
D03*
X525984Y364961D02*
D03*
X354331Y361417D02*
D03*
D197*
X679134Y141732D02*
D03*
X669291Y161417D02*
D03*
X679134Y179134D02*
D03*
Y167323D02*
D03*
Y155512D02*
D03*
X620079Y118110D02*
D03*
X588583Y129921D02*
D03*
X551181D02*
D03*
X492126Y118110D02*
D03*
X511811D02*
D03*
X523622D02*
D03*
X647638Y161417D02*
D03*
X673228Y118110D02*
D03*
X679134Y129921D02*
D03*
X643701Y234646D02*
D03*
X661417Y118110D02*
D03*
X643701Y177165D02*
D03*
X590551Y118110D02*
D03*
X578740D02*
D03*
X555118D02*
D03*
X543307D02*
D03*
X531496Y212598D02*
D03*
Y188976D02*
D03*
X525590Y200787D02*
D03*
M02*
