G04*
G04 #@! TF.GenerationSoftware,Altium Limited,Altium Designer,22.4.2 (48)*
G04*
G04 Layer_Physical_Order=3*
G04 Layer_Color=128*
%FSLAX25Y25*%
%MOIN*%
G70*
G04*
G04 #@! TF.SameCoordinates,507B7574-AD96-49B3-9928-A38505287C88*
G04*
G04*
G04 #@! TF.FilePolarity,Negative*
G04*
G01*
G75*
%ADD179C,0.04000*%
%ADD180C,0.06693*%
%ADD181C,0.05906*%
%ADD185C,0.05984*%
%ADD186C,0.06362*%
%ADD187C,0.15162*%
%ADD189C,0.05862*%
%ADD190C,0.08268*%
%ADD191O,0.06299X0.16142*%
%ADD193C,0.14173*%
%ADD194C,0.03543*%
%ADD196C,0.04331*%
%ADD197C,0.05162*%
%ADD198C,0.06299*%
D179*
X133858Y110236D02*
G03*
X141732Y102362I7874J-0D01*
G01*
X692913D02*
G03*
X700787Y110236I-0J7874D01*
G01*
Y515748D02*
G03*
X692913Y523622I-7874J0D01*
G01*
X141732Y523622D02*
G03*
X133858Y515748I0J-7874D01*
G01*
X141732Y102362D02*
X692913D01*
X700787Y110236D02*
Y515748D01*
X141732Y523622D02*
X692913Y523622D01*
X133858Y110236D02*
Y515748D01*
D180*
X432283Y472835D02*
D03*
X621260Y508268D02*
D03*
X607480D02*
D03*
X658661D02*
D03*
X583858D02*
D03*
X570079D02*
D03*
X482677D02*
D03*
X496457D02*
D03*
X533465D02*
D03*
X445276D02*
D03*
X459055D02*
D03*
X148031Y402953D02*
D03*
Y389173D02*
D03*
X366142Y507874D02*
D03*
X379921D02*
D03*
X416535D02*
D03*
X402756D02*
D03*
X322358Y334575D02*
D03*
Y344575D02*
D03*
Y314575D02*
D03*
Y304575D02*
D03*
Y294575D02*
D03*
Y324575D02*
D03*
X340551Y188740D02*
D03*
Y198740D02*
D03*
Y168740D02*
D03*
Y158740D02*
D03*
Y148740D02*
D03*
Y178740D02*
D03*
X153622Y357480D02*
D03*
X163622D02*
D03*
X173622D02*
D03*
X143622D02*
D03*
X454724Y313543D02*
D03*
Y303543D02*
D03*
Y293543D02*
D03*
X305512Y314331D02*
D03*
Y304331D02*
D03*
Y294331D02*
D03*
X558661Y451732D02*
D03*
Y441732D02*
D03*
X457480Y451968D02*
D03*
Y441968D02*
D03*
X164567Y295276D02*
D03*
X176772Y315748D02*
D03*
X144882Y291732D02*
D03*
Y309449D02*
D03*
X164567D02*
D03*
X176772Y303150D02*
D03*
D181*
X432283Y462835D02*
D03*
Y442835D02*
D03*
Y432835D02*
D03*
Y422835D02*
D03*
Y412835D02*
D03*
Y402835D02*
D03*
Y392835D02*
D03*
Y382835D02*
D03*
D185*
X283071Y155945D02*
D03*
X292913D02*
D03*
X300787D02*
D03*
D186*
X673858Y303898D02*
D03*
X665866D02*
D03*
Y356850D02*
D03*
X673858D02*
D03*
D187*
X655866Y307874D02*
D03*
Y352874D02*
D03*
D189*
X620866Y307874D02*
D03*
X630866Y312874D02*
D03*
X620866Y317874D02*
D03*
X630866Y332874D02*
D03*
X620866Y337874D02*
D03*
X630866Y342874D02*
D03*
D190*
X155118Y146653D02*
D03*
Y241929D02*
D03*
D191*
X643307Y131496D02*
D03*
D193*
X147638Y116142D02*
D03*
Y509842D02*
D03*
X687008D02*
D03*
D194*
X545276Y298819D02*
D03*
Y295669D02*
D03*
Y311417D02*
D03*
Y308268D02*
D03*
X179134Y398819D02*
D03*
Y393307D02*
D03*
X437008Y307874D02*
D03*
X434252Y305118D02*
D03*
X431496Y302362D02*
D03*
X441339Y356299D02*
D03*
Y361024D02*
D03*
X416535Y324410D02*
D03*
Y320866D02*
D03*
Y317323D02*
D03*
Y303150D02*
D03*
Y306693D02*
D03*
Y310236D02*
D03*
Y313779D02*
D03*
X432677Y333858D02*
D03*
X364173Y168504D02*
D03*
X212205Y388976D02*
D03*
X235039Y322835D02*
D03*
X216535Y253150D02*
D03*
X294094Y247638D02*
D03*
X250394Y253150D02*
D03*
X371654Y291732D02*
D03*
X375984D02*
D03*
X417717Y295669D02*
D03*
X394094Y305906D02*
D03*
X399213Y298819D02*
D03*
X391732Y309449D02*
D03*
X396063Y301969D02*
D03*
X384646Y291732D02*
D03*
X388583D02*
D03*
X392520D02*
D03*
X427559Y244488D02*
D03*
X402756Y278740D02*
D03*
X294488Y328740D02*
D03*
X297638Y330686D02*
D03*
X294488Y299213D02*
D03*
X297638Y301181D02*
D03*
X277559Y340551D02*
D03*
X409449Y212598D02*
D03*
X413386D02*
D03*
X374803Y316142D02*
D03*
Y320079D02*
D03*
Y324016D02*
D03*
Y327953D02*
D03*
X417323Y212598D02*
D03*
X461039Y208185D02*
D03*
X409228Y182402D02*
D03*
X470882Y208283D02*
D03*
X405905Y196063D02*
D03*
X402756D02*
D03*
X293701Y170866D02*
D03*
X293701Y167323D02*
D03*
X401354Y182402D02*
D03*
X419598Y171965D02*
D03*
X441339Y132382D02*
D03*
X409244Y161610D02*
D03*
X364173Y158268D02*
D03*
X430398Y193520D02*
D03*
X239370Y332283D02*
D03*
X192520Y263779D02*
D03*
X351575Y319685D02*
D03*
X345669Y325197D02*
D03*
X348425Y322047D02*
D03*
X267717Y307087D02*
D03*
X355512Y317323D02*
D03*
X351575Y299213D02*
D03*
X353937Y301575D02*
D03*
X356299Y303937D02*
D03*
X415354Y291339D02*
D03*
X503150Y290551D02*
D03*
X501181Y293307D02*
D03*
X513386Y325197D02*
D03*
X212205Y403543D02*
D03*
X357087Y325984D02*
D03*
Y329528D02*
D03*
X375984Y277559D02*
D03*
X372835D02*
D03*
X369685Y278346D02*
D03*
X366929Y280315D02*
D03*
X289764Y340551D02*
D03*
X254724Y335039D02*
D03*
X249606D02*
D03*
X246063D02*
D03*
X268898Y322047D02*
D03*
X267323Y318504D02*
D03*
X266929Y329134D02*
D03*
X398425Y332677D02*
D03*
Y336614D02*
D03*
X307470Y406703D02*
D03*
X307480Y411811D02*
D03*
X297244Y392520D02*
D03*
Y396063D02*
D03*
X378740Y355906D02*
D03*
X309449Y496457D02*
D03*
X381496Y355906D02*
D03*
X312992Y496457D02*
D03*
X274803D02*
D03*
X271260D02*
D03*
X406693Y387795D02*
D03*
X388583Y362992D02*
D03*
X390551Y355906D02*
D03*
X369685Y403543D02*
D03*
X377559Y403543D02*
D03*
X409055D02*
D03*
X403937D02*
D03*
X387008D02*
D03*
X393307D02*
D03*
X417667Y370128D02*
D03*
X561417Y422047D02*
D03*
X576378Y416535D02*
D03*
X257874Y206693D02*
D03*
X417717Y299213D02*
D03*
X386221Y388583D02*
D03*
X518504Y340551D02*
D03*
X521654Y340158D02*
D03*
X490158Y338189D02*
D03*
X495669Y310630D02*
D03*
X510630Y288976D02*
D03*
X495669Y321654D02*
D03*
X494488Y313779D02*
D03*
X421260Y284646D02*
D03*
D196*
X283071Y313779D02*
D03*
X446850Y477953D02*
D03*
X301870Y331890D02*
D03*
X373622Y236221D02*
D03*
X477559Y298819D02*
D03*
X225984Y400394D02*
D03*
X585039Y252756D02*
D03*
X219291Y321260D02*
D03*
X363386Y419685D02*
D03*
X353937Y414961D02*
D03*
X285827Y403937D02*
D03*
X276772Y506299D02*
D03*
X314961D02*
D03*
X333465Y422047D02*
D03*
X288976Y305906D02*
D03*
X492913Y220866D02*
D03*
X524803Y220472D02*
D03*
X534252D02*
D03*
X583465Y401181D02*
D03*
X482283D02*
D03*
X282677Y305906D02*
D03*
X513386Y424803D02*
D03*
X509055Y424803D02*
D03*
X617323Y424803D02*
D03*
X612992Y424803D02*
D03*
X225197Y321260D02*
D03*
X526378Y355118D02*
D03*
X547638Y334252D02*
D03*
X596282Y264609D02*
D03*
X596282Y268940D02*
D03*
X596282Y273271D02*
D03*
X555118Y269291D02*
D03*
X550394D02*
D03*
X545669D02*
D03*
X681890Y255512D02*
D03*
Y245276D02*
D03*
X596063Y234252D02*
D03*
X596063Y242913D02*
D03*
X596063Y238583D02*
D03*
Y247244D02*
D03*
X589764Y252756D02*
D03*
X563779D02*
D03*
X574016D02*
D03*
X579528D02*
D03*
X569291D02*
D03*
X596063Y255906D02*
D03*
X596063Y260236D02*
D03*
Y251575D02*
D03*
X488791Y258465D02*
D03*
Y263189D02*
D03*
X488937Y267913D02*
D03*
Y239567D02*
D03*
X488791Y244291D02*
D03*
Y249016D02*
D03*
X488937Y253740D02*
D03*
X557480Y200394D02*
D03*
X681890Y250394D02*
D03*
X610630Y221850D02*
D03*
X614961Y221850D02*
D03*
X606299D02*
D03*
X657480Y219094D02*
D03*
X661811Y219094D02*
D03*
X653150D02*
D03*
X430709Y217717D02*
D03*
X213779Y321260D02*
D03*
X357874Y276378D02*
D03*
X411024Y363386D02*
D03*
X409842Y237008D02*
D03*
X441339Y150000D02*
D03*
X381496Y155512D02*
D03*
X372441Y161811D02*
D03*
X563779Y472047D02*
D03*
X462598Y469685D02*
D03*
X175197Y278346D02*
D03*
X345276Y313779D02*
D03*
X392913Y237008D02*
D03*
X354724Y236910D02*
D03*
X270866Y354035D02*
D03*
X398425Y403543D02*
D03*
X464961Y305906D02*
D03*
X351575Y255020D02*
D03*
X364567Y265354D02*
D03*
X345276Y308268D02*
D03*
X526378Y346457D02*
D03*
X567323Y368012D02*
D03*
X583465Y349606D02*
D03*
X421654Y129528D02*
D03*
X384646Y201575D02*
D03*
Y210236D02*
D03*
X254331Y347638D02*
D03*
X253150Y355512D02*
D03*
X347244Y346850D02*
D03*
X367717Y383071D02*
D03*
X443701Y297638D02*
D03*
X379953Y291665D02*
D03*
X376016Y338319D02*
D03*
X408661Y264567D02*
D03*
X432579Y242913D02*
D03*
X452362Y156693D02*
D03*
X258858Y196732D02*
D03*
X444488Y183858D02*
D03*
X345276Y418504D02*
D03*
X331890Y427658D02*
D03*
X350787Y424409D02*
D03*
X547244Y475295D02*
D03*
X411811Y383563D02*
D03*
X628740Y288189D02*
D03*
X660532Y288583D02*
D03*
X660335Y372441D02*
D03*
X629528Y373228D02*
D03*
X381496Y134646D02*
D03*
X212598Y294094D02*
D03*
X283858Y354035D02*
D03*
X409055Y251969D02*
D03*
X388189Y265354D02*
D03*
X520079Y379528D02*
D03*
X511122Y379331D02*
D03*
X483858Y351673D02*
D03*
X474409Y335138D02*
D03*
X444488Y341732D02*
D03*
D197*
X655512Y472441D02*
D03*
X649606Y460630D02*
D03*
X637795D02*
D03*
X643701Y448819D02*
D03*
X631890D02*
D03*
X625984Y437008D02*
D03*
X602362D02*
D03*
X608267Y425197D02*
D03*
X602362Y413386D02*
D03*
X590551Y437008D02*
D03*
X596456Y425197D02*
D03*
Y401575D02*
D03*
X537401Y496063D02*
D03*
X531496Y484252D02*
D03*
X537401Y472441D02*
D03*
X531496Y460630D02*
D03*
X537401Y448819D02*
D03*
X531496Y437008D02*
D03*
X525590Y448819D02*
D03*
X519685Y437008D02*
D03*
X507874Y413386D02*
D03*
X496063Y437008D02*
D03*
X501968Y425197D02*
D03*
X640945Y212598D02*
D03*
X635039Y200787D02*
D03*
X629134Y212598D02*
D03*
X623228Y200787D02*
D03*
X611417D02*
D03*
X599606D02*
D03*
X593701Y212598D02*
D03*
X587795Y200787D02*
D03*
X581890Y212598D02*
D03*
X564173Y200787D02*
D03*
X643701Y234646D02*
D03*
X637795Y271654D02*
D03*
X643701Y259842D02*
D03*
X637795Y248031D02*
D03*
X389764Y153543D02*
D03*
X277559Y354331D02*
D03*
X265748D02*
D03*
D198*
X409842Y443307D02*
D03*
M02*
