G04*
G04 #@! TF.GenerationSoftware,Altium Limited,Altium Designer,22.4.2 (48)*
G04*
G04 Layer_Physical_Order=1*
G04 Layer_Color=255*
%FSLAX25Y25*%
%MOIN*%
G70*
G04*
G04 #@! TF.SameCoordinates,507B7574-AD96-49B3-9928-A38505287C88*
G04*
G04*
G04 #@! TF.FilePolarity,Positive*
G04*
G01*
G75*
%ADD10C,0.00787*%
%ADD12C,0.02362*%
%ADD14C,0.01000*%
%ADD16C,0.01575*%
%ADD21R,0.03937X0.03740*%
G04:AMPARAMS|DCode=22|XSize=31.5mil|YSize=13.39mil|CornerRadius=1.67mil|HoleSize=0mil|Usage=FLASHONLY|Rotation=180.000|XOffset=0mil|YOffset=0mil|HoleType=Round|Shape=RoundedRectangle|*
%AMROUNDEDRECTD22*
21,1,0.03150,0.01004,0,0,180.0*
21,1,0.02815,0.01339,0,0,180.0*
1,1,0.00335,-0.01408,0.00502*
1,1,0.00335,0.01408,0.00502*
1,1,0.00335,0.01408,-0.00502*
1,1,0.00335,-0.01408,-0.00502*
%
%ADD22ROUNDEDRECTD22*%
G04:AMPARAMS|DCode=23|XSize=33.47mil|YSize=13.39mil|CornerRadius=1.67mil|HoleSize=0mil|Usage=FLASHONLY|Rotation=270.000|XOffset=0mil|YOffset=0mil|HoleType=Round|Shape=RoundedRectangle|*
%AMROUNDEDRECTD23*
21,1,0.03347,0.01004,0,0,270.0*
21,1,0.03012,0.01339,0,0,270.0*
1,1,0.00335,-0.00502,-0.01506*
1,1,0.00335,-0.00502,0.01506*
1,1,0.00335,0.00502,0.01506*
1,1,0.00335,0.00502,-0.01506*
%
%ADD23ROUNDEDRECTD23*%
%ADD24O,0.01102X0.03543*%
%ADD25O,0.03543X0.01102*%
%ADD26R,0.16142X0.16142*%
%ADD27O,0.01772X0.05906*%
%ADD28R,0.09095X0.09685*%
%ADD29R,0.14921X0.03898*%
G04:AMPARAMS|DCode=30|XSize=149.21mil|YSize=38.98mil|CornerRadius=4.87mil|HoleSize=0mil|Usage=FLASHONLY|Rotation=180.000|XOffset=0mil|YOffset=0mil|HoleType=Round|Shape=RoundedRectangle|*
%AMROUNDEDRECTD30*
21,1,0.14921,0.02923,0,0,180.0*
21,1,0.13947,0.03898,0,0,180.0*
1,1,0.00974,-0.06973,0.01462*
1,1,0.00974,0.06973,0.01462*
1,1,0.00974,0.06973,-0.01462*
1,1,0.00974,-0.06973,-0.01462*
%
%ADD30ROUNDEDRECTD30*%
G04:AMPARAMS|DCode=31|XSize=51.58mil|YSize=24.41mil|CornerRadius=3.05mil|HoleSize=0mil|Usage=FLASHONLY|Rotation=0.000|XOffset=0mil|YOffset=0mil|HoleType=Round|Shape=RoundedRectangle|*
%AMROUNDEDRECTD31*
21,1,0.05158,0.01831,0,0,0.0*
21,1,0.04547,0.02441,0,0,0.0*
1,1,0.00610,0.02274,-0.00915*
1,1,0.00610,-0.02274,-0.00915*
1,1,0.00610,-0.02274,0.00915*
1,1,0.00610,0.02274,0.00915*
%
%ADD31ROUNDEDRECTD31*%
%ADD32R,0.05906X0.03937*%
%ADD33R,0.03740X0.01575*%
%ADD34R,0.09055X0.01378*%
%ADD35R,0.01378X0.05118*%
%ADD36O,0.01181X0.05709*%
%ADD37O,0.05709X0.01181*%
%ADD38R,0.11811X0.05315*%
%ADD39R,0.01575X0.04921*%
%ADD40R,0.05512X0.04724*%
%ADD41R,0.04331X0.05118*%
G04:AMPARAMS|DCode=42|XSize=98.43mil|YSize=66.93mil|CornerRadius=8.37mil|HoleSize=0mil|Usage=FLASHONLY|Rotation=270.000|XOffset=0mil|YOffset=0mil|HoleType=Round|Shape=RoundedRectangle|*
%AMROUNDEDRECTD42*
21,1,0.09843,0.05020,0,0,270.0*
21,1,0.08169,0.06693,0,0,270.0*
1,1,0.01673,-0.02510,-0.04085*
1,1,0.01673,-0.02510,0.04085*
1,1,0.01673,0.02510,0.04085*
1,1,0.01673,0.02510,-0.04085*
%
%ADD42ROUNDEDRECTD42*%
%ADD43O,0.05906X0.01181*%
%ADD44O,0.01181X0.05906*%
%ADD45R,0.07874X0.06693*%
%ADD46R,0.07874X0.03937*%
G04:AMPARAMS|DCode=47|XSize=11.02mil|YSize=61.42mil|CornerRadius=2.76mil|HoleSize=0mil|Usage=FLASHONLY|Rotation=0.000|XOffset=0mil|YOffset=0mil|HoleType=Round|Shape=RoundedRectangle|*
%AMROUNDEDRECTD47*
21,1,0.01102,0.05591,0,0,0.0*
21,1,0.00551,0.06142,0,0,0.0*
1,1,0.00551,0.00276,-0.02795*
1,1,0.00551,-0.00276,-0.02795*
1,1,0.00551,-0.00276,0.02795*
1,1,0.00551,0.00276,0.02795*
%
%ADD47ROUNDEDRECTD47*%
G04:AMPARAMS|DCode=48|XSize=11.02mil|YSize=61.42mil|CornerRadius=2.76mil|HoleSize=0mil|Usage=FLASHONLY|Rotation=270.000|XOffset=0mil|YOffset=0mil|HoleType=Round|Shape=RoundedRectangle|*
%AMROUNDEDRECTD48*
21,1,0.01102,0.05591,0,0,270.0*
21,1,0.00551,0.06142,0,0,270.0*
1,1,0.00551,-0.02795,-0.00276*
1,1,0.00551,-0.02795,0.00276*
1,1,0.00551,0.02795,0.00276*
1,1,0.00551,0.02795,-0.00276*
%
%ADD48ROUNDEDRECTD48*%
%ADD49R,0.06299X0.13780*%
%ADD50R,0.03937X0.07874*%
%ADD51R,0.15551X0.05118*%
%ADD52R,0.33858X0.34252*%
%ADD53O,0.01378X0.06299*%
%ADD54R,0.07756X0.02362*%
%ADD55R,0.03937X0.03150*%
%ADD56R,0.03150X0.03937*%
%ADD57R,0.13780X0.16535*%
%ADD58R,0.02362X0.05118*%
%ADD59R,0.21260X0.11811*%
G04:AMPARAMS|DCode=60|XSize=71.26mil|YSize=51.97mil|CornerRadius=6.5mil|HoleSize=0mil|Usage=FLASHONLY|Rotation=0.000|XOffset=0mil|YOffset=0mil|HoleType=Round|Shape=RoundedRectangle|*
%AMROUNDEDRECTD60*
21,1,0.07126,0.03898,0,0,0.0*
21,1,0.05827,0.05197,0,0,0.0*
1,1,0.01299,0.02913,-0.01949*
1,1,0.01299,-0.02913,-0.01949*
1,1,0.01299,-0.02913,0.01949*
1,1,0.01299,0.02913,0.01949*
%
%ADD60ROUNDEDRECTD60*%
G04:AMPARAMS|DCode=61|XSize=71.26mil|YSize=51.97mil|CornerRadius=6.5mil|HoleSize=0mil|Usage=FLASHONLY|Rotation=90.000|XOffset=0mil|YOffset=0mil|HoleType=Round|Shape=RoundedRectangle|*
%AMROUNDEDRECTD61*
21,1,0.07126,0.03898,0,0,90.0*
21,1,0.05827,0.05197,0,0,90.0*
1,1,0.01299,0.01949,0.02913*
1,1,0.01299,0.01949,-0.02913*
1,1,0.01299,-0.01949,-0.02913*
1,1,0.01299,-0.01949,0.02913*
%
%ADD61ROUNDEDRECTD61*%
G04:AMPARAMS|DCode=62|XSize=220.47mil|YSize=82.68mil|CornerRadius=20.67mil|HoleSize=0mil|Usage=FLASHONLY|Rotation=180.000|XOffset=0mil|YOffset=0mil|HoleType=Round|Shape=RoundedRectangle|*
%AMROUNDEDRECTD62*
21,1,0.22047,0.04134,0,0,180.0*
21,1,0.17913,0.08268,0,0,180.0*
1,1,0.04134,-0.08957,0.02067*
1,1,0.04134,0.08957,0.02067*
1,1,0.04134,0.08957,-0.02067*
1,1,0.04134,-0.08957,-0.02067*
%
%ADD62ROUNDEDRECTD62*%
G04:AMPARAMS|DCode=63|XSize=220.47mil|YSize=82.68mil|CornerRadius=20.67mil|HoleSize=0mil|Usage=FLASHONLY|Rotation=270.000|XOffset=0mil|YOffset=0mil|HoleType=Round|Shape=RoundedRectangle|*
%AMROUNDEDRECTD63*
21,1,0.22047,0.04134,0,0,270.0*
21,1,0.17913,0.08268,0,0,270.0*
1,1,0.04134,-0.02067,-0.08957*
1,1,0.04134,-0.02067,0.08957*
1,1,0.04134,0.02067,0.08957*
1,1,0.04134,0.02067,-0.08957*
%
%ADD63ROUNDEDRECTD63*%
%ADD64R,0.05118X0.02756*%
%ADD65R,0.02756X0.05118*%
%ADD66R,0.03543X0.05906*%
%ADD67R,0.05906X0.03543*%
%ADD131C,0.05500*%
%ADD141R,0.10630X0.10236*%
%ADD142R,0.31024X0.42677*%
%ADD143R,0.30000X0.42677*%
%ADD144C,0.00488*%
%ADD145C,0.00667*%
%ADD146C,0.00500*%
%ADD147C,0.00754*%
%ADD148C,0.01378*%
%ADD149C,0.01968*%
%ADD150C,0.01339*%
%ADD151C,0.03543*%
%ADD152C,0.03150*%
%ADD153C,0.04724*%
%ADD154C,0.00633*%
%ADD155O,0.07874X0.05906*%
%ADD156R,0.07874X0.06299*%
%ADD157C,0.06496*%
%ADD158R,0.06496X0.06496*%
%ADD159R,0.06496X0.06496*%
%ADD160O,0.04724X0.09449*%
%ADD161O,0.04134X0.08268*%
%ADD162O,0.05906X0.07874*%
%ADD163R,0.06299X0.07874*%
%ADD164C,0.12992*%
%ADD165R,0.05622X0.05622*%
%ADD166C,0.05622*%
%ADD167C,0.04331*%
%ADD168C,0.06000*%
%ADD169C,0.12800*%
%ADD170C,0.08700*%
G04:AMPARAMS|DCode=171|XSize=177.17mil|YSize=78.74mil|CornerRadius=19.68mil|HoleSize=0mil|Usage=FLASHONLY|Rotation=90.000|XOffset=0mil|YOffset=0mil|HoleType=Round|Shape=RoundedRectangle|*
%AMROUNDEDRECTD171*
21,1,0.17717,0.03937,0,0,90.0*
21,1,0.13780,0.07874,0,0,90.0*
1,1,0.03937,0.01968,0.06890*
1,1,0.03937,0.01968,-0.06890*
1,1,0.03937,-0.01968,-0.06890*
1,1,0.03937,-0.01968,0.06890*
%
%ADD171ROUNDEDRECTD171*%
G04:AMPARAMS|DCode=172|XSize=177.17mil|YSize=78.74mil|CornerRadius=19.68mil|HoleSize=0mil|Usage=FLASHONLY|Rotation=180.000|XOffset=0mil|YOffset=0mil|HoleType=Round|Shape=RoundedRectangle|*
%AMROUNDEDRECTD172*
21,1,0.17717,0.03937,0,0,180.0*
21,1,0.13780,0.07874,0,0,180.0*
1,1,0.03937,-0.06890,0.01968*
1,1,0.03937,0.06890,0.01968*
1,1,0.03937,0.06890,-0.01968*
1,1,0.03937,-0.06890,-0.01968*
%
%ADD172ROUNDEDRECTD172*%
%ADD173C,0.19685*%
%ADD174C,0.01968*%
%ADD175C,0.02362*%
%ADD176C,0.02953*%
%ADD177C,0.04921*%
%ADD178C,0.05000*%
G36*
X326772Y516142D02*
X326772D01*
Y507874D01*
X325590Y506693D01*
X323228D01*
X322047Y505512D01*
Y498425D01*
X320866Y497244D01*
Y497244D01*
X318504D01*
X317323Y498425D01*
Y508661D01*
X316929Y509055D01*
X308661D01*
X308268Y508661D01*
Y498819D01*
X307874Y498425D01*
X303150D01*
X301575Y496850D01*
Y496850D01*
X298819D01*
X297638Y498032D01*
Y503150D01*
X292520Y508268D01*
Y516142D01*
X293701Y517323D01*
X325590D01*
X326772Y516142D01*
D02*
G37*
G36*
X288583D02*
X288583D01*
Y507874D01*
X287402Y506693D01*
X285039D01*
X283858Y505512D01*
Y498425D01*
X282677Y497244D01*
Y497244D01*
X280315D01*
X279134Y498425D01*
Y508661D01*
X278740Y509055D01*
X270472D01*
X270079Y508661D01*
Y498819D01*
X269685Y498425D01*
X264961D01*
X263386Y496850D01*
Y496850D01*
X260630D01*
X259449Y498032D01*
Y503150D01*
X254331Y508268D01*
Y516142D01*
X255512Y517323D01*
X287402D01*
X288583Y516142D01*
D02*
G37*
G36*
X515748Y470079D02*
Y451181D01*
X514567Y450000D01*
X507480D01*
X506299Y451181D01*
Y470079D01*
X507874Y471654D01*
X514173D01*
X515748Y470079D01*
D02*
G37*
G36*
X619685Y470079D02*
Y451181D01*
X618504Y450000D01*
X611417D01*
X610236Y451181D01*
Y470079D01*
X611811Y471654D01*
X618110D01*
X619685Y470079D01*
D02*
G37*
G36*
X568110Y473228D02*
Y462205D01*
X573228Y457087D01*
Y454229D01*
X573190Y454035D01*
Y449902D01*
X573228Y449708D01*
Y449213D01*
X572835Y448819D01*
X571654D01*
X571260Y449213D01*
Y456299D01*
X567717Y459842D01*
X563386D01*
X557480Y465748D01*
X544488D01*
X542913Y467323D01*
Y475984D01*
X544882Y477953D01*
X563386D01*
X568110Y473228D01*
D02*
G37*
G36*
X562205Y459055D02*
Y459055D01*
X567323D01*
X570472Y455905D01*
Y449213D01*
X570079Y448819D01*
X565748D01*
X565354Y449213D01*
Y452756D01*
X562598Y455512D01*
X555118D01*
X551968Y452362D01*
X544095D01*
X542913Y453543D01*
Y461811D01*
X544488Y463386D01*
X557874D01*
X562205Y459055D01*
D02*
G37*
G36*
X466929Y473228D02*
X466929Y461417D01*
X472047Y456299D01*
Y454229D01*
X472009Y454035D01*
Y449902D01*
X472047Y449708D01*
Y449213D01*
X471654Y448819D01*
X470472D01*
X470079Y449213D01*
Y455512D01*
X465748Y459842D01*
X461811D01*
X458661Y462992D01*
Y473228D01*
X459842Y474409D01*
X465748D01*
X466929Y473228D01*
D02*
G37*
G36*
X461024Y459055D02*
X464567D01*
X469291Y454331D01*
Y449213D01*
X468898Y448819D01*
X464567D01*
X464173Y449213D01*
Y452756D01*
X461417Y455512D01*
X458769D01*
X458465Y455552D01*
X456496D01*
X456191Y455512D01*
X453937D01*
X450787Y452362D01*
X442913D01*
X441732Y453543D01*
Y461811D01*
X443307Y463386D01*
X456693D01*
X461024Y459055D01*
D02*
G37*
G36*
X372441Y453543D02*
X382677D01*
X383858Y452362D01*
Y445276D01*
X383465Y444882D01*
X380117D01*
X380065Y444830D01*
X377650Y447244D01*
X342126D01*
X340158Y445276D01*
X340158Y440551D01*
X338189Y438583D01*
X329134D01*
X328346Y439370D01*
Y444882D01*
X340158Y456693D01*
X369291D01*
X372441Y453543D01*
D02*
G37*
G36*
X378740Y443307D02*
X386221Y443307D01*
X387795Y441732D01*
Y432677D01*
X386221Y431102D01*
X362992D01*
X360236Y428346D01*
X354331D01*
X352756Y429921D01*
X340945D01*
X340158Y430709D01*
Y437402D01*
X341732Y438976D01*
Y444488D01*
X342913Y445669D01*
X376378D01*
X378740Y443307D01*
D02*
G37*
G36*
X337795Y434646D02*
Y427953D01*
X338583Y427165D01*
X361811D01*
X363779Y429134D01*
X380709D01*
X381102Y428740D01*
Y423228D01*
X380709Y422835D01*
X370866D01*
X360630Y412598D01*
X329528D01*
X327559Y414567D01*
X320866D01*
X320079Y415354D01*
Y434646D01*
X320866Y435433D01*
X337008D01*
X337795Y434646D01*
D02*
G37*
G36*
X305512Y421260D02*
Y415748D01*
X304724Y414961D01*
X298031D01*
X296063Y412992D01*
Y410630D01*
X295276Y409842D01*
X288976D01*
X288189Y410630D01*
Y420866D01*
X289370Y422047D01*
X304724D01*
X305512Y421260D01*
D02*
G37*
G36*
X664370Y509842D02*
X664370Y463779D01*
X599213Y398622D01*
X582480D01*
X581496Y399606D01*
Y436024D01*
X593307Y447835D01*
X619095D01*
X653543Y482283D01*
Y509842D01*
X656496Y512795D01*
X661417D01*
X664370Y509842D01*
D02*
G37*
G36*
X540354D02*
Y440945D01*
X498032Y398622D01*
X481299D01*
X480315Y399606D01*
Y436024D01*
X492126Y447835D01*
X514764D01*
X526575Y459646D01*
Y509842D01*
X529528Y512795D01*
X537402D01*
X540354Y509842D01*
D02*
G37*
G36*
X401181Y404724D02*
Y391339D01*
X398819Y388976D01*
X397638D01*
X397244Y388583D01*
Y384646D01*
X396063D01*
Y404724D01*
X396457Y405118D01*
X400787D01*
X401181Y404724D01*
D02*
G37*
G36*
X379921Y400000D02*
Y394882D01*
X381890Y392913D01*
X390158D01*
X393307Y389764D01*
Y384646D01*
X392126D01*
Y388189D01*
X389370Y390945D01*
X374803D01*
X374016Y391732D01*
Y400000D01*
X374803Y400787D01*
X379134D01*
X379921Y400000D01*
D02*
G37*
G36*
X387402Y384055D02*
Y383236D01*
X387234Y382780D01*
X384419D01*
X384395Y382776D01*
X383957D01*
X383465Y382283D01*
Y381496D01*
X383071Y381102D01*
X365748D01*
X365354Y381496D01*
Y384646D01*
X365748Y385039D01*
X386417D01*
X387402Y384055D01*
D02*
G37*
G36*
X391339Y365748D02*
X390945Y365354D01*
X387402D01*
X384646Y362598D01*
X379921D01*
X379528Y362992D01*
Y368504D01*
X379921Y368898D01*
X386221D01*
X387008Y368110D01*
X387402Y367717D01*
X388976D01*
X390158Y368898D01*
Y372441D01*
X391339D01*
Y365748D01*
D02*
G37*
G36*
X383465Y373962D02*
Y372835D01*
X380709Y370079D01*
X378346D01*
X376378Y368110D01*
Y362992D01*
X374410Y361024D01*
X368504D01*
X367323Y359842D01*
Y352756D01*
X368829Y351249D01*
X368638Y350787D01*
X352362D01*
X349213Y353937D01*
Y373622D01*
X352362Y376772D01*
X380655D01*
X383465Y373962D01*
D02*
G37*
G36*
X286614Y356693D02*
Y346850D01*
X285827Y346063D01*
X268110D01*
X267323Y346850D01*
Y350394D01*
X266535Y351181D01*
X257874D01*
X257087Y350394D01*
Y338583D01*
X256299Y337795D01*
X242126D01*
X241339Y338583D01*
Y346457D01*
X242126Y347244D01*
X242913D01*
Y347244D01*
X243701Y348031D01*
Y356693D01*
X244488Y357480D01*
X285827D01*
X286614Y356693D01*
D02*
G37*
G36*
X370866Y348031D02*
Y347676D01*
X370865Y347669D01*
Y343142D01*
X370866Y343135D01*
Y342520D01*
X369291Y340945D01*
X346457D01*
Y340945D01*
X344882Y342520D01*
Y348031D01*
X345669Y348819D01*
X370079D01*
X370866Y348031D01*
D02*
G37*
G36*
X446457Y342913D02*
Y340551D01*
X443898Y337992D01*
X421260D01*
Y343307D01*
X422441Y344488D01*
X444882D01*
X446457Y342913D01*
D02*
G37*
G36*
X529134Y357087D02*
Y345276D01*
X527559Y343701D01*
X518504D01*
X515748Y340945D01*
Y329134D01*
X515354Y328740D01*
X514961D01*
X514567Y329134D01*
Y342126D01*
X516929Y344488D01*
Y357087D01*
X518504Y358661D01*
X527559D01*
X529134Y357087D01*
D02*
G37*
G36*
X557087Y353150D02*
Y345276D01*
X557087D01*
X558661Y343701D01*
Y338976D01*
X558661D01*
X557480Y337795D01*
X544488D01*
X542913Y336221D01*
Y328346D01*
X537795Y323228D01*
X531890D01*
X531496Y323622D01*
Y324016D01*
X531890Y324410D01*
X537795D01*
X540945Y327559D01*
Y337795D01*
X551575Y348425D01*
Y353150D01*
X552362Y353937D01*
X556299D01*
X557087Y353150D01*
D02*
G37*
G36*
X557480Y335433D02*
Y329134D01*
X556299Y327953D01*
X546850D01*
Y327953D01*
X540158Y321260D01*
X532283D01*
X531890Y321654D01*
Y322047D01*
X532283Y322441D01*
X538189D01*
X544095Y328346D01*
Y335433D01*
X545276Y336614D01*
X556299D01*
X557480Y335433D01*
D02*
G37*
G36*
X556299Y324016D02*
Y318504D01*
X555905Y318110D01*
X543307D01*
X538583Y313386D01*
X531890D01*
X531496Y313779D01*
Y314173D01*
X531890Y314567D01*
X538189D01*
X548032Y324410D01*
X555905D01*
X556299Y324016D01*
D02*
G37*
G36*
X232283Y316535D02*
X241339D01*
X241732Y316142D01*
Y315748D01*
X241339Y315354D01*
X233858D01*
X230315Y311811D01*
X208268D01*
X207087Y312992D01*
Y321654D01*
X208268Y322835D01*
X225984D01*
X232283Y316535D01*
D02*
G37*
G36*
X566143Y314568D02*
Y305120D01*
X565354Y304331D01*
X554728D01*
X553939Y305120D01*
Y314568D01*
X554726Y315356D01*
X565356D01*
X566143Y314568D01*
D02*
G37*
G36*
X273228Y309842D02*
X284252D01*
X285039Y309055D01*
Y303543D01*
X284252Y302756D01*
X272441D01*
X271654Y303543D01*
Y307087D01*
X267323Y311417D01*
X261024D01*
X260630Y311811D01*
Y312205D01*
X261024Y312598D01*
Y312598D01*
X270472D01*
X273228Y309842D01*
D02*
G37*
G36*
X232677Y310630D02*
X232677D01*
X232283Y310236D01*
Y305118D01*
X231890Y304724D01*
X227953D01*
X227559Y304331D01*
Y300394D01*
X227559D01*
X226378Y299213D01*
X204331D01*
X202756Y300787D01*
Y303543D01*
X204331Y305118D01*
X206693D01*
X207874Y306299D01*
Y309055D01*
X209449Y310630D01*
X230315D01*
X231496Y311811D01*
X232677D01*
Y310630D01*
D02*
G37*
G36*
X504724Y304331D02*
Y296850D01*
X504331Y296457D01*
X475984D01*
X475197Y297244D01*
Y303937D01*
X475984Y304724D01*
X504331D01*
X504724Y304331D01*
D02*
G37*
G36*
X446063Y299213D02*
Y295276D01*
X445321Y294534D01*
X426503D01*
X426409Y294552D01*
X421882D01*
X421788Y294534D01*
X421608D01*
X421260Y294882D01*
Y295669D01*
X421654Y296063D01*
X421875D01*
X421882Y296062D01*
X426409D01*
X426416Y296063D01*
X427559D01*
X431102Y299606D01*
X445669D01*
X446063Y299213D01*
D02*
G37*
G36*
X366535Y291732D02*
Y283465D01*
X366142Y283071D01*
X365354D01*
X364961Y282677D01*
Y275197D01*
X365354Y274803D01*
X366535D01*
X366929Y274410D01*
Y253543D01*
X366535Y253150D01*
X348425D01*
X348031Y253543D01*
Y262598D01*
X348425Y262992D01*
X354331Y262992D01*
X354724Y263386D01*
Y266428D01*
X354734D01*
Y270384D01*
X354724D01*
Y272047D01*
X354331Y272441D01*
X350394D01*
X350000Y272835D01*
Y284252D01*
X350394Y284646D01*
X359842D01*
X360236Y285039D01*
Y291732D01*
X360630Y292126D01*
X361049D01*
X361055Y292125D01*
X365583D01*
X365589Y292126D01*
X366142D01*
X366535Y291732D01*
D02*
G37*
G36*
X566143Y301969D02*
Y292520D01*
X565353Y291732D01*
X554727D01*
X553938Y292520D01*
Y301969D01*
X554725Y302757D01*
X565355D01*
X566143Y301969D01*
D02*
G37*
G36*
X517717Y301181D02*
X517717D01*
Y279921D01*
X517323Y279528D01*
X513386D01*
X512992Y279921D01*
Y285827D01*
X513386Y286221D01*
X514173D01*
X514567Y286614D01*
Y301181D01*
X514961Y301575D01*
X517323D01*
X517717Y301181D01*
D02*
G37*
G36*
X692126Y280709D02*
X692126Y271654D01*
X690158Y269685D01*
X672835D01*
X670866Y271654D01*
X670866Y280315D01*
X672835Y282283D01*
X690551D01*
X692126Y280709D01*
D02*
G37*
G36*
X592126Y274803D02*
X592126Y266929D01*
X590551Y265354D01*
X563779D01*
X562205Y266929D01*
Y274803D01*
X563386Y275984D01*
X590945D01*
X592126Y274803D01*
D02*
G37*
G36*
X390551Y287008D02*
Y286849D01*
X390550Y286842D01*
Y282315D01*
X390551Y282309D01*
Y263779D01*
X390158Y263386D01*
X386614D01*
X386221Y263779D01*
Y275984D01*
X388976Y278740D01*
Y281992D01*
X389041Y282315D01*
Y286842D01*
X389002Y287034D01*
X389370Y287402D01*
X390158D01*
X390551Y287008D01*
D02*
G37*
G36*
X406299D02*
Y286849D01*
X406298Y286842D01*
Y282315D01*
X406299Y282309D01*
Y278740D01*
X411024Y274016D01*
Y263386D01*
X410236Y262598D01*
X407087D01*
X406299Y263386D01*
Y273622D01*
X404724Y275197D01*
Y281992D01*
X404789Y282315D01*
Y286842D01*
X404751Y287034D01*
X405118Y287402D01*
X405905D01*
X406299Y287008D01*
D02*
G37*
G36*
X412205D02*
Y286849D01*
X412203Y286842D01*
Y282315D01*
X412205Y282309D01*
Y281102D01*
X412992Y280315D01*
X433465D01*
X435039Y278740D01*
Y250000D01*
X433071Y248031D01*
X421260D01*
X419291Y250000D01*
Y274016D01*
X417323Y275984D01*
X413779D01*
X408661Y281102D01*
Y281992D01*
X408726Y282315D01*
Y286842D01*
X408688Y287034D01*
X409449Y287795D01*
X411417D01*
X412205Y287008D01*
D02*
G37*
G36*
X677953Y246457D02*
Y236221D01*
X677953D01*
X677165Y235433D01*
X650394D01*
X649606Y236221D01*
Y245669D01*
X650394Y246457D01*
X670079D01*
X670866Y247244D01*
X677165D01*
X677953Y246457D01*
D02*
G37*
G36*
X590945Y238583D02*
Y226378D01*
X590158Y225590D01*
X574803D01*
X574016Y226378D01*
Y238583D01*
X574803Y239370D01*
X590158D01*
X590945Y238583D01*
D02*
G37*
G36*
X646654Y272638D02*
Y261811D01*
X648622Y259842D01*
X665354D01*
X667323Y257874D01*
Y250000D01*
X665354Y248031D01*
X648622D01*
X646654Y246063D01*
Y227362D01*
X644685Y225394D01*
X595472D01*
X594095Y226772D01*
X594095Y240158D01*
X593110Y241142D01*
X574803D01*
X573819Y242126D01*
Y249016D01*
X574803Y250000D01*
X576923D01*
X577756Y250833D01*
Y253937D01*
X578740Y254921D01*
X582677D01*
X583661Y255906D01*
Y260827D01*
X584646Y261811D01*
X592520D01*
X593504Y262795D01*
Y274606D01*
X594488Y275590D01*
X643701D01*
X646654Y272638D01*
D02*
G37*
G36*
X536417Y271654D02*
Y260827D01*
X540354Y256890D01*
X558071D01*
X559055Y255906D01*
Y249213D01*
X557874Y248031D01*
X540158D01*
X538583Y246457D01*
Y220079D01*
X535827Y217323D01*
X521654D01*
X520472Y218504D01*
Y229921D01*
X519291Y231102D01*
X499606D01*
X498425Y229921D01*
Y218504D01*
X497244Y217323D01*
X488976D01*
X486221Y220079D01*
Y270669D01*
X489173Y273622D01*
X534449D01*
X536417Y271654D01*
D02*
G37*
G36*
X559055Y245276D02*
Y205906D01*
X557874Y204724D01*
X536417D01*
X535433Y203740D01*
Y197835D01*
X536417Y196850D01*
X558071D01*
X560039Y194882D01*
Y192913D01*
X558071Y190945D01*
X536417D01*
X535433Y189961D01*
Y185039D01*
X515748Y165354D01*
X495079D01*
X492126Y162402D01*
Y139764D01*
X494095Y137795D01*
X618110D01*
X620866Y135039D01*
Y127165D01*
X629528Y118504D01*
X649606D01*
X655512Y124409D01*
Y141339D01*
X653150Y143701D01*
X648425D01*
X639370Y152756D01*
X639370Y182283D01*
X649016Y191929D01*
X674606D01*
X684252Y182283D01*
Y123228D01*
X674016Y112992D01*
X488976D01*
X486221Y115748D01*
Y153543D01*
X482283Y157480D01*
Y213779D01*
X484243Y215739D01*
X498453Y215776D01*
X499213Y216535D01*
Y229134D01*
X500000Y229921D01*
X518110D01*
X518898Y229134D01*
Y216535D01*
X519602Y215831D01*
X537136Y215877D01*
X540158Y218898D01*
Y245276D01*
X541339Y246457D01*
X557874D01*
X559055Y245276D01*
D02*
G37*
G36*
Y271654D02*
Y267717D01*
X564961Y261811D01*
X579724D01*
X580709Y260827D01*
Y256890D01*
X579724Y255906D01*
X576772D01*
X575787Y254921D01*
Y251969D01*
X574803Y250984D01*
X574213D01*
X572441Y249213D01*
Y224803D01*
X573819Y223425D01*
X676181D01*
X679134Y226378D01*
Y250000D01*
X678150Y250984D01*
X670276Y250984D01*
X669291Y251969D01*
Y260827D01*
X668307D01*
X667323Y261811D01*
X649606D01*
X648622Y262795D01*
Y265748D01*
X649606Y266732D01*
X683071D01*
X684055Y267717D01*
X689961D01*
X690945Y266732D01*
Y200787D01*
X687992Y197835D01*
X592520D01*
X578937Y197835D01*
X578346Y198425D01*
Y212992D01*
X577165Y214173D01*
X570472D01*
X569193Y212894D01*
Y198327D01*
X568701Y197835D01*
X538386Y197835D01*
X537402Y198819D01*
X537402Y201772D01*
X538386Y202756D01*
X559055D01*
X561024Y204724D01*
Y256299D01*
X557480Y259842D01*
X541339Y259842D01*
X539370Y261811D01*
Y271654D01*
X541339Y273622D01*
X557087Y273622D01*
X559055Y271654D01*
D02*
G37*
G36*
X394882Y212992D02*
Y200000D01*
X398031Y196850D01*
Y186614D01*
X397638Y186221D01*
X392520D01*
X382283Y196457D01*
Y212992D01*
X383071Y213779D01*
X394094D01*
X394882Y212992D01*
D02*
G37*
G36*
X446850Y185433D02*
Y182283D01*
X446063Y181496D01*
X432283D01*
X430709Y183071D01*
X421654Y183071D01*
X421260Y183465D01*
Y184252D01*
X423228Y186221D01*
X446063D01*
X446850Y185433D01*
D02*
G37*
G36*
X625000Y190945D02*
Y168307D01*
X623032Y166339D01*
X562008D01*
X560039Y168307D01*
X560039Y183071D01*
X559055Y184055D01*
X539370Y184055D01*
X538386Y185039D01*
Y188976D01*
X539370Y189961D01*
X566929D01*
X569882Y192913D01*
X623032D01*
X625000Y190945D01*
D02*
G37*
G36*
X556102Y181102D02*
Y164370D01*
X557874Y162598D01*
X633465D01*
X635827Y160236D01*
Y143701D01*
X633858Y141732D01*
X495079D01*
Y160433D01*
X497047Y162402D01*
X517717D01*
X527559Y172244D01*
X538386Y183071D01*
X554134D01*
X556102Y181102D01*
D02*
G37*
G36*
X385433Y162598D02*
X394882D01*
X398031Y159449D01*
Y152756D01*
X392520Y147244D01*
X387008D01*
X385039Y145276D01*
Y133465D01*
X383858Y132283D01*
X379528D01*
X378346Y133465D01*
Y156693D01*
X377559Y157480D01*
X371260D01*
X370079Y158661D01*
Y163779D01*
X371260Y164961D01*
X383071D01*
X385433Y162598D01*
D02*
G37*
G36*
X413779Y159449D02*
Y152362D01*
X418504Y147638D01*
X424016D01*
X424803Y146850D01*
Y127953D01*
X424016Y127165D01*
X419291Y127165D01*
X418504Y127953D01*
Y144882D01*
X412598Y150787D01*
Y159449D01*
X412992Y159843D01*
X413386D01*
X413779Y159449D01*
D02*
G37*
G36*
X651575Y137795D02*
Y125000D01*
X648622Y122047D01*
X630905D01*
X623622Y129331D01*
X623622Y135039D01*
X626378Y137795D01*
X635827D01*
X638779Y140748D01*
X648622D01*
X651575Y137795D01*
D02*
G37*
%LPC*%
G36*
X584941Y432716D02*
X584747Y432677D01*
X584252D01*
X583268Y431693D01*
Y426575D01*
X584646Y425197D01*
X587008D01*
X589173Y423032D01*
Y405315D01*
X589754Y404734D01*
Y404715D01*
X589773D01*
X590158Y404331D01*
X594095D01*
X594479Y404715D01*
X594498D01*
Y405128D01*
X595276Y405905D01*
X599409D01*
X600394Y406890D01*
Y409646D01*
X599409Y410630D01*
X595669D01*
X594498Y411802D01*
Y411821D01*
X594488D01*
Y414558D01*
X594498D01*
Y414576D01*
X595669Y415748D01*
X599409D01*
X600394Y416732D01*
Y419488D01*
X599409Y420472D01*
X597244D01*
X593307Y424409D01*
X586614Y431102D01*
Y431890D01*
X585827Y432677D01*
X585135D01*
X584941Y432716D01*
D02*
G37*
G36*
X483760D02*
X483566Y432677D01*
X483071D01*
X482087Y431693D01*
Y426575D01*
X483071Y425591D01*
X483566D01*
X483760Y425552D01*
X483954Y425591D01*
X485433D01*
X488189Y422835D01*
Y405118D01*
X488573Y404734D01*
Y404715D01*
X488592D01*
X488976Y404331D01*
X492913D01*
X493298Y404715D01*
X493317D01*
Y405127D01*
X493701Y405512D01*
X498032D01*
X499213Y406693D01*
Y409055D01*
X498032Y410236D01*
X494095D01*
X493317Y411014D01*
Y411821D01*
X493307D01*
Y414558D01*
X493317D01*
Y415364D01*
X493701Y415748D01*
X498032Y415748D01*
X498819Y416535D01*
Y419685D01*
X498032Y420472D01*
X496063D01*
X492126Y424409D01*
X485433Y431102D01*
Y431890D01*
X484646Y432677D01*
X483954D01*
X483760Y432716D01*
D02*
G37*
G36*
X568898Y239764D02*
X564173D01*
X562992Y238583D01*
Y227559D01*
X564173Y226378D01*
X568898D01*
X570079Y227559D01*
Y238583D01*
X568898Y239764D01*
D02*
G37*
%LPD*%
D10*
X545669Y321260D02*
X552756D01*
X538386Y313976D02*
X545669Y321260D01*
X534842Y313976D02*
X538386D01*
X201083Y271850D02*
X202165D01*
X204114Y269902D01*
X216752D01*
X200689Y272244D02*
X201083Y271850D01*
X216752Y269902D02*
X217323Y270472D01*
X533465Y484252D02*
Y508268D01*
X531693Y460433D02*
X533465Y462205D01*
X405512Y351969D02*
X418504D01*
X403575Y350031D02*
X405512Y351969D01*
X403575Y345406D02*
Y350031D01*
X404724Y355906D02*
X414961D01*
X399638Y345406D02*
Y350819D01*
X404724Y355906D01*
X404331Y357874D02*
X413386D01*
X397669Y351213D02*
X404331Y357874D01*
X397669Y345406D02*
Y351213D01*
X395776Y345481D02*
Y351682D01*
X403543Y359449D02*
X411417D01*
X395776Y351682D02*
X403543Y359449D01*
X411417D02*
X426772Y374803D01*
X414961Y355906D02*
X429134Y370079D01*
X416929Y353937D02*
X430709Y367717D01*
X405118Y353937D02*
X416929D01*
X401606Y350425D02*
X405118Y353937D01*
X418504Y351969D02*
X431693Y365158D01*
X413386Y357874D02*
X427953Y372441D01*
X459449D01*
X429134Y370079D02*
X460630D01*
X430709Y367717D02*
X461811D01*
X431693Y365158D02*
X462795D01*
X426772Y374803D02*
X458268D01*
X468405Y384941D01*
Y429134D01*
X459449Y372441D02*
X470965Y383957D01*
X460630Y370079D02*
X473524Y382972D01*
X470965Y383957D02*
Y429134D01*
X473524Y382972D02*
Y429134D01*
X461811Y367717D02*
X476083Y381988D01*
Y429134D01*
X462795Y365158D02*
X478642Y381004D01*
Y429134D01*
X304724Y272835D02*
X308661Y276772D01*
X329417D02*
X345669Y293024D01*
X308661Y276772D02*
X329417D01*
X301087Y273323D02*
X306504Y278740D01*
X329158D02*
X344094Y293676D01*
X306504Y278740D02*
X329158D01*
X359055Y168504D02*
X359055Y168504D01*
X364173D01*
X617323Y435827D02*
X658661Y477165D01*
X612992Y433169D02*
X614961Y431201D01*
X673858Y288642D02*
Y303898D01*
X665866D02*
Y314291D01*
X673721Y372441D02*
X673858Y372303D01*
Y356850D02*
Y372303D01*
X665866Y356850D02*
X665866Y356850D01*
X665866Y352638D02*
Y356850D01*
X673858Y288642D02*
X673917Y288583D01*
X205020Y388583D02*
X211491D01*
X211885Y388976D02*
X212205D01*
X211491Y388583D02*
X211885Y388976D01*
X533465Y462205D02*
Y484252D01*
X511024Y439764D02*
X513779Y442520D01*
X513779D02*
X533465Y462205D01*
X511024Y430913D02*
Y439764D01*
X513779Y442520D02*
X513779D01*
X483858Y320866D02*
X485039D01*
X489961Y325787D02*
X501378D01*
X485039Y320866D02*
X489961Y325787D01*
X569685Y152913D02*
X606299D01*
X533071D02*
Y172047D01*
X533425Y152913D02*
X569685D01*
X606299D02*
X631496D01*
X541339Y180315D02*
X546850D01*
X533071Y172047D02*
X541339Y180315D01*
X533071Y152559D02*
Y152913D01*
X503543Y152559D02*
X533071D01*
X586614Y361024D02*
X603937Y378346D01*
X541732Y361024D02*
X586614D01*
X537795Y357087D02*
X541732Y361024D01*
X571260Y326772D02*
X577559Y333071D01*
X548032Y326772D02*
X571260D01*
X541142Y319882D02*
X548032Y326772D01*
X574016Y187008D02*
X598032D01*
X582382Y433791D02*
X584024Y435433D01*
X610728D01*
X582382Y429134D02*
Y433791D01*
X546850Y187008D02*
X574016D01*
X598032D02*
X605905Y179134D01*
X610630D01*
X533071Y152559D02*
X533425Y152913D01*
X500787Y148425D02*
Y149803D01*
X503543Y152559D01*
X403150Y296850D02*
Y300394D01*
X401606Y284579D02*
Y295307D01*
X403150Y296850D01*
X251772Y167165D02*
X253346Y168740D01*
X255354D01*
X308465Y221850D01*
Y271850D01*
X251772Y177008D02*
X253346Y178583D01*
X255748D02*
X304724Y227559D01*
Y272835D01*
X253346Y178583D02*
X255748D01*
X308465Y271850D02*
X311417Y274803D01*
X329676D02*
X347244Y292372D01*
X311417Y274803D02*
X329676D01*
X251772Y225984D02*
X286221D01*
X301087Y240850D02*
Y273323D01*
X286221Y225984D02*
X301087Y240850D01*
X342323Y284842D02*
X349213Y291732D01*
X342323Y269488D02*
Y284842D01*
X347244Y292372D02*
Y298695D01*
X353181Y297276D02*
X363319D01*
X349213Y291732D02*
Y293307D01*
X345669Y293024D02*
Y299348D01*
X349213Y293307D02*
X353181Y297276D01*
X344094Y293676D02*
Y300000D01*
X400000Y305906D02*
X406693Y312598D01*
X394094Y305906D02*
X400000D01*
X401575Y301969D02*
X403150Y300394D01*
X396063Y301969D02*
X401575D01*
X391732Y309449D02*
X391748Y309465D01*
Y345390D01*
X391764Y345406D01*
X388583Y291732D02*
Y299213D01*
X385433Y302362D02*
Y333465D01*
Y302362D02*
X388583Y299213D01*
Y303937D02*
X392520Y300000D01*
Y291732D02*
Y300000D01*
X388583Y303937D02*
Y334252D01*
X383890Y338945D02*
X388583Y334252D01*
X381921Y336976D02*
X385433Y333465D01*
X381921Y336976D02*
Y345406D01*
X383890Y338945D02*
Y345406D01*
X429720Y156492D02*
X433465Y160236D01*
X461024D01*
X419087Y156492D02*
X429720D01*
X294488Y299213D02*
Y328740D01*
X297638Y301181D02*
Y330686D01*
X283858Y335433D02*
X310630D01*
X279921Y331496D02*
X283858Y335433D01*
X310630D02*
X314567Y331496D01*
X267717Y335039D02*
X277165D01*
X261310Y328633D02*
X267717Y335039D01*
X277165D02*
X281693Y339567D01*
Y339665D02*
X282677Y340650D01*
X281693Y339567D02*
Y339665D01*
X282677Y340650D02*
X283858D01*
X270866D02*
X270965Y340551D01*
X277559D01*
X268898Y325984D02*
X274410Y331496D01*
X317119Y319685D02*
X351575D01*
X274410Y331496D02*
X279921D01*
X314567Y322237D02*
X317119Y319685D01*
X314567Y322237D02*
Y331496D01*
X409449Y195669D02*
Y212598D01*
X407276Y193496D02*
X409449Y195669D01*
X407276Y189406D02*
Y193496D01*
X417220Y189508D02*
Y212496D01*
X417323Y212598D01*
X417118Y189406D02*
X417220Y189508D01*
X461024Y201181D02*
Y208169D01*
X437402Y193504D02*
X447146D01*
X447244Y193405D01*
X430413Y193504D02*
X437402D01*
X409244Y182417D02*
Y189406D01*
X470866Y201279D02*
Y208268D01*
X340551Y148740D02*
X350866D01*
X351575Y148031D01*
X351102Y158740D02*
X351575Y158268D01*
X340551Y158740D02*
X351102D01*
X351339Y168740D02*
X351575Y168504D01*
X340551Y168740D02*
X351339D01*
X340551Y178740D02*
X351575D01*
X340551Y188740D02*
X351339D01*
X351575Y188976D01*
X401370Y182417D02*
Y189406D01*
X419598Y171965D02*
X424717D01*
X470276Y140748D02*
X480118D01*
X480315Y140551D01*
X470276Y140748D02*
X470276Y140748D01*
X452559Y140748D02*
X470276D01*
X441339Y137500D02*
X450984D01*
X452559Y139075D01*
Y140748D01*
X461024Y160236D02*
X465354Y164567D01*
X452673Y162122D02*
X461024Y170472D01*
X424717Y162122D02*
X452673D01*
X441339Y132382D02*
Y137500D01*
X409244Y156492D02*
Y161610D01*
X359055Y158268D02*
X364173D01*
X424717Y175902D02*
X430004D01*
X433465Y172441D01*
X434221Y166566D02*
X436288D01*
X433465Y167323D02*
X434221Y166566D01*
X433465Y167323D02*
Y172441D01*
X436288Y166566D02*
X436319Y166535D01*
X465354Y164567D02*
Y179528D01*
X470866Y185039D01*
Y193799D01*
X461024Y170472D02*
Y193701D01*
X614961Y431201D02*
Y433464D01*
Y429528D02*
Y431201D01*
Y433464D02*
X617323Y435827D01*
X658661Y477165D02*
Y508268D01*
X610728Y435433D02*
X612992Y433169D01*
X526772Y422047D02*
X561417D01*
X406693Y312598D02*
Y322835D01*
X416567Y332709D02*
X424146D01*
X406693Y322835D02*
X416567Y332709D01*
X191732Y264567D02*
X192520Y263779D01*
X191732Y264567D02*
Y269685D01*
X194291Y272244D02*
X195374D01*
X191732Y269685D02*
X194291Y272244D01*
X351575Y327559D02*
X356299Y332283D01*
X351575Y319685D02*
Y327559D01*
X345669Y327953D02*
X354362Y336646D01*
X345669Y325197D02*
Y327953D01*
X348425Y322047D02*
Y327559D01*
X265158Y310039D02*
X267491Y307706D01*
Y307313D02*
Y307706D01*
Y307313D02*
X267717Y307087D01*
X262500Y310039D02*
X265158D01*
X356299Y332283D02*
X358268D01*
X348425Y327559D02*
X355543Y334677D01*
X363319D01*
X354362Y336646D02*
X363319D01*
X358268Y332283D02*
X359811Y330740D01*
X363319D01*
X511145Y333934D02*
Y336099D01*
X205000Y388563D02*
X205020Y388583D01*
X205000Y403563D02*
X205020Y403543D01*
X212205D01*
X369685Y278346D02*
Y278346D01*
X372003Y280665D02*
Y284503D01*
X369685Y278346D02*
X372003Y280665D01*
X368336Y280541D02*
X370110Y282315D01*
Y284579D01*
X367155Y280541D02*
X368336D01*
X366929Y280315D02*
X367155Y280541D01*
X372003Y284503D02*
X372079Y284579D01*
X372835Y277879D02*
X374047Y279091D01*
Y284579D01*
X372835Y277559D02*
Y277879D01*
X376000Y277575D02*
Y284563D01*
X375984Y277559D02*
X376000Y277575D01*
Y284563D02*
X376016Y284579D01*
X401606Y345406D02*
Y350425D01*
X395701Y345406D02*
X395776Y345481D01*
X283858Y340650D02*
X283957Y340551D01*
X289764D01*
X258071Y328248D02*
Y330906D01*
X267587Y340422D01*
X270638D02*
X270866Y340650D01*
X267587Y340422D02*
X270638D01*
X260039Y328248D02*
Y328488D01*
X260185Y328633D01*
X261310D01*
X262500Y321850D02*
X268701D01*
X268898Y322047D01*
X265158Y323819D02*
X267323Y325984D01*
X268898D01*
X262500Y323819D02*
X265158D01*
X263652Y325787D02*
X266929Y329065D01*
Y329134D01*
X262500Y325787D02*
X263652D01*
X266413Y317913D02*
X267003Y318504D01*
X262500Y317913D02*
X266413D01*
X267003Y318504D02*
X267323D01*
X302165Y406713D02*
X302175Y406703D01*
X307470D01*
X302215Y411762D02*
X307431D01*
X307480Y411811D01*
X302165Y411713D02*
X302215Y411762D01*
X390698Y368461D02*
Y370718D01*
X381890Y365748D02*
X387985D01*
X390698Y370718D02*
X390748Y370768D01*
X387985Y365748D02*
X390698Y368461D01*
X454103Y318929D02*
X466409Y331235D01*
X424146Y318929D02*
X454103D01*
X459193Y354468D02*
X526772Y422047D01*
X576575Y418701D02*
X579823Y421949D01*
X576378Y416535D02*
X576575Y416732D01*
Y418701D01*
X579823Y421949D02*
Y429134D01*
X530573Y411417D02*
X565748D01*
X577264Y422933D02*
Y429134D01*
X565748Y411417D02*
X577264Y422933D01*
X564929Y414142D02*
X574705Y423917D01*
X529445Y414142D02*
X564929D01*
X574705Y423917D02*
Y429134D01*
X564536Y416898D02*
X572146Y424508D01*
X528303Y416898D02*
X564536D01*
X572146Y424508D02*
Y429134D01*
X569587Y425492D02*
Y429134D01*
X527325Y419260D02*
X563354D01*
X569587Y425492D01*
X436912Y329134D02*
X449876D01*
X424146Y330740D02*
X435306D01*
X436912Y329134D01*
X424146Y328772D02*
X432646D01*
X434646Y326772D01*
X450854D01*
X431071Y326803D02*
X433465Y324410D01*
X451832D01*
X424146Y326803D02*
X431071D01*
X432677Y321654D02*
X452974D01*
X424146Y322866D02*
X424221Y322791D01*
X431540D01*
X432677Y321654D01*
X460863Y352798D02*
X527325Y419260D01*
X462534Y351128D02*
X528303Y416898D01*
X464482Y349179D02*
X529445Y414142D01*
X466409Y347253D02*
X530573Y411417D01*
X466409Y331235D02*
Y347253D01*
X464482Y333162D02*
Y349179D01*
X462534Y335110D02*
Y351128D01*
X460863Y336781D02*
Y352798D01*
X459193Y338451D02*
Y354468D01*
X452974Y321654D02*
X464482Y333162D01*
X451832Y324410D02*
X462534Y335110D01*
X450854Y326772D02*
X460863Y336781D01*
X449876Y329134D02*
X459193Y338451D01*
X458465Y441968D02*
X465846Y434587D01*
Y429134D02*
Y434587D01*
X457480Y441968D02*
X458465D01*
X559646Y441732D02*
X567028Y434350D01*
X558661Y441732D02*
X559646D01*
X567028Y429134D02*
Y434350D01*
X582382Y423917D02*
X583465Y422835D01*
X582382Y423917D02*
Y429134D01*
X583465Y418110D02*
Y422835D01*
X445668Y313024D02*
X453573Y305118D01*
X454557D01*
X424146Y313024D02*
X445668D01*
X251890Y206693D02*
X257874D01*
X251772Y206575D02*
X251890Y206693D01*
X355408Y309087D02*
X363319D01*
X355667Y307118D02*
X363319D01*
X355150Y311055D02*
X363319D01*
X344094Y300000D02*
X355150Y311055D01*
X345669Y299348D02*
X355408Y309087D01*
X347244Y298695D02*
X355667Y307118D01*
X424130Y299228D02*
X424146Y299244D01*
X417732Y299228D02*
X424130D01*
X417717Y299213D02*
X417732Y299228D01*
X540416Y363251D02*
X569944D01*
X590551Y383858D02*
X677953D01*
X569944Y363251D02*
X590551Y383858D01*
X665866Y314291D02*
X687795Y336221D01*
X677953Y383858D02*
X687795Y374016D01*
Y336221D02*
Y374016D01*
X681890Y355512D02*
Y372441D01*
X668504Y350000D02*
X676378D01*
X681890Y355512D01*
X675984Y378346D02*
X681890Y372441D01*
X603937Y378346D02*
X675984D01*
X535039Y343701D02*
Y357874D01*
X540416Y363251D01*
X537795Y343307D02*
Y357087D01*
X531102Y336614D02*
X537795Y343307D01*
X530315Y338976D02*
X535039Y343701D01*
X665866Y352638D02*
X668504Y350000D01*
X526668Y338976D02*
X530315D01*
X523044Y335352D02*
X526668Y338976D01*
X523044Y331706D02*
Y335352D01*
X523032Y331693D02*
X523044Y331706D01*
X527953Y336614D02*
X531102D01*
X526968Y335630D02*
X527953Y336614D01*
X526968Y331693D02*
Y335630D01*
X531102Y344882D02*
Y361024D01*
X533858Y363779D01*
X527953Y341732D02*
X531102Y344882D01*
X533858Y363779D02*
Y369021D01*
X526772Y341732D02*
X527953D01*
X534842Y325787D02*
Y327362D01*
X538583Y337795D02*
X542913Y342126D01*
X534842Y327362D02*
X538583Y331102D01*
Y337795D01*
X542913Y342126D02*
Y346063D01*
X533858Y369021D02*
X534621Y369783D01*
X551968Y371260D02*
X551968Y371260D01*
Y373228D01*
X553543Y374803D01*
X556053D01*
X556742Y375492D01*
X561417D01*
X534252Y371260D02*
X551968D01*
X521063Y336024D02*
X526772Y341732D01*
X521063Y331693D02*
Y336024D01*
X534842Y319882D02*
X541142D01*
X577559Y333071D02*
Y342028D01*
X534842Y317913D02*
Y319882D01*
X515158Y298228D02*
X517126D01*
X515158Y282776D02*
Y298228D01*
X515059Y282677D02*
X515158Y282776D01*
X500394Y346850D02*
Y358268D01*
Y346850D02*
X511145Y336099D01*
X502756Y360630D02*
X506988D01*
X500394Y358268D02*
X502756Y360630D01*
X474409Y318140D02*
Y321752D01*
X477983Y314567D02*
X488583D01*
X474409Y318140D02*
X477983Y314567D01*
X491929Y317913D02*
X501378D01*
X488583Y314567D02*
X491929Y317913D01*
X506988Y360630D02*
X511122Y364764D01*
X511145Y331768D02*
X511221Y331693D01*
X511122Y364764D02*
Y365158D01*
D12*
X575383Y211050D02*
X575984Y211651D01*
X575383Y205461D02*
Y211050D01*
X574016Y204095D02*
X575383Y205461D01*
X572452Y205658D02*
Y210853D01*
X571654Y211651D02*
X572452Y210853D01*
X571654Y211651D02*
Y211811D01*
X572452Y205658D02*
X574016Y204095D01*
X575984Y211651D02*
Y211811D01*
X298672Y401721D02*
X302157D01*
X292126Y403937D02*
X296457D01*
X298672Y401721D01*
X302157D02*
X302165Y401713D01*
X219291Y391732D02*
X225984D01*
X218110D02*
X219291D01*
X285827Y403937D02*
X292126D01*
X292126Y403937D01*
X216280Y393563D02*
X218110Y391732D01*
X205000Y393563D02*
X216280D01*
D14*
X216535Y260236D02*
X217323Y261024D01*
Y270472D01*
X243307Y334252D02*
X246260Y331299D01*
X243307Y340945D02*
X243701Y341339D01*
X243307Y334252D02*
Y340945D01*
X246260Y328248D02*
Y331299D01*
X239395Y332259D02*
X242544D01*
X244272Y328268D02*
Y330531D01*
X242544Y332259D02*
X244272Y330531D01*
Y328268D02*
X244291Y328248D01*
X363353Y312989D02*
X367720D01*
X371654Y291732D02*
Y309055D01*
X367720Y312989D02*
X371654Y309055D01*
X374327Y179839D02*
X391803D01*
X368573Y174085D02*
X374327Y179839D01*
X368573Y157550D02*
Y174085D01*
X227953Y307087D02*
X229134D01*
X224803Y301575D02*
X225177Y301948D01*
X231102Y308358D02*
Y310236D01*
X229134Y307087D02*
X229831D01*
X231102Y308358D01*
Y310236D02*
X234842Y313976D01*
X239862D01*
X234433Y310417D02*
X236004Y311988D01*
X234433Y304906D02*
Y310417D01*
X236004Y311988D02*
X239843D01*
X276181Y313976D02*
X276378Y313779D01*
X685354Y273542D02*
Y278685D01*
X688662Y273542D02*
Y278685D01*
X673228Y272047D02*
Y277953D01*
X677953Y272047D02*
Y277953D01*
X470866Y463386D02*
X472138Y462114D01*
X672744Y244882D02*
X674016Y243610D01*
X585433Y267323D02*
Y273228D01*
X589370Y267323D02*
Y273228D01*
X578740Y267323D02*
Y273228D01*
X568504Y267323D02*
Y273228D01*
X574803Y267323D02*
Y273228D01*
X564567Y267323D02*
Y273228D01*
X608661Y115945D02*
Y127559D01*
X567717Y115945D02*
Y127953D01*
X572047Y115945D02*
Y127953D01*
X535433Y115945D02*
Y127559D01*
X503150Y116732D02*
Y128347D01*
X394685Y382677D02*
X396260Y381102D01*
X257480Y512008D02*
X285827D01*
X399402Y189406D02*
Y201886D01*
X399520Y202004D01*
X387827Y164142D02*
X391752D01*
X385433Y166535D02*
X387827Y164142D01*
X391752D02*
X391803Y164091D01*
X509055Y432882D02*
Y436811D01*
X496063Y435039D02*
X506898D01*
X482283Y408268D02*
Y418110D01*
X398819Y373622D02*
X401575D01*
X396457Y375984D02*
X398819Y373622D01*
X210630Y304424D02*
Y305118D01*
X204724Y301969D02*
X205093Y302337D01*
X208543D02*
X210630Y304424D01*
X437795Y350394D02*
X438189Y350787D01*
X384911Y185561D02*
Y189892D01*
X378150Y194095D02*
X380709D01*
X384911Y189892D01*
X363119Y179064D02*
X378150Y194095D01*
X359379Y179064D02*
X363119D01*
X359055Y188976D02*
X359055Y188976D01*
X314432Y283465D02*
X314961D01*
X688662Y273542D02*
X688976Y273228D01*
X689764Y279786D02*
Y280315D01*
X688662Y278685D02*
X689764Y279786D01*
X685039Y273228D02*
X685354Y273542D01*
X684252Y279786D02*
X685354Y278685D01*
X684252Y279786D02*
Y280315D01*
X465415Y460963D02*
X470817Y455561D01*
X462205Y462205D02*
X463447Y460963D01*
X465415D01*
X252165Y328248D02*
Y341142D01*
X252362Y341339D01*
X617323Y435827D02*
Y436811D01*
X612992Y433169D02*
Y436811D01*
X279724Y169291D02*
X279921Y169095D01*
X373622Y231102D02*
X373622Y231102D01*
X373622Y231102D02*
Y236221D01*
X195374Y275787D02*
X200689D01*
X322008Y145276D02*
X322716D01*
X310630Y155945D02*
X311339D01*
X423622Y261811D02*
X431102D01*
X423622Y271260D02*
X431102D01*
Y261811D02*
Y271260D01*
X423622Y251969D02*
Y261811D01*
X414705Y276969D02*
X419095D01*
X411449Y280224D02*
Y284579D01*
Y280224D02*
X414705Y276969D01*
X419095D02*
X423622Y272441D01*
Y271260D02*
Y272441D01*
X409480Y284579D02*
X411449D01*
X385486Y447978D02*
X385539Y448032D01*
X385433Y441339D02*
X385486Y441392D01*
Y447978D01*
X382283Y403150D02*
X384154Y401279D01*
Y397244D02*
Y401279D01*
X471900Y298967D02*
X472047Y298819D01*
X465354Y299114D02*
X465502Y298967D01*
X461476Y293543D02*
X463386Y291634D01*
X464567D01*
X454724Y293543D02*
X461476D01*
X504429Y364961D02*
X504626Y365158D01*
X266535Y501575D02*
X269094D01*
X262008D02*
X266535D01*
X259341Y504241D02*
X260560D01*
X262008Y502794D01*
X257480Y506102D02*
Y512008D01*
Y506102D02*
X259341Y504241D01*
X262008Y501575D02*
Y502794D01*
X437319Y183776D02*
X437402Y183858D01*
X424717Y183776D02*
X437319D01*
X429610Y181807D02*
X436221Y175197D01*
X424717Y181807D02*
X429610D01*
X436221Y175197D02*
X437402D01*
X662992Y238583D02*
Y242488D01*
X657874Y243937D02*
X661543D01*
X662992Y242488D01*
X658268Y238583D02*
Y243543D01*
X657874Y243937D02*
X658268Y243543D01*
X653543Y242488D02*
X654992Y243937D01*
X657874D01*
X653543Y238583D02*
Y242488D01*
X483858Y307480D02*
X488583D01*
X491339Y298819D02*
X496654Y304134D01*
X477559Y298819D02*
X491339D01*
X477559Y307480D02*
X477559Y307480D01*
X489961Y306102D02*
X501378D01*
X488583Y307480D02*
X489961Y306102D01*
X484055Y329724D02*
X484252Y329921D01*
X357087Y442126D02*
X366142D01*
X366535Y442520D01*
X506898Y435039D02*
X509055Y432882D01*
X511024Y430913D01*
X672441Y244882D02*
X672744D01*
X674016Y238189D02*
Y243610D01*
X503150Y220079D02*
Y226772D01*
X516142Y220079D02*
Y226772D01*
X509252Y253150D02*
X549803D01*
X323819Y416713D02*
X333287D01*
X333465Y416535D01*
X201575Y330610D02*
X201723Y330463D01*
X207726D02*
X207874Y330315D01*
X197150Y309154D02*
X201575D01*
X192126Y310630D02*
X193398Y309358D01*
X196945D01*
X197150Y309154D01*
X193307Y330315D02*
X196850Y326772D01*
X227953D02*
X234825Y319900D01*
X196850Y326772D02*
X227953D01*
X190945Y319291D02*
X192126D01*
Y322835D01*
X193701Y324410D02*
X227165D01*
X192126Y322835D02*
X193701Y324410D01*
X657874Y263937D02*
X686457D01*
X682263Y257677D02*
X687008Y262421D01*
X682263Y255885D02*
Y257677D01*
X687008Y262421D02*
Y263386D01*
X681890Y255512D02*
X682263Y255885D01*
X679649Y253543D02*
X681617Y255512D01*
X681890D01*
X672441Y253543D02*
X679649D01*
X686457Y263937D02*
X687008Y263386D01*
X615039Y253937D02*
X657874D01*
X589764Y246941D02*
Y252756D01*
X587402Y245669D02*
X588492D01*
X589764Y246941D01*
X585039Y252756D02*
Y257390D01*
X586311Y258661D01*
X587402D01*
X578221Y247118D02*
Y250920D01*
X576772Y245669D02*
X578221Y247118D01*
Y250920D02*
X579528Y252227D01*
Y252756D01*
X547728Y263150D02*
X549803D01*
X545669Y265209D02*
X547728Y263150D01*
X545669Y265209D02*
Y269291D01*
X553059Y263150D02*
X555118Y265209D01*
Y269291D01*
X549803Y263150D02*
X553059D01*
X550394Y263740D02*
Y269291D01*
X549803Y263150D02*
X550394Y263740D01*
X566535Y255512D02*
X569291Y252756D01*
X566535Y255512D02*
Y258661D01*
X563779Y252227D02*
X565087Y250920D01*
X563779Y252227D02*
Y252756D01*
X565087Y247118D02*
X566535Y245669D01*
X565087Y247118D02*
Y250920D01*
X546850Y200394D02*
X557480D01*
X163386Y248819D02*
Y255906D01*
X168110Y129921D02*
Y136024D01*
X219291Y315748D02*
Y321260D01*
X366929Y425984D02*
X380421D01*
X366535Y425591D02*
X366929Y425984D01*
X363386Y419685D02*
X366535Y422835D01*
Y425591D01*
X355432Y420393D02*
X357087Y422047D01*
X353937Y415489D02*
X355432Y416984D01*
Y420393D01*
X353937Y414961D02*
Y415489D01*
X276772Y501575D02*
X276772Y501575D01*
X276772Y506299D02*
X276772Y506299D01*
Y501575D02*
Y506299D01*
X314961Y501575D02*
Y506299D01*
X314961Y506299D02*
X314961Y506299D01*
X309842Y512032D02*
X309866Y512008D01*
X324016D01*
X295669D02*
X309819D01*
X309842Y512032D01*
X333465Y416535D02*
Y422047D01*
X492913Y226772D02*
X492913Y226772D01*
Y220866D02*
Y226772D01*
X524803Y220472D02*
Y226772D01*
X534252D02*
X534252Y226772D01*
Y220472D02*
Y226772D01*
X583465Y401181D02*
Y408268D01*
X583465Y408268D02*
X583465Y408268D01*
X482283Y418110D02*
Y423228D01*
Y401181D02*
Y408268D01*
X276378Y305906D02*
X282677D01*
X276378Y305906D02*
X276378Y305906D01*
X448032Y461909D02*
X451258Y458683D01*
Y458443D02*
X463210D01*
X448032Y455217D02*
X451258Y458443D01*
X463210Y458443D02*
X465748Y455905D01*
X451258Y458443D02*
Y458683D01*
X451258Y458443D02*
X451258D01*
X509055Y424803D02*
Y436811D01*
X513386Y424803D02*
Y436811D01*
X612992Y424803D02*
Y433169D01*
X617323Y424803D02*
Y435827D01*
X465846Y451968D02*
X468405D01*
X567028D02*
X569587D01*
X347835Y451968D02*
X348228Y452362D01*
X357087D01*
X235811Y319882D02*
X239862D01*
X235793Y319900D02*
X235811Y319882D01*
X234825Y319900D02*
X235793D01*
X256102Y324500D02*
X257177Y323425D01*
X257677D01*
X256102Y324500D02*
Y328248D01*
X257677Y314870D02*
X258752Y315945D01*
X257677Y314764D02*
Y314870D01*
X258752Y315945D02*
X262500D01*
X243898Y313976D02*
X244685Y314764D01*
X239862Y313976D02*
X243898D01*
X235039Y322835D02*
X235301D01*
X236286Y321850D01*
X239862D01*
X216535Y331496D02*
X229528D01*
X237205Y323819D02*
X239862D01*
X229528Y331496D02*
X237205Y323819D01*
X223622Y334646D02*
X229528D01*
X239843Y325807D02*
X239862Y325787D01*
X238366Y325807D02*
X239843D01*
X229528Y334646D02*
X238366Y325807D01*
X225984Y340081D02*
Y340945D01*
Y340081D02*
X228071Y337994D01*
X238681Y328248D02*
X242323D01*
X228935Y337994D02*
X238681Y328248D01*
X228071Y337994D02*
X228935D01*
X236614Y335039D02*
Y335311D01*
X233661Y317913D02*
X239862D01*
X227165Y324410D02*
X233661Y317913D01*
X225197Y321260D02*
X225571Y320886D01*
X227145D02*
X229134Y318898D01*
X225571Y320886D02*
X227145D01*
X229134Y315846D02*
Y318898D01*
X380709Y391732D02*
X389370D01*
X378043Y394398D02*
X380709Y391732D01*
X378043Y394398D02*
X378043D01*
X376772Y395669D02*
X378043Y394398D01*
X368110Y396850D02*
X368110Y396850D01*
Y390158D02*
Y396850D01*
X394685Y386319D02*
Y393012D01*
X391634Y396063D02*
X394685Y393012D01*
X391634Y396063D02*
Y397244D01*
X389370Y391732D02*
X392559Y388544D01*
Y386477D02*
X392717Y386319D01*
X392559Y386477D02*
Y388544D01*
X376772Y395669D02*
Y396850D01*
X396260Y375984D02*
X396457D01*
X390748Y381496D02*
Y386319D01*
Y381496D02*
X391142Y381102D01*
X498819Y116732D02*
Y122638D01*
X531102Y115945D02*
Y121850D01*
X604331Y115945D02*
Y121850D01*
X643150Y131339D02*
X643307Y131496D01*
X630709Y131339D02*
X643150D01*
X520866Y345699D02*
Y346850D01*
X515158Y341142D02*
X518443Y344427D01*
X519594D01*
X520866Y345699D01*
X515158Y331693D02*
Y341142D01*
X547638Y334252D02*
X550000Y331890D01*
X520866Y346850D02*
Y355118D01*
X511811Y346457D02*
X512205Y346850D01*
X521654Y355118D02*
X526378D01*
X539552Y321850D02*
X549591Y331890D01*
X553543D01*
X549803Y243150D02*
X553453D01*
X554724Y237402D02*
Y241090D01*
X545276Y237256D02*
Y241090D01*
X550000Y237256D02*
Y241090D01*
X542913Y226772D02*
X548819D01*
X488791Y249016D02*
X492626D01*
X488791Y244291D02*
X492626D01*
X488937Y253740D02*
X492626D01*
X488791Y258465D02*
X492626D01*
X488937Y267913D02*
X492626D01*
X488937Y239567D02*
X492626D01*
X488791Y263189D02*
X492626D01*
X587402Y231102D02*
Y237008D01*
X576772Y228346D02*
Y235433D01*
X596282Y273271D02*
X600539D01*
X615039Y253937D02*
Y258771D01*
X596282Y268940D02*
X600539D01*
X596282Y264609D02*
X600539D01*
Y273271D02*
X615039Y258771D01*
X596063Y260236D02*
X600320D01*
X596063Y255906D02*
X600320D01*
X596063Y251575D02*
X600320D01*
X596063Y247244D02*
X600320D01*
X596063Y242913D02*
X600320D01*
X596063Y238583D02*
X600320D01*
X596063Y234252D02*
X600320D01*
X485445Y184449D02*
X489280D01*
X485591Y175000D02*
X489280D01*
X485445Y179724D02*
X489280D01*
X485445Y198622D02*
X489280D01*
X485591Y189173D02*
X489280D01*
X485445Y193898D02*
X489280D01*
X485445Y212795D02*
X489280D01*
X485591Y203346D02*
X489280D01*
X485445Y208071D02*
X489280D01*
X551378Y209146D02*
Y212980D01*
X541929Y209146D02*
Y212835D01*
X546654Y209146D02*
Y212980D01*
X610630Y210236D02*
Y221850D01*
X614961Y215945D02*
Y221850D01*
X606299Y215945D02*
Y221850D01*
X657480Y207480D02*
Y219094D01*
X661811Y213189D02*
Y219094D01*
X653150Y213189D02*
Y219094D01*
X546850Y207087D02*
X557480D01*
X546850Y207087D02*
X546850Y207087D01*
X546850Y193701D02*
X557480D01*
X500787Y127165D02*
X502756Y125197D01*
X498425Y124803D02*
X500787Y127165D01*
X447244Y217323D02*
X447244Y217323D01*
X437205Y217717D02*
X437402Y217913D01*
X511024Y429528D02*
Y430913D01*
X482283Y435039D02*
X496063D01*
X481201Y429134D02*
Y433957D01*
X482283Y435039D01*
X176772Y316142D02*
X190945Y330315D01*
X176772Y315748D02*
Y316142D01*
X190945Y330315D02*
X192126D01*
X184246Y300782D02*
Y312593D01*
X190945Y319291D01*
X164567Y295276D02*
X178740D01*
X184246Y300782D01*
X192126Y338976D02*
X199508D01*
X200394Y338091D01*
X201575D01*
X219112Y339155D02*
X223622Y334646D01*
X216535Y341242D02*
X218622Y339155D01*
X219112D01*
X216535Y341242D02*
Y341732D01*
X210630Y315354D02*
X212636Y317360D01*
Y319588D01*
X213779Y320731D01*
Y321260D01*
X192126Y330315D02*
X193307D01*
X216535Y253150D02*
Y260236D01*
X182677Y278346D02*
X191732D01*
X194291Y275787D02*
X195374D01*
X191732Y278346D02*
X194291Y275787D01*
X264961Y247638D02*
X294094D01*
X259449Y253150D02*
X264961Y247638D01*
X250394Y253150D02*
X259449D01*
X257874Y260236D02*
X258268Y259842D01*
X250394Y253150D02*
Y260236D01*
X250394Y260236D02*
X250394Y260236D01*
X353937Y278740D02*
X355926Y276752D01*
X357500D02*
X357874Y276378D01*
X355926Y276752D02*
X357500D01*
X375984Y291732D02*
Y307480D01*
X419291Y295669D02*
X420866Y297244D01*
X424114D01*
X417717Y295669D02*
X419291D01*
X424114Y297244D02*
X424146Y297276D01*
X353937Y278740D02*
Y282283D01*
X395701Y295307D02*
X399213Y298819D01*
X395701Y264535D02*
Y295307D01*
X384646Y291732D02*
Y297638D01*
X381890Y300394D02*
X384646Y297638D01*
X381890Y300394D02*
Y332445D01*
X376016Y338319D02*
X381890Y332445D01*
X375984Y307480D02*
X378346Y309842D01*
Y330709D01*
X370476Y338580D02*
X378346Y330709D01*
X385827Y373622D02*
X387552D01*
X384918D02*
X385827D01*
X362992Y354215D02*
Y354827D01*
X563779Y465354D02*
Y472047D01*
Y461176D02*
Y465354D01*
X399213Y397244D02*
Y402227D01*
Y391622D02*
Y397244D01*
X437795Y297638D02*
X443701D01*
X436614D02*
X437795D01*
X275197Y305906D02*
X276378D01*
X408661Y271260D02*
Y272441D01*
Y264567D02*
Y271260D01*
X379445Y162122D02*
X391803D01*
X353937Y283465D02*
X363319D01*
X429528Y246457D02*
X436614D01*
X404331Y251181D02*
X411024Y244488D01*
X427559D02*
X429528Y246457D01*
X411024Y244488D02*
X427559D01*
X418836Y149493D02*
X426196D01*
X430709Y144980D01*
X431890D01*
X433071D02*
X433949Y145858D01*
Y148864D01*
X436319Y151234D01*
X431890Y144980D02*
X433071D01*
X436319Y151234D02*
Y156299D01*
X411811Y231102D02*
Y234767D01*
X409842Y236736D02*
X411811Y234767D01*
X409842Y236736D02*
Y237008D01*
X276378Y322441D02*
X276772Y322835D01*
X275197Y322441D02*
X276378D01*
X413386Y212598D02*
X413435Y212549D01*
Y205955D02*
X413484Y205906D01*
X413435Y205955D02*
Y212549D01*
X370898Y322866D02*
X372047Y324016D01*
X363563Y322866D02*
X370898D01*
X372047Y324016D02*
X374803D01*
X368142Y324835D02*
X371260Y327953D01*
X363493Y324835D02*
X368142D01*
X371260Y327953D02*
X374803D01*
X370573Y314992D02*
X371722Y316142D01*
X374803D01*
X363493Y314992D02*
X370573D01*
X363409Y315076D02*
X363493Y314992D01*
Y316961D02*
X368535D01*
X371654Y320079D01*
X374803D01*
X363353Y338580D02*
X370476D01*
X363319Y313024D02*
X363353Y312989D01*
X363319Y338614D02*
X363353Y338580D01*
X404331Y251181D02*
Y255906D01*
X395701Y264535D02*
X404331Y255906D01*
X440059Y235827D02*
Y243012D01*
X436614Y246457D02*
X440059Y243012D01*
X359055Y148031D02*
Y149183D01*
X359933Y150061D01*
X361084D01*
X368573Y157550D01*
X419087Y202847D02*
X420965Y204724D01*
Y205906D01*
X413484Y204724D02*
X415150Y203059D01*
X413484Y204724D02*
Y205906D01*
X419087Y189406D02*
Y202847D01*
X415150Y189406D02*
Y203059D01*
X364075Y223524D02*
X364173Y223425D01*
X354724Y223524D02*
X364075D01*
X373622Y223622D02*
X382874D01*
X383071Y223819D01*
X392913Y223622D02*
X402264D01*
X402362Y223524D01*
X411811Y223622D02*
X421260D01*
X447244Y200886D02*
Y209842D01*
X447244Y209842D01*
X437402Y200984D02*
Y210433D01*
X359055Y178740D02*
X359379Y179064D01*
X386697Y183776D02*
X391803D01*
X384911Y185561D02*
X386697Y183776D01*
X384646Y172047D02*
Y174803D01*
X383001Y176448D02*
X384646Y174803D01*
Y172047D02*
X386646Y170047D01*
X391752D01*
X391803Y169996D01*
X379753Y176448D02*
X383001D01*
X379528Y176673D02*
X379753Y176448D01*
X398425Y143701D02*
X399606D01*
X401370Y145465D02*
Y156492D01*
X399606Y143701D02*
X401370Y145465D01*
X391732Y143799D02*
X399402Y151469D01*
Y156492D01*
X390551Y143799D02*
X391732D01*
X405256Y156441D02*
X405307Y156492D01*
X404331Y127953D02*
Y152203D01*
X405256Y153128D02*
Y156441D01*
X404331Y152203D02*
X405256Y153128D01*
X407327Y152909D02*
X407874Y152362D01*
X407327Y152909D02*
Y156441D01*
X407874Y127953D02*
Y152362D01*
X379134Y161811D02*
X379445Y162122D01*
X397433Y153972D02*
Y156492D01*
X381496Y148819D02*
X392280D01*
X397433Y153972D01*
X381496Y148819D02*
Y155512D01*
X372441Y161811D02*
X379134D01*
X470817Y452116D02*
Y455561D01*
Y452116D02*
X470965Y451968D01*
X473524D02*
Y456970D01*
X472138Y458355D02*
Y462114D01*
Y458355D02*
X473524Y456970D01*
X568110Y460591D02*
X572146Y456555D01*
X563779Y461176D02*
X564365Y460591D01*
X568110D01*
X574705Y451968D02*
Y458524D01*
X572441Y460787D02*
X574705Y458524D01*
X572441Y465354D02*
X572441Y465354D01*
X572441Y460787D02*
Y465354D01*
X563779Y472047D02*
X563779Y472047D01*
X548425Y461909D02*
X549303Y461031D01*
Y460047D02*
X551870Y457480D01*
X547244Y461909D02*
X548425D01*
X549303Y460047D02*
Y461031D01*
X548425Y454035D02*
X551870Y457480D01*
X563583D01*
X567028Y454035D01*
X547244D02*
X548425D01*
X567028Y451968D02*
Y454035D01*
X446850Y461909D02*
X448032D01*
X446850Y455217D02*
X448032D01*
X465748Y452067D02*
Y455905D01*
Y452067D02*
X465846Y451968D01*
X462598Y463779D02*
X462992Y463386D01*
X462598Y463779D02*
Y469685D01*
X471654Y463386D02*
X472047Y463779D01*
X239370Y332283D02*
X239395Y332259D01*
X339866Y314567D02*
X343960D01*
X344747Y313779D01*
X345276D01*
X269094Y312008D02*
X275197Y305906D01*
X262500Y312008D02*
X269094D01*
X262639Y308071D02*
X262686Y308024D01*
X262500Y308071D02*
X262639D01*
X262686Y306606D02*
Y308024D01*
X275106Y298516D02*
X276378Y297244D01*
X352716Y338614D02*
X363319D01*
X339779Y325677D02*
X352716Y338614D01*
X355512Y317323D02*
Y317570D01*
X358840Y320898D01*
X363319D01*
X415370Y284594D02*
Y291323D01*
X415354Y291339D02*
X415370Y291323D01*
Y284594D02*
X415386Y284579D01*
X511145Y331768D02*
X511255Y331658D01*
Y327328D02*
X513386Y325197D01*
X511145Y331768D02*
Y333934D01*
X511255Y327328D02*
Y331658D01*
X509252Y324868D02*
X510630Y323490D01*
X509252Y324868D02*
Y331693D01*
X510630Y323228D02*
Y323490D01*
X507249Y331658D02*
X507283Y331693D01*
X507249Y322997D02*
Y331658D01*
X507087Y322835D02*
X507249Y322997D01*
X358168Y326803D02*
X363075D01*
X357087Y325984D02*
X357349D01*
X358168Y326803D01*
X358105Y328772D02*
X363104D01*
X357087Y329528D02*
X357349D01*
X358105Y328772D01*
X270079Y405905D02*
Y407509D01*
X275127Y405803D02*
X294217Y386713D01*
X266564Y411024D02*
X270079Y407509D01*
X253937Y411024D02*
X266564D01*
X270079Y405905D02*
X270181Y405803D01*
X275127D01*
X294217Y386713D02*
X302165D01*
X661811Y168110D02*
Y174016D01*
X653150Y168110D02*
Y174016D01*
X657480Y168110D02*
Y179724D01*
X392913Y231102D02*
Y237008D01*
X354724Y231004D02*
Y236910D01*
X256102Y328248D02*
Y332480D01*
X258268Y334646D01*
X254134Y328248D02*
Y334187D01*
X254724Y334777D01*
Y335039D01*
X249792Y333631D02*
Y334854D01*
X249606Y335039D02*
X249792Y334854D01*
Y333631D02*
X250177Y333246D01*
Y328268D02*
Y333246D01*
X246063Y335039D02*
X246134D01*
X248209Y332965D01*
Y328268D02*
Y332965D01*
Y328268D02*
X248228Y328248D01*
X250177Y328268D02*
X250197Y328248D01*
X270866Y348130D02*
Y354035D01*
X366026Y351181D02*
X370079D01*
X372079Y345406D02*
Y349181D01*
X370079Y351181D02*
X372079Y349181D01*
X364264Y352943D02*
X366026Y351181D01*
X364264Y352943D02*
Y353555D01*
X362992Y354827D02*
X364264Y353555D01*
X362992Y354827D02*
Y355906D01*
X374047Y345406D02*
Y350756D01*
X372441Y355906D02*
X372765Y355582D01*
Y352039D02*
Y355582D01*
Y352039D02*
X374047Y350756D01*
X311221Y477953D02*
Y483071D01*
X273031Y478543D02*
Y483071D01*
X272835Y482874D02*
X273031Y483071D01*
X344776Y440818D02*
X346190D01*
X344094Y441499D02*
Y441732D01*
Y441499D02*
X344776Y440818D01*
X346190D02*
X348031Y438976D01*
X348031D01*
X340354Y451968D02*
X347835D01*
X338189D02*
X340354D01*
X331890Y445669D02*
X338189Y451968D01*
X331890Y441043D02*
Y445669D01*
X365354Y452362D02*
X366535Y451181D01*
X357087Y452362D02*
X365354D01*
X366535Y451181D02*
X379630D01*
X401090Y408366D02*
X401394D01*
X402272Y405471D02*
Y407488D01*
Y405471D02*
X403937Y403805D01*
X401394Y408366D02*
X402272Y407488D01*
X398425Y403015D02*
Y403543D01*
Y403015D02*
X399213Y402227D01*
X409055Y403543D02*
X413779D01*
X418110Y399213D01*
Y393307D02*
Y399213D01*
X412598Y387795D02*
X418110Y393307D01*
X406693Y387795D02*
X412598D01*
X389239Y363386D02*
X397342D01*
X388583Y362992D02*
X388845D01*
X385858Y345406D02*
Y360268D01*
X388583Y362992D01*
X388845D02*
X389239Y363386D01*
X389795Y354888D02*
X390551Y355643D01*
Y355906D01*
X389795Y352132D02*
Y354888D01*
X389795Y352132D02*
X389795Y352132D01*
X389712Y345496D02*
X389795Y345580D01*
Y352132D01*
X400202Y358661D02*
X401181Y359641D01*
X387827Y356724D02*
X389764Y358661D01*
X400202D01*
X387827Y345406D02*
Y356724D01*
X403369Y369905D02*
X411811D01*
X369685Y403543D02*
Y408276D01*
X377559Y403543D02*
Y408276D01*
X409055Y403543D02*
Y408276D01*
X403937Y403543D02*
Y403805D01*
X385433Y405380D02*
Y408276D01*
Y405380D02*
X387008Y403805D01*
Y403543D02*
Y403805D01*
X393216Y408366D02*
X393307Y408276D01*
Y403543D02*
Y408276D01*
X411860Y370128D02*
X417667D01*
X411811Y370177D02*
X411860Y370128D01*
X396654Y364075D02*
X397342Y363386D01*
X396654Y364075D02*
Y370768D01*
X401181Y367717D02*
X403369Y369905D01*
X401181Y359641D02*
Y367717D01*
X398811Y369905D02*
X403369D01*
X398622Y370094D02*
Y370768D01*
Y370094D02*
X398811Y369905D01*
X369957Y365748D02*
X373228D01*
X367717Y367717D02*
X367988D01*
X369957Y365748D01*
X459980Y318799D02*
X464961D01*
X454724Y313543D02*
X459980Y318799D01*
X428378Y338614D02*
X431496Y341732D01*
X424146Y338614D02*
X428378D01*
X431496Y341732D02*
X437795D01*
X433433Y336646D02*
X435503Y334576D01*
X424146Y336646D02*
X433433D01*
X437472Y334576D02*
X438189Y333858D01*
X435503Y334576D02*
X437472D01*
X481348Y424163D02*
Y428986D01*
Y424163D02*
X482283Y423228D01*
X481201Y429134D02*
X481348Y428986D01*
X583465Y408268D02*
Y418110D01*
X351575Y255020D02*
Y260925D01*
X363284Y291335D02*
X363319Y291370D01*
X364567Y265354D02*
Y271260D01*
X363319Y272508D02*
X364567Y271260D01*
X348425Y307087D02*
Y309055D01*
X339780Y298442D02*
X348425Y307087D01*
X339780Y294969D02*
Y298442D01*
X342241Y304811D02*
X345276Y307846D01*
Y308268D01*
X348425Y309055D02*
X352394Y313024D01*
X339779Y294969D02*
X339780Y294969D01*
X339779Y304811D02*
X342241D01*
X352394Y313024D02*
X363319D01*
X352756Y290945D02*
X353937D01*
X315453Y268406D02*
X351575D01*
X354007Y292056D02*
X357804D01*
X359087Y293339D02*
X363319D01*
X357804Y292056D02*
X359087Y293339D01*
X363319Y283465D02*
Y291370D01*
Y272508D02*
Y283465D01*
X363319Y283465D02*
X363319Y283465D01*
X521260Y346457D02*
X526378D01*
X542520Y337402D02*
X546457Y341339D01*
X554331D01*
X542520Y328399D02*
Y337402D01*
X537974Y323853D02*
X542520Y328399D01*
X562508Y307390D02*
Y308177D01*
X556299Y306693D02*
X561811D01*
X562508Y307390D01*
Y308177D02*
X563779Y309449D01*
X561922Y312992D02*
X562508Y312406D01*
Y310720D02*
X563779Y309449D01*
X562508Y310720D02*
Y312406D01*
X556299Y312992D02*
X561922D01*
X578092Y349606D02*
X578141Y349557D01*
X583415D02*
X583465Y349606D01*
X415201Y153128D02*
Y156441D01*
Y153128D02*
X418836Y149493D01*
X415150Y156492D02*
X415201Y156441D01*
X413232Y151728D02*
X418413Y146547D01*
X413232Y151728D02*
Y156441D01*
X418413Y146547D02*
X420382D01*
X421654Y145276D01*
Y135827D02*
Y143701D01*
Y129528D02*
Y135827D01*
X413181Y156492D02*
X413232Y156441D01*
X421654Y144095D02*
Y145276D01*
X412992Y144095D02*
Y145276D01*
X411213Y147055D02*
Y156492D01*
Y147055D02*
X412992Y145276D01*
X442126Y117717D02*
X442913Y118504D01*
X424409Y117717D02*
X442126D01*
X372047D02*
X388976D01*
X395018D02*
X398533Y121231D01*
Y122155D01*
X388976Y117717D02*
X395018D01*
X398533Y122155D02*
X404331Y127953D01*
X407874D02*
X418110Y117717D01*
X424409D01*
X407276Y156492D02*
X407327Y156441D01*
X390858Y201886D02*
Y210154D01*
X390858Y210154D02*
X390858Y210154D01*
Y200705D02*
Y201886D01*
X397433Y189406D02*
Y194130D01*
X390858Y200705D02*
X397433Y194130D01*
X390547Y201575D02*
X390858Y201886D01*
X384646Y201575D02*
X390547D01*
X400110Y210473D02*
X400347Y210236D01*
X384646D02*
X390776D01*
X390858Y210154D01*
X239764Y277165D02*
X241732Y275197D01*
Y270472D02*
Y275197D01*
X239764Y277165D02*
Y281791D01*
X224803Y270472D02*
X233071D01*
X233858Y260236D02*
Y269685D01*
X233071Y270472D02*
X233858Y269685D01*
X250000Y270472D02*
X250394Y270079D01*
Y260236D02*
Y270079D01*
X258661Y270472D02*
X258661Y270472D01*
X262598D01*
X267323Y275197D02*
Y282185D01*
X262598Y270472D02*
X267323Y275197D01*
X258071Y305610D02*
X260039D01*
Y304390D02*
Y305610D01*
X267323Y289665D02*
Y297106D01*
X260039Y304390D02*
X267323Y297106D01*
X256102Y298388D02*
Y305610D01*
X257480Y289764D02*
Y297010D01*
X256102Y298388D02*
X257480Y297010D01*
X249213Y295238D02*
X254134Y300159D01*
Y305610D01*
X249213Y289764D02*
Y295238D01*
X242323Y305610D02*
X244291D01*
X239764Y301831D02*
X242323Y304390D01*
Y305610D01*
X239764Y289272D02*
Y301831D01*
X221654Y298031D02*
X227559D01*
X219291Y291339D02*
X219438Y291485D01*
Y295816D01*
X221654Y298031D01*
X227559D02*
X234433Y304906D01*
X229921Y296457D02*
X236221Y302756D01*
X229921Y291339D02*
Y296457D01*
X236221Y302756D02*
Y309055D01*
X237185Y310020D02*
X239843D01*
X236221Y309055D02*
X237185Y310020D01*
X239843D02*
X239862Y310039D01*
X239843Y311988D02*
X239862Y312008D01*
X219291Y315748D02*
X219488Y315945D01*
X228937D01*
X229134Y315748D01*
X210630Y315354D02*
X219291D01*
X229134Y315945D02*
X239862D01*
X262500Y313976D02*
X276181D01*
X268701Y315945D02*
X275197Y322441D01*
X262500Y315945D02*
X268701D01*
X243701Y341339D02*
X252362D01*
Y345669D02*
X254331Y347638D01*
X252362Y341339D02*
Y345669D01*
X247638Y351181D02*
X248683D01*
X253014Y355512D01*
X253150D01*
X347244Y346850D02*
X354331D01*
X381496Y372835D02*
X382118Y373456D01*
X384752D01*
X378520Y372835D02*
X381496D01*
X367717Y374410D02*
X374803D01*
X367717Y383071D02*
X374803D01*
X396654Y389063D02*
X399213Y391622D01*
X496654Y304134D02*
X501378D01*
X437795Y288976D02*
X438253Y289435D01*
X436614Y288976D02*
X437795D01*
X379953Y284579D02*
Y291665D01*
X315354Y268504D02*
X315453Y268406D01*
X339779Y314653D02*
X339866Y314567D01*
X376016Y338319D02*
Y345406D01*
X339779Y324496D02*
Y325677D01*
X301870Y283465D02*
Y292264D01*
X304724Y295118D01*
X305512D01*
X305908Y315118D02*
X309350Y318561D01*
Y326772D01*
X305512Y315118D02*
X305908D01*
X322358Y294575D02*
X331906D01*
X332299Y294969D01*
X332063Y304575D02*
X332299Y304811D01*
X322358Y304575D02*
X332063D01*
X322358Y314575D02*
X332221D01*
X332299Y314653D01*
X322358Y324575D02*
X332221D01*
X332299Y324496D01*
X322358Y334575D02*
X332063D01*
X332299Y334339D01*
X185551Y382953D02*
X187795Y380709D01*
X191831D01*
X185551Y382953D02*
Y388563D01*
X253543Y375591D02*
X270079D01*
X253543Y411417D02*
X253937Y411024D01*
X293917Y381713D02*
X302165D01*
X270079Y375591D02*
X287795D01*
X293917Y381713D01*
X440453Y236221D02*
X476772D01*
X440059Y235827D02*
X440453Y236221D01*
X387827Y279953D02*
Y284579D01*
X383858Y275984D02*
X387827Y279953D01*
X383858Y272047D02*
Y275984D01*
X379528Y271260D02*
X383071D01*
X383858Y272047D01*
X388189Y271260D02*
Y276772D01*
X389795Y278378D02*
Y284579D01*
X388189Y276772D02*
X389795Y278378D01*
X388189Y265354D02*
Y271260D01*
X396457Y249016D02*
Y256693D01*
X393732Y260598D02*
Y284579D01*
Y260598D02*
X396457Y257874D01*
Y256693D02*
Y257874D01*
X391764Y251986D02*
Y284579D01*
X391839Y246120D02*
Y251911D01*
X388189Y242323D02*
X391764Y245898D01*
Y251986D02*
X391839Y251911D01*
X391764Y245898D02*
Y246045D01*
X391839Y246120D01*
X387795Y242323D02*
X388189D01*
X378346Y242126D02*
X387598D01*
X387795Y242323D01*
X572146Y451968D02*
Y456555D01*
X380421Y448032D02*
X382980D01*
X379630Y451181D02*
X380421Y450390D01*
Y448032D02*
Y450390D01*
X395776Y421846D02*
Y425984D01*
X396361Y421260D02*
X405905D01*
X408965Y418201D01*
X395776Y421846D02*
X396361Y421260D01*
X377468Y415846D02*
X377588Y415965D01*
Y418139D02*
X378364Y418915D01*
X383088D01*
X377588Y415965D02*
Y418139D01*
X385467Y421294D02*
Y425912D01*
X383088Y418915D02*
X385467Y421294D01*
X388026Y420310D02*
Y425912D01*
X385343Y415846D02*
X385855Y416359D01*
Y418139D02*
X388026Y420310D01*
X385855Y416359D02*
Y418139D01*
X395537Y419030D02*
X400262D01*
X393216Y421350D02*
X395537Y419030D01*
X393216Y421350D02*
Y425984D01*
X392885Y416178D02*
X393216Y415846D01*
X392885Y416178D02*
Y418139D01*
X390675Y420348D02*
X392885Y418139D01*
X390675Y420348D02*
Y425967D01*
X401090Y415846D02*
Y418201D01*
X400262Y419030D02*
X401090Y418201D01*
X408965Y415846D02*
Y418201D01*
X390657Y425984D02*
X390675Y425967D01*
X388026Y425912D02*
X388098Y425984D01*
X385467Y425912D02*
X385539Y425984D01*
X369595Y415846D02*
X369623Y415875D01*
X372744Y421260D02*
X382395D01*
X369623Y418139D02*
X372744Y421260D01*
X369623Y415875D02*
Y418139D01*
X382395Y421260D02*
X382980Y421846D01*
Y425984D01*
X388591Y386508D02*
Y387492D01*
X386406Y388397D02*
X387685D01*
X388591Y387492D01*
X386221Y388583D02*
X386406Y388397D01*
X388591Y386508D02*
X388779Y386319D01*
X384752Y373456D02*
X384918Y373622D01*
X378217Y373138D02*
X378520Y372835D01*
X374803Y374410D02*
X376075Y373138D01*
X378217D01*
X387552Y373622D02*
X387658Y373728D01*
X388145Y373925D02*
X389083D01*
X391142Y375984D01*
X387658Y373728D02*
X387948D01*
X388145Y373925D01*
X382025Y384252D02*
X382812Y383465D01*
X385827D01*
X375984Y384252D02*
X382025D01*
X396654Y386319D02*
Y389063D01*
X323819Y416713D02*
X323907Y416624D01*
X363251Y345669D02*
X370027D01*
X370110Y345406D02*
Y345586D01*
X370027Y345669D02*
X370110Y345586D01*
X362070Y346850D02*
X363251Y345669D01*
X354331Y346850D02*
X362070D01*
X561811Y294094D02*
X563779Y296063D01*
X556299Y294094D02*
X561811D01*
X563779Y296063D02*
Y297244D01*
X561811Y300394D02*
X563779Y298425D01*
X556299Y300394D02*
X561811D01*
X563779Y297244D02*
Y298425D01*
X554331Y341339D02*
Y350000D01*
X534877Y323853D02*
X537974D01*
X534842Y323819D02*
X534877Y323853D01*
X534842Y321850D02*
X539552D01*
X520866Y346850D02*
X521260Y346457D01*
X405543Y275559D02*
X408661Y272441D01*
X443799Y156299D02*
X444193Y156693D01*
X251772Y216417D02*
X251890Y216535D01*
X251772Y190000D02*
X252008Y189764D01*
X362992Y355906D02*
Y362992D01*
X432252Y293339D02*
X436614Y288976D01*
X424146Y293339D02*
X432252D01*
X434283Y295307D02*
X436614Y297638D01*
X424146Y295307D02*
X434283D01*
X407512Y279890D02*
X414961Y272441D01*
X407512Y279890D02*
Y284579D01*
X405543Y275559D02*
Y284579D01*
X414961Y271260D02*
Y272441D01*
X437402Y183858D02*
X444488D01*
X199311Y380709D02*
X199311Y380709D01*
X253543Y402756D02*
X253543Y402756D01*
X253543Y384252D02*
X253543Y384252D01*
X344094Y420214D02*
X345276Y419032D01*
X344094Y420214D02*
Y424409D01*
X345276Y418504D02*
Y419032D01*
X331890Y427658D02*
Y433563D01*
X348031Y438448D02*
Y438976D01*
X344094Y433071D02*
X350000D01*
X352342Y437028D02*
X353307D01*
X357087Y432283D02*
Y433248D01*
X353307Y437028D02*
X357087Y433248D01*
X351969Y437402D02*
X352342Y437028D01*
X344094Y424409D02*
X350787D01*
X366535Y434252D02*
X373622D01*
X366535Y442520D02*
X366535Y442520D01*
X373622D01*
X547244Y469390D02*
Y475295D01*
X374803Y383071D02*
X375984Y384252D01*
X527328Y308036D02*
X534808D01*
X534842Y308071D01*
X527165Y307874D02*
X527328Y308036D01*
X526772Y316142D02*
X526968Y315945D01*
X534842D01*
X448622Y269488D02*
X448819Y269685D01*
X470276Y174213D02*
X470472Y174409D01*
X452362Y174409D02*
X452559Y174213D01*
X381496Y134646D02*
Y140551D01*
X241339Y260236D02*
X241339Y260236D01*
X225197Y260236D02*
X225197Y260236D01*
X283858Y348130D02*
Y354035D01*
X339779Y334339D02*
Y340244D01*
X437795Y341732D02*
X437795Y341732D01*
X444488D01*
X354331Y355512D02*
Y361417D01*
D16*
X481201Y466634D02*
X482677Y468110D01*
X481201Y451968D02*
Y466634D01*
X482677Y468110D02*
Y508268D01*
X496457Y471654D02*
Y508268D01*
X483760Y451968D02*
Y458957D01*
X496457Y471654D01*
X583858Y477559D02*
Y508268D01*
X579823Y473524D02*
X583858Y477559D01*
X579823Y451968D02*
Y473524D01*
X570079Y480709D02*
Y508268D01*
Y480709D02*
X577264Y473524D01*
Y451968D02*
Y473524D01*
X621260Y492126D02*
Y508268D01*
X584941Y455807D02*
X621260Y492126D01*
X584941Y451968D02*
Y455807D01*
X582382Y467333D02*
X607480Y492431D01*
Y508268D01*
X582382Y451968D02*
Y467333D01*
X476083Y451968D02*
Y471949D01*
X445276Y502756D02*
Y508268D01*
Y502756D02*
X476083Y471949D01*
X478642Y451968D02*
Y477151D01*
X459055Y496738D02*
X478642Y477151D01*
X459055Y496738D02*
Y508268D01*
D21*
X556299Y306693D02*
D03*
X550000D02*
D03*
X556299Y312992D02*
D03*
X550000D02*
D03*
X556299Y300394D02*
D03*
X550000D02*
D03*
Y294094D02*
D03*
X556299D02*
D03*
D22*
X401575Y373622D02*
D03*
Y375590D02*
D03*
Y377559D02*
D03*
Y379528D02*
D03*
Y381496D02*
D03*
Y383465D02*
D03*
X385827D02*
D03*
Y381496D02*
D03*
Y379528D02*
D03*
Y377559D02*
D03*
Y375590D02*
D03*
Y373622D02*
D03*
D23*
X398622Y386319D02*
D03*
X396654D02*
D03*
X394685D02*
D03*
X392717D02*
D03*
X390748D02*
D03*
X388779D02*
D03*
Y370768D02*
D03*
X390748D02*
D03*
X392717D02*
D03*
X394685D02*
D03*
X396654D02*
D03*
X398622D02*
D03*
D24*
X260039Y328248D02*
D03*
X258071D02*
D03*
X256102D02*
D03*
X254134D02*
D03*
X252165D02*
D03*
X250197D02*
D03*
X248228D02*
D03*
X246260D02*
D03*
X244291D02*
D03*
X242323D02*
D03*
Y305610D02*
D03*
X244291D02*
D03*
X246260D02*
D03*
X248228D02*
D03*
X250197D02*
D03*
X252165D02*
D03*
X254134D02*
D03*
X256102D02*
D03*
X258071D02*
D03*
X260039D02*
D03*
D25*
X239862Y325787D02*
D03*
Y323819D02*
D03*
Y321850D02*
D03*
Y319882D02*
D03*
Y317913D02*
D03*
Y315945D02*
D03*
Y312008D02*
D03*
Y310039D02*
D03*
Y308071D02*
D03*
X262500D02*
D03*
Y310039D02*
D03*
Y312008D02*
D03*
Y313976D02*
D03*
Y315945D02*
D03*
Y317913D02*
D03*
Y319882D02*
D03*
Y321850D02*
D03*
Y323819D02*
D03*
Y325787D02*
D03*
X239862Y313976D02*
D03*
D26*
X251181Y316929D02*
D03*
D27*
X567028Y429134D02*
D03*
X569587D02*
D03*
X572146D02*
D03*
X574705D02*
D03*
X577264D02*
D03*
X579823D02*
D03*
X582382D02*
D03*
X584941D02*
D03*
X567028Y451968D02*
D03*
X569587D02*
D03*
X572146D02*
D03*
X574705D02*
D03*
X577264D02*
D03*
X579823D02*
D03*
X582382D02*
D03*
X584941D02*
D03*
X483760D02*
D03*
X481201D02*
D03*
X478642D02*
D03*
X476083D02*
D03*
X473524D02*
D03*
X470965D02*
D03*
X468405D02*
D03*
X465846D02*
D03*
X483760Y429134D02*
D03*
X481201D02*
D03*
X478642D02*
D03*
X476083D02*
D03*
X473524D02*
D03*
X470965D02*
D03*
X468405D02*
D03*
X465846D02*
D03*
D28*
X575984Y440551D02*
D03*
X474803D02*
D03*
D29*
X546850Y207087D02*
D03*
Y200394D02*
D03*
Y193701D02*
D03*
Y187008D02*
D03*
Y180315D02*
D03*
D30*
X657874Y243937D02*
D03*
Y253937D02*
D03*
Y263937D02*
D03*
D31*
X302165Y411713D02*
D03*
X323819Y401713D02*
D03*
X302165Y416713D02*
D03*
Y406713D02*
D03*
Y401713D02*
D03*
X323819Y406713D02*
D03*
Y396713D02*
D03*
Y391713D02*
D03*
X302165D02*
D03*
X323819Y381713D02*
D03*
X302165Y396713D02*
D03*
Y386713D02*
D03*
X323819D02*
D03*
X302165Y381713D02*
D03*
X323819Y411713D02*
D03*
Y416713D02*
D03*
D32*
X421260Y231102D02*
D03*
Y223622D02*
D03*
X447244Y217323D02*
D03*
Y209842D02*
D03*
X383071Y231299D02*
D03*
Y223819D02*
D03*
X364173Y223425D02*
D03*
Y230906D02*
D03*
X437402Y210433D02*
D03*
Y217913D02*
D03*
X402362Y231004D02*
D03*
Y223524D02*
D03*
D33*
X200689Y275787D02*
D03*
X195374D02*
D03*
Y272244D02*
D03*
X200689D02*
D03*
D34*
X198031Y269193D02*
D03*
Y278839D02*
D03*
D35*
X204823Y274016D02*
D03*
X191240D02*
D03*
D36*
X370110Y284579D02*
D03*
Y345406D02*
D03*
X372079D02*
D03*
X374047D02*
D03*
X376016D02*
D03*
X377984D02*
D03*
X379953D02*
D03*
X381921D02*
D03*
X383890D02*
D03*
X385858D02*
D03*
X387827D02*
D03*
X389795D02*
D03*
X391764D02*
D03*
X393732D02*
D03*
X395701D02*
D03*
X397669D02*
D03*
X399638D02*
D03*
X401606D02*
D03*
X403575D02*
D03*
X405543D02*
D03*
X407512D02*
D03*
X409480D02*
D03*
X411449D02*
D03*
X413417D02*
D03*
X415386D02*
D03*
X417354D02*
D03*
Y284579D02*
D03*
X415386D02*
D03*
X413417D02*
D03*
X411449D02*
D03*
X409480D02*
D03*
X407512D02*
D03*
X405543D02*
D03*
X403575D02*
D03*
X401606D02*
D03*
X399638D02*
D03*
X397669D02*
D03*
X395701D02*
D03*
X393732D02*
D03*
X391764D02*
D03*
X389795D02*
D03*
X387827D02*
D03*
X385858D02*
D03*
X383890D02*
D03*
X381921D02*
D03*
X379953D02*
D03*
X377984D02*
D03*
X376016D02*
D03*
X374047D02*
D03*
X372079D02*
D03*
D37*
X363319Y291370D02*
D03*
Y293339D02*
D03*
Y295307D02*
D03*
Y297276D02*
D03*
Y299244D02*
D03*
Y301213D02*
D03*
Y303181D02*
D03*
Y305150D02*
D03*
Y307118D02*
D03*
Y309087D02*
D03*
Y311055D02*
D03*
Y313024D02*
D03*
Y314992D02*
D03*
Y316961D02*
D03*
Y318929D02*
D03*
Y320898D02*
D03*
Y322866D02*
D03*
Y324835D02*
D03*
Y326803D02*
D03*
Y328772D02*
D03*
Y330740D02*
D03*
Y332709D02*
D03*
Y334677D02*
D03*
Y336646D02*
D03*
Y338614D02*
D03*
X424146D02*
D03*
Y336646D02*
D03*
Y334677D02*
D03*
Y332709D02*
D03*
Y330740D02*
D03*
Y328772D02*
D03*
Y326803D02*
D03*
Y324835D02*
D03*
Y322866D02*
D03*
Y320898D02*
D03*
Y318929D02*
D03*
Y316961D02*
D03*
Y314992D02*
D03*
Y313024D02*
D03*
Y311055D02*
D03*
Y309087D02*
D03*
Y307118D02*
D03*
Y305150D02*
D03*
Y303181D02*
D03*
Y301213D02*
D03*
Y299244D02*
D03*
Y297276D02*
D03*
Y295307D02*
D03*
Y293339D02*
D03*
Y291370D02*
D03*
D38*
X271654Y512032D02*
D03*
X309842D02*
D03*
D39*
X266535Y501575D02*
D03*
X269094D02*
D03*
X276772D02*
D03*
X274213D02*
D03*
X271654D02*
D03*
X304724D02*
D03*
X307283D02*
D03*
X314961D02*
D03*
X312402D02*
D03*
X309842D02*
D03*
D40*
X387795Y249016D02*
D03*
X396457D02*
D03*
Y242323D02*
D03*
X387795D02*
D03*
D41*
X504626Y373425D02*
D03*
Y365158D02*
D03*
X511122D02*
D03*
Y373425D02*
D03*
D42*
X630709Y148189D02*
D03*
Y131339D02*
D03*
X574016Y204095D02*
D03*
Y187244D02*
D03*
D43*
X501378Y304134D02*
D03*
Y306102D02*
D03*
Y308071D02*
D03*
Y310039D02*
D03*
Y312008D02*
D03*
Y313976D02*
D03*
Y315945D02*
D03*
Y317913D02*
D03*
Y319882D02*
D03*
Y321850D02*
D03*
Y323819D02*
D03*
Y325787D02*
D03*
X534842D02*
D03*
Y323819D02*
D03*
Y321850D02*
D03*
Y319882D02*
D03*
Y317913D02*
D03*
Y315945D02*
D03*
Y313976D02*
D03*
Y312008D02*
D03*
Y310039D02*
D03*
Y308071D02*
D03*
Y306102D02*
D03*
Y304134D02*
D03*
D44*
X507283Y331693D02*
D03*
X509252D02*
D03*
X511221D02*
D03*
X513189D02*
D03*
X515158D02*
D03*
X517126D02*
D03*
X519095D02*
D03*
X521063D02*
D03*
X523032D02*
D03*
X525000D02*
D03*
X526968D02*
D03*
X528937D02*
D03*
Y298228D02*
D03*
X526968D02*
D03*
X525000D02*
D03*
X523032D02*
D03*
X521063D02*
D03*
X519095D02*
D03*
X517126D02*
D03*
X515158D02*
D03*
X513189D02*
D03*
X511221D02*
D03*
X509252D02*
D03*
X507283D02*
D03*
D45*
X163386Y248819D02*
D03*
X168110Y136024D02*
D03*
D46*
X251772Y225984D02*
D03*
Y232677D02*
D03*
Y245866D02*
D03*
Y216417D02*
D03*
Y206575D02*
D03*
Y190000D02*
D03*
Y196732D02*
D03*
Y183504D02*
D03*
Y177008D02*
D03*
Y167165D02*
D03*
Y157323D02*
D03*
D47*
X397433Y156492D02*
D03*
X399402D02*
D03*
X401370D02*
D03*
X403339D02*
D03*
X405307D02*
D03*
X407276D02*
D03*
X409244D02*
D03*
X411213D02*
D03*
X413181D02*
D03*
X415150D02*
D03*
X417118D02*
D03*
X419087D02*
D03*
Y189406D02*
D03*
X417118D02*
D03*
X415150D02*
D03*
X413181D02*
D03*
X411213D02*
D03*
X409244D02*
D03*
X407276D02*
D03*
X405307D02*
D03*
X403339D02*
D03*
X401370D02*
D03*
X399402D02*
D03*
X397433D02*
D03*
D48*
X424717Y162122D02*
D03*
Y164091D02*
D03*
Y166059D02*
D03*
Y168028D02*
D03*
Y169996D02*
D03*
Y171965D02*
D03*
Y173933D02*
D03*
Y175902D02*
D03*
Y177870D02*
D03*
Y179839D02*
D03*
Y181807D02*
D03*
Y183776D02*
D03*
X391803D02*
D03*
Y181807D02*
D03*
Y179839D02*
D03*
Y177870D02*
D03*
Y175902D02*
D03*
Y173933D02*
D03*
Y171965D02*
D03*
Y169996D02*
D03*
Y168028D02*
D03*
Y166059D02*
D03*
Y164091D02*
D03*
Y162122D02*
D03*
D49*
X511024Y458071D02*
D03*
Y436024D02*
D03*
X614961Y458071D02*
D03*
Y436024D02*
D03*
X606299Y127165D02*
D03*
Y149213D02*
D03*
X569685Y127165D02*
D03*
Y149213D02*
D03*
X533071Y127165D02*
D03*
Y149213D02*
D03*
X500787Y127165D02*
D03*
Y149213D02*
D03*
D50*
X534252Y371260D02*
D03*
X551968Y404724D02*
D03*
X534252D02*
D03*
X551968Y371260D02*
D03*
X452559Y140748D02*
D03*
X470276Y174213D02*
D03*
X452559D02*
D03*
X470276Y140748D02*
D03*
X448291Y236059D02*
D03*
X466008Y269524D02*
D03*
X448291D02*
D03*
X466008Y236059D02*
D03*
X342323Y269488D02*
D03*
X324606Y236024D02*
D03*
X342323D02*
D03*
X324606Y269488D02*
D03*
D51*
X549803Y243150D02*
D03*
Y253150D02*
D03*
Y263150D02*
D03*
D52*
X509252Y253150D02*
D03*
D53*
X395776Y448032D02*
D03*
X393216D02*
D03*
X390657D02*
D03*
X388098D02*
D03*
X385539D02*
D03*
X382980D02*
D03*
X380421D02*
D03*
X395776Y425984D02*
D03*
X393216D02*
D03*
X390657D02*
D03*
X388098D02*
D03*
X385539D02*
D03*
X382980D02*
D03*
X380421D02*
D03*
D54*
X205000Y388563D02*
D03*
Y393563D02*
D03*
Y398563D02*
D03*
Y403563D02*
D03*
X185551D02*
D03*
Y398563D02*
D03*
Y393563D02*
D03*
Y388563D02*
D03*
D55*
X608268Y337795D02*
D03*
X599606Y334449D02*
D03*
Y341142D02*
D03*
X609449Y312992D02*
D03*
X600787Y309646D02*
D03*
Y316339D02*
D03*
X279921Y169095D02*
D03*
X288583Y172441D02*
D03*
Y165748D02*
D03*
D56*
X273031Y483071D02*
D03*
X269685Y491732D02*
D03*
X276378D02*
D03*
X311221Y483071D02*
D03*
X307874Y491732D02*
D03*
X314567D02*
D03*
D57*
X657480Y208465D02*
D03*
Y179724D02*
D03*
D58*
X347835Y451968D02*
D03*
X344094Y441732D02*
D03*
X340354Y451968D02*
D03*
D59*
X610630Y174016D02*
D03*
Y212598D02*
D03*
D60*
X554331Y341339D02*
D03*
X564567D02*
D03*
X247638Y351181D02*
D03*
X237402D02*
D03*
X492913Y226772D02*
D03*
X503150D02*
D03*
D61*
X357087Y422047D02*
D03*
Y432283D02*
D03*
Y452362D02*
D03*
Y442126D02*
D03*
X288583Y313779D02*
D03*
Y324016D02*
D03*
X210630Y315354D02*
D03*
Y305118D02*
D03*
X216535Y331890D02*
D03*
Y342126D02*
D03*
X225984Y340945D02*
D03*
Y351181D02*
D03*
X219291Y291339D02*
D03*
Y281102D02*
D03*
X229921Y291339D02*
D03*
Y281102D02*
D03*
X687008Y263386D02*
D03*
Y273622D02*
D03*
X576772Y245669D02*
D03*
Y235433D02*
D03*
X566535Y245669D02*
D03*
Y235433D02*
D03*
D62*
X424409Y117717D02*
D03*
X388976D02*
D03*
D63*
X270079Y405905D02*
D03*
Y370472D02*
D03*
D64*
X561417Y368012D02*
D03*
Y375492D02*
D03*
X474409Y329232D02*
D03*
Y321752D02*
D03*
X483858Y345768D02*
D03*
Y338287D02*
D03*
X542913Y346063D02*
D03*
Y353543D02*
D03*
X577559Y342028D02*
D03*
Y349508D02*
D03*
X377468Y415846D02*
D03*
Y408366D02*
D03*
X369595Y415846D02*
D03*
Y408366D02*
D03*
X385343Y415846D02*
D03*
Y408366D02*
D03*
X393216Y415846D02*
D03*
Y408366D02*
D03*
X401090Y415846D02*
D03*
Y408366D02*
D03*
X408965Y415846D02*
D03*
Y408366D02*
D03*
X331890Y441043D02*
D03*
Y433563D02*
D03*
X201575Y316634D02*
D03*
Y309154D02*
D03*
X201575Y330610D02*
D03*
Y338091D02*
D03*
X270866Y348130D02*
D03*
Y340650D02*
D03*
X283858Y348130D02*
D03*
Y340650D02*
D03*
X267323Y282185D02*
D03*
Y289665D02*
D03*
X239764Y281791D02*
D03*
Y289272D02*
D03*
X547244Y469390D02*
D03*
Y461909D02*
D03*
Y454035D02*
D03*
Y446555D02*
D03*
X437402Y200984D02*
D03*
Y193504D02*
D03*
X447244Y200886D02*
D03*
Y193405D02*
D03*
X470866Y201279D02*
D03*
Y193799D02*
D03*
X431890Y144980D02*
D03*
Y137500D02*
D03*
X461024Y201181D02*
D03*
Y193701D02*
D03*
X441339Y144980D02*
D03*
Y137500D02*
D03*
X390551Y143799D02*
D03*
Y136319D02*
D03*
X398425Y143701D02*
D03*
Y136221D02*
D03*
X379528Y176673D02*
D03*
Y184153D02*
D03*
X351575Y260925D02*
D03*
Y268406D02*
D03*
X354724Y223524D02*
D03*
Y231004D02*
D03*
X373622Y223622D02*
D03*
Y231102D02*
D03*
X392913Y223622D02*
D03*
Y231102D02*
D03*
X411811Y223622D02*
D03*
Y231102D02*
D03*
X464961Y311319D02*
D03*
Y318799D02*
D03*
X465354Y291634D02*
D03*
Y299114D02*
D03*
X411811Y377658D02*
D03*
Y370177D02*
D03*
X172441Y392323D02*
D03*
Y399803D02*
D03*
X378346Y489764D02*
D03*
Y482283D02*
D03*
X367717Y489764D02*
D03*
Y482283D02*
D03*
X414567Y489764D02*
D03*
Y482283D02*
D03*
X403543Y489764D02*
D03*
Y482283D02*
D03*
X446850Y469390D02*
D03*
Y461909D02*
D03*
Y455217D02*
D03*
Y447736D02*
D03*
D65*
X522539Y282677D02*
D03*
X515059D02*
D03*
X666437Y288583D02*
D03*
X673917D02*
D03*
X673721Y372441D02*
D03*
X666240D02*
D03*
X250394Y260236D02*
D03*
X257874D02*
D03*
X241339D02*
D03*
X233858D02*
D03*
X217323Y270472D02*
D03*
X224803D02*
D03*
X443799Y156299D02*
D03*
X436319D02*
D03*
X339779Y334339D02*
D03*
X332299D02*
D03*
X339779Y324496D02*
D03*
X332299D02*
D03*
X339779Y314653D02*
D03*
X332299D02*
D03*
X339779Y304811D02*
D03*
X332299D02*
D03*
X339779Y294969D02*
D03*
X332299D02*
D03*
X443799Y166535D02*
D03*
X436319D02*
D03*
X359055Y188976D02*
D03*
X351575D02*
D03*
X359055Y178740D02*
D03*
X351575D02*
D03*
X359055Y168504D02*
D03*
X351575D02*
D03*
X420965Y205906D02*
D03*
X413484D02*
D03*
X359055Y158268D02*
D03*
X351575D02*
D03*
X359055Y148031D02*
D03*
X351575D02*
D03*
X432579Y235827D02*
D03*
X440059D02*
D03*
X301870Y325984D02*
D03*
X309350D02*
D03*
X301476Y282480D02*
D03*
X308957D02*
D03*
X404823Y363386D02*
D03*
X397342D02*
D03*
X199311Y380709D02*
D03*
X191831D02*
D03*
X384154Y397244D02*
D03*
X391634D02*
D03*
D66*
X512205Y355118D02*
D03*
X520866D02*
D03*
X562205Y331890D02*
D03*
X553543D02*
D03*
X512205Y346850D02*
D03*
X520866D02*
D03*
X572441Y309842D02*
D03*
X563779D02*
D03*
X572441Y297244D02*
D03*
X563779D02*
D03*
X562992Y350394D02*
D03*
X554331D02*
D03*
X562205Y321260D02*
D03*
X553543D02*
D03*
X634646Y288189D02*
D03*
X643307D02*
D03*
X635433Y373228D02*
D03*
X644095D02*
D03*
X377559Y473622D02*
D03*
X386221D02*
D03*
X368504Y464173D02*
D03*
X377165D02*
D03*
X359842Y473622D02*
D03*
X368504D02*
D03*
X413779Y473622D02*
D03*
X422441D02*
D03*
X404724Y464173D02*
D03*
X413386D02*
D03*
X395669Y473622D02*
D03*
X404331D02*
D03*
X235039Y341339D02*
D03*
X243701D02*
D03*
X261024D02*
D03*
X252362D02*
D03*
X258661Y270472D02*
D03*
X250000D02*
D03*
X225197Y260236D02*
D03*
X216535D02*
D03*
X241732Y270472D02*
D03*
X233071D02*
D03*
X198031Y294094D02*
D03*
X206693D02*
D03*
X490945Y418110D02*
D03*
X482283D02*
D03*
X490945Y408268D02*
D03*
X482283D02*
D03*
X471654Y463386D02*
D03*
X462992D02*
D03*
X592126Y408268D02*
D03*
X583465D02*
D03*
X592126Y418110D02*
D03*
X583465D02*
D03*
X572441Y465354D02*
D03*
X563779D02*
D03*
X542913Y226772D02*
D03*
X534252D02*
D03*
X516142D02*
D03*
X524803D02*
D03*
X399520Y210154D02*
D03*
X390858D02*
D03*
X372835Y148819D02*
D03*
X381496D02*
D03*
X412992Y135827D02*
D03*
X421654D02*
D03*
X399520Y201886D02*
D03*
X390858D02*
D03*
X412992Y144095D02*
D03*
X421654D02*
D03*
X372835Y140551D02*
D03*
X381496D02*
D03*
X400000Y271260D02*
D03*
X408661D02*
D03*
X373228D02*
D03*
X364567D02*
D03*
X379528D02*
D03*
X388189D02*
D03*
X414961D02*
D03*
X423622D02*
D03*
X439764D02*
D03*
X431102D02*
D03*
X414961Y261811D02*
D03*
X423622D02*
D03*
X439764D02*
D03*
X431102D02*
D03*
X387795Y256693D02*
D03*
X396457D02*
D03*
X446850Y334252D02*
D03*
X438189D02*
D03*
X362992Y355906D02*
D03*
X371654D02*
D03*
X407874Y397244D02*
D03*
X399213D02*
D03*
X373228Y365748D02*
D03*
X381890D02*
D03*
X368110Y396850D02*
D03*
X376772D02*
D03*
X423622Y251969D02*
D03*
X414961D02*
D03*
D67*
X483858Y307480D02*
D03*
Y298819D02*
D03*
X520079Y364961D02*
D03*
Y373622D02*
D03*
X483858Y329528D02*
D03*
Y320866D02*
D03*
X366535Y434252D02*
D03*
Y425591D02*
D03*
Y442520D02*
D03*
Y451181D02*
D03*
X344094Y433071D02*
D03*
Y424409D02*
D03*
X192126Y319291D02*
D03*
Y310630D02*
D03*
X276378Y322441D02*
D03*
Y313779D02*
D03*
X229134Y307087D02*
D03*
Y315748D02*
D03*
X219291Y307087D02*
D03*
Y315748D02*
D03*
X276378Y297244D02*
D03*
Y305906D02*
D03*
X192126Y330315D02*
D03*
Y338976D02*
D03*
X257480Y281102D02*
D03*
Y289764D02*
D03*
X249213Y281102D02*
D03*
Y289764D02*
D03*
X182677Y269685D02*
D03*
Y278346D02*
D03*
X674016Y244882D02*
D03*
Y253543D02*
D03*
X675591Y272441D02*
D03*
Y263779D02*
D03*
X587402Y237008D02*
D03*
Y245669D02*
D03*
Y267323D02*
D03*
Y258661D02*
D03*
X576772Y267323D02*
D03*
Y258661D02*
D03*
X566535Y267323D02*
D03*
Y258661D02*
D03*
X437402Y175197D02*
D03*
Y183858D02*
D03*
X379528Y170866D02*
D03*
Y162205D02*
D03*
X372047Y126378D02*
D03*
Y117717D02*
D03*
X480315Y140551D02*
D03*
Y149213D02*
D03*
X442913Y127165D02*
D03*
Y118504D02*
D03*
X437795Y350394D02*
D03*
Y341732D02*
D03*
Y288976D02*
D03*
Y297638D02*
D03*
X354331Y355512D02*
D03*
Y346850D02*
D03*
X353937Y290945D02*
D03*
Y282283D02*
D03*
X375984Y250787D02*
D03*
Y242126D02*
D03*
X476772Y236221D02*
D03*
Y244882D02*
D03*
X315354Y268504D02*
D03*
Y259842D02*
D03*
X333465Y407874D02*
D03*
Y416535D02*
D03*
X292126Y412598D02*
D03*
Y403937D02*
D03*
X253543Y402756D02*
D03*
Y411417D02*
D03*
Y384252D02*
D03*
Y375591D02*
D03*
X374803Y374410D02*
D03*
Y383071D02*
D03*
X219291Y391732D02*
D03*
Y400394D02*
D03*
D131*
X620866Y307874D02*
D03*
X630866Y312874D02*
D03*
X620866Y317874D02*
D03*
X630866Y322874D02*
D03*
X620866Y327874D02*
D03*
X630866Y332874D02*
D03*
X620866Y337874D02*
D03*
X630866Y342874D02*
D03*
Y352874D02*
D03*
X620866Y347874D02*
D03*
D141*
X393701Y378543D02*
D03*
D142*
X504528Y193701D02*
D03*
D143*
X615039Y253937D02*
D03*
D144*
X620661Y317669D02*
X620866Y317874D01*
X602118Y317669D02*
X620661D01*
X600787Y316339D02*
X602118Y317669D01*
X617738Y309646D02*
X619510Y307874D01*
X620866D01*
X600787Y309646D02*
X617738D01*
X614554Y341142D02*
X616287Y342874D01*
X630866D01*
X599606Y341142D02*
X614554D01*
X614633Y334449D02*
X616208Y332874D01*
X630866D01*
X599606Y334449D02*
X614633D01*
D145*
X546270Y308909D02*
X547974D01*
X548365Y308230D02*
X549902Y306693D01*
X550000D01*
X547974Y308909D02*
X548365Y308519D01*
X545628Y308268D02*
X546270Y308909D01*
X548365Y308230D02*
Y308519D01*
X540810Y308909D02*
X544282D01*
X539629Y310090D02*
X540810Y308909D01*
X534842Y310039D02*
X534894Y310090D01*
X539629D01*
X545276Y308268D02*
X545628D01*
X544282Y308909D02*
X544923Y308268D01*
X545276D01*
X548365Y311455D02*
X549902Y312992D01*
X550000D01*
X548365Y311166D02*
Y311455D01*
X545628Y311417D02*
X546270Y310776D01*
X547974D01*
X548365Y311166D01*
X545276Y311417D02*
X545628D01*
X544923D02*
X545276D01*
X534842Y312008D02*
X534894Y311957D01*
X540402D01*
X544282Y310776D02*
X544923Y311417D01*
X540402Y311957D02*
X541583Y310776D01*
X544282D01*
X548463Y295631D02*
X550000Y294094D01*
X545276Y295669D02*
X545314Y295631D01*
X548463D01*
X539167Y304185D02*
X540493Y302859D01*
X534894Y304185D02*
X539167D01*
X540493Y298503D02*
Y302859D01*
X534842Y304134D02*
X534894Y304185D01*
X544282Y296311D02*
X544923Y295669D01*
X545276D01*
X540493Y298503D02*
X542685Y296311D01*
X544282D01*
X548463Y298857D02*
X550000Y300394D01*
X545276Y298819D02*
X545314Y298857D01*
X548463D01*
X539940Y306051D02*
X542359Y303633D01*
X534894Y306051D02*
X539940D01*
X542359Y299276D02*
Y303633D01*
X534842Y306102D02*
X534894Y306051D01*
X544282Y298177D02*
X544923Y298819D01*
X545276D01*
X542359Y299276D02*
X543458Y298177D01*
X544282D01*
D146*
X185051Y394063D02*
X185551Y393563D01*
X180161Y394063D02*
X185051D01*
X178862Y393307D02*
X179134D01*
X178107Y394063D02*
X178862Y393307D01*
X179405D02*
X180161Y394063D01*
X179134Y393307D02*
X179405D01*
X174750Y393770D02*
X175043Y394063D01*
X178107D01*
X174750Y393451D02*
Y393770D01*
X172441Y392323D02*
X173622D01*
X174750Y393451D01*
X179134Y398819D02*
X179405D01*
X178862D02*
X179134D01*
X179405D02*
X180161Y398063D01*
X178107D02*
X178862Y398819D01*
X185051Y398063D02*
X185551Y398563D01*
X180161Y398063D02*
X185051D01*
X172441Y399803D02*
X173622D01*
X174750Y398675D01*
X175043Y398063D02*
X178107D01*
X174750Y398356D02*
Y398675D01*
Y398356D02*
X175043Y398063D01*
D147*
X424177Y305118D02*
X434252D01*
X435959Y308268D02*
X436120Y308106D01*
X431011Y308268D02*
X435959D01*
X436775Y308106D02*
X437008Y307874D01*
X436120Y308106D02*
X436775D01*
X429005Y303181D02*
X429591Y302595D01*
X431264D02*
X431496Y302362D01*
X424228Y303181D02*
X429005D01*
X429591Y302595D02*
X431264D01*
X429861Y307118D02*
X431011Y308268D01*
X432739Y356299D02*
X441339D01*
X431890Y361024D02*
X441339D01*
X421886Y345446D02*
X432739Y356299D01*
X420866Y350000D02*
X431890Y361024D01*
X415386Y349244D02*
X416142Y350000D01*
X420866D01*
X419420Y324819D02*
X423935D01*
X416535Y324410D02*
X419011D01*
X419420Y324819D01*
Y320898D02*
X423919D01*
X419027Y321291D02*
X419420Y320898D01*
X418470Y321291D02*
X419027D01*
X418277Y321099D02*
X418470Y321291D01*
X416768Y321099D02*
X418277D01*
X416535Y320866D02*
X416768Y321099D01*
X423919Y316961D02*
X423935Y316945D01*
X416535Y317323D02*
X416864D01*
X417226Y316961D02*
X423919D01*
X416864Y317323D02*
X417226Y316961D01*
X418390Y302917D02*
X420095Y301213D01*
X424083D01*
X416535Y303150D02*
X416768Y302917D01*
X418390D01*
X418520Y309071D02*
X423935D01*
X417834Y308385D02*
X418520Y309071D01*
X416535Y307022D02*
X417834Y308320D01*
Y308385D01*
X416535Y306693D02*
Y307022D01*
X418440Y310469D02*
X419027Y311055D01*
X423919D01*
X416768Y310469D02*
X418440D01*
X416535Y310236D02*
X416768Y310469D01*
X419420Y314976D02*
X423935D01*
X419044Y314600D02*
X419420Y314976D01*
X419027Y314600D02*
X419044D01*
X418439Y314012D02*
X419027Y314600D01*
X416768Y314012D02*
X418439D01*
X416535Y313779D02*
X416768Y314012D01*
X415386Y345406D02*
Y349244D01*
X417395Y345446D02*
X421886D01*
X424146Y334677D02*
X431530D01*
X432348Y333858D01*
X432677D01*
X402523Y278973D02*
X402756Y278740D01*
X399622Y280915D02*
X401564Y278973D01*
X402523D01*
X399622Y280915D02*
Y284513D01*
X363303Y299228D02*
X363319Y299244D01*
X351575Y299213D02*
X351590Y299228D01*
X363303D01*
X354628Y301213D02*
X363319D01*
X353937Y301575D02*
X354266D01*
X354628Y301213D01*
X357400Y303165D02*
X363303D01*
X356299Y303937D02*
X356628D01*
X357400Y303165D01*
X363303D02*
X363319Y303181D01*
X503150Y290551D02*
X508597D01*
X511007Y292961D01*
X501181Y293307D02*
X504641D01*
X504889Y293059D02*
X508020D01*
X504641Y293307D02*
X504889Y293059D01*
X409480Y338288D02*
Y345406D01*
X404068Y332875D02*
X409480Y338288D01*
X398623Y332875D02*
X404068D01*
X398425Y332677D02*
X398623Y332875D01*
X407512Y339893D02*
Y345406D01*
X404233Y336614D02*
X407512Y339893D01*
X398425Y336614D02*
X404233D01*
X424130Y318913D02*
X424146Y318929D01*
X517126Y331775D02*
X517167Y331734D01*
X517126Y338939D02*
X518504Y340317D01*
X517126Y331775D02*
Y338939D01*
X518504Y340317D02*
Y340551D01*
X520026Y338859D02*
X520027D01*
X519095Y337928D02*
X520026Y338859D01*
X521325Y340158D02*
X521654D01*
X520027Y338859D02*
X521325Y340158D01*
X483957Y338189D02*
X490158D01*
X483899Y338246D02*
X483957Y338189D01*
X495669Y310630D02*
X495998D01*
X497295Y311927D01*
X417395Y284538D02*
X417503Y284646D01*
X511007Y292961D02*
Y295537D01*
X511221Y295750D02*
Y298228D01*
X511007Y295537D02*
X511221Y295750D01*
X510630Y288976D02*
X510862Y289209D01*
X512108D01*
X513189Y290289D01*
Y298228D01*
X508020Y293059D02*
X509252Y294291D01*
Y298228D01*
X519095Y331775D02*
Y337928D01*
X497295Y319882D02*
X501296D01*
X495669Y321508D02*
X497295Y319882D01*
X495669Y321508D02*
Y321654D01*
X494603Y313895D02*
X501214D01*
X501337Y314017D01*
X494488Y313779D02*
X494603Y313895D01*
X501215Y311927D02*
X501337Y312049D01*
X497295Y311927D02*
X501215D01*
X417503Y284646D02*
X421260D01*
X424228Y307118D02*
X429861D01*
D148*
X182677Y269685D02*
X183760Y270768D01*
X186122D02*
X189370Y274016D01*
X183760Y270768D02*
X186122D01*
X189370Y274016D02*
X191240D01*
D149*
X225177Y304311D02*
X227953Y307087D01*
X219291Y301181D02*
Y307087D01*
X225177Y301948D02*
Y304311D01*
X276378Y313779D02*
X283071D01*
X612598Y457283D02*
Y469291D01*
X616929Y457283D02*
Y469291D01*
X291959Y412384D02*
Y419471D01*
X381890Y170079D02*
X385433Y166535D01*
X380315Y170079D02*
X381890D01*
X379528Y170866D02*
X380315Y170079D01*
X373622Y170866D02*
X379528D01*
X447638Y335039D02*
Y337402D01*
X449360Y339124D01*
Y341227D01*
X446850Y334252D02*
X447638Y335039D01*
X449360Y341227D02*
X449472Y341339D01*
X490945Y418110D02*
Y422835D01*
X485560Y428220D02*
X490945Y422835D01*
X484116Y428220D02*
X485560D01*
X587233Y427728D02*
X592098Y422863D01*
X584941Y427826D02*
Y429134D01*
Y427826D02*
X585039Y427728D01*
X592098Y418138D02*
Y422863D01*
Y418138D02*
X592126Y418110D01*
X585039Y427728D02*
X587233D01*
X592126Y418110D02*
X598032D01*
X592126Y408268D02*
Y418110D01*
Y408268D02*
X598032D01*
X205093Y302337D02*
X208543D01*
X446850Y469390D02*
Y477953D01*
Y437795D02*
Y447736D01*
X438189Y350787D02*
X444882D01*
X359055Y188976D02*
X368110D01*
X301870Y325984D02*
Y331890D01*
X308957Y282480D02*
X313448D01*
X314432Y283465D01*
X413689Y260306D02*
X414961Y261578D01*
X408661Y259055D02*
X411024D01*
X412275Y260306D01*
X413689D01*
X297421Y416713D02*
X302165D01*
X293307Y412598D02*
X297421Y416713D01*
X292126Y412598D02*
X293307D01*
X274016Y169291D02*
X279724D01*
X375984Y250787D02*
Y256693D01*
X465502Y298967D02*
X471900D01*
X498819Y364961D02*
X504429D01*
X249213Y276378D02*
Y281102D01*
X257480Y276378D02*
Y281102D01*
X547244Y440650D02*
Y446555D01*
X562992Y350394D02*
X568898D01*
X564567Y341339D02*
X570472D01*
X562205Y331890D02*
X568110D01*
X477559Y307480D02*
X483858D01*
X484252Y329921D02*
X490158D01*
X218110Y400394D02*
X225984D01*
X201723Y330463D02*
X207726D01*
X201575Y316634D02*
Y321260D01*
X288189Y307221D02*
X288976Y306434D01*
X288189Y307221D02*
Y311811D01*
X288976Y305906D02*
Y306434D01*
X288189Y311811D02*
X288583Y312205D01*
X235039Y336886D02*
Y341339D01*
Y336886D02*
X236614Y335311D01*
X225984Y351181D02*
Y357087D01*
X506693Y346457D02*
X511811D01*
X506693Y355118D02*
X511417D01*
X542913Y353543D02*
X548819D01*
X562992Y321260D02*
X568110D01*
X430709Y217717D02*
X437205D01*
X447244Y217323D02*
X453937D01*
X608268Y337795D02*
X614961D01*
X609449Y312992D02*
X616535D01*
X213386Y281102D02*
X219291D01*
X198031Y260236D02*
Y268504D01*
Y279528D02*
Y284744D01*
X258268Y259842D02*
X263779D01*
X405217Y363386D02*
X411024D01*
X439764Y271260D02*
Y277953D01*
X396457Y242323D02*
X401378D01*
X403543Y244488D01*
X288583Y324016D02*
Y330709D01*
X276772Y322835D02*
X282677D01*
X287008Y313779D02*
X288583Y312205D01*
X441339Y144980D02*
Y150000D01*
X572441Y465354D02*
Y472441D01*
X472047Y463779D02*
Y470079D01*
X175197Y278346D02*
X182677D01*
X270776Y298516D02*
X275106D01*
X262686Y306606D02*
X270776Y298516D01*
X399520Y201886D02*
X405425D01*
X364173Y230906D02*
Y236811D01*
X383071Y231299D02*
Y237205D01*
X402362Y231004D02*
Y236909D01*
X421260Y231102D02*
Y237008D01*
X528346Y404724D02*
X534252D01*
X464961Y305906D02*
Y311319D01*
X490945Y418110D02*
X496457D01*
X490945Y408268D02*
Y418110D01*
Y408268D02*
X491339Y407874D01*
X496063D01*
X318701Y236024D02*
X324606D01*
X348031Y286221D02*
X352756Y290945D01*
X561417Y368012D02*
X567323D01*
X578141Y349557D02*
X583415D01*
X412992Y129528D02*
Y135827D01*
X400347Y210236D02*
X405512D01*
X261024Y341339D02*
Y348425D01*
X205000Y398563D02*
X216280D01*
X218110Y400394D01*
X407874Y397244D02*
X413779D01*
X438253Y289435D02*
X443701D01*
X379528Y265354D02*
Y271260D01*
X551968Y404724D02*
X557874D01*
X572441Y290158D02*
Y297244D01*
Y309842D02*
Y316929D01*
X400000Y264567D02*
Y271260D01*
X432579Y235827D02*
Y242913D01*
X444193Y156693D02*
X452362D01*
X251890Y216535D02*
X258661D01*
X252008Y189764D02*
X258661D01*
X251772Y196732D02*
X258858D01*
X276378Y297244D02*
X283465D01*
X437402Y175197D02*
X444488D01*
X199311Y380709D02*
X205118D01*
X253543Y396850D02*
Y402756D01*
Y384252D02*
Y390158D01*
X333465Y401968D02*
Y407874D01*
X359842Y467717D02*
Y473622D01*
X386221Y467717D02*
Y473622D01*
X395669Y467717D02*
Y473622D01*
X422441Y467717D02*
Y473622D01*
X411811Y377658D02*
Y383563D01*
X643307Y288189D02*
X649213D01*
X628740D02*
X634646D01*
X660532Y288583D02*
X666437D01*
X660335Y372441D02*
X666240D01*
X644095Y373228D02*
X650000D01*
X629528D02*
X635433D01*
X448819Y269685D02*
X453543D01*
X439764Y255906D02*
Y261811D01*
X466339Y269488D02*
X472244D01*
X476772Y244882D02*
Y250787D01*
X480315Y149213D02*
Y155118D01*
X470472Y174409D02*
X477165D01*
X452362Y174409D02*
Y182677D01*
X443799Y166535D02*
X449705D01*
X442913Y127165D02*
X448819D01*
X431890Y131595D02*
Y137500D01*
X372047Y126378D02*
Y132283D01*
X366929Y148819D02*
X372835D01*
X366929Y140551D02*
X372835D01*
X398425Y130315D02*
Y136221D01*
X390551Y130413D02*
Y136319D01*
X379528Y184153D02*
Y190059D01*
X241339Y253543D02*
Y260236D01*
X225197Y253543D02*
Y260236D01*
X182677Y263779D02*
Y269685D01*
X206693Y294094D02*
X212598D01*
X192126D02*
X198031D01*
X231496Y351181D02*
X237402D01*
X342323Y236024D02*
X348228D01*
X315354Y253937D02*
Y259842D01*
X382418Y257874D02*
X383599Y256693D01*
X381890Y257874D02*
X382418D01*
X383599Y256693D02*
X387795D01*
X409055Y251969D02*
X414961D01*
X373228Y265354D02*
Y271260D01*
X522539Y282677D02*
X528445D01*
X520079Y364961D02*
X525984D01*
X520079Y373622D02*
Y379528D01*
X511122Y373425D02*
Y379331D01*
X483858Y345768D02*
Y351673D01*
X474409Y329232D02*
Y335138D01*
D150*
X204724Y285039D02*
X204823Y284941D01*
Y274016D02*
Y284941D01*
X378346Y489764D02*
Y504812D01*
X379921Y506387D02*
Y507874D01*
X378346Y504812D02*
X379921Y506387D01*
X414567Y504418D02*
X416535Y506387D01*
Y507874D01*
X414567Y489764D02*
Y504418D01*
X403543Y489764D02*
Y507087D01*
X402756Y507874D02*
X403543Y507087D01*
X367717Y489764D02*
Y506299D01*
X366142Y507874D02*
X367717Y506299D01*
X413386Y464173D02*
Y481405D01*
X414264Y482283D01*
X414567D01*
X404724Y464173D02*
Y481405D01*
X403847Y482283D02*
X404724Y481405D01*
X403543Y482283D02*
X403847D01*
X377165Y464173D02*
Y481405D01*
X378043Y482283D02*
X378346D01*
X377165Y481405D02*
X378043Y482283D01*
X368504Y464173D02*
Y481496D01*
X367717Y482283D02*
X368504Y481496D01*
X395776Y452075D02*
X398819Y455118D01*
X408661D02*
X413386Y459842D01*
X398819Y455118D02*
X408661D01*
X368504Y460236D02*
X373622Y455118D01*
X385827D02*
X388098Y452846D01*
X373622Y455118D02*
X385827D01*
X404724Y460236D02*
Y464173D01*
X402756Y458268D02*
X404724Y460236D01*
X396457Y458268D02*
X402756D01*
X393216Y455027D02*
X396457Y458268D01*
X393216Y448032D02*
Y455027D01*
X377165Y464173D02*
X377489Y463850D01*
X379492Y458303D02*
X387366D01*
X377489Y460306D02*
Y463850D01*
Y460306D02*
X379492Y458303D01*
X368504Y460236D02*
Y464173D01*
X413386Y459842D02*
Y464173D01*
X395776Y448032D02*
Y452075D01*
X390585Y448104D02*
Y455084D01*
X387366Y458303D02*
X390585Y455084D01*
X388098Y448032D02*
Y452846D01*
X390585Y448104D02*
X390657Y448032D01*
D151*
X414961Y261811D02*
Y271260D01*
Y261578D02*
Y261811D01*
X399520Y201886D02*
Y210154D01*
X387795Y249016D02*
Y256693D01*
X249213Y281102D02*
X257480D01*
X439764Y261811D02*
Y271260D01*
X412992Y135827D02*
Y144095D01*
X373228Y271260D02*
X379528D01*
D152*
X566535Y229134D02*
Y235433D01*
D153*
X219291Y281102D02*
X229921D01*
D154*
X405041Y195024D02*
X405905Y195889D01*
Y196063D01*
X405041Y193883D02*
Y195024D01*
X405033Y193875D02*
X405041Y193883D01*
X405033Y192531D02*
X405072Y192491D01*
Y189640D02*
X405307Y189406D01*
X405072Y189640D02*
Y192491D01*
X405033Y192531D02*
Y193875D01*
X295314Y168384D02*
X296140Y167558D01*
X294762Y168384D02*
X295314D01*
X296140Y159172D02*
Y167558D01*
X292913Y155945D02*
X296140Y159172D01*
X293701Y167323D02*
X294762Y168384D01*
X403620Y194471D02*
Y195024D01*
X403613Y194463D02*
X403620Y194471D01*
X402756Y195889D02*
Y196063D01*
Y195889D02*
X403620Y195024D01*
X403613Y192531D02*
Y194463D01*
X403573Y192491D02*
X403613Y192531D01*
X403573Y189640D02*
Y192491D01*
X403339Y189406D02*
X403573Y189640D01*
X293701Y170866D02*
X294762Y169805D01*
X297561Y159172D02*
X300787Y155945D01*
X294762Y169805D02*
X295902D01*
X297561Y159172D02*
Y168147D01*
X295902Y169805D02*
X297561Y168147D01*
X291020Y168384D02*
X292639D01*
X293701Y167323D01*
X291020Y168384D02*
X291020Y168384D01*
X290431Y169805D02*
X290432Y169805D01*
X288953Y169805D02*
X290431D01*
X292639Y169805D02*
X293701Y170866D01*
X290432Y169805D02*
X292639D01*
X288583Y168014D02*
X288953Y168384D01*
X288583Y165748D02*
Y168014D01*
X288953Y168384D02*
X291020D01*
X288583Y170176D02*
Y172441D01*
Y170176D02*
X288953Y169805D01*
X299903Y392617D02*
Y393132D01*
X299532Y393502D02*
X299903Y393132D01*
X298283Y393502D02*
X299532D01*
X297244Y392520D02*
X297300D01*
X299903Y392617D02*
X300807Y391713D01*
X302165D01*
X297300Y392520D02*
X298283Y393502D01*
X300807Y396713D02*
X302165D01*
X299903Y395809D02*
X300807Y396713D01*
X297244Y396040D02*
Y396063D01*
X299903Y395294D02*
Y395809D01*
X299532Y394923D02*
X299903Y395294D01*
X297244Y396040D02*
X298361Y394923D01*
X299532D01*
X378740Y355544D02*
Y355906D01*
Y355544D02*
X379408Y354876D01*
Y351940D02*
Y354876D01*
X378258Y350791D02*
X379408Y351940D01*
X378258Y348092D02*
Y350791D01*
X377984Y345406D02*
Y347818D01*
X378258Y348092D01*
X309842Y499902D02*
X310536Y499208D01*
Y497495D02*
Y499208D01*
X309497Y496457D02*
X310536Y497495D01*
X309842Y499902D02*
Y501575D01*
X309449Y496457D02*
X309497D01*
X309449D02*
X310510Y495395D01*
Y492103D02*
Y495395D01*
X310139Y491732D02*
X310510Y492103D01*
X307874Y491732D02*
X310139D01*
X381496Y355544D02*
Y355906D01*
X380828Y354876D02*
X381496Y355544D01*
X380828Y351352D02*
Y354876D01*
X379679Y350203D02*
X380828Y351352D01*
X379679Y348092D02*
Y350203D01*
X379953Y345406D02*
Y347818D01*
X379679Y348092D02*
X379953Y347818D01*
X312992Y496457D02*
Y496460D01*
X311931Y495395D02*
X312992Y496457D01*
X311956Y497495D02*
Y501130D01*
X312402Y501575D01*
X311956Y497495D02*
X312992Y496460D01*
X311931Y492103D02*
Y495395D01*
X312301Y491732D02*
X314567D01*
X311931Y492103D02*
X312301Y491732D01*
X273742Y501104D02*
X274213Y501575D01*
X273742Y499060D02*
Y501104D01*
X273742Y499060D02*
X273742Y499060D01*
X273742Y497518D02*
Y499060D01*
Y497518D02*
X274803Y496457D01*
X271654Y499902D02*
Y501575D01*
X272321Y497518D02*
Y499234D01*
X271260Y496457D02*
X272321Y497518D01*
X271654Y499902D02*
X272321Y499234D01*
X271951Y491732D02*
X272321Y492103D01*
Y495395D01*
X269685Y491732D02*
X271951D01*
X271260Y496457D02*
X272321Y495395D01*
X274113Y491732D02*
X276378D01*
X273742Y492103D02*
X274113Y491732D01*
X273742Y492103D02*
Y495395D01*
X274803Y496457D01*
D155*
X432283Y462835D02*
D03*
Y452835D02*
D03*
Y442835D02*
D03*
Y432835D02*
D03*
Y422835D02*
D03*
Y412835D02*
D03*
Y402835D02*
D03*
Y392835D02*
D03*
Y382835D02*
D03*
X322358Y334575D02*
D03*
Y344575D02*
D03*
Y314575D02*
D03*
Y304575D02*
D03*
Y324575D02*
D03*
X340551Y188740D02*
D03*
Y198740D02*
D03*
Y168740D02*
D03*
Y158740D02*
D03*
Y178740D02*
D03*
X454724Y313543D02*
D03*
Y303543D02*
D03*
X305512Y314331D02*
D03*
Y304331D02*
D03*
X558661Y451732D02*
D03*
Y441732D02*
D03*
X457480Y451968D02*
D03*
Y441968D02*
D03*
D156*
X432283Y472835D02*
D03*
X322358Y294575D02*
D03*
X340551Y148740D02*
D03*
X454724Y293543D02*
D03*
X305512Y294331D02*
D03*
X558661Y431732D02*
D03*
X457480Y431968D02*
D03*
D157*
X621260Y508268D02*
D03*
X658661D02*
D03*
X583858D02*
D03*
X496457D02*
D03*
X533465D02*
D03*
X459055D02*
D03*
X148031Y402953D02*
D03*
X379921Y507874D02*
D03*
X416535D02*
D03*
X164567Y295276D02*
D03*
X176772Y315748D02*
D03*
X144882Y291732D02*
D03*
X176772Y303150D02*
D03*
D158*
X607480Y508268D02*
D03*
X644882D02*
D03*
X570079D02*
D03*
X482677D02*
D03*
X519685D02*
D03*
X445276D02*
D03*
X366142Y507874D02*
D03*
X402756D02*
D03*
X144882Y328346D02*
D03*
D159*
X148031Y389173D02*
D03*
D160*
X257480Y512008D02*
D03*
X285827D02*
D03*
X295669D02*
D03*
X324016D02*
D03*
D161*
X262008Y501575D02*
D03*
X281299D02*
D03*
X300197D02*
D03*
X319488D02*
D03*
D162*
X153622Y357480D02*
D03*
X163622D02*
D03*
X143622D02*
D03*
D163*
X173622D02*
D03*
D164*
X322716Y145276D02*
D03*
X270984D02*
D03*
D165*
X283071Y155945D02*
D03*
D166*
X292913D02*
D03*
X300787D02*
D03*
X310630D02*
D03*
D167*
X144882Y309449D02*
D03*
X164567D02*
D03*
D168*
X673858Y303898D02*
D03*
X665866D02*
D03*
Y356850D02*
D03*
X673858D02*
D03*
D169*
X655866Y307874D02*
D03*
Y352874D02*
D03*
D170*
X643858Y299370D02*
D03*
Y361378D02*
D03*
D171*
X666929Y131496D02*
D03*
X643307D02*
D03*
D172*
X655118Y150000D02*
D03*
D173*
X147638Y116142D02*
D03*
Y509842D02*
D03*
X687008D02*
D03*
D174*
X545276Y298819D02*
D03*
Y295669D02*
D03*
Y311417D02*
D03*
Y308268D02*
D03*
X179134Y398819D02*
D03*
Y393307D02*
D03*
X437008Y307874D02*
D03*
X434252Y305118D02*
D03*
X431496Y302362D02*
D03*
X441339Y356299D02*
D03*
Y361024D02*
D03*
X416535Y324410D02*
D03*
Y320866D02*
D03*
Y317323D02*
D03*
Y303150D02*
D03*
Y306693D02*
D03*
Y310236D02*
D03*
Y313779D02*
D03*
X432677Y333858D02*
D03*
X364173Y168504D02*
D03*
X249213Y276378D02*
D03*
X257480D02*
D03*
X212205Y388976D02*
D03*
X235039Y322835D02*
D03*
X216535Y253150D02*
D03*
X294094Y247638D02*
D03*
X250394Y253150D02*
D03*
X371654Y291732D02*
D03*
X375984D02*
D03*
X417717Y295669D02*
D03*
X394094Y305906D02*
D03*
X399213Y298819D02*
D03*
X391732Y309449D02*
D03*
X396063Y301969D02*
D03*
X384646Y291732D02*
D03*
X388583D02*
D03*
X392520D02*
D03*
X427559Y244488D02*
D03*
X402756Y278740D02*
D03*
X294488Y328740D02*
D03*
X297638Y330686D02*
D03*
X294488Y299213D02*
D03*
X297638Y301181D02*
D03*
X277559Y340551D02*
D03*
X409449Y212598D02*
D03*
X413386D02*
D03*
X374803Y316142D02*
D03*
Y320079D02*
D03*
Y324016D02*
D03*
Y327953D02*
D03*
X417323Y212598D02*
D03*
X461039Y208185D02*
D03*
X409228Y182402D02*
D03*
X470882Y208283D02*
D03*
X405905Y196063D02*
D03*
X402756D02*
D03*
X293701Y170866D02*
D03*
X293701Y167323D02*
D03*
X401354Y182402D02*
D03*
X419598Y171965D02*
D03*
X441339Y132382D02*
D03*
X409244Y161610D02*
D03*
X364173Y158268D02*
D03*
X430398Y193520D02*
D03*
X239370Y332283D02*
D03*
X192520Y263779D02*
D03*
X351575Y319685D02*
D03*
X345669Y325197D02*
D03*
X348425Y322047D02*
D03*
X267717Y307087D02*
D03*
X355512Y317323D02*
D03*
X351575Y299213D02*
D03*
X353937Y301575D02*
D03*
X356299Y303937D02*
D03*
X415354Y291339D02*
D03*
X503150Y290551D02*
D03*
X501181Y293307D02*
D03*
X513386Y325197D02*
D03*
X510630Y323228D02*
D03*
X507087Y322835D02*
D03*
X212205Y403543D02*
D03*
X357087Y325984D02*
D03*
Y329528D02*
D03*
X375984Y277559D02*
D03*
X372835D02*
D03*
X369685Y278346D02*
D03*
X366929Y280315D02*
D03*
X289764Y340551D02*
D03*
X258268Y334646D02*
D03*
X254724Y335039D02*
D03*
X249606D02*
D03*
X246063D02*
D03*
X268898Y322047D02*
D03*
X267323Y318504D02*
D03*
X266929Y329134D02*
D03*
X398425Y332677D02*
D03*
Y336614D02*
D03*
X307470Y406703D02*
D03*
X307480Y411811D02*
D03*
X297244Y392520D02*
D03*
Y396063D02*
D03*
X378740Y355906D02*
D03*
X309449Y496457D02*
D03*
X381496Y355906D02*
D03*
X312992Y496457D02*
D03*
X383465Y358268D02*
D03*
X376772D02*
D03*
X305906Y496457D02*
D03*
X316535D02*
D03*
X267717D02*
D03*
X278346D02*
D03*
X274803D02*
D03*
X271260D02*
D03*
X406693Y387795D02*
D03*
X388583Y362992D02*
D03*
X390551Y355906D02*
D03*
X369685Y403543D02*
D03*
X377559Y403543D02*
D03*
X409055D02*
D03*
X403937D02*
D03*
X387008D02*
D03*
X393307D02*
D03*
X417667Y370128D02*
D03*
X561417Y422047D02*
D03*
X576378Y416535D02*
D03*
X257874Y206693D02*
D03*
X417717Y299213D02*
D03*
X545276Y292520D02*
D03*
Y301969D02*
D03*
Y305118D02*
D03*
Y314567D02*
D03*
X386221Y388583D02*
D03*
X518504Y340551D02*
D03*
X521654Y340158D02*
D03*
X490158Y338189D02*
D03*
X495669Y310630D02*
D03*
X510630Y288976D02*
D03*
X495669Y321654D02*
D03*
X494488Y313779D02*
D03*
X421260Y284646D02*
D03*
X527165Y307874D02*
D03*
X526772Y316142D02*
D03*
D175*
X255512Y321260D02*
D03*
Y316929D02*
D03*
Y312598D02*
D03*
X251181Y321260D02*
D03*
Y316929D02*
D03*
Y312598D02*
D03*
X246850Y321260D02*
D03*
Y316929D02*
D03*
Y312598D02*
D03*
X573819Y438386D02*
D03*
Y442717D02*
D03*
X578150Y438386D02*
D03*
Y442717D02*
D03*
X476968D02*
D03*
Y438386D02*
D03*
X472638Y442717D02*
D03*
Y438386D02*
D03*
X393701Y378543D02*
D03*
X391142Y381102D02*
D03*
X396260D02*
D03*
Y375984D02*
D03*
X391142D02*
D03*
D176*
X224803Y301575D02*
D03*
X219291Y301181D02*
D03*
X283071Y313779D02*
D03*
X204724Y285039D02*
D03*
X566535Y229134D02*
D03*
X204724Y301969D02*
D03*
X446850Y477953D02*
D03*
Y437795D02*
D03*
X444882Y350787D02*
D03*
X368110Y188976D02*
D03*
X301870Y331890D02*
D03*
X314961Y283465D02*
D03*
X589370Y273228D02*
D03*
X585433D02*
D03*
X578740D02*
D03*
X574803D02*
D03*
X568504D02*
D03*
X564567D02*
D03*
X689764Y280315D02*
D03*
X684252D02*
D03*
X677953Y277953D02*
D03*
X673228D02*
D03*
X373622Y236221D02*
D03*
X375984Y256693D02*
D03*
X385433Y441339D02*
D03*
X382283Y403150D02*
D03*
X472047Y298819D02*
D03*
X498819Y364961D02*
D03*
X547244Y440650D02*
D03*
X568898Y350394D02*
D03*
X570472Y341339D02*
D03*
X568110Y331890D02*
D03*
X477559Y298819D02*
D03*
Y307480D02*
D03*
X490158Y329921D02*
D03*
X225984Y400394D02*
D03*
Y391732D02*
D03*
X674016Y238189D02*
D03*
X503150Y220079D02*
D03*
X516142D02*
D03*
X207874Y330315D02*
D03*
X201575Y321260D02*
D03*
X585039Y252756D02*
D03*
X163386Y255906D02*
D03*
X168110Y129921D02*
D03*
X219291Y321260D02*
D03*
X363386Y419685D02*
D03*
X353937Y414961D02*
D03*
X285827Y403937D02*
D03*
X276772Y506299D02*
D03*
X314961D02*
D03*
X333465Y422047D02*
D03*
X288976Y305906D02*
D03*
X492913Y220866D02*
D03*
X524803Y220472D02*
D03*
X534252D02*
D03*
X583465Y401181D02*
D03*
X482283D02*
D03*
X282677Y305906D02*
D03*
X508661Y469291D02*
D03*
X512992Y469291D02*
D03*
X513386Y424803D02*
D03*
X509055Y424803D02*
D03*
X612598Y469291D02*
D03*
X616929Y469291D02*
D03*
X617323Y424803D02*
D03*
X612992Y424803D02*
D03*
X236614Y335039D02*
D03*
X225197Y321260D02*
D03*
X225984Y357087D02*
D03*
X368110Y390158D02*
D03*
X503150Y116732D02*
D03*
X498819Y116732D02*
D03*
X535433Y115945D02*
D03*
X531102Y115945D02*
D03*
X608661Y115945D02*
D03*
X604331Y115945D02*
D03*
X567717D02*
D03*
X572047Y115945D02*
D03*
X506693Y346457D02*
D03*
Y355118D02*
D03*
X526378D02*
D03*
X548819Y353543D02*
D03*
X547638Y334252D02*
D03*
X568110Y321260D02*
D03*
X596282Y264609D02*
D03*
X596282Y268940D02*
D03*
X596282Y273271D02*
D03*
X555118Y269291D02*
D03*
X550394D02*
D03*
X545669D02*
D03*
X653543Y238583D02*
D03*
X681890Y255512D02*
D03*
Y245276D02*
D03*
X658268Y238583D02*
D03*
X662992D02*
D03*
X576772Y228346D02*
D03*
X587402Y231102D02*
D03*
X596063Y234252D02*
D03*
X596063Y242913D02*
D03*
X596063Y238583D02*
D03*
X554724Y237402D02*
D03*
X550000Y237256D02*
D03*
X545276D02*
D03*
X548819Y226772D02*
D03*
X596063Y247244D02*
D03*
X589764Y252756D02*
D03*
X563779D02*
D03*
X574016D02*
D03*
X579528D02*
D03*
X569291D02*
D03*
X596063Y255906D02*
D03*
X596063Y260236D02*
D03*
Y251575D02*
D03*
X488791Y258465D02*
D03*
Y263189D02*
D03*
X488937Y267913D02*
D03*
Y239567D02*
D03*
X488791Y244291D02*
D03*
Y249016D02*
D03*
X488937Y253740D02*
D03*
X557480Y200394D02*
D03*
X485591Y175000D02*
D03*
X485445Y179724D02*
D03*
Y184449D02*
D03*
X485591Y189173D02*
D03*
X485445Y193898D02*
D03*
Y198622D02*
D03*
X485591Y203346D02*
D03*
X485445Y208071D02*
D03*
Y212795D02*
D03*
X541929Y212835D02*
D03*
X546654Y212980D02*
D03*
X551378D02*
D03*
X681890Y250394D02*
D03*
X610630Y221850D02*
D03*
X614961Y221850D02*
D03*
X606299D02*
D03*
X657480Y219094D02*
D03*
X661811Y219094D02*
D03*
X653150D02*
D03*
X575984Y211811D02*
D03*
X571654D02*
D03*
X557480Y207087D02*
D03*
Y193701D02*
D03*
X430709Y217717D02*
D03*
X453937Y217323D02*
D03*
X213779Y321260D02*
D03*
X614961Y337795D02*
D03*
X616535Y312992D02*
D03*
X213386Y281102D02*
D03*
X198031Y260236D02*
D03*
Y284744D02*
D03*
X263779Y259842D02*
D03*
X357874Y276378D02*
D03*
X411024Y363386D02*
D03*
X403543Y244488D02*
D03*
X409842Y237008D02*
D03*
X288583Y330709D02*
D03*
X282677Y322835D02*
D03*
X439764Y277953D02*
D03*
X274016Y169291D02*
D03*
X441339Y150000D02*
D03*
X381496Y155512D02*
D03*
X372441Y161811D02*
D03*
X572441Y472441D02*
D03*
X563779Y472047D02*
D03*
X598032Y408268D02*
D03*
X462598Y469685D02*
D03*
X472047Y470079D02*
D03*
X175197Y278346D02*
D03*
X345276Y313779D02*
D03*
X443701Y289435D02*
D03*
X661811Y168110D02*
D03*
X653150D02*
D03*
X657480Y168110D02*
D03*
X405425Y201886D02*
D03*
X364173Y236811D02*
D03*
X383071Y237205D02*
D03*
X402362Y236909D02*
D03*
X421260Y237008D02*
D03*
X392913Y237008D02*
D03*
X354724Y236910D02*
D03*
X270866Y354035D02*
D03*
X311221Y477953D02*
D03*
X273031Y478543D02*
D03*
X398425Y403543D02*
D03*
X367717Y367717D02*
D03*
X464961Y305906D02*
D03*
X449472Y341339D02*
D03*
X496063Y407874D02*
D03*
X496457Y418110D02*
D03*
X598032D02*
D03*
X318701Y236024D02*
D03*
X351575Y255020D02*
D03*
X364567Y265354D02*
D03*
X345276Y308268D02*
D03*
X348031Y286221D02*
D03*
X526378Y346457D02*
D03*
X567323Y368012D02*
D03*
X583465Y349606D02*
D03*
X421654Y129528D02*
D03*
X412992D02*
D03*
X384646Y201575D02*
D03*
Y210236D02*
D03*
X405512D02*
D03*
X261024Y348425D02*
D03*
X254331Y347638D02*
D03*
X253150Y355512D02*
D03*
X347244Y346850D02*
D03*
X367717Y374410D02*
D03*
Y383071D02*
D03*
X413779Y397244D02*
D03*
X443701Y297638D02*
D03*
X379953Y291665D02*
D03*
X376016Y338319D02*
D03*
X557874Y404724D02*
D03*
X528346D02*
D03*
X572441Y290158D02*
D03*
Y316929D02*
D03*
X408661Y264567D02*
D03*
X400000D02*
D03*
X408661Y259055D02*
D03*
X432579Y242913D02*
D03*
X452362Y156693D02*
D03*
X258661Y216535D02*
D03*
Y189764D02*
D03*
X258858Y196732D02*
D03*
X283465Y297244D02*
D03*
X362992Y362992D02*
D03*
X444488Y175197D02*
D03*
Y183858D02*
D03*
X205118Y380709D02*
D03*
X253543Y396850D02*
D03*
Y390158D02*
D03*
X291959Y419471D02*
D03*
X333465Y401968D02*
D03*
X345276Y418504D02*
D03*
X331890Y427658D02*
D03*
X348031Y438976D02*
D03*
X351969Y437402D02*
D03*
X350000Y433071D02*
D03*
X350787Y424409D02*
D03*
X373622Y434252D02*
D03*
Y442520D02*
D03*
X359842Y467717D02*
D03*
X386221D02*
D03*
X395669Y467717D02*
D03*
X422441D02*
D03*
X547244Y475295D02*
D03*
X411811Y383563D02*
D03*
X649213Y288189D02*
D03*
X628740D02*
D03*
X660532Y288583D02*
D03*
X660335Y372441D02*
D03*
X650000Y373228D02*
D03*
X629528D02*
D03*
X453543Y269685D02*
D03*
X439764Y255906D02*
D03*
X472244Y269488D02*
D03*
X476772Y250787D02*
D03*
X480315Y155118D02*
D03*
X477165Y174409D02*
D03*
X452362Y182677D02*
D03*
X449705Y166535D02*
D03*
X448819Y127165D02*
D03*
X431890Y131595D02*
D03*
X372047Y132283D02*
D03*
X366929Y148819D02*
D03*
Y140551D02*
D03*
X381496Y134646D02*
D03*
X398425Y130315D02*
D03*
X390551Y130413D02*
D03*
X373622Y170866D02*
D03*
X379528Y190059D02*
D03*
X241339Y253543D02*
D03*
X225197D02*
D03*
X182677Y263779D02*
D03*
X212598Y294094D02*
D03*
X192126D02*
D03*
X231496Y351181D02*
D03*
X283858Y354035D02*
D03*
X339779Y340244D02*
D03*
X348228Y236024D02*
D03*
X315354Y253937D02*
D03*
X381890Y257874D02*
D03*
X409055Y251969D02*
D03*
X373228Y265354D02*
D03*
X379528D02*
D03*
X388189D02*
D03*
X528445Y282677D02*
D03*
X525984Y364961D02*
D03*
X520079Y379528D02*
D03*
X511122Y379331D02*
D03*
X483858Y351673D02*
D03*
X474409Y335138D02*
D03*
X444488Y341732D02*
D03*
X354331Y361417D02*
D03*
D177*
X409842Y443307D02*
D03*
D178*
X679134Y141732D02*
D03*
X669291Y161417D02*
D03*
X679134Y179134D02*
D03*
Y167323D02*
D03*
Y155512D02*
D03*
X620079Y118110D02*
D03*
X588583Y129921D02*
D03*
X551181D02*
D03*
X492126Y118110D02*
D03*
X511811D02*
D03*
X523622D02*
D03*
X647638Y161417D02*
D03*
X673228Y118110D02*
D03*
X679134Y129921D02*
D03*
X655512Y472441D02*
D03*
X649606Y460630D02*
D03*
X637795D02*
D03*
X643701Y448819D02*
D03*
X631890D02*
D03*
X625984Y437008D02*
D03*
X602362D02*
D03*
X608267Y425197D02*
D03*
X602362Y413386D02*
D03*
X590551Y437008D02*
D03*
X596456Y425197D02*
D03*
Y401575D02*
D03*
X537401Y496063D02*
D03*
X531496Y484252D02*
D03*
X537401Y472441D02*
D03*
X531496Y460630D02*
D03*
X537401Y448819D02*
D03*
X531496Y437008D02*
D03*
X525590Y448819D02*
D03*
X519685Y437008D02*
D03*
X507874Y413386D02*
D03*
X496063Y437008D02*
D03*
X501968Y425197D02*
D03*
X640945Y212598D02*
D03*
X635039Y200787D02*
D03*
X629134Y212598D02*
D03*
X623228Y200787D02*
D03*
X611417D02*
D03*
X599606D02*
D03*
X593701Y212598D02*
D03*
X587795Y200787D02*
D03*
X581890Y212598D02*
D03*
X564173Y200787D02*
D03*
X643701Y234646D02*
D03*
X637795Y271654D02*
D03*
X643701Y259842D02*
D03*
X637795Y248031D02*
D03*
X389764Y153543D02*
D03*
X277559Y354331D02*
D03*
X265748D02*
D03*
X661417Y118110D02*
D03*
X643701Y177165D02*
D03*
X590551Y118110D02*
D03*
X578740D02*
D03*
X555118D02*
D03*
X543307D02*
D03*
X531496Y212598D02*
D03*
Y188976D02*
D03*
X525590Y200787D02*
D03*
M02*
