G04*
G04 #@! TF.GenerationSoftware,Altium Limited,Altium Designer,22.4.2 (48)*
G04*
G04 Layer_Color=65535*
%FSLAX25Y25*%
%MOIN*%
G70*
G04*
G04 #@! TF.SameCoordinates,507B7574-AD96-49B3-9928-A38505287C88*
G04*
G04*
G04 #@! TF.FilePolarity,Positive*
G04*
G01*
G75*
%ADD10C,0.00787*%
%ADD11C,0.00984*%
%ADD12C,0.02362*%
%ADD13C,0.00500*%
%ADD14C,0.01000*%
%ADD15C,0.00945*%
%ADD16C,0.01575*%
%ADD17C,0.02000*%
%ADD18C,0.00394*%
%ADD19C,0.00591*%
G36*
X647882Y522268D02*
X644882Y519268D01*
X641882Y522268D01*
X647882Y522441D01*
Y522268D01*
D02*
G37*
G36*
X610480D02*
X607480Y519268D01*
X604480Y522268D01*
X610480Y522441D01*
Y522268D01*
D02*
G37*
G36*
X573079D02*
X570079Y519268D01*
X567079Y522268D01*
X573079Y522441D01*
Y522268D01*
D02*
G37*
G36*
X522685D02*
X519685Y519268D01*
X516685Y522268D01*
X522685Y522441D01*
Y522268D01*
D02*
G37*
G36*
X485677D02*
X482677Y519268D01*
X479677Y522268D01*
X485677Y522441D01*
Y522268D01*
D02*
G37*
G36*
X448276D02*
X445276Y519268D01*
X442276Y522268D01*
X448276Y522441D01*
Y522268D01*
D02*
G37*
G36*
X405756Y521874D02*
X402756Y518874D01*
X399756Y521874D01*
X405756Y522047D01*
Y521874D01*
D02*
G37*
G36*
X369142D02*
X366142Y518874D01*
X363142Y521874D01*
X369142Y522047D01*
Y521874D01*
D02*
G37*
G36*
X187338Y504394D02*
X187442D01*
Y504291D01*
X187546D01*
Y504083D01*
X187650D01*
Y500761D01*
X192633D01*
Y500657D01*
X192944D01*
Y500554D01*
X193152D01*
Y500450D01*
X193359D01*
Y500346D01*
X193463D01*
Y500242D01*
X193567D01*
Y500138D01*
X193671D01*
Y500035D01*
X193775D01*
Y499931D01*
X193878D01*
Y499827D01*
X193982D01*
Y499723D01*
X194086D01*
Y499516D01*
X194190D01*
Y499308D01*
X194294D01*
Y499100D01*
X194397D01*
Y498685D01*
X194501D01*
Y493910D01*
X197927D01*
Y493806D01*
X198031D01*
Y493702D01*
X198135D01*
Y493495D01*
X198238D01*
Y493080D01*
X198135D01*
Y492872D01*
X198031D01*
Y492768D01*
X197823D01*
Y492664D01*
X194501D01*
Y488616D01*
X197927D01*
Y488512D01*
X198031D01*
Y488408D01*
X198135D01*
Y488201D01*
X198238D01*
Y487785D01*
X198135D01*
Y487578D01*
X198031D01*
Y487474D01*
X197823D01*
Y487370D01*
X194501D01*
Y483425D01*
X197616D01*
Y483322D01*
X197927D01*
Y483218D01*
X198031D01*
Y483114D01*
X198135D01*
Y482906D01*
X198238D01*
Y482491D01*
X198135D01*
Y482387D01*
X198031D01*
Y482180D01*
X197823D01*
Y482076D01*
X194501D01*
Y478131D01*
X197719D01*
Y478027D01*
X197927D01*
Y477923D01*
X198031D01*
Y477820D01*
X198135D01*
Y477612D01*
X198238D01*
Y477197D01*
X198135D01*
Y477093D01*
X198031D01*
Y476989D01*
X197927D01*
Y476886D01*
X197823D01*
Y476782D01*
X194501D01*
Y472837D01*
X197719D01*
Y472733D01*
X197927D01*
Y472629D01*
X198031D01*
Y472526D01*
X198135D01*
Y472318D01*
X198238D01*
Y471903D01*
X198135D01*
Y471799D01*
X198031D01*
Y471695D01*
X197927D01*
Y471591D01*
X197823D01*
Y471487D01*
X194501D01*
Y466816D01*
X194397D01*
Y466401D01*
X194294D01*
Y466089D01*
X194190D01*
Y465882D01*
X194086D01*
Y465778D01*
X193982D01*
Y465570D01*
X193878D01*
Y465467D01*
X193775D01*
Y465363D01*
X193671D01*
Y465259D01*
X193567D01*
Y465155D01*
X193359D01*
Y465051D01*
X193256D01*
Y464948D01*
X193048D01*
Y464844D01*
X192840D01*
Y464740D01*
X192425D01*
Y464636D01*
X187650D01*
Y461314D01*
X187546D01*
Y461107D01*
X187442D01*
Y461003D01*
X187235D01*
Y460899D01*
X186820D01*
Y461003D01*
X186612D01*
Y461107D01*
X186508D01*
Y461210D01*
X186404D01*
Y461418D01*
X186300D01*
Y464636D01*
X182356D01*
Y461314D01*
X182252D01*
Y461107D01*
X182148D01*
Y461003D01*
X181940D01*
Y460899D01*
X181525D01*
Y461003D01*
X181318D01*
Y461107D01*
X181214D01*
Y461210D01*
X181110D01*
Y461522D01*
X181006D01*
Y464636D01*
X177061D01*
Y461210D01*
X176958D01*
Y461107D01*
X176854D01*
Y461003D01*
X176646D01*
Y460899D01*
X176231D01*
Y461003D01*
X176023D01*
Y461107D01*
X175920D01*
Y461210D01*
X175816D01*
Y464636D01*
X171871D01*
Y461522D01*
X171767D01*
Y461210D01*
X171663D01*
Y461107D01*
X171560D01*
Y461003D01*
X171352D01*
Y460899D01*
X170937D01*
Y461003D01*
X170729D01*
Y461107D01*
X170625D01*
Y461314D01*
X170522D01*
Y464636D01*
X166577D01*
Y461418D01*
X166473D01*
Y461210D01*
X166369D01*
Y461107D01*
X166265D01*
Y461003D01*
X166058D01*
Y460899D01*
X165643D01*
Y461003D01*
X165435D01*
Y461107D01*
X165331D01*
Y461314D01*
X165227D01*
Y464636D01*
X160452D01*
Y464740D01*
X160037D01*
Y464844D01*
X159829D01*
Y464948D01*
X159622D01*
Y465051D01*
X159518D01*
Y465155D01*
X159310D01*
Y465259D01*
X159207D01*
Y465363D01*
X159103D01*
Y465467D01*
X158999D01*
Y465570D01*
X158895D01*
Y465778D01*
X158791D01*
Y465882D01*
X158688D01*
Y466089D01*
X158584D01*
Y466401D01*
X158480D01*
Y466816D01*
X158376D01*
Y471487D01*
X155054D01*
Y471591D01*
X154950D01*
Y471695D01*
X154847D01*
Y471799D01*
X154743D01*
Y472007D01*
X154639D01*
Y472318D01*
X154743D01*
Y472526D01*
X154847D01*
Y472629D01*
X154950D01*
Y472733D01*
X155158D01*
Y472837D01*
X158376D01*
Y476782D01*
X155054D01*
Y476886D01*
X154950D01*
Y476989D01*
X154847D01*
Y477093D01*
X154743D01*
Y477301D01*
X154639D01*
Y477612D01*
X154743D01*
Y477820D01*
X154847D01*
Y477923D01*
X154950D01*
Y478027D01*
X155158D01*
Y478131D01*
X158376D01*
Y479792D01*
Y479896D01*
Y482076D01*
X155054D01*
Y482180D01*
X154847D01*
Y482387D01*
X154743D01*
Y482595D01*
X154639D01*
Y482906D01*
X154743D01*
Y483114D01*
X154847D01*
Y483218D01*
X154950D01*
Y483322D01*
X155262D01*
Y483425D01*
X158376D01*
Y487370D01*
X155054D01*
Y487474D01*
X154847D01*
Y487578D01*
X154743D01*
Y487785D01*
X154639D01*
Y488201D01*
X154743D01*
Y488408D01*
X154847D01*
Y488512D01*
X154950D01*
Y488616D01*
X158376D01*
Y492664D01*
X155054D01*
Y492768D01*
X154847D01*
Y492872D01*
X154743D01*
Y493080D01*
X154639D01*
Y493495D01*
X154743D01*
Y493702D01*
X154847D01*
Y493806D01*
X154950D01*
Y493910D01*
X158376D01*
Y498685D01*
X158480D01*
Y499100D01*
X158584D01*
Y499308D01*
X158688D01*
Y499516D01*
X158791D01*
Y499723D01*
X158895D01*
Y499827D01*
X158999D01*
Y499931D01*
X159103D01*
Y500035D01*
X159207D01*
Y500138D01*
X159310D01*
Y500242D01*
X159414D01*
Y500346D01*
X159518D01*
Y500450D01*
X159726D01*
Y500554D01*
X159933D01*
Y500657D01*
X160245D01*
Y500761D01*
X165227D01*
Y504083D01*
X165331D01*
Y504291D01*
X165435D01*
Y504394D01*
X165539D01*
Y504498D01*
X166162D01*
Y504394D01*
X166369D01*
Y504291D01*
X166473D01*
Y503979D01*
X166577D01*
Y500761D01*
X170522D01*
Y504187D01*
X170625D01*
Y504291D01*
X170729D01*
Y504394D01*
X170833D01*
Y504498D01*
X171456D01*
Y504394D01*
X171663D01*
Y504187D01*
X171767D01*
Y503875D01*
X171871D01*
Y500969D01*
X171767D01*
Y500865D01*
X171871D01*
Y500761D01*
X175712D01*
Y500865D01*
X175816D01*
Y504187D01*
X175920D01*
Y504291D01*
X176023D01*
Y504394D01*
X176127D01*
Y504498D01*
X176750D01*
Y504394D01*
X176854D01*
Y504291D01*
X176958D01*
Y504187D01*
X177061D01*
Y500865D01*
X177165D01*
Y500761D01*
X181006D01*
Y500865D01*
X181110D01*
Y500969D01*
X181006D01*
Y503875D01*
X181110D01*
Y504187D01*
X181214D01*
Y504394D01*
X181421D01*
Y504498D01*
X182044D01*
Y504394D01*
X182148D01*
Y504291D01*
X182252D01*
Y504187D01*
X182356D01*
Y500761D01*
X186300D01*
Y504083D01*
X186404D01*
Y504291D01*
X186508D01*
Y504394D01*
X186716D01*
Y504498D01*
X187338D01*
Y504394D01*
D02*
G37*
G36*
X234571Y491938D02*
X233325D01*
Y493183D01*
X234571D01*
Y491938D01*
D02*
G37*
G36*
X210695Y492872D02*
Y492768D01*
Y491938D01*
X209450D01*
Y493183D01*
X210695D01*
Y492872D01*
D02*
G37*
G36*
X208827Y491938D02*
X207581D01*
Y492664D01*
Y492768D01*
Y493183D01*
X208827D01*
Y491938D01*
D02*
G37*
G36*
X231249Y491315D02*
X231664D01*
Y491211D01*
X231976D01*
Y491107D01*
X232080D01*
Y491003D01*
X232287D01*
Y490900D01*
X232391D01*
Y490692D01*
X232287D01*
Y490484D01*
X232184D01*
Y490277D01*
X232080D01*
Y490069D01*
X231976D01*
Y489861D01*
X231768D01*
Y489965D01*
X231664D01*
Y490069D01*
X231561D01*
Y490173D01*
X231353D01*
Y490277D01*
X230315D01*
Y490173D01*
X230107D01*
Y490069D01*
X230003D01*
Y489965D01*
X229900D01*
Y489861D01*
X229796D01*
Y489758D01*
X229692D01*
Y489654D01*
X229588D01*
Y489446D01*
X229485D01*
Y489239D01*
X229381D01*
Y488823D01*
X229277D01*
Y487266D01*
X229381D01*
Y486747D01*
X229485D01*
Y486540D01*
X229588D01*
Y486332D01*
X229692D01*
Y486124D01*
X229796D01*
Y486021D01*
X229900D01*
Y485917D01*
X230003D01*
Y485813D01*
X230107D01*
Y485709D01*
X230315D01*
Y485605D01*
X231249D01*
Y485709D01*
X231561D01*
Y485813D01*
X231768D01*
Y485917D01*
X231976D01*
Y485813D01*
X232080D01*
Y485605D01*
X232184D01*
Y485398D01*
X232287D01*
Y485294D01*
X232391D01*
Y485086D01*
X232287D01*
Y484982D01*
X232184D01*
Y484879D01*
X231976D01*
Y484775D01*
X231664D01*
Y484671D01*
X231145D01*
Y484567D01*
X230211D01*
Y484671D01*
X229796D01*
Y484775D01*
X229588D01*
Y484879D01*
X229381D01*
Y484982D01*
X229173D01*
Y485086D01*
X229069D01*
Y485190D01*
X228965D01*
Y485294D01*
X228862D01*
Y485398D01*
X228758D01*
Y485501D01*
X228654D01*
Y485709D01*
X228550D01*
Y485813D01*
X228446D01*
Y486021D01*
X228343D01*
Y486228D01*
X228239D01*
Y486540D01*
X228135D01*
Y486955D01*
X228031D01*
Y489135D01*
X228135D01*
Y489446D01*
X228239D01*
Y489758D01*
X228343D01*
Y489965D01*
X228446D01*
Y490173D01*
X228550D01*
Y490277D01*
X228654D01*
Y490484D01*
X228758D01*
Y490588D01*
X228862D01*
Y490692D01*
X228965D01*
Y490796D01*
X229069D01*
Y490900D01*
X229277D01*
Y491003D01*
X229381D01*
Y491107D01*
X229588D01*
Y491211D01*
X229900D01*
Y491315D01*
X230315D01*
Y491419D01*
X231249D01*
Y491315D01*
D02*
G37*
G36*
X204155D02*
X204674D01*
Y491211D01*
X204986D01*
Y491107D01*
X205193D01*
Y491003D01*
X205297D01*
Y490900D01*
X205505D01*
Y490796D01*
X205401D01*
Y490588D01*
X205297D01*
Y490380D01*
X205193D01*
Y490173D01*
X205090D01*
Y489861D01*
X204882D01*
Y489965D01*
X204674D01*
Y490069D01*
X204571D01*
Y490173D01*
X204259D01*
Y490277D01*
X203117D01*
Y490173D01*
X202910D01*
Y490069D01*
X202702D01*
Y489965D01*
X202598D01*
Y489861D01*
X202495D01*
Y489758D01*
X202391D01*
Y489550D01*
X202287D01*
Y489446D01*
X202183D01*
Y489239D01*
X202079D01*
Y488927D01*
X201975D01*
Y488512D01*
Y488408D01*
X201872D01*
Y487681D01*
X201975D01*
Y487059D01*
X202079D01*
Y486643D01*
X202183D01*
Y486436D01*
X202287D01*
Y486228D01*
X202391D01*
Y486124D01*
X202495D01*
Y486021D01*
X202598D01*
Y485917D01*
X202702D01*
Y485813D01*
X202806D01*
Y485709D01*
X203013D01*
Y485605D01*
X204052D01*
Y485709D01*
X204259D01*
Y485813D01*
X204363D01*
Y485917D01*
X204467D01*
Y486021D01*
X204571D01*
Y486124D01*
X204674D01*
Y486436D01*
X204778D01*
Y487266D01*
X203429D01*
Y488304D01*
X205920D01*
Y486540D01*
X205816D01*
Y486124D01*
X205713D01*
Y485813D01*
X205609D01*
Y485605D01*
X205505D01*
Y485398D01*
X205401D01*
Y485294D01*
X205297D01*
Y485190D01*
X205193D01*
Y485086D01*
X205090D01*
Y484982D01*
X204986D01*
Y484879D01*
X204778D01*
Y484775D01*
X204467D01*
Y484671D01*
X203948D01*
Y484567D01*
X203013D01*
Y484671D01*
X202598D01*
Y484775D01*
X202287D01*
Y484879D01*
X202079D01*
Y484982D01*
X201975D01*
Y485086D01*
X201768D01*
Y485190D01*
X201664D01*
Y485294D01*
X201560D01*
Y485398D01*
X201456D01*
Y485605D01*
X201353D01*
Y485709D01*
X201249D01*
Y485917D01*
X201145D01*
Y486124D01*
X201041D01*
Y486332D01*
X200937D01*
Y486643D01*
X200834D01*
Y486955D01*
X200730D01*
Y489031D01*
X200834D01*
Y489446D01*
X200937D01*
Y489654D01*
X201041D01*
Y489861D01*
X201145D01*
Y490069D01*
X201249D01*
Y490277D01*
X201353D01*
Y490380D01*
X201456D01*
Y490484D01*
X201560D01*
Y490588D01*
X201664D01*
Y490692D01*
X201768D01*
Y490796D01*
X201872D01*
Y490900D01*
X202079D01*
Y491003D01*
X202183D01*
Y491107D01*
X202391D01*
Y491211D01*
X202702D01*
Y491315D01*
X203117D01*
Y491419D01*
X204155D01*
Y491315D01*
D02*
G37*
G36*
X217443Y491211D02*
X217339D01*
Y491003D01*
X217235D01*
Y490692D01*
X217131D01*
Y490484D01*
X217028D01*
Y490173D01*
X216924D01*
Y489965D01*
X216820D01*
Y489654D01*
X216716D01*
Y489446D01*
X216612D01*
Y489135D01*
X216509D01*
Y488927D01*
X216405D01*
Y488616D01*
X216301D01*
Y488304D01*
X216197D01*
Y488097D01*
X216093D01*
Y487993D01*
Y487889D01*
Y487785D01*
X215989D01*
Y487578D01*
X215886D01*
Y487266D01*
X215782D01*
Y487059D01*
X215678D01*
Y486747D01*
X215574D01*
Y486540D01*
X215470D01*
Y486228D01*
X215367D01*
Y486021D01*
X215263D01*
Y485709D01*
X215159D01*
Y485398D01*
X215055D01*
Y485190D01*
X214951D01*
Y484879D01*
X214848D01*
Y484671D01*
X214640D01*
Y484879D01*
X214536D01*
Y485190D01*
X214432D01*
Y485501D01*
X214329D01*
Y485709D01*
X214225D01*
Y486021D01*
X214121D01*
Y486228D01*
X214017D01*
Y486540D01*
X213913D01*
Y486747D01*
X213809D01*
Y487059D01*
X213706D01*
Y487266D01*
X213602D01*
Y487578D01*
X213498D01*
Y487785D01*
X213394D01*
Y488097D01*
X213291D01*
Y488304D01*
X213187D01*
Y488616D01*
X213083D01*
Y488927D01*
X212979D01*
Y489135D01*
X212875D01*
Y489446D01*
X212771D01*
Y489654D01*
X212668D01*
Y489965D01*
X212564D01*
Y490173D01*
X212460D01*
Y490484D01*
X212356D01*
Y490692D01*
X212252D01*
Y491003D01*
X212149D01*
Y491211D01*
X212045D01*
Y491315D01*
X213394D01*
Y491003D01*
X213498D01*
Y490796D01*
X213602D01*
Y490484D01*
X213706D01*
Y490173D01*
X213809D01*
Y489861D01*
X213913D01*
Y489550D01*
X214017D01*
Y489342D01*
X214121D01*
Y489031D01*
X214225D01*
Y488720D01*
X214329D01*
Y488408D01*
X214432D01*
Y488097D01*
X214536D01*
Y487785D01*
X214640D01*
Y487474D01*
X214744D01*
Y487370D01*
X214848D01*
Y487578D01*
X214951D01*
Y487993D01*
X215055D01*
Y488304D01*
X215159D01*
Y488616D01*
X215263D01*
Y488823D01*
X215367D01*
Y489135D01*
X215470D01*
Y489446D01*
X215574D01*
Y489758D01*
X215678D01*
Y490069D01*
X215782D01*
Y490380D01*
X215886D01*
Y490692D01*
X215989D01*
Y491003D01*
X216093D01*
Y491315D01*
X217443D01*
Y491211D01*
D02*
G37*
G36*
X211422Y486643D02*
Y486540D01*
Y486124D01*
X211318D01*
Y485813D01*
X211214D01*
Y485605D01*
X211110D01*
Y485398D01*
X211007D01*
Y485294D01*
X210903D01*
Y485190D01*
X210799D01*
Y485086D01*
X210695D01*
Y484982D01*
X210592D01*
Y484879D01*
X210384D01*
Y484775D01*
X210072D01*
Y484671D01*
X209657D01*
Y484567D01*
X208723D01*
Y484671D01*
X208308D01*
Y484775D01*
X207996D01*
Y484879D01*
X207789D01*
Y484982D01*
X207685D01*
Y485086D01*
X207477D01*
Y485190D01*
X207373D01*
Y485294D01*
X207270D01*
Y485501D01*
X207166D01*
Y485709D01*
X207062D01*
Y485917D01*
X206958D01*
Y486436D01*
X206854D01*
Y491315D01*
X208100D01*
Y486332D01*
X208204D01*
Y486021D01*
X208308D01*
Y485917D01*
X208412D01*
Y485813D01*
X208515D01*
Y485709D01*
X208723D01*
Y485605D01*
X209553D01*
Y485709D01*
X209761D01*
Y485813D01*
X209969D01*
Y485917D01*
X210072D01*
Y486124D01*
X210176D01*
Y486436D01*
X210280D01*
Y491315D01*
X211422D01*
Y486643D01*
D02*
G37*
G36*
X234571Y489342D02*
Y489239D01*
Y484671D01*
X233429D01*
Y491315D01*
X234571D01*
Y489342D01*
D02*
G37*
G36*
X225228Y491211D02*
X225747D01*
Y491107D01*
X226059D01*
Y491003D01*
X226266D01*
Y490900D01*
X226370D01*
Y490796D01*
X226474D01*
Y490692D01*
X226578D01*
Y490588D01*
X226682D01*
Y490484D01*
X226785D01*
Y490277D01*
X226889D01*
Y490069D01*
X226993D01*
Y489550D01*
X227097D01*
Y488823D01*
X226993D01*
Y488304D01*
X226889D01*
Y488097D01*
X226785D01*
Y487889D01*
X226682D01*
Y487681D01*
X226578D01*
Y487578D01*
X226474D01*
Y487474D01*
X226370D01*
Y487370D01*
X226266D01*
Y487266D01*
X226163D01*
Y487162D01*
X225955D01*
Y487059D01*
X225644D01*
Y486955D01*
X225540D01*
Y486851D01*
X225644D01*
Y486747D01*
X225747D01*
Y486643D01*
X225851D01*
Y486436D01*
X225955D01*
Y486332D01*
X226059D01*
Y486228D01*
X226163D01*
Y486021D01*
X226266D01*
Y485917D01*
X226370D01*
Y485813D01*
X226474D01*
Y485605D01*
X226578D01*
Y485501D01*
X226682D01*
Y485398D01*
X226785D01*
Y485190D01*
X226889D01*
Y485086D01*
X226993D01*
Y484982D01*
X227097D01*
Y484775D01*
X227201D01*
Y484671D01*
X225747D01*
Y484879D01*
X225644D01*
Y484982D01*
X225540D01*
Y485086D01*
X225436D01*
Y485294D01*
X225332D01*
Y485398D01*
X225228D01*
Y485605D01*
X225125D01*
Y485709D01*
X225021D01*
Y485813D01*
X224917D01*
Y486021D01*
X224813D01*
Y486124D01*
X224709D01*
Y486332D01*
X224605D01*
Y486436D01*
X224502D01*
Y486540D01*
X224398D01*
Y486747D01*
X224294D01*
Y486851D01*
X224190D01*
Y486955D01*
X224086D01*
Y484671D01*
X222945D01*
Y487578D01*
Y487681D01*
Y491315D01*
X225228D01*
Y491211D01*
D02*
G37*
G36*
X221491Y490277D02*
X219311D01*
Y488720D01*
X221076D01*
Y487785D01*
X219311D01*
Y485709D01*
X221699D01*
Y484671D01*
X218169D01*
Y491315D01*
X221491D01*
Y490277D01*
D02*
G37*
G36*
X236336Y491315D02*
X236440D01*
Y491211D01*
X236543D01*
Y491003D01*
X236647D01*
Y490900D01*
X236751D01*
Y490796D01*
X236855D01*
Y490692D01*
X236959D01*
Y490588D01*
X237063D01*
Y490484D01*
X237166D01*
Y490277D01*
X237270D01*
Y490173D01*
X237374D01*
Y490069D01*
X237478D01*
Y489965D01*
X237581D01*
Y489861D01*
X237685D01*
Y489654D01*
X237789D01*
Y489550D01*
X237893D01*
Y489446D01*
X237997D01*
Y489342D01*
X238101D01*
Y489239D01*
X238204D01*
Y489031D01*
X238308D01*
Y488927D01*
X238412D01*
Y488823D01*
X238516D01*
Y488720D01*
X238620D01*
Y488616D01*
X238723D01*
Y488512D01*
X238827D01*
Y488304D01*
X238931D01*
Y488201D01*
X239035D01*
Y488097D01*
X239139D01*
Y487993D01*
X239242D01*
Y487889D01*
X239346D01*
Y487681D01*
X239450D01*
Y487578D01*
X239554D01*
Y487474D01*
X239658D01*
Y487370D01*
X239761D01*
Y488201D01*
X239658D01*
Y488616D01*
Y488720D01*
Y491315D01*
X240799D01*
Y484463D01*
X240696D01*
Y484567D01*
X240592D01*
Y484775D01*
X240488D01*
Y484879D01*
X240384D01*
Y484982D01*
X240281D01*
Y485086D01*
X240177D01*
Y485190D01*
X240073D01*
Y485294D01*
X239969D01*
Y485501D01*
X239865D01*
Y485605D01*
X239761D01*
Y485709D01*
X239658D01*
Y485813D01*
X239554D01*
Y485917D01*
X239450D01*
Y486021D01*
X239346D01*
Y486228D01*
X239242D01*
Y486332D01*
X239139D01*
Y486436D01*
X239035D01*
Y486540D01*
X238931D01*
Y486643D01*
X238827D01*
Y486747D01*
X238723D01*
Y486851D01*
X238620D01*
Y487059D01*
X238516D01*
Y487162D01*
X238412D01*
Y487266D01*
X238308D01*
Y487370D01*
X238204D01*
Y487474D01*
X238101D01*
Y487578D01*
X237997D01*
Y487785D01*
X237893D01*
Y487889D01*
X237789D01*
Y487993D01*
X237685D01*
Y488097D01*
X237581D01*
Y488201D01*
X237478D01*
Y488408D01*
X237270D01*
Y487889D01*
X237374D01*
Y484671D01*
X236232D01*
Y491419D01*
X236336D01*
Y491315D01*
D02*
G37*
G36*
X243602Y480622D02*
X242357D01*
Y481868D01*
X243602D01*
Y480622D01*
D02*
G37*
G36*
X252322Y480000D02*
X252841D01*
Y479896D01*
X253049D01*
Y479792D01*
X253257D01*
Y479688D01*
X253464D01*
Y479585D01*
X253568D01*
Y479377D01*
X253464D01*
Y479169D01*
X253360D01*
Y478962D01*
X253257D01*
Y478754D01*
X253153D01*
Y478650D01*
X252945D01*
Y478754D01*
X252841D01*
Y478858D01*
X252737D01*
Y478962D01*
X252530D01*
Y479065D01*
X252322D01*
Y479169D01*
X251699D01*
Y479065D01*
X251492D01*
Y478962D01*
X251388D01*
Y478858D01*
X251284D01*
Y478650D01*
X251180D01*
Y478235D01*
X251284D01*
Y478131D01*
Y478027D01*
Y477923D01*
X251388D01*
Y477820D01*
X251492D01*
Y477716D01*
X251596D01*
Y477612D01*
X251699D01*
Y477508D01*
X251907D01*
Y477404D01*
X252011D01*
Y477301D01*
X252218D01*
Y477197D01*
X252426D01*
Y477093D01*
X252530D01*
Y476989D01*
X252737D01*
Y476886D01*
X252841D01*
Y476782D01*
X253049D01*
Y476678D01*
X253153D01*
Y476574D01*
X253257D01*
Y476470D01*
X253360D01*
Y476366D01*
X253464D01*
Y476159D01*
X253568D01*
Y476055D01*
X253672D01*
Y475847D01*
X253776D01*
Y474394D01*
X253672D01*
Y474186D01*
X253568D01*
Y473979D01*
X253464D01*
Y473875D01*
X253360D01*
Y473771D01*
X253257D01*
Y473667D01*
X253153D01*
Y473564D01*
X252945D01*
Y473460D01*
X252737D01*
Y473356D01*
X252218D01*
Y473252D01*
X251388D01*
Y473356D01*
X250869D01*
Y473460D01*
X250557D01*
Y473564D01*
X250350D01*
Y473667D01*
X250142D01*
Y473771D01*
X250038D01*
Y473875D01*
X249935D01*
Y473979D01*
X249831D01*
Y474083D01*
X249935D01*
Y474290D01*
X250038D01*
Y474498D01*
X250142D01*
Y474706D01*
X250246D01*
Y474913D01*
X250454D01*
Y474809D01*
X250557D01*
Y474706D01*
X250661D01*
Y474602D01*
X250869D01*
Y474498D01*
X251077D01*
Y474394D01*
X251284D01*
Y474290D01*
X252115D01*
Y474394D01*
X252322D01*
Y474498D01*
X252426D01*
Y474602D01*
X252530D01*
Y474809D01*
X252634D01*
Y475328D01*
X252530D01*
Y475536D01*
X252426D01*
Y475640D01*
X252322D01*
Y475744D01*
X252218D01*
Y475847D01*
X252115D01*
Y475951D01*
X251907D01*
Y476055D01*
X251803D01*
Y476159D01*
X251596D01*
Y476263D01*
X251388D01*
Y476366D01*
X251284D01*
Y476470D01*
X251077D01*
Y476574D01*
X250973D01*
Y476678D01*
X250765D01*
Y476782D01*
X250661D01*
Y476886D01*
X250557D01*
Y476989D01*
X250454D01*
Y477093D01*
X250350D01*
Y477301D01*
X250246D01*
Y477508D01*
X250142D01*
Y477716D01*
X250038D01*
Y478858D01*
X250142D01*
Y479169D01*
X250246D01*
Y479377D01*
X250350D01*
Y479481D01*
X250454D01*
Y479585D01*
X250557D01*
Y479688D01*
X250661D01*
Y479792D01*
X250869D01*
Y479896D01*
X251077D01*
Y480000D01*
X251492D01*
Y480103D01*
X252322D01*
Y480000D01*
D02*
G37*
G36*
X248066D02*
X248481D01*
Y479896D01*
X248793D01*
Y479792D01*
X248897D01*
Y479688D01*
X249104D01*
Y479585D01*
X249208D01*
Y479377D01*
X249104D01*
Y479169D01*
X249000D01*
Y478962D01*
X248897D01*
Y478754D01*
X248793D01*
Y478546D01*
X248585D01*
Y478650D01*
X248481D01*
Y478754D01*
X248377D01*
Y478858D01*
X248170D01*
Y478962D01*
X247132D01*
Y478858D01*
X246924D01*
Y478754D01*
X246820D01*
Y478650D01*
X246717D01*
Y478546D01*
X246613D01*
Y478443D01*
X246509D01*
Y478339D01*
X246405D01*
Y478131D01*
X246301D01*
Y477923D01*
X246198D01*
Y477508D01*
X246094D01*
Y475951D01*
X246198D01*
Y475432D01*
X246301D01*
Y475224D01*
X246405D01*
Y475017D01*
X246509D01*
Y474809D01*
X246613D01*
Y474706D01*
X246717D01*
Y474602D01*
X246820D01*
Y474498D01*
X246924D01*
Y474394D01*
X247132D01*
Y474290D01*
X248066D01*
Y474394D01*
X248377D01*
Y474498D01*
X248585D01*
Y474602D01*
X248793D01*
Y474498D01*
X248897D01*
Y474290D01*
X249000D01*
Y474083D01*
X249104D01*
Y473979D01*
X249208D01*
Y473771D01*
X249104D01*
Y473667D01*
X249000D01*
Y473564D01*
X248793D01*
Y473460D01*
X248481D01*
Y473356D01*
X247962D01*
Y473252D01*
X247028D01*
Y473356D01*
X246613D01*
Y473460D01*
X246405D01*
Y473564D01*
X246198D01*
Y473667D01*
X245990D01*
Y473771D01*
X245886D01*
Y473875D01*
X245782D01*
Y473979D01*
X245678D01*
Y474083D01*
X245575D01*
Y474186D01*
X245471D01*
Y474394D01*
X245367D01*
Y474498D01*
X245263D01*
Y474706D01*
X245160D01*
Y474913D01*
X245056D01*
Y475224D01*
X244952D01*
Y475640D01*
X244848D01*
Y477197D01*
Y477301D01*
Y477820D01*
X244952D01*
Y478131D01*
X245056D01*
Y478443D01*
X245160D01*
Y478650D01*
X245263D01*
Y478858D01*
X245367D01*
Y478962D01*
X245471D01*
Y479169D01*
X245575D01*
Y479273D01*
X245678D01*
Y479377D01*
X245782D01*
Y479481D01*
X245886D01*
Y479585D01*
X246094D01*
Y479688D01*
X246198D01*
Y479792D01*
X246405D01*
Y479896D01*
X246717D01*
Y480000D01*
X247132D01*
Y480103D01*
X248066D01*
Y480000D01*
D02*
G37*
G36*
X217754D02*
X218169D01*
Y479896D01*
X218481D01*
Y479792D01*
X218585D01*
Y479688D01*
X218792D01*
Y479585D01*
X218896D01*
Y479377D01*
X218792D01*
Y479169D01*
X218689D01*
Y478962D01*
X218585D01*
Y478754D01*
X218481D01*
Y478546D01*
X218273D01*
Y478650D01*
X218169D01*
Y478754D01*
X218066D01*
Y478858D01*
X217858D01*
Y478962D01*
X216820D01*
Y478858D01*
X216612D01*
Y478754D01*
X216509D01*
Y478650D01*
X216405D01*
Y478546D01*
X216301D01*
Y478443D01*
X216197D01*
Y478339D01*
X216093D01*
Y478131D01*
X215989D01*
Y477923D01*
X215886D01*
Y477508D01*
X215782D01*
Y475951D01*
X215886D01*
Y475432D01*
X215989D01*
Y475224D01*
X216093D01*
Y475017D01*
X216197D01*
Y474809D01*
X216301D01*
Y474706D01*
X216405D01*
Y474602D01*
X216509D01*
Y474498D01*
X216612D01*
Y474394D01*
X216820D01*
Y474290D01*
X217754D01*
Y474394D01*
X218066D01*
Y474498D01*
X218273D01*
Y474602D01*
X218481D01*
Y474498D01*
X218585D01*
Y474290D01*
X218689D01*
Y474083D01*
X218792D01*
Y473979D01*
X218896D01*
Y473771D01*
X218792D01*
Y473667D01*
X218689D01*
Y473564D01*
X218481D01*
Y473460D01*
X218169D01*
Y473356D01*
X217650D01*
Y473252D01*
X216716D01*
Y473356D01*
X216301D01*
Y473460D01*
X216093D01*
Y473564D01*
X215886D01*
Y473667D01*
X215678D01*
Y473771D01*
X215574D01*
Y473875D01*
X215470D01*
Y473979D01*
X215367D01*
Y474083D01*
X215263D01*
Y474186D01*
X215159D01*
Y474394D01*
X215055D01*
Y474498D01*
X214951D01*
Y474706D01*
X214848D01*
Y474913D01*
X214744D01*
Y475224D01*
X214640D01*
Y475640D01*
X214536D01*
Y477820D01*
X214640D01*
Y478131D01*
X214744D01*
Y478443D01*
X214848D01*
Y478650D01*
X214951D01*
Y478858D01*
X215055D01*
Y478962D01*
X215159D01*
Y479169D01*
X215263D01*
Y479273D01*
X215367D01*
Y479377D01*
X215470D01*
Y479481D01*
X215574D01*
Y479585D01*
X215782D01*
Y479688D01*
X215886D01*
Y479792D01*
X216093D01*
Y479896D01*
X216405D01*
Y480000D01*
X216820D01*
Y480103D01*
X217754D01*
Y480000D01*
D02*
G37*
G36*
X243602Y473356D02*
X242460D01*
Y476366D01*
Y476470D01*
Y480000D01*
X243602D01*
Y473356D01*
D02*
G37*
G36*
X226785Y479896D02*
X227305D01*
Y479792D01*
X227616D01*
Y479688D01*
X227824D01*
Y479585D01*
X227927D01*
Y479481D01*
X228031D01*
Y479377D01*
X228135D01*
Y479273D01*
X228239D01*
Y479169D01*
X228343D01*
Y478962D01*
X228446D01*
Y478754D01*
X228550D01*
Y478235D01*
X228654D01*
Y477508D01*
X228550D01*
Y476989D01*
X228446D01*
Y476782D01*
X228343D01*
Y476574D01*
X228239D01*
Y476366D01*
X228135D01*
Y476263D01*
X228031D01*
Y476159D01*
X227927D01*
Y476055D01*
X227824D01*
Y475951D01*
X227720D01*
Y475847D01*
X227512D01*
Y475744D01*
X227201D01*
Y475640D01*
X227097D01*
Y475536D01*
X227201D01*
Y475432D01*
X227305D01*
Y475328D01*
X227408D01*
Y475121D01*
X227512D01*
Y475017D01*
X227616D01*
Y474913D01*
X227720D01*
Y474706D01*
X227824D01*
Y474602D01*
X227927D01*
Y474498D01*
X228031D01*
Y474290D01*
X228135D01*
Y474186D01*
X228239D01*
Y474083D01*
X228343D01*
Y473875D01*
X228446D01*
Y473771D01*
X228550D01*
Y473667D01*
X228654D01*
Y473460D01*
X228758D01*
Y473356D01*
X227305D01*
Y473564D01*
X227201D01*
Y473667D01*
X227097D01*
Y473771D01*
X226993D01*
Y473979D01*
X226889D01*
Y474083D01*
X226785D01*
Y474290D01*
X226682D01*
Y474394D01*
X226578D01*
Y474498D01*
X226474D01*
Y474706D01*
X226370D01*
Y474809D01*
X226266D01*
Y475017D01*
X226163D01*
Y475121D01*
X226059D01*
Y475224D01*
X225955D01*
Y475432D01*
X225851D01*
Y475536D01*
X225747D01*
Y475640D01*
X225644D01*
Y473356D01*
X224502D01*
Y479377D01*
Y479481D01*
Y480000D01*
X226785D01*
Y479896D01*
D02*
G37*
G36*
X223464Y478962D02*
X222010D01*
Y473667D01*
Y473564D01*
Y473356D01*
X220765D01*
Y478962D01*
X219311D01*
Y480000D01*
X223464D01*
Y478962D01*
D02*
G37*
G36*
X213498D02*
X211318D01*
Y477404D01*
X213083D01*
Y476470D01*
X211318D01*
Y474394D01*
X213706D01*
Y473460D01*
Y473356D01*
X210176D01*
Y480000D01*
X213498D01*
Y478962D01*
D02*
G37*
G36*
X207062Y478235D02*
Y478131D01*
Y474394D01*
X209034D01*
Y473356D01*
X205920D01*
Y480000D01*
X207062D01*
Y478235D01*
D02*
G37*
G36*
X204467Y479792D02*
Y479688D01*
Y478962D01*
X202287D01*
Y477404D01*
X204052D01*
Y476470D01*
X202287D01*
Y474394D01*
X204674D01*
Y473356D01*
X201145D01*
Y480000D01*
X204467D01*
Y479792D01*
D02*
G37*
G36*
X232702Y480000D02*
X233222D01*
Y479896D01*
X233429D01*
Y479792D01*
X233637D01*
Y479688D01*
X233844D01*
Y479585D01*
X233948D01*
Y479481D01*
X234052D01*
Y479377D01*
X234156D01*
Y479273D01*
X234260D01*
Y479169D01*
X234364D01*
Y479065D01*
X234467D01*
Y478858D01*
X234571D01*
Y478650D01*
X234675D01*
Y478443D01*
X234779D01*
Y478131D01*
X234882D01*
Y477612D01*
X234986D01*
Y476782D01*
Y476678D01*
Y475744D01*
X234882D01*
Y475328D01*
X234779D01*
Y475017D01*
X234675D01*
Y474706D01*
X234571D01*
Y474498D01*
X234467D01*
Y474394D01*
X234364D01*
Y474186D01*
X234260D01*
Y474083D01*
X234156D01*
Y473979D01*
X234052D01*
Y473875D01*
X233948D01*
Y473771D01*
X233844D01*
Y473667D01*
X233637D01*
Y473564D01*
X233429D01*
Y473460D01*
X233222D01*
Y473356D01*
X232702D01*
Y473252D01*
X231872D01*
Y473356D01*
X231353D01*
Y473460D01*
X231145D01*
Y473564D01*
X230938D01*
Y473667D01*
X230730D01*
Y473771D01*
X230626D01*
Y473875D01*
X230523D01*
Y473979D01*
X230419D01*
Y474083D01*
X230315D01*
Y474186D01*
X230211D01*
Y474290D01*
X230107D01*
Y474498D01*
X230003D01*
Y474706D01*
X229900D01*
Y474913D01*
X229796D01*
Y475224D01*
X229692D01*
Y475640D01*
X229588D01*
Y477716D01*
X229692D01*
Y478131D01*
X229796D01*
Y478443D01*
X229900D01*
Y478650D01*
X230003D01*
Y478858D01*
X230107D01*
Y479065D01*
X230211D01*
Y479169D01*
X230315D01*
Y479273D01*
X230419D01*
Y479377D01*
X230523D01*
Y479481D01*
X230626D01*
Y479585D01*
X230730D01*
Y479688D01*
X230938D01*
Y479792D01*
X231042D01*
Y479896D01*
X231353D01*
Y480000D01*
X231872D01*
Y480103D01*
X232702D01*
Y480000D01*
D02*
G37*
G36*
X236336D02*
X236440D01*
Y479896D01*
X236543D01*
Y479688D01*
X236647D01*
Y479585D01*
X236751D01*
Y479481D01*
X236855D01*
Y479377D01*
X236959D01*
Y479273D01*
X237063D01*
Y479169D01*
X237166D01*
Y479065D01*
Y478962D01*
X237270D01*
Y478858D01*
X237374D01*
Y478754D01*
X237478D01*
Y478650D01*
X237581D01*
Y478546D01*
X237685D01*
Y478339D01*
X237789D01*
Y478235D01*
X237893D01*
Y478131D01*
X237997D01*
Y478027D01*
X238101D01*
Y477923D01*
X238204D01*
Y477716D01*
X238308D01*
Y477612D01*
X238412D01*
Y477508D01*
X238516D01*
Y477404D01*
X238620D01*
Y477301D01*
X238723D01*
Y477197D01*
X238827D01*
Y476989D01*
X238931D01*
Y476886D01*
X239035D01*
Y476782D01*
X239139D01*
Y476678D01*
X239242D01*
Y476574D01*
X239346D01*
Y476366D01*
X239450D01*
Y476263D01*
X239554D01*
Y476159D01*
X239658D01*
Y476055D01*
X239761D01*
Y476886D01*
X239658D01*
Y480000D01*
X240799D01*
Y473148D01*
X240696D01*
Y473252D01*
X240592D01*
Y473460D01*
X240488D01*
Y473564D01*
X240384D01*
Y473667D01*
X240281D01*
Y473771D01*
X240177D01*
Y473875D01*
X240073D01*
Y473979D01*
X239969D01*
Y474186D01*
X239865D01*
Y474290D01*
X239761D01*
Y474394D01*
X239658D01*
Y474498D01*
X239554D01*
Y474602D01*
X239450D01*
Y474706D01*
X239346D01*
Y474913D01*
X239242D01*
Y475017D01*
X239139D01*
Y475121D01*
X239035D01*
Y475224D01*
X238931D01*
Y475328D01*
X238827D01*
Y475432D01*
X238723D01*
Y475536D01*
X238620D01*
Y475744D01*
X238516D01*
Y475847D01*
X238412D01*
Y475951D01*
X238308D01*
Y476055D01*
X238204D01*
Y476159D01*
X238101D01*
Y476263D01*
X237997D01*
Y476470D01*
X237893D01*
Y476574D01*
X237789D01*
Y476678D01*
X237685D01*
Y476782D01*
X237581D01*
Y476886D01*
X237478D01*
Y477093D01*
X237270D01*
Y476574D01*
X237374D01*
Y473356D01*
X236232D01*
Y480103D01*
X236336D01*
Y480000D01*
D02*
G37*
G36*
X137031Y389173D02*
X134031Y386173D01*
X133858Y392173D01*
X134031D01*
X137031Y389173D01*
D02*
G37*
G36*
X294020Y451421D02*
X292581D01*
Y452843D01*
X294020D01*
Y451421D01*
D02*
G37*
G36*
X267200D02*
X265797D01*
Y452824D01*
X267200D01*
Y451421D01*
D02*
G37*
G36*
X265087D02*
X263684D01*
Y452824D01*
X265087D01*
Y451421D01*
D02*
G37*
G36*
X224511Y451385D02*
Y451312D01*
X224493Y451203D01*
X224475Y451057D01*
X224456Y450875D01*
X224420Y450693D01*
X224347Y450510D01*
X224274Y450346D01*
X224256Y450328D01*
X224238Y450274D01*
X224183Y450201D01*
X224110Y450109D01*
X224019Y450000D01*
X223928Y449909D01*
X223800Y449800D01*
X223655Y449709D01*
X223636D01*
X223582Y449672D01*
X223509Y449654D01*
X223381Y449618D01*
X223254Y449581D01*
X223090Y449545D01*
X222926Y449527D01*
X222725Y449508D01*
X222634D01*
X222543Y449527D01*
X222416Y449545D01*
X222270Y449563D01*
X222106Y449599D01*
X221942Y449654D01*
X221778Y449727D01*
X221760Y449745D01*
X221705Y449763D01*
X221632Y449818D01*
X221559Y449891D01*
X221450Y449982D01*
X221341Y450091D01*
X221250Y450219D01*
X221159Y450365D01*
Y450383D01*
X221122Y450437D01*
X221086Y450529D01*
X221049Y450656D01*
X221013Y450820D01*
X220976Y451002D01*
X220958Y451203D01*
X220940Y451421D01*
X221905D01*
Y451403D01*
Y451330D01*
X221924Y451239D01*
X221942Y451130D01*
X221997Y450893D01*
X222033Y450784D01*
X222088Y450674D01*
X222106D01*
X222124Y450638D01*
X222179Y450601D01*
X222233Y450565D01*
X222324Y450529D01*
X222434Y450492D01*
X222561Y450474D01*
X222725Y450456D01*
X222835D01*
X222908Y450474D01*
X223053Y450510D01*
X223199Y450565D01*
X223236Y450583D01*
X223308Y450656D01*
X223381Y450766D01*
X223454Y450893D01*
Y450911D01*
X223472Y450929D01*
X223491Y451039D01*
X223509Y451203D01*
X223527Y451421D01*
X224511D01*
Y451385D01*
D02*
G37*
G36*
X173495Y449472D02*
X172001D01*
Y450875D01*
X173495D01*
Y449472D01*
D02*
G37*
G36*
X289975Y450838D02*
X290267Y450820D01*
X290558Y450747D01*
X290577D01*
X290631Y450729D01*
X290686Y450711D01*
X290777Y450674D01*
X290978Y450601D01*
X291160Y450492D01*
X291178D01*
X291196Y450474D01*
X291287Y450401D01*
X291415Y450310D01*
X291561Y450182D01*
X290978Y449071D01*
Y449089D01*
X290941Y449107D01*
X290868Y449180D01*
X290741Y449290D01*
X290631Y449381D01*
X290613Y449399D01*
X290540Y449435D01*
X290431Y449490D01*
X290267Y449545D01*
X290249D01*
X290230Y449563D01*
X290121Y449581D01*
X289939Y449599D01*
X289720Y449618D01*
X289629D01*
X289538Y449599D01*
X289411Y449581D01*
X289265Y449545D01*
X289101Y449490D01*
X288955Y449417D01*
X288791Y449308D01*
X288773Y449290D01*
X288737Y449253D01*
X288664Y449180D01*
X288573Y449089D01*
X288481Y448962D01*
X288390Y448816D01*
X288299Y448652D01*
X288208Y448452D01*
Y448433D01*
X288172Y448360D01*
X288153Y448233D01*
X288117Y448087D01*
X288081Y447905D01*
X288044Y447686D01*
X288026Y447449D01*
X288008Y447194D01*
Y447176D01*
Y447158D01*
Y447049D01*
X288026Y446885D01*
Y446666D01*
X288062Y446429D01*
X288099Y446174D01*
X288135Y445919D01*
X288208Y445664D01*
X288226Y445627D01*
X288245Y445554D01*
X288299Y445445D01*
X288372Y445299D01*
X288554Y444990D01*
X288664Y444826D01*
X288791Y444698D01*
X288809Y444680D01*
X288864Y444643D01*
X288937Y444607D01*
X289028Y444552D01*
X289156Y444480D01*
X289283Y444443D01*
X289429Y444407D01*
X289593Y444388D01*
X289757D01*
X289884Y444407D01*
X290139Y444443D01*
X290431Y444516D01*
X290449D01*
X290486Y444534D01*
X290558Y444571D01*
X290631Y444607D01*
X290832Y444716D01*
X290996Y444862D01*
X291579Y443805D01*
X291561Y443787D01*
X291524Y443769D01*
X291451Y443714D01*
X291360Y443641D01*
X291251Y443569D01*
X291105Y443496D01*
X290795Y443350D01*
X290777D01*
X290704Y443332D01*
X290613Y443295D01*
X290467Y443277D01*
X290285Y443241D01*
X290067Y443204D01*
X289830Y443186D01*
X289411D01*
X289247Y443204D01*
X289046Y443241D01*
X288828Y443295D01*
X288573Y443368D01*
X288299Y443459D01*
X288044Y443605D01*
X288008Y443623D01*
X287935Y443696D01*
X287807Y443787D01*
X287662Y443933D01*
X287479Y444115D01*
X287297Y444352D01*
X287115Y444625D01*
X286951Y444935D01*
Y444953D01*
X286933Y444972D01*
X286914Y445026D01*
X286878Y445099D01*
X286823Y445281D01*
X286751Y445536D01*
X286659Y445864D01*
X286605Y446229D01*
X286550Y446648D01*
X286532Y447121D01*
Y447140D01*
Y447176D01*
Y447231D01*
Y447322D01*
X286550Y447413D01*
Y447541D01*
X286586Y447814D01*
X286641Y448124D01*
X286714Y448452D01*
X286805Y448798D01*
X286951Y449126D01*
Y449144D01*
X286969Y449162D01*
X287024Y449271D01*
X287115Y449417D01*
X287242Y449618D01*
X287406Y449818D01*
X287607Y450037D01*
X287825Y450237D01*
X288081Y450419D01*
X288117Y450437D01*
X288208Y450492D01*
X288354Y450565D01*
X288554Y450638D01*
X288773Y450711D01*
X289046Y450784D01*
X289356Y450838D01*
X289666Y450857D01*
X289848D01*
X289975Y450838D01*
D02*
G37*
G36*
X259512D02*
X259694D01*
X259858Y450820D01*
X260040Y450784D01*
X260204Y450747D01*
X260222D01*
X260277Y450729D01*
X260350Y450711D01*
X260459Y450674D01*
X260678Y450601D01*
X260787Y450547D01*
X260878Y450492D01*
X260896D01*
X260914Y450474D01*
X261024Y450401D01*
X261151Y450310D01*
X261297Y450182D01*
X260714Y449016D01*
X260696Y449035D01*
X260623Y449107D01*
X260514Y449198D01*
X260350Y449308D01*
X260149Y449417D01*
X259876Y449508D01*
X259548Y449581D01*
X259165Y449599D01*
X259074D01*
X258983Y449581D01*
X258856Y449563D01*
X258692Y449527D01*
X258528Y449454D01*
X258364Y449381D01*
X258200Y449271D01*
X258182Y449253D01*
X258127Y449217D01*
X258054Y449144D01*
X257945Y449053D01*
X257835Y448925D01*
X257726Y448779D01*
X257617Y448597D01*
X257507Y448397D01*
X257489Y448379D01*
X257471Y448306D01*
X257435Y448178D01*
X257398Y448033D01*
X257343Y447832D01*
X257307Y447613D01*
X257289Y447376D01*
X257271Y447121D01*
Y447103D01*
Y447085D01*
Y446976D01*
X257289Y446812D01*
Y446611D01*
X257325Y446374D01*
X257362Y446119D01*
X257398Y445864D01*
X257471Y445609D01*
X257489Y445573D01*
X257507Y445500D01*
X257562Y445391D01*
X257635Y445245D01*
X257817Y444917D01*
X257945Y444771D01*
X258072Y444625D01*
X258090Y444607D01*
X258145Y444571D01*
X258218Y444516D01*
X258346Y444461D01*
X258473Y444407D01*
X258619Y444352D01*
X258801Y444316D01*
X258983Y444297D01*
X259111D01*
X259257Y444316D01*
X259420Y444352D01*
X259621Y444388D01*
X259803Y444461D01*
X259985Y444552D01*
X260131Y444680D01*
X260149Y444698D01*
X260186Y444753D01*
X260240Y444844D01*
X260313Y444972D01*
X260386Y445135D01*
X260441Y445318D01*
X260477Y445554D01*
X260495Y445828D01*
Y445846D01*
Y445901D01*
Y445992D01*
X260477Y446119D01*
X258965D01*
Y447285D01*
X261734D01*
Y447249D01*
X261753Y447176D01*
Y447067D01*
X261771Y446903D01*
X261789Y446575D01*
X261807Y446411D01*
Y446247D01*
Y446229D01*
Y446192D01*
Y446119D01*
Y446010D01*
X261789Y445901D01*
X261771Y445755D01*
X261734Y445445D01*
X261662Y445081D01*
X261552Y444698D01*
X261388Y444334D01*
X261188Y443988D01*
X261151Y443951D01*
X261060Y443860D01*
X260914Y443714D01*
X260805Y443641D01*
X260678Y443569D01*
X260532Y443477D01*
X260368Y443405D01*
X260186Y443332D01*
X259985Y443259D01*
X259767Y443204D01*
X259530Y443168D01*
X259257Y443150D01*
X258965Y443131D01*
X258819D01*
X258637Y443150D01*
X258437Y443186D01*
X258182Y443241D01*
X257908Y443332D01*
X257635Y443441D01*
X257362Y443587D01*
X257325Y443605D01*
X257252Y443678D01*
X257125Y443787D01*
X256961Y443933D01*
X256779Y444133D01*
X256596Y444370D01*
X256414Y444643D01*
X256250Y444953D01*
Y444972D01*
X256232Y444990D01*
X256214Y445044D01*
X256195Y445117D01*
X256123Y445299D01*
X256050Y445554D01*
X255977Y445864D01*
X255904Y446229D01*
X255868Y446629D01*
X255849Y447085D01*
Y447103D01*
Y447140D01*
Y447194D01*
Y447267D01*
X255868Y447468D01*
X255904Y447741D01*
X255959Y448051D01*
X256032Y448360D01*
X256123Y448707D01*
X256268Y449035D01*
Y449053D01*
X256287Y449071D01*
X256341Y449180D01*
X256432Y449326D01*
X256578Y449527D01*
X256742Y449745D01*
X256943Y449964D01*
X257179Y450164D01*
X257435Y450365D01*
X257471Y450383D01*
X257562Y450437D01*
X257726Y450529D01*
X257926Y450620D01*
X258182Y450693D01*
X258473Y450784D01*
X258801Y450838D01*
X259147Y450857D01*
X259366D01*
X259512Y450838D01*
D02*
G37*
G36*
X251367Y448707D02*
X251549Y448670D01*
X251732Y448597D01*
X251932Y448506D01*
X252133Y448379D01*
X252296Y448215D01*
X252315Y448196D01*
X252351Y448124D01*
X252424Y448014D01*
X252497Y447850D01*
X252570Y447650D01*
X252643Y447413D01*
X252679Y447140D01*
X252697Y446812D01*
Y443314D01*
X251331D01*
Y446684D01*
Y446702D01*
Y446757D01*
X251313Y446848D01*
Y446939D01*
X251240Y447176D01*
X251203Y447304D01*
X251130Y447413D01*
Y447431D01*
X251094Y447449D01*
X251003Y447559D01*
X250821Y447650D01*
X250711Y447668D01*
X250584Y447686D01*
X250547D01*
X250438Y447668D01*
X250274Y447632D01*
X250110Y447559D01*
X250074Y447541D01*
X249983Y447468D01*
X249873Y447358D01*
X249764Y447194D01*
Y447176D01*
X249746Y447158D01*
X249709Y447049D01*
X249655Y446885D01*
X249636Y446684D01*
Y443314D01*
X248288D01*
Y448597D01*
X249509D01*
X249545Y447905D01*
Y447923D01*
X249564Y447941D01*
X249655Y448033D01*
X249764Y448160D01*
X249946Y448324D01*
X250165Y448470D01*
X250438Y448597D01*
X250748Y448688D01*
X250912Y448725D01*
X251221D01*
X251367Y448707D01*
D02*
G37*
G36*
X184063D02*
X184245Y448670D01*
X184427Y448597D01*
X184627Y448506D01*
X184828Y448379D01*
X184992Y448215D01*
X185010Y448196D01*
X185046Y448124D01*
X185119Y448014D01*
X185192Y447850D01*
X185265Y447650D01*
X185338Y447413D01*
X185374Y447140D01*
X185393Y446812D01*
Y443314D01*
X184026D01*
Y446684D01*
Y446702D01*
Y446757D01*
X184008Y446848D01*
Y446939D01*
X183935Y447176D01*
X183899Y447304D01*
X183826Y447413D01*
Y447431D01*
X183789Y447449D01*
X183698Y447559D01*
X183516Y447650D01*
X183407Y447668D01*
X183279Y447686D01*
X183243D01*
X183133Y447668D01*
X182969Y447632D01*
X182805Y447559D01*
X182769Y447541D01*
X182678Y447468D01*
X182569Y447358D01*
X182459Y447194D01*
Y447176D01*
X182441Y447158D01*
X182404Y447049D01*
X182350Y446885D01*
X182332Y446684D01*
Y443314D01*
X180983D01*
Y448597D01*
X182204D01*
X182241Y447905D01*
Y447923D01*
X182259Y447941D01*
X182350Y448033D01*
X182459Y448160D01*
X182641Y448324D01*
X182860Y448470D01*
X183133Y448597D01*
X183443Y448688D01*
X183607Y448725D01*
X183917D01*
X184063Y448707D01*
D02*
G37*
G36*
X196798Y443314D02*
X195650D01*
Y444370D01*
X195614Y444297D01*
X195578Y444188D01*
X195523Y444061D01*
X195359Y443769D01*
X195250Y443623D01*
X195122Y443496D01*
X195104Y443477D01*
X195049Y443441D01*
X194976Y443386D01*
X194867Y443332D01*
X194739Y443277D01*
X194594Y443222D01*
X194412Y443186D01*
X194211Y443168D01*
X194102D01*
X193992Y443186D01*
X193828Y443204D01*
X193665Y443241D01*
X193482Y443314D01*
X193282Y443386D01*
X193100Y443496D01*
X193081Y443514D01*
X193027Y443569D01*
X192936Y443641D01*
X192826Y443751D01*
X192717Y443878D01*
X192589Y444042D01*
X192480Y444243D01*
X192371Y444461D01*
X192353Y444498D01*
X192334Y444571D01*
X192298Y444716D01*
X192243Y444880D01*
X192189Y445099D01*
X192152Y445354D01*
X192134Y445627D01*
X192116Y445937D01*
Y445955D01*
Y445992D01*
Y446065D01*
Y446156D01*
X192134Y446265D01*
X192152Y446393D01*
X192189Y446702D01*
X192243Y447030D01*
X192334Y447376D01*
X192462Y447705D01*
X192644Y447996D01*
X192662Y448033D01*
X192754Y448105D01*
X192881Y448233D01*
X193045Y448360D01*
X193264Y448488D01*
X193537Y448616D01*
X193865Y448688D01*
X194229Y448725D01*
X194320D01*
X194430Y448707D01*
X194557Y448688D01*
X194685Y448652D01*
X194849Y448616D01*
X194995Y448543D01*
X195140Y448452D01*
X195159Y448433D01*
X195195Y448397D01*
X195268Y448342D01*
X195341Y448269D01*
X195432Y448160D01*
X195523Y448014D01*
X195596Y447868D01*
X195650Y447686D01*
X195541Y448470D01*
Y451385D01*
X196798D01*
Y443314D01*
D02*
G37*
G36*
X169341Y448688D02*
X169578Y448670D01*
X169815Y448616D01*
X169833D01*
X169869Y448597D01*
X169942Y448579D01*
X170015Y448561D01*
X170215Y448506D01*
X170398Y448415D01*
X170416D01*
X170434Y448397D01*
X170525Y448342D01*
X170653Y448269D01*
X170744Y448196D01*
X170379Y447249D01*
X170361D01*
X170343Y447285D01*
X170288Y447322D01*
X170215Y447358D01*
X170033Y447449D01*
X169796Y447559D01*
X169778D01*
X169742Y447577D01*
X169687Y447595D01*
X169596Y447632D01*
X169395Y447668D01*
X169159Y447686D01*
X169031D01*
X168940Y447668D01*
X168758Y447650D01*
X168667Y447613D01*
X168594Y447577D01*
X168576Y447559D01*
X168521Y447504D01*
X168448Y447395D01*
X168430Y447249D01*
Y447231D01*
Y447213D01*
X168466Y447103D01*
X168539Y446957D01*
X168594Y446903D01*
X168667Y446830D01*
X168685D01*
X168721Y446812D01*
X168776Y446775D01*
X168849Y446739D01*
X168958Y446684D01*
X169086Y446629D01*
X169231Y446557D01*
X169414Y446484D01*
X169450Y446465D01*
X169523Y446429D01*
X169650Y446374D01*
X169815Y446302D01*
X169997Y446192D01*
X170179Y446083D01*
X170343Y445955D01*
X170507Y445810D01*
X170525Y445791D01*
X170562Y445737D01*
X170634Y445664D01*
X170707Y445554D01*
X170762Y445409D01*
X170835Y445263D01*
X170871Y445081D01*
X170889Y444880D01*
Y444862D01*
Y444807D01*
X170871Y444716D01*
Y444607D01*
X170798Y444334D01*
X170744Y444188D01*
X170671Y444042D01*
Y444024D01*
X170634Y443988D01*
X170580Y443915D01*
X170507Y443824D01*
X170416Y443733D01*
X170306Y443623D01*
X170179Y443532D01*
X170015Y443441D01*
X169997D01*
X169942Y443405D01*
X169833Y443368D01*
X169705Y443332D01*
X169523Y443295D01*
X169323Y443259D01*
X169104Y443241D01*
X168849Y443222D01*
X168721D01*
X168576Y443241D01*
X168412D01*
X168211Y443259D01*
X168011Y443295D01*
X167829Y443350D01*
X167646Y443405D01*
X167628D01*
X167573Y443441D01*
X167501Y443477D01*
X167410Y443532D01*
X167209Y443660D01*
X167118Y443733D01*
X167045Y443805D01*
X167428Y444807D01*
X167464Y444789D01*
X167555Y444716D01*
X167683Y444625D01*
X167865Y444534D01*
X168084Y444425D01*
X168339Y444334D01*
X168612Y444261D01*
X168885Y444243D01*
X169013D01*
X169086Y444261D01*
X169250Y444297D01*
X169395Y444388D01*
X169414Y444407D01*
X169487Y444480D01*
X169541Y444589D01*
X169559Y444735D01*
Y444753D01*
Y444771D01*
X169523Y444880D01*
X169487Y444935D01*
X169432Y445008D01*
X169359Y445081D01*
X169268Y445154D01*
X169250D01*
X169213Y445190D01*
X169140Y445227D01*
X169049Y445281D01*
X168940Y445336D01*
X168776Y445409D01*
X168612Y445500D01*
X168412Y445591D01*
X168393D01*
X168357Y445627D01*
X168284Y445646D01*
X168193Y445700D01*
X167992Y445791D01*
X167774Y445919D01*
X167756D01*
X167737Y445955D01*
X167610Y446046D01*
X167464Y446192D01*
X167300Y446393D01*
Y446411D01*
X167264Y446447D01*
X167245Y446520D01*
X167209Y446611D01*
X167173Y446721D01*
X167136Y446848D01*
X167118Y446976D01*
X167100Y447140D01*
Y447158D01*
Y447213D01*
X167118Y447304D01*
X167136Y447413D01*
X167209Y447686D01*
X167264Y447832D01*
X167337Y447960D01*
X167355Y447978D01*
X167373Y448014D01*
X167428Y448087D01*
X167519Y448160D01*
X167610Y448251D01*
X167737Y448342D01*
X167865Y448433D01*
X168029Y448506D01*
X168047Y448524D01*
X168102Y448543D01*
X168211Y448579D01*
X168339Y448616D01*
X168503Y448652D01*
X168685Y448670D01*
X168885Y448707D01*
X169250D01*
X169341Y448688D01*
D02*
G37*
G36*
X271774Y443277D02*
X271591D01*
X268676Y450729D01*
X270134D01*
X271300Y447449D01*
X271719Y446210D01*
X272120Y447449D01*
X273249Y450729D01*
X274707D01*
X271774Y443277D01*
D02*
G37*
G36*
X208022Y441309D02*
X206710D01*
X207566Y443660D01*
X205599Y448597D01*
X207056D01*
X207840Y446247D01*
X208186Y445026D01*
X208532Y446247D01*
X209334Y448597D01*
X210718D01*
X208022Y441309D01*
D02*
G37*
G36*
X268057Y445955D02*
Y445937D01*
Y445883D01*
Y445810D01*
X268039Y445718D01*
Y445591D01*
X268020Y445445D01*
X267966Y445135D01*
X267893Y444771D01*
X267765Y444425D01*
X267583Y444097D01*
X267474Y443951D01*
X267346Y443824D01*
X267310Y443805D01*
X267219Y443733D01*
X267073Y443623D01*
X266854Y443514D01*
X266581Y443386D01*
X266271Y443295D01*
X265907Y443222D01*
X265488Y443186D01*
X265378D01*
X265287Y443204D01*
X265196D01*
X265069Y443222D01*
X264795Y443259D01*
X264486Y443350D01*
X264158Y443459D01*
X263848Y443605D01*
X263556Y443824D01*
X263520Y443860D01*
X263447Y443951D01*
X263338Y444097D01*
X263210Y444334D01*
X263065Y444625D01*
X263010Y444807D01*
X262955Y444990D01*
X262919Y445208D01*
X262882Y445427D01*
X262846Y445682D01*
Y445955D01*
Y450729D01*
X264230D01*
Y445810D01*
Y445773D01*
Y445682D01*
X264249Y445536D01*
X264285Y445354D01*
X264322Y445154D01*
X264376Y444972D01*
X264467Y444789D01*
X264595Y444643D01*
X264613Y444625D01*
X264668Y444589D01*
X264741Y444552D01*
X264850Y444498D01*
X264978Y444425D01*
X265123Y444388D01*
X265287Y444352D01*
X265470Y444334D01*
X265561D01*
X265652Y444352D01*
X265761Y444370D01*
X265889Y444407D01*
X266034Y444461D01*
X266180Y444534D01*
X266308Y444643D01*
X266326Y444662D01*
X266362Y444698D01*
X266417Y444789D01*
X266490Y444899D01*
X266563Y445063D01*
X266617Y445263D01*
X266654Y445518D01*
X266672Y445810D01*
Y450729D01*
X268057D01*
Y445955D01*
D02*
G37*
G36*
X230615Y443314D02*
X229412D01*
X229394Y443988D01*
X229376Y443969D01*
X229358Y443933D01*
X229303Y443860D01*
X229230Y443787D01*
X229048Y443587D01*
X228811Y443405D01*
X228793D01*
X228756Y443368D01*
X228665Y443332D01*
X228574Y443295D01*
X228447Y443259D01*
X228301Y443222D01*
X228118Y443204D01*
X227936Y443186D01*
X227809D01*
X227663Y443204D01*
X227499Y443241D01*
X227299Y443314D01*
X227098Y443386D01*
X226916Y443514D01*
X226752Y443678D01*
X226734Y443696D01*
X226697Y443769D01*
X226624Y443878D01*
X226570Y444042D01*
X226497Y444243D01*
X226424Y444480D01*
X226388Y444771D01*
X226369Y445099D01*
Y448597D01*
X227699D01*
Y445227D01*
Y445208D01*
Y445154D01*
X227718Y445063D01*
Y444953D01*
X227772Y444716D01*
X227809Y444589D01*
X227863Y444480D01*
X227882Y444461D01*
X227900Y444443D01*
X228009Y444352D01*
X228173Y444261D01*
X228282Y444243D01*
X228410Y444225D01*
X228447D01*
X228556Y444243D01*
X228701Y444279D01*
X228866Y444352D01*
X228884D01*
X228902Y444370D01*
X228975Y444443D01*
X229084Y444552D01*
X229175Y444698D01*
Y444716D01*
X229193Y444735D01*
X229230Y444862D01*
X229266Y445026D01*
X229285Y445227D01*
Y448597D01*
X230615D01*
Y443314D01*
D02*
G37*
G36*
X293984D02*
X292617D01*
Y450729D01*
X293984D01*
Y443314D01*
D02*
G37*
G36*
X283198Y450711D02*
X283380Y450693D01*
X283580Y450656D01*
X283799Y450601D01*
X284036Y450529D01*
X284291Y450437D01*
X284528Y450310D01*
X284765Y450146D01*
X284983Y449964D01*
X285184Y449727D01*
X285366Y449454D01*
X285493Y449144D01*
X285566Y448779D01*
X285603Y448360D01*
Y448342D01*
Y448269D01*
Y448160D01*
X285584Y448033D01*
X285566Y447868D01*
X285530Y447705D01*
X285420Y447322D01*
Y447304D01*
X285384Y447231D01*
X285348Y447140D01*
X285293Y447012D01*
X285220Y446885D01*
X285129Y446721D01*
X285001Y446557D01*
X284874Y446411D01*
X284856Y446393D01*
X284801Y446356D01*
X284728Y446283D01*
X284600Y446210D01*
X284473Y446119D01*
X284291Y446028D01*
X284109Y445955D01*
X283890Y445883D01*
X285803Y443314D01*
X284145D01*
X282250Y445992D01*
Y443314D01*
X280902D01*
Y450729D01*
X283070D01*
X283198Y450711D01*
D02*
G37*
G36*
X279335Y449563D02*
X276802D01*
Y447832D01*
X278825D01*
Y446702D01*
X276802D01*
Y444498D01*
X279554D01*
Y443314D01*
X275472D01*
Y450729D01*
X279335D01*
Y449563D01*
D02*
G37*
G36*
X245118Y448707D02*
X245282Y448688D01*
X245482Y448670D01*
X245683Y448634D01*
X245865Y448561D01*
X246047Y448488D01*
X246065Y448470D01*
X246120Y448452D01*
X246193Y448397D01*
X246302Y448324D01*
X246411Y448233D01*
X246502Y448124D01*
X246612Y447978D01*
X246685Y447832D01*
Y447814D01*
X246721Y447759D01*
X246739Y447668D01*
X246776Y447541D01*
X246812Y447395D01*
X246831Y447213D01*
X246867Y447012D01*
Y446775D01*
Y443314D01*
X245719D01*
X245628Y444061D01*
X245610Y444042D01*
X245573Y443988D01*
X245519Y443896D01*
X245427Y443805D01*
X245227Y443587D01*
X245099Y443477D01*
X244954Y443386D01*
X244936D01*
X244881Y443350D01*
X244808Y443314D01*
X244699Y443277D01*
X244571Y443241D01*
X244425Y443204D01*
X244243Y443186D01*
X244061Y443168D01*
X243988D01*
X243897Y443186D01*
X243788D01*
X243533Y443259D01*
X243387Y443295D01*
X243259Y443368D01*
X243241Y443386D01*
X243205Y443405D01*
X243150Y443459D01*
X243077Y443514D01*
X242931Y443696D01*
X242786Y443933D01*
Y443951D01*
X242767Y444006D01*
X242731Y444079D01*
X242713Y444170D01*
X242676Y444297D01*
X242640Y444425D01*
X242622Y444753D01*
Y444771D01*
Y444826D01*
X242640Y444899D01*
X242658Y444990D01*
X242731Y445245D01*
X242786Y445372D01*
X242877Y445518D01*
X242895Y445536D01*
X242931Y445591D01*
X242986Y445664D01*
X243095Y445755D01*
X243205Y445846D01*
X243369Y445974D01*
X243569Y446065D01*
X243788Y446174D01*
X243824Y446192D01*
X243915Y446210D01*
X244061Y446265D01*
X244261Y446320D01*
X244516Y446356D01*
X244826Y446411D01*
X245172Y446429D01*
X245573Y446447D01*
Y446702D01*
Y446721D01*
Y446775D01*
X245555Y446848D01*
Y446957D01*
X245482Y447176D01*
X245427Y447285D01*
X245355Y447376D01*
Y447395D01*
X245318Y447413D01*
X245264Y447449D01*
X245191Y447504D01*
X245081Y447541D01*
X244972Y447577D01*
X244808Y447595D01*
X244626Y447613D01*
X244480D01*
X244371Y447595D01*
X244243Y447577D01*
X244097Y447559D01*
X243806Y447468D01*
X243788D01*
X243751Y447449D01*
X243678Y447413D01*
X243587Y447376D01*
X243405Y447267D01*
X243314Y447194D01*
X243241Y447121D01*
X242804Y448142D01*
X242822Y448160D01*
X242877Y448178D01*
X242950Y448233D01*
X243059Y448287D01*
X243186Y448360D01*
X243332Y448433D01*
X243514Y448488D01*
X243697Y448561D01*
X243715D01*
X243788Y448579D01*
X243897Y448616D01*
X244043Y448652D01*
X244225Y448670D01*
X244407Y448707D01*
X244845Y448725D01*
X244972D01*
X245118Y448707D01*
D02*
G37*
G36*
X238212Y448725D02*
X238195Y447960D01*
X238194Y447960D01*
Y447941D01*
X238195Y447960D01*
X238212Y447978D01*
X238303Y448069D01*
X238431Y448196D01*
X238595Y448342D01*
X238832Y448470D01*
X239105Y448597D01*
X239433Y448688D01*
X239597Y448725D01*
X239925D01*
X240071Y448707D01*
X240235Y448670D01*
X240435Y448597D01*
X240636Y448506D01*
X240818Y448379D01*
X240982Y448215D01*
X241000Y448196D01*
X241037Y448124D01*
X241109Y448014D01*
X241182Y447850D01*
X241255Y447650D01*
X241328Y447413D01*
X241364Y447140D01*
X241383Y446812D01*
Y443314D01*
X240016D01*
Y446666D01*
Y446684D01*
Y446739D01*
X239998Y446830D01*
Y446921D01*
X239925Y447158D01*
X239870Y447267D01*
X239797Y447376D01*
Y447395D01*
X239761Y447413D01*
X239706Y447468D01*
X239652Y447522D01*
X239470Y447613D01*
X239342Y447632D01*
X239214Y447650D01*
X239178D01*
X239069Y447632D01*
X238923Y447595D01*
X238741Y447522D01*
X238704Y447504D01*
X238613Y447431D01*
X238504Y447322D01*
X238395Y447176D01*
Y447158D01*
X238376Y447140D01*
X238340Y447030D01*
X238285Y446866D01*
X238267Y446666D01*
Y443314D01*
X236955D01*
Y451421D01*
X238212D01*
Y448725D01*
D02*
G37*
G36*
X233603Y444279D02*
X235789D01*
Y443314D01*
X231544D01*
X233949Y447595D01*
X231999D01*
Y448597D01*
X235990D01*
X233603Y444279D01*
D02*
G37*
G36*
X173440Y443314D02*
X172056D01*
Y448597D01*
X173440D01*
Y443314D01*
D02*
G37*
G36*
X157698Y450711D02*
X157826Y450693D01*
X157990Y450674D01*
X158336Y450620D01*
X158737Y450510D01*
X159156Y450346D01*
X159356Y450237D01*
X159557Y450109D01*
X159739Y449964D01*
X159903Y449800D01*
X159921Y449782D01*
X159939Y449763D01*
X159976Y449709D01*
X160049Y449636D01*
X160103Y449527D01*
X160176Y449417D01*
X160267Y449271D01*
X160340Y449126D01*
X160431Y448944D01*
X160504Y448743D01*
X160577Y448524D01*
X160650Y448287D01*
X160705Y448014D01*
X160741Y447741D01*
X160759Y447431D01*
X160777Y447103D01*
Y447085D01*
Y447049D01*
Y446994D01*
Y446903D01*
X160759Y446812D01*
Y446684D01*
X160723Y446411D01*
X160686Y446101D01*
X160613Y445755D01*
X160522Y445409D01*
X160395Y445081D01*
Y445063D01*
X160377Y445044D01*
X160322Y444935D01*
X160231Y444789D01*
X160103Y444589D01*
X159939Y444388D01*
X159757Y444170D01*
X159520Y443951D01*
X159247Y443769D01*
X159211Y443751D01*
X159119Y443696D01*
X158955Y443623D01*
X158737Y443550D01*
X158463Y443459D01*
X158154Y443386D01*
X157789Y443332D01*
X157407Y443314D01*
X155512D01*
Y450729D01*
X157589D01*
X157698Y450711D01*
D02*
G37*
G36*
X216531Y450838D02*
X216768Y450802D01*
X217041Y450729D01*
X217314Y450656D01*
X217606Y450529D01*
X217879Y450365D01*
X217915Y450346D01*
X217988Y450274D01*
X218116Y450164D01*
X218280Y450018D01*
X218444Y449836D01*
X218626Y449599D01*
X218790Y449344D01*
X218936Y449035D01*
Y449016D01*
X218954Y448998D01*
X218972Y448944D01*
X218990Y448889D01*
X219045Y448707D01*
X219118Y448470D01*
X219173Y448160D01*
X219227Y447814D01*
X219264Y447431D01*
X219282Y447012D01*
Y446994D01*
Y446957D01*
Y446903D01*
Y446812D01*
X219264Y446721D01*
Y446593D01*
X219245Y446320D01*
X219191Y446010D01*
X219136Y445664D01*
X219045Y445318D01*
X218917Y444972D01*
Y444953D01*
X218899Y444935D01*
X218845Y444826D01*
X218772Y444680D01*
X218662Y444480D01*
X218517Y444279D01*
X218334Y444042D01*
X218116Y443842D01*
X217879Y443641D01*
X217842Y443623D01*
X217751Y443569D01*
X217606Y443496D01*
X217405Y443423D01*
X217168Y443332D01*
X216877Y443259D01*
X216549Y443204D01*
X216203Y443186D01*
X216039D01*
X215856Y443204D01*
X215620Y443241D01*
X215365Y443295D01*
X215073Y443386D01*
X214781Y443496D01*
X214508Y443641D01*
X214472Y443660D01*
X214399Y443733D01*
X214271Y443842D01*
X214126Y443988D01*
X213943Y444170D01*
X213779Y444407D01*
X213597Y444662D01*
X213451Y444972D01*
Y444990D01*
X213433Y445008D01*
X213415Y445063D01*
X213397Y445135D01*
X213342Y445318D01*
X213287Y445554D01*
X213215Y445846D01*
X213160Y446210D01*
X213123Y446593D01*
X213105Y447012D01*
Y447030D01*
Y447067D01*
Y447121D01*
Y447213D01*
X213123Y447304D01*
Y447431D01*
X213142Y447705D01*
X213196Y448014D01*
X213251Y448360D01*
X213342Y448707D01*
X213451Y449035D01*
Y449053D01*
X213470Y449071D01*
X213524Y449180D01*
X213597Y449344D01*
X213725Y449527D01*
X213871Y449745D01*
X214053Y449982D01*
X214271Y450182D01*
X214508Y450383D01*
X214545Y450401D01*
X214636Y450456D01*
X214781Y450529D01*
X214982Y450620D01*
X215219Y450711D01*
X215492Y450784D01*
X215820Y450838D01*
X216166Y450857D01*
X216330D01*
X216531Y450838D01*
D02*
G37*
G36*
X189237Y448707D02*
X189437Y448688D01*
X189692Y448652D01*
X189966Y448561D01*
X190239Y448452D01*
X190476Y448287D01*
X190695Y448069D01*
X190713Y448033D01*
X190768Y447941D01*
X190859Y447796D01*
X190950Y447577D01*
X191023Y447304D01*
X191114Y446957D01*
X191168Y446557D01*
X191187Y446101D01*
Y446083D01*
Y446046D01*
Y445992D01*
Y445919D01*
Y445737D01*
X191168Y445518D01*
X187980D01*
Y445482D01*
Y445409D01*
X187998Y445299D01*
X188034Y445154D01*
X188071Y444990D01*
X188126Y444826D01*
X188217Y444662D01*
X188326Y444516D01*
X188344Y444498D01*
X188381Y444461D01*
X188472Y444407D01*
X188563Y444352D01*
X188709Y444279D01*
X188873Y444225D01*
X189073Y444188D01*
X189292Y444170D01*
X189419D01*
X189510Y444188D01*
X189729Y444225D01*
X190002Y444316D01*
X190021D01*
X190057Y444334D01*
X190130Y444370D01*
X190221Y444425D01*
X190403Y444534D01*
X190476Y444607D01*
X190549Y444680D01*
X190986Y443660D01*
X190950Y443641D01*
X190859Y443587D01*
X190695Y443514D01*
X190476Y443423D01*
X190184Y443332D01*
X189857Y443259D01*
X189492Y443204D01*
X189073Y443186D01*
X188927D01*
X188781Y443204D01*
X188581Y443222D01*
X188344Y443277D01*
X188107Y443332D01*
X187871Y443423D01*
X187652Y443532D01*
X187634Y443550D01*
X187561Y443605D01*
X187452Y443678D01*
X187342Y443787D01*
X187196Y443933D01*
X187069Y444097D01*
X186941Y444279D01*
X186832Y444498D01*
X186814Y444534D01*
X186796Y444607D01*
X186759Y444735D01*
X186704Y444899D01*
X186650Y445117D01*
X186613Y445336D01*
X186595Y445609D01*
X186577Y445883D01*
Y445901D01*
Y445919D01*
Y446010D01*
X186595Y446174D01*
X186613Y446356D01*
X186650Y446593D01*
X186704Y446830D01*
X186777Y447085D01*
X186868Y447322D01*
X186887Y447358D01*
X186923Y447431D01*
X186996Y447541D01*
X187087Y447705D01*
X187196Y447868D01*
X187342Y448033D01*
X187506Y448196D01*
X187706Y448342D01*
X187725Y448360D01*
X187816Y448397D01*
X187925Y448470D01*
X188089Y448543D01*
X188290Y448597D01*
X188508Y448670D01*
X188781Y448707D01*
X189055Y448725D01*
X189164D01*
X189237Y448707D01*
D02*
G37*
G36*
X164203D02*
X164403Y448688D01*
X164658Y448652D01*
X164931Y448561D01*
X165205Y448452D01*
X165442Y448287D01*
X165660Y448069D01*
X165679Y448033D01*
X165733Y447941D01*
X165824Y447796D01*
X165915Y447577D01*
X165988Y447304D01*
X166079Y446957D01*
X166134Y446557D01*
X166152Y446101D01*
Y446083D01*
Y446046D01*
Y445992D01*
Y445919D01*
Y445737D01*
X166134Y445518D01*
X162946D01*
Y445482D01*
Y445409D01*
X162964Y445299D01*
X163000Y445154D01*
X163037Y444990D01*
X163091Y444826D01*
X163182Y444662D01*
X163292Y444516D01*
X163310Y444498D01*
X163346Y444461D01*
X163437Y444407D01*
X163529Y444352D01*
X163674Y444279D01*
X163838Y444225D01*
X164039Y444188D01*
X164257Y444170D01*
X164385D01*
X164476Y444188D01*
X164695Y444225D01*
X164968Y444316D01*
X164986D01*
X165023Y444334D01*
X165095Y444370D01*
X165187Y444425D01*
X165369Y444534D01*
X165442Y444607D01*
X165515Y444680D01*
X165952Y443660D01*
X165915Y443641D01*
X165824Y443587D01*
X165660Y443514D01*
X165442Y443423D01*
X165150Y443332D01*
X164822Y443259D01*
X164458Y443204D01*
X164039Y443186D01*
X163893D01*
X163747Y443204D01*
X163547Y443222D01*
X163310Y443277D01*
X163073Y443332D01*
X162836Y443423D01*
X162618Y443532D01*
X162599Y443550D01*
X162527Y443605D01*
X162417Y443678D01*
X162308Y443787D01*
X162162Y443933D01*
X162035Y444097D01*
X161907Y444279D01*
X161798Y444498D01*
X161779Y444534D01*
X161761Y444607D01*
X161725Y444735D01*
X161670Y444899D01*
X161616Y445117D01*
X161579Y445336D01*
X161561Y445609D01*
X161543Y445883D01*
Y445901D01*
Y445919D01*
Y446010D01*
X161561Y446174D01*
X161579Y446356D01*
X161616Y446593D01*
X161670Y446830D01*
X161743Y447085D01*
X161834Y447322D01*
X161852Y447358D01*
X161889Y447431D01*
X161962Y447541D01*
X162053Y447705D01*
X162162Y447868D01*
X162308Y448033D01*
X162472Y448196D01*
X162672Y448342D01*
X162690Y448360D01*
X162782Y448397D01*
X162891Y448470D01*
X163055Y448543D01*
X163255Y448597D01*
X163474Y448670D01*
X163747Y448707D01*
X164021Y448725D01*
X164130D01*
X164203Y448707D01*
D02*
G37*
G36*
X299341Y446757D02*
X299723Y446283D01*
X299668Y447304D01*
Y450729D01*
X300962D01*
Y443168D01*
X300871D01*
X297318Y447213D01*
X296972Y447632D01*
X297026Y446611D01*
Y443314D01*
X295733D01*
Y450857D01*
X295842D01*
X299341Y446757D01*
D02*
G37*
G36*
X201754Y448597D02*
X201648Y447710D01*
X201645Y447705D01*
Y447686D01*
X201648Y447710D01*
X201663Y447741D01*
X201681Y447814D01*
X201718Y447887D01*
X201827Y448087D01*
X201973Y448269D01*
X201991Y448287D01*
X202009Y448306D01*
X202064Y448342D01*
X202137Y448397D01*
X202319Y448524D01*
X202538Y448616D01*
X202556D01*
X202592Y448634D01*
X202665Y448652D01*
X202738Y448688D01*
X202957Y448725D01*
X203194Y448743D01*
X203285D01*
X203358Y448725D01*
X203540Y448707D01*
X203758Y448652D01*
X203995Y448579D01*
X204232Y448452D01*
X204469Y448269D01*
X204688Y448033D01*
X204706Y447996D01*
X204761Y447905D01*
X204852Y447741D01*
X204943Y447522D01*
X205034Y447231D01*
X205125Y446866D01*
X205180Y446447D01*
X205198Y445974D01*
Y445955D01*
Y445937D01*
Y445828D01*
X205180Y445646D01*
X205161Y445445D01*
X205125Y445190D01*
X205070Y444935D01*
X204997Y444680D01*
X204906Y444425D01*
X204888Y444388D01*
X204852Y444316D01*
X204797Y444206D01*
X204706Y444061D01*
X204596Y443915D01*
X204469Y443751D01*
X204323Y443605D01*
X204159Y443477D01*
X204141Y443459D01*
X204068Y443423D01*
X203977Y443386D01*
X203850Y443332D01*
X203685Y443259D01*
X203503Y443222D01*
X203303Y443186D01*
X203084Y443168D01*
X202957D01*
X202866Y443186D01*
X202647Y443222D01*
X202410Y443314D01*
X202392D01*
X202355Y443350D01*
X202301Y443386D01*
X202246Y443423D01*
X202082Y443569D01*
X201918Y443751D01*
Y443769D01*
X201882Y443805D01*
X201864Y443860D01*
X201809Y443933D01*
X201718Y444115D01*
X201645Y444352D01*
Y443314D01*
X200479D01*
Y451385D01*
X201754D01*
Y448597D01*
D02*
G37*
G36*
X222525Y448707D02*
X222744Y448670D01*
X222980Y448579D01*
X222999D01*
X223035Y448561D01*
X223090Y448524D01*
X223163Y448470D01*
X223308Y448360D01*
X223454Y448196D01*
Y448178D01*
X223491Y448160D01*
X223545Y448051D01*
X223636Y447887D01*
X223691Y447686D01*
X223837Y448597D01*
X224875D01*
Y443569D01*
Y443532D01*
Y443441D01*
X224857Y443277D01*
X224839Y443095D01*
X224802Y442876D01*
X224766Y442639D01*
X224693Y442403D01*
X224602Y442166D01*
X224584Y442147D01*
X224547Y442074D01*
X224493Y441965D01*
X224402Y441819D01*
X224274Y441674D01*
X224147Y441528D01*
X223983Y441382D01*
X223782Y441255D01*
X223764Y441236D01*
X223691Y441200D01*
X223564Y441163D01*
X223418Y441109D01*
X223217Y441036D01*
X222999Y441000D01*
X222744Y440963D01*
X222452Y440945D01*
X222252D01*
X222106Y440963D01*
X221942Y440981D01*
X221760Y441000D01*
X221395Y441091D01*
X221377D01*
X221322Y441109D01*
X221231Y441145D01*
X221122Y441182D01*
X220867Y441273D01*
X220612Y441400D01*
X221213Y442403D01*
X221231Y442384D01*
X221304Y442348D01*
X221395Y442311D01*
X221541Y442257D01*
X221705Y442184D01*
X221887Y442147D01*
X222106Y442111D01*
X222324Y442093D01*
X222434D01*
X222561Y442111D01*
X222707Y442147D01*
X222871Y442184D01*
X223035Y442239D01*
X223199Y442330D01*
X223345Y442457D01*
X223363Y442475D01*
X223399Y442530D01*
X223454Y442603D01*
X223527Y442730D01*
X223582Y442876D01*
X223636Y443077D01*
X223673Y443295D01*
X223691Y443569D01*
Y444370D01*
X223673Y444316D01*
X223636Y444225D01*
X223582Y444097D01*
X223436Y443842D01*
X223217Y443569D01*
X223199Y443550D01*
X223163Y443514D01*
X223090Y443477D01*
X222980Y443423D01*
X222853Y443350D01*
X222689Y443314D01*
X222507Y443277D01*
X222306Y443259D01*
X222197D01*
X222088Y443277D01*
X221924Y443295D01*
X221760Y443332D01*
X221559Y443368D01*
X221359Y443441D01*
X221177Y443532D01*
X221159Y443550D01*
X221104Y443587D01*
X221013Y443660D01*
X220903Y443751D01*
X220794Y443860D01*
X220667Y444024D01*
X220539Y444188D01*
X220430Y444407D01*
X220411Y444443D01*
X220393Y444516D01*
X220339Y444643D01*
X220302Y444826D01*
X220248Y445044D01*
X220193Y445318D01*
X220175Y445609D01*
X220156Y445937D01*
Y445955D01*
Y445974D01*
Y446028D01*
Y446101D01*
X220175Y446265D01*
X220193Y446484D01*
X220229Y446739D01*
X220266Y446994D01*
X220339Y447267D01*
X220430Y447504D01*
X220448Y447541D01*
X220484Y447613D01*
X220539Y447723D01*
X220630Y447868D01*
X220739Y448014D01*
X220867Y448160D01*
X221013Y448306D01*
X221177Y448433D01*
X221195Y448452D01*
X221268Y448488D01*
X221359Y448524D01*
X221505Y448579D01*
X221669Y448634D01*
X221851Y448688D01*
X222051Y448707D01*
X222270Y448725D01*
X222416D01*
X222525Y448707D01*
D02*
G37*
G36*
X177084D02*
X177303Y448670D01*
X177540Y448579D01*
X177558D01*
X177594Y448561D01*
X177649Y448524D01*
X177722Y448470D01*
X177868Y448360D01*
X178014Y448196D01*
Y448178D01*
X178050Y448160D01*
X178105Y448051D01*
X178196Y447887D01*
X178250Y447686D01*
X178396Y448597D01*
X179435D01*
Y443569D01*
Y443532D01*
Y443441D01*
X179417Y443277D01*
X179398Y443095D01*
X179362Y442876D01*
X179325Y442639D01*
X179253Y442403D01*
X179161Y442166D01*
X179143Y442147D01*
X179107Y442074D01*
X179052Y441965D01*
X178961Y441819D01*
X178833Y441674D01*
X178706Y441528D01*
X178542Y441382D01*
X178341Y441255D01*
X178323Y441236D01*
X178250Y441200D01*
X178123Y441163D01*
X177977Y441109D01*
X177777Y441036D01*
X177558Y441000D01*
X177303Y440963D01*
X177011Y440945D01*
X176811D01*
X176665Y440963D01*
X176501Y440981D01*
X176319Y441000D01*
X175955Y441091D01*
X175936D01*
X175882Y441109D01*
X175791Y441145D01*
X175681Y441182D01*
X175426Y441273D01*
X175171Y441400D01*
X175773Y442403D01*
X175791Y442384D01*
X175864Y442348D01*
X175955Y442311D01*
X176100Y442257D01*
X176264Y442184D01*
X176447Y442147D01*
X176665Y442111D01*
X176884Y442093D01*
X176993D01*
X177121Y442111D01*
X177267Y442147D01*
X177430Y442184D01*
X177594Y442239D01*
X177758Y442330D01*
X177904Y442457D01*
X177922Y442475D01*
X177959Y442530D01*
X178014Y442603D01*
X178086Y442730D01*
X178141Y442876D01*
X178196Y443077D01*
X178232Y443295D01*
X178250Y443569D01*
Y444370D01*
X178232Y444316D01*
X178196Y444225D01*
X178141Y444097D01*
X177995Y443842D01*
X177777Y443569D01*
X177758Y443550D01*
X177722Y443514D01*
X177649Y443477D01*
X177540Y443423D01*
X177412Y443350D01*
X177248Y443314D01*
X177066Y443277D01*
X176866Y443259D01*
X176756D01*
X176647Y443277D01*
X176483Y443295D01*
X176319Y443332D01*
X176119Y443368D01*
X175918Y443441D01*
X175736Y443532D01*
X175718Y443550D01*
X175663Y443587D01*
X175572Y443660D01*
X175463Y443751D01*
X175353Y443860D01*
X175226Y444024D01*
X175098Y444188D01*
X174989Y444407D01*
X174971Y444443D01*
X174952Y444516D01*
X174898Y444643D01*
X174861Y444826D01*
X174807Y445044D01*
X174752Y445318D01*
X174734Y445609D01*
X174716Y445937D01*
Y445955D01*
Y445974D01*
Y446028D01*
Y446101D01*
X174734Y446265D01*
X174752Y446484D01*
X174789Y446739D01*
X174825Y446994D01*
X174898Y447267D01*
X174989Y447504D01*
X175007Y447541D01*
X175044Y447613D01*
X175098Y447723D01*
X175189Y447868D01*
X175299Y448014D01*
X175426Y448160D01*
X175572Y448306D01*
X175736Y448433D01*
X175754Y448452D01*
X175827Y448488D01*
X175918Y448524D01*
X176064Y448579D01*
X176228Y448634D01*
X176410Y448688D01*
X176611Y448707D01*
X176829Y448725D01*
X176975D01*
X177084Y448707D01*
D02*
G37*
G36*
X164840Y429569D02*
X163346D01*
Y430972D01*
X164840D01*
Y429569D01*
D02*
G37*
G36*
X199003Y423411D02*
X197855D01*
Y424467D01*
X197819Y424394D01*
X197782Y424285D01*
X197728Y424158D01*
X197564Y423866D01*
X197454Y423720D01*
X197327Y423593D01*
X197309Y423574D01*
X197254Y423538D01*
X197181Y423483D01*
X197072Y423429D01*
X196944Y423374D01*
X196798Y423319D01*
X196616Y423283D01*
X196416Y423265D01*
X196306D01*
X196197Y423283D01*
X196033Y423301D01*
X195869Y423338D01*
X195687Y423411D01*
X195486Y423483D01*
X195304Y423593D01*
X195286Y423611D01*
X195231Y423666D01*
X195140Y423738D01*
X195031Y423848D01*
X194922Y423975D01*
X194794Y424139D01*
X194685Y424340D01*
X194576Y424558D01*
X194557Y424595D01*
X194539Y424668D01*
X194503Y424814D01*
X194448Y424977D01*
X194393Y425196D01*
X194357Y425451D01*
X194339Y425725D01*
X194320Y426034D01*
Y426052D01*
Y426089D01*
Y426162D01*
Y426253D01*
X194339Y426362D01*
X194357Y426490D01*
X194393Y426799D01*
X194448Y427127D01*
X194539Y427474D01*
X194667Y427802D01*
X194849Y428093D01*
X194867Y428129D01*
X194958Y428202D01*
X195086Y428330D01*
X195250Y428457D01*
X195468Y428585D01*
X195742Y428713D01*
X196070Y428785D01*
X196434Y428822D01*
X196525D01*
X196634Y428804D01*
X196762Y428785D01*
X196889Y428749D01*
X197053Y428713D01*
X197199Y428640D01*
X197345Y428549D01*
X197363Y428530D01*
X197400Y428494D01*
X197473Y428439D01*
X197545Y428366D01*
X197636Y428257D01*
X197728Y428111D01*
X197800Y427965D01*
X197855Y427783D01*
X197746Y428567D01*
Y431482D01*
X199003D01*
Y423411D01*
D02*
G37*
G36*
X193537Y428749D02*
X193683Y428731D01*
X193865Y428676D01*
X193555Y427291D01*
X193537Y427310D01*
X193500Y427346D01*
X193428Y427383D01*
X193336Y427419D01*
X193318D01*
X193264Y427437D01*
X193173Y427455D01*
X192918D01*
X192826Y427437D01*
X192608Y427383D01*
X192389Y427291D01*
X192371D01*
X192353Y427273D01*
X192243Y427200D01*
X192116Y427073D01*
X191988Y426927D01*
X191970Y426891D01*
X191934Y426818D01*
X191879Y426708D01*
X191861Y426599D01*
Y423411D01*
X190531D01*
Y428694D01*
X191733D01*
X191788Y427765D01*
X191806Y427783D01*
X191824Y427838D01*
X191861Y427911D01*
X191934Y428002D01*
X192098Y428221D01*
X192334Y428457D01*
X192353Y428476D01*
X192407Y428512D01*
X192480Y428549D01*
X192608Y428621D01*
X192754Y428676D01*
X192936Y428713D01*
X193136Y428749D01*
X193373Y428767D01*
X193409D01*
X193537Y428749D01*
D02*
G37*
G36*
X161707Y423411D02*
X160395D01*
Y426581D01*
X160431Y427838D01*
X160067Y427255D01*
X158609Y425542D01*
X157133Y427255D01*
X156769Y427838D01*
X156824Y426581D01*
Y423411D01*
X155512D01*
Y430954D01*
X155603D01*
X158609Y427401D01*
X161597Y430954D01*
X161707D01*
Y423411D01*
D02*
G37*
G36*
X169395Y426727D02*
X169013Y426071D01*
X169395Y425415D01*
X170543Y423411D01*
X169049D01*
X168284Y424832D01*
X168047Y425305D01*
X167847Y424832D01*
X167191Y423411D01*
X165733D01*
X166826Y425360D01*
X167209Y426016D01*
X166808Y426690D01*
X165733Y428694D01*
X167227D01*
X167865Y427364D01*
X168138Y426745D01*
X168412Y427364D01*
X169049Y428694D01*
X170452D01*
X169395Y426727D01*
D02*
G37*
G36*
X204870Y423374D02*
X204688D01*
X201772Y430826D01*
X203230D01*
X204396Y427547D01*
X204815Y426307D01*
X205216Y427547D01*
X206346Y430826D01*
X207803D01*
X204870Y423374D01*
D02*
G37*
G36*
X212795Y423411D02*
X211557D01*
Y424996D01*
X212795D01*
Y423411D01*
D02*
G37*
G36*
X210081D02*
X208641D01*
Y430334D01*
X210081Y431008D01*
Y423411D01*
D02*
G37*
G36*
X187415Y428804D02*
X187579Y428785D01*
X187779Y428767D01*
X187980Y428731D01*
X188162Y428658D01*
X188344Y428585D01*
X188363Y428567D01*
X188417Y428549D01*
X188490Y428494D01*
X188599Y428421D01*
X188709Y428330D01*
X188800Y428221D01*
X188909Y428075D01*
X188982Y427929D01*
Y427911D01*
X189018Y427856D01*
X189037Y427765D01*
X189073Y427638D01*
X189110Y427492D01*
X189128Y427310D01*
X189164Y427109D01*
Y426872D01*
Y423411D01*
X188016D01*
X187925Y424158D01*
X187907Y424139D01*
X187871Y424085D01*
X187816Y423994D01*
X187725Y423903D01*
X187524Y423684D01*
X187397Y423574D01*
X187251Y423483D01*
X187233D01*
X187178Y423447D01*
X187105Y423411D01*
X186996Y423374D01*
X186868Y423338D01*
X186723Y423301D01*
X186540Y423283D01*
X186358Y423265D01*
X186285D01*
X186194Y423283D01*
X186085D01*
X185830Y423356D01*
X185684Y423392D01*
X185557Y423465D01*
X185538Y423483D01*
X185502Y423502D01*
X185447Y423556D01*
X185374Y423611D01*
X185229Y423793D01*
X185083Y424030D01*
Y424048D01*
X185065Y424103D01*
X185028Y424176D01*
X185010Y424267D01*
X184974Y424394D01*
X184937Y424522D01*
X184919Y424850D01*
Y424868D01*
Y424923D01*
X184937Y424996D01*
X184955Y425087D01*
X185028Y425342D01*
X185083Y425469D01*
X185174Y425615D01*
X185192Y425633D01*
X185229Y425688D01*
X185283Y425761D01*
X185393Y425852D01*
X185502Y425943D01*
X185666Y426071D01*
X185866Y426162D01*
X186085Y426271D01*
X186121Y426289D01*
X186213Y426307D01*
X186358Y426362D01*
X186559Y426417D01*
X186814Y426453D01*
X187124Y426508D01*
X187470Y426526D01*
X187871Y426544D01*
Y426799D01*
Y426818D01*
Y426872D01*
X187852Y426945D01*
Y427055D01*
X187779Y427273D01*
X187725Y427383D01*
X187652Y427474D01*
Y427492D01*
X187616Y427510D01*
X187561Y427547D01*
X187488Y427601D01*
X187379Y427638D01*
X187269Y427674D01*
X187105Y427692D01*
X186923Y427710D01*
X186777D01*
X186668Y427692D01*
X186540Y427674D01*
X186395Y427656D01*
X186103Y427565D01*
X186085D01*
X186048Y427547D01*
X185976Y427510D01*
X185884Y427474D01*
X185702Y427364D01*
X185611Y427291D01*
X185538Y427218D01*
X185101Y428239D01*
X185119Y428257D01*
X185174Y428275D01*
X185247Y428330D01*
X185356Y428385D01*
X185484Y428457D01*
X185629Y428530D01*
X185812Y428585D01*
X185994Y428658D01*
X186012D01*
X186085Y428676D01*
X186194Y428713D01*
X186340Y428749D01*
X186522Y428767D01*
X186704Y428804D01*
X187142Y428822D01*
X187269D01*
X187415Y428804D01*
D02*
G37*
G36*
X175773Y430808D02*
X175918Y430790D01*
X176119Y430771D01*
X176319Y430717D01*
X176556Y430662D01*
X176793Y430571D01*
X177011Y430480D01*
X177248Y430334D01*
X177449Y430188D01*
X177649Y429988D01*
X177795Y429769D01*
X177922Y429496D01*
X177995Y429186D01*
X178032Y428840D01*
Y428822D01*
Y428767D01*
X178014Y428676D01*
Y428567D01*
X177977Y428421D01*
X177941Y428275D01*
X177886Y428111D01*
X177813Y427947D01*
X177795Y427929D01*
X177777Y427874D01*
X177722Y427802D01*
X177649Y427710D01*
X177558Y427619D01*
X177449Y427510D01*
X177321Y427419D01*
X177175Y427328D01*
X177212D01*
X177285Y427291D01*
X177394Y427255D01*
X177522Y427200D01*
X177667Y427109D01*
X177831Y427000D01*
X177977Y426872D01*
X178105Y426708D01*
X178123Y426690D01*
X178159Y426636D01*
X178196Y426526D01*
X178269Y426399D01*
X178323Y426216D01*
X178360Y426016D01*
X178396Y425797D01*
X178414Y425542D01*
Y425524D01*
Y425506D01*
Y425451D01*
X178396Y425378D01*
X178378Y425196D01*
X178323Y424959D01*
X178250Y424704D01*
X178123Y424449D01*
X177959Y424194D01*
X177722Y423957D01*
X177685Y423939D01*
X177594Y423866D01*
X177430Y423793D01*
X177194Y423684D01*
X176902Y423593D01*
X176520Y423502D01*
X176082Y423429D01*
X175572Y423411D01*
X173568D01*
Y430826D01*
X175645D01*
X175773Y430808D01*
D02*
G37*
G36*
X164786Y423411D02*
X163401D01*
Y428694D01*
X164786D01*
Y423411D01*
D02*
G37*
G36*
X181931Y428804D02*
X182113Y428785D01*
X182313Y428731D01*
X182532Y428676D01*
X182751Y428585D01*
X182951Y428476D01*
X182969Y428457D01*
X183042Y428421D01*
X183133Y428348D01*
X183261Y428239D01*
X183388Y428093D01*
X183534Y427947D01*
X183662Y427747D01*
X183771Y427528D01*
X183789Y427492D01*
X183826Y427419D01*
X183862Y427291D01*
X183917Y427109D01*
X183972Y426909D01*
X184026Y426654D01*
X184044Y426380D01*
X184063Y426071D01*
Y426052D01*
Y426034D01*
Y425925D01*
X184044Y425761D01*
X184026Y425561D01*
X183990Y425342D01*
X183935Y425087D01*
X183862Y424832D01*
X183771Y424595D01*
X183753Y424577D01*
X183716Y424485D01*
X183643Y424376D01*
X183552Y424249D01*
X183443Y424085D01*
X183297Y423939D01*
X183133Y423775D01*
X182933Y423647D01*
X182915Y423629D01*
X182842Y423593D01*
X182714Y423538D01*
X182569Y423483D01*
X182368Y423429D01*
X182150Y423374D01*
X181894Y423338D01*
X181603Y423319D01*
X181475D01*
X181330Y423338D01*
X181147Y423356D01*
X180947Y423392D01*
X180728Y423447D01*
X180510Y423520D01*
X180291Y423629D01*
X180273Y423647D01*
X180200Y423684D01*
X180109Y423775D01*
X179981Y423866D01*
X179854Y424012D01*
X179708Y424176D01*
X179580Y424358D01*
X179453Y424577D01*
X179435Y424613D01*
X179417Y424686D01*
X179362Y424814D01*
X179307Y424996D01*
X179253Y425214D01*
X179216Y425469D01*
X179180Y425761D01*
X179161Y426071D01*
Y426089D01*
Y426107D01*
Y426216D01*
X179180Y426380D01*
X179198Y426581D01*
X179234Y426799D01*
X179289Y427055D01*
X179362Y427310D01*
X179453Y427547D01*
X179471Y427583D01*
X179508Y427656D01*
X179580Y427765D01*
X179672Y427893D01*
X179799Y428057D01*
X179945Y428202D01*
X180109Y428366D01*
X180309Y428494D01*
X180327Y428512D01*
X180419Y428549D01*
X180528Y428603D01*
X180692Y428658D01*
X180892Y428713D01*
X181111Y428767D01*
X181384Y428804D01*
X181658Y428822D01*
X181785D01*
X181931Y428804D01*
D02*
G37*
G36*
X216603Y430972D02*
X216713Y430954D01*
X216840Y430935D01*
X217132Y430863D01*
X217460Y430753D01*
X217788Y430589D01*
X217952Y430480D01*
X218097Y430352D01*
X218262Y430188D01*
X218389Y430024D01*
Y430006D01*
X218425Y429988D01*
X218462Y429915D01*
X218498Y429842D01*
X218553Y429733D01*
X218608Y429624D01*
X218662Y429460D01*
X218735Y429296D01*
X218808Y429095D01*
X218863Y428876D01*
X218917Y428640D01*
X218972Y428385D01*
X219027Y428093D01*
X219045Y427783D01*
X219081Y427455D01*
Y427091D01*
Y427073D01*
Y427018D01*
Y426927D01*
X219063Y426799D01*
Y426636D01*
X219045Y426472D01*
X219027Y426271D01*
X219008Y426052D01*
X218917Y425597D01*
X218808Y425123D01*
X218644Y424668D01*
X218425Y424249D01*
Y424230D01*
X218389Y424212D01*
X218298Y424085D01*
X218152Y423921D01*
X217934Y423738D01*
X217642Y423556D01*
X217296Y423392D01*
X216877Y423265D01*
X216640Y423247D01*
X216385Y423228D01*
X216257D01*
X216166Y423247D01*
X216039Y423265D01*
X215911Y423283D01*
X215620Y423356D01*
X215273Y423483D01*
X214945Y423666D01*
X214781Y423775D01*
X214617Y423921D01*
X214472Y424066D01*
X214344Y424249D01*
Y424267D01*
X214308Y424303D01*
X214289Y424358D01*
X214235Y424431D01*
X214198Y424540D01*
X214144Y424668D01*
X214071Y424832D01*
X214016Y424996D01*
X213962Y425178D01*
X213889Y425396D01*
X213834Y425633D01*
X213798Y425888D01*
X213743Y426162D01*
X213725Y426453D01*
X213688Y426763D01*
Y427091D01*
Y427109D01*
Y427182D01*
Y427273D01*
X213706Y427419D01*
Y427583D01*
X213725Y427765D01*
X213743Y427965D01*
X213779Y428202D01*
X213852Y428676D01*
X213980Y429168D01*
X214144Y429624D01*
X214253Y429824D01*
X214381Y430024D01*
Y430043D01*
X214417Y430061D01*
X214508Y430170D01*
X214672Y430334D01*
X214891Y430516D01*
X215182Y430680D01*
X215510Y430844D01*
X215929Y430954D01*
X216148Y430972D01*
X216385Y430990D01*
X216512D01*
X216603Y430972D01*
D02*
G37*
%LPC*%
G36*
X192114Y499516D02*
X160764D01*
Y499412D01*
X160452D01*
Y499308D01*
X160245D01*
Y499204D01*
X160141D01*
Y499100D01*
X160037D01*
Y498996D01*
X159933D01*
Y498893D01*
X159829D01*
Y498685D01*
X159726D01*
Y466816D01*
X159829D01*
Y466608D01*
X159933D01*
Y466401D01*
X160037D01*
Y466297D01*
X160141D01*
Y466193D01*
X160348D01*
Y466089D01*
X160556D01*
Y465986D01*
X192321D01*
Y466089D01*
X192529D01*
Y466193D01*
X192736D01*
Y466297D01*
X192840D01*
Y466401D01*
X192944D01*
Y466608D01*
X193048D01*
Y466816D01*
X193152D01*
Y468166D01*
Y468269D01*
Y498685D01*
X193048D01*
Y498893D01*
X192944D01*
Y498996D01*
X192840D01*
Y499100D01*
X192736D01*
Y499204D01*
X192633D01*
Y499308D01*
X192425D01*
Y499412D01*
X192114D01*
Y499516D01*
D02*
G37*
%LPD*%
G36*
X189934Y496920D02*
X190141D01*
Y496817D01*
X190245D01*
Y496713D01*
X190349D01*
Y496609D01*
X190453D01*
Y496505D01*
X190557D01*
Y496401D01*
X190660D01*
Y496090D01*
X190764D01*
Y469308D01*
X190660D01*
Y469100D01*
X190557D01*
Y468892D01*
X190453D01*
Y468788D01*
X190349D01*
Y468685D01*
X190245D01*
Y468581D01*
X190038D01*
Y468477D01*
X189830D01*
Y468373D01*
X163048D01*
Y468477D01*
X162840D01*
Y468581D01*
X162632D01*
Y468685D01*
X162528D01*
Y468788D01*
X162425D01*
Y468892D01*
X162321D01*
Y469100D01*
X162217D01*
Y469308D01*
X162113D01*
Y496090D01*
X162217D01*
Y496401D01*
X162321D01*
Y496505D01*
X162425D01*
Y496609D01*
X162528D01*
Y496713D01*
X162632D01*
Y496817D01*
X162736D01*
Y496920D01*
X162944D01*
Y497024D01*
X189934D01*
Y496920D01*
D02*
G37*
%LPC*%
G36*
X189415Y495779D02*
X163463D01*
Y495675D01*
X163359D01*
Y489239D01*
X163463D01*
Y469723D01*
X189518D01*
Y475951D01*
X189415D01*
Y478235D01*
Y478339D01*
Y495779D01*
D02*
G37*
%LPD*%
G36*
X187961Y490173D02*
X187857D01*
Y489965D01*
X187754D01*
Y489861D01*
X187650D01*
Y489654D01*
X187546D01*
Y489446D01*
X187442D01*
Y489342D01*
X187338D01*
Y489135D01*
X187235D01*
Y488927D01*
X187131D01*
Y488823D01*
X187027D01*
Y488616D01*
X186923D01*
Y488408D01*
X186820D01*
Y488304D01*
X186716D01*
Y488097D01*
X186612D01*
Y487993D01*
X186508D01*
Y487785D01*
X186404D01*
Y487578D01*
X186300D01*
Y487474D01*
X186197D01*
Y487266D01*
X186093D01*
Y487059D01*
X185989D01*
Y486955D01*
X185885D01*
Y486747D01*
X185781D01*
Y486540D01*
X185574D01*
Y486436D01*
X185055D01*
Y486332D01*
X184640D01*
Y486228D01*
X184224D01*
Y486124D01*
X183809D01*
Y486021D01*
X183394D01*
Y485917D01*
X182979D01*
Y485813D01*
X182459D01*
Y485709D01*
X182044D01*
Y485605D01*
X181733D01*
Y485501D01*
X181214D01*
Y485398D01*
X180799D01*
Y485294D01*
X180383D01*
Y485190D01*
X179968D01*
Y485086D01*
X179553D01*
Y484982D01*
X179138D01*
Y484879D01*
X178619D01*
Y484775D01*
X178203D01*
Y484671D01*
X177788D01*
Y484567D01*
X177373D01*
Y484463D01*
X176958D01*
Y484360D01*
X176542D01*
Y484256D01*
X177477D01*
Y484360D01*
X178619D01*
Y484463D01*
X179864D01*
Y484567D01*
X180902D01*
Y484671D01*
X181940D01*
Y484775D01*
X183186D01*
Y484879D01*
X184432D01*
Y484982D01*
X184536D01*
Y484879D01*
X184640D01*
Y484775D01*
X184536D01*
Y484671D01*
X184432D01*
Y484567D01*
X184328D01*
Y484463D01*
X184224D01*
Y484360D01*
X184121D01*
Y484256D01*
X184017D01*
Y484152D01*
X183913D01*
Y484048D01*
X183809D01*
Y483944D01*
X183705D01*
Y483841D01*
X183601D01*
Y483737D01*
X183498D01*
Y483633D01*
X183394D01*
Y483529D01*
X183290D01*
Y483425D01*
X183186D01*
Y483322D01*
X183082D01*
Y483218D01*
X182979D01*
Y483114D01*
X182875D01*
Y483010D01*
X182771D01*
Y482906D01*
X182667D01*
Y482802D01*
X182563D01*
Y482699D01*
X182459D01*
Y482595D01*
X182356D01*
Y482491D01*
X182252D01*
Y482387D01*
X182148D01*
Y482283D01*
X177165D01*
Y482180D01*
X177477D01*
Y482076D01*
X177892D01*
Y481972D01*
X178307D01*
Y481868D01*
X178826D01*
Y481764D01*
X179242D01*
Y481661D01*
X179657D01*
Y481557D01*
X180072D01*
Y481453D01*
X180487D01*
Y481349D01*
X181006D01*
Y481245D01*
X181110D01*
Y481142D01*
X181006D01*
Y481038D01*
X180799D01*
Y480934D01*
X180591D01*
Y480830D01*
X180383D01*
Y480726D01*
X180176D01*
Y480622D01*
X179968D01*
Y480519D01*
X179761D01*
Y480415D01*
X179553D01*
Y480311D01*
X179345D01*
Y480207D01*
X179138D01*
Y480103D01*
X178930D01*
Y480000D01*
X178826D01*
Y479896D01*
X178515D01*
Y480000D01*
X178411D01*
Y480103D01*
X178203D01*
Y480207D01*
X178100D01*
Y480311D01*
X177996D01*
Y480415D01*
X177892D01*
Y480519D01*
X177788D01*
Y480622D01*
X177684D01*
Y480726D01*
X177581D01*
Y480830D01*
X177477D01*
Y480934D01*
X177373D01*
Y481038D01*
X177165D01*
Y481142D01*
X177061D01*
Y481245D01*
X176958D01*
Y481349D01*
X176854D01*
Y481453D01*
X176750D01*
Y481557D01*
X176646D01*
Y481661D01*
X176542D01*
Y481764D01*
X176439D01*
Y481868D01*
X176335D01*
Y481972D01*
X176127D01*
Y482076D01*
X176023D01*
Y482180D01*
X175920D01*
Y482283D01*
X175816D01*
Y482387D01*
X175712D01*
Y482491D01*
X175608D01*
Y482595D01*
X175504D01*
Y482699D01*
X175401D01*
Y482802D01*
X175297D01*
Y482906D01*
X175193D01*
Y483010D01*
X174985D01*
Y483114D01*
X174882D01*
Y483218D01*
X174778D01*
Y483322D01*
X174674D01*
Y483425D01*
X174570D01*
Y483529D01*
X174466D01*
Y483633D01*
X174363D01*
Y483737D01*
X174259D01*
Y483841D01*
X174155D01*
Y483944D01*
X173947D01*
Y484048D01*
X173844D01*
Y484152D01*
X173740D01*
Y484256D01*
X173636D01*
Y484360D01*
X173532D01*
Y484463D01*
X173428D01*
Y484567D01*
X173325D01*
Y484671D01*
X173117D01*
Y484775D01*
X173013D01*
Y484879D01*
X172909D01*
Y484982D01*
X172805D01*
Y485086D01*
X172702D01*
Y485294D01*
X172909D01*
Y485398D01*
X173325D01*
Y485501D01*
X173636D01*
Y485605D01*
X173844D01*
Y485709D01*
X174155D01*
Y485813D01*
X174466D01*
Y485917D01*
X174778D01*
Y486021D01*
X175193D01*
Y486124D01*
X175401D01*
Y486228D01*
X175712D01*
Y486332D01*
X176023D01*
Y486436D01*
X176335D01*
Y486540D01*
X176646D01*
Y486643D01*
X176958D01*
Y486747D01*
X177269D01*
Y486851D01*
X177581D01*
Y486955D01*
X177892D01*
Y487059D01*
X178203D01*
Y487162D01*
X178515D01*
Y487266D01*
X178826D01*
Y487370D01*
X179138D01*
Y487474D01*
X179449D01*
Y487578D01*
X179761D01*
Y487681D01*
X180072D01*
Y487785D01*
X180383D01*
Y487889D01*
X180695D01*
Y487993D01*
X181006D01*
Y488097D01*
X181318D01*
Y488201D01*
X181629D01*
Y488304D01*
X181837D01*
Y488408D01*
X182252D01*
Y488512D01*
X182563D01*
Y488616D01*
X182875D01*
Y488720D01*
X183186D01*
Y488823D01*
X183394D01*
Y488927D01*
X183705D01*
Y489031D01*
X184121D01*
Y489135D01*
X184432D01*
Y489239D01*
X184640D01*
Y489342D01*
X184951D01*
Y489446D01*
X185262D01*
Y489550D01*
X185574D01*
Y489654D01*
X185989D01*
Y489758D01*
X186197D01*
Y489861D01*
X186508D01*
Y489965D01*
X186820D01*
Y490069D01*
X187131D01*
Y490173D01*
X187546D01*
Y490277D01*
X187754D01*
Y490380D01*
X187961D01*
Y490173D01*
D02*
G37*
G36*
X169068Y487162D02*
X169484D01*
Y487059D01*
X170003D01*
Y486955D01*
X170314D01*
Y486851D01*
X170418D01*
Y486747D01*
X170522D01*
Y486540D01*
X170625D01*
Y486436D01*
X170729D01*
Y486228D01*
X170833D01*
Y486021D01*
X170937D01*
Y485917D01*
X171041D01*
Y485709D01*
X171144D01*
Y485605D01*
X171248D01*
Y485398D01*
X171352D01*
Y485294D01*
X171456D01*
Y485086D01*
X171560D01*
Y484982D01*
X171663D01*
Y484879D01*
X171871D01*
Y484775D01*
X171975D01*
Y484671D01*
X172079D01*
Y484567D01*
X172183D01*
Y484463D01*
X172286D01*
Y484360D01*
X172390D01*
Y484256D01*
X172494D01*
Y484152D01*
X172598D01*
Y484048D01*
X172702D01*
Y483944D01*
X172909D01*
Y483841D01*
X173013D01*
Y483737D01*
X173117D01*
Y483633D01*
X173221D01*
Y483529D01*
X173325D01*
Y483425D01*
X173428D01*
Y483322D01*
X173532D01*
Y483218D01*
X173636D01*
Y483114D01*
X173740D01*
Y483010D01*
X173947D01*
Y482906D01*
X174051D01*
Y482802D01*
X174155D01*
Y482699D01*
X174259D01*
Y482595D01*
X174363D01*
Y482491D01*
X174466D01*
Y482387D01*
X174570D01*
Y482283D01*
X174674D01*
Y482180D01*
X174882D01*
Y482076D01*
X174985D01*
Y481972D01*
X175089D01*
Y481868D01*
X175193D01*
Y481764D01*
X175297D01*
Y481661D01*
X175401D01*
Y481557D01*
X175504D01*
Y481453D01*
X175608D01*
Y481349D01*
X175712D01*
Y481245D01*
X175920D01*
Y481142D01*
X176023D01*
Y481038D01*
X176127D01*
Y480934D01*
X176231D01*
Y480830D01*
X176335D01*
Y480726D01*
X176439D01*
Y480622D01*
X176542D01*
Y480519D01*
X176646D01*
Y480415D01*
X176750D01*
Y480311D01*
X176958D01*
Y480207D01*
X177061D01*
Y480103D01*
X177165D01*
Y480000D01*
X177269D01*
Y479896D01*
X177373D01*
Y479792D01*
X177477D01*
Y479688D01*
X177581D01*
Y479585D01*
X177684D01*
Y479481D01*
X177477D01*
Y479377D01*
X177165D01*
Y479273D01*
X176854D01*
Y479169D01*
X176542D01*
Y479065D01*
X176231D01*
Y478962D01*
X175920D01*
Y478858D01*
X175608D01*
Y478754D01*
X175297D01*
Y478650D01*
X174882D01*
Y478546D01*
X174466D01*
Y478650D01*
X173532D01*
Y478754D01*
X172598D01*
Y478858D01*
X171871D01*
Y478962D01*
X171041D01*
Y479065D01*
X170625D01*
Y479169D01*
X170522D01*
Y479273D01*
X170314D01*
Y479377D01*
X170210D01*
Y479481D01*
X170106D01*
Y479585D01*
X170003D01*
Y479688D01*
X169899D01*
Y479792D01*
X169795D01*
Y479896D01*
X169691D01*
Y480000D01*
X169587D01*
Y480103D01*
X169484D01*
Y480207D01*
X169276D01*
Y480311D01*
X169172D01*
Y480415D01*
X169068D01*
Y480519D01*
X168965D01*
Y480622D01*
X168861D01*
Y480726D01*
X168757D01*
Y480830D01*
X168653D01*
Y480934D01*
X168549D01*
Y481038D01*
X168342D01*
Y481142D01*
X168238D01*
Y481245D01*
X168134D01*
Y481349D01*
X168030D01*
Y482491D01*
X167926D01*
Y484048D01*
X167823D01*
Y485398D01*
X167719D01*
Y485501D01*
X167407D01*
Y485605D01*
X167200D01*
Y485709D01*
X166888D01*
Y485813D01*
X166681D01*
Y485917D01*
X166369D01*
Y486021D01*
X166058D01*
Y486124D01*
X165850D01*
Y486228D01*
X165643D01*
Y486332D01*
X165331D01*
Y486436D01*
X165124D01*
Y486643D01*
X166888D01*
Y486747D01*
X167511D01*
Y486851D01*
X167926D01*
Y486955D01*
X168238D01*
Y487059D01*
X168549D01*
Y487162D01*
X168861D01*
Y487266D01*
X169068D01*
Y487162D01*
D02*
G37*
G36*
X178411Y478754D02*
X178619D01*
Y478650D01*
X178826D01*
Y478546D01*
X179034D01*
Y478443D01*
X179242D01*
Y478339D01*
X179449D01*
Y478235D01*
X179657D01*
Y478131D01*
X179864D01*
Y478027D01*
X180072D01*
Y477923D01*
X180280D01*
Y477820D01*
X180487D01*
Y477716D01*
X180695D01*
Y477612D01*
X180902D01*
Y477508D01*
X181110D01*
Y477404D01*
X181318D01*
Y477301D01*
X181525D01*
Y477197D01*
X181733D01*
Y477093D01*
X181940D01*
Y476989D01*
X182252D01*
Y476886D01*
X182459D01*
Y476678D01*
X182148D01*
Y476574D01*
X181629D01*
Y476470D01*
X181214D01*
Y476366D01*
X180799D01*
Y476263D01*
X180383D01*
Y476159D01*
X179968D01*
Y476055D01*
X179449D01*
Y475951D01*
X179034D01*
Y475847D01*
X178723D01*
Y475951D01*
X178619D01*
Y476159D01*
X178515D01*
Y476263D01*
X178411D01*
Y476470D01*
X178307D01*
Y476574D01*
X178203D01*
Y476782D01*
X178100D01*
Y476886D01*
X177996D01*
Y477093D01*
X177892D01*
Y477301D01*
X177788D01*
Y477404D01*
X177684D01*
Y477508D01*
X177581D01*
Y477612D01*
X177477D01*
Y477508D01*
X177581D01*
Y476989D01*
X177684D01*
Y476574D01*
X177788D01*
Y476055D01*
X177892D01*
Y475640D01*
X177996D01*
Y475432D01*
X177892D01*
Y475328D01*
X177788D01*
Y475224D01*
X177684D01*
Y475121D01*
X177581D01*
Y475017D01*
X177477D01*
Y474913D01*
X177373D01*
Y474809D01*
X177269D01*
Y474706D01*
X177165D01*
Y474602D01*
X177061D01*
Y474498D01*
X176958D01*
Y474394D01*
X176854D01*
Y474186D01*
X176750D01*
Y474083D01*
X176646D01*
Y473979D01*
X176542D01*
Y473875D01*
X176439D01*
Y473771D01*
X176335D01*
Y473667D01*
X176231D01*
Y473564D01*
X176127D01*
Y473460D01*
X176023D01*
Y473356D01*
X175920D01*
Y473252D01*
X175712D01*
Y476263D01*
X175608D01*
Y478027D01*
X175816D01*
Y478131D01*
X176127D01*
Y478235D01*
X176542D01*
Y478339D01*
X176750D01*
Y478443D01*
X177061D01*
Y478546D01*
X177373D01*
Y478650D01*
X177788D01*
Y478754D01*
X178100D01*
Y478858D01*
X178411D01*
Y478754D01*
D02*
G37*
%LPC*%
G36*
X225125Y490380D02*
X224086D01*
Y487681D01*
X225021D01*
Y487785D01*
X225228D01*
Y487889D01*
X225436D01*
Y487993D01*
X225540D01*
Y488097D01*
X225644D01*
Y488304D01*
X225747D01*
Y488512D01*
X225851D01*
Y488823D01*
Y488927D01*
Y489654D01*
X225747D01*
Y489965D01*
X225644D01*
Y490069D01*
X225540D01*
Y490173D01*
X225332D01*
Y490277D01*
X225125D01*
Y490380D01*
D02*
G37*
G36*
X226682Y479065D02*
X225644D01*
Y476366D01*
X226578D01*
Y476470D01*
X226785D01*
Y476574D01*
X226993D01*
Y476678D01*
X227097D01*
Y476782D01*
X227201D01*
Y476989D01*
X227305D01*
Y477197D01*
X227408D01*
Y478339D01*
X227305D01*
Y478650D01*
X227201D01*
Y478754D01*
X227097D01*
Y478858D01*
X226889D01*
Y478962D01*
X226682D01*
Y479065D01*
D02*
G37*
G36*
X232702Y479169D02*
X231872D01*
Y479065D01*
X231664D01*
Y478962D01*
X231457D01*
Y478858D01*
X231353D01*
Y478754D01*
X231249D01*
Y478546D01*
X231145D01*
Y478443D01*
X231042D01*
Y478131D01*
X230938D01*
Y477716D01*
X230834D01*
Y475744D01*
X230938D01*
Y475328D01*
X231042D01*
Y475121D01*
X231145D01*
Y474913D01*
X231249D01*
Y474706D01*
X231353D01*
Y474602D01*
X231457D01*
Y474498D01*
X231664D01*
Y474394D01*
X231872D01*
Y474290D01*
X232702D01*
Y474394D01*
X232910D01*
Y474498D01*
X233014D01*
Y474602D01*
X233118D01*
Y474706D01*
X233222D01*
Y474809D01*
X233325D01*
Y474913D01*
X233429D01*
Y475121D01*
X233533D01*
Y475432D01*
X233637D01*
Y475744D01*
X233741D01*
Y477716D01*
X233637D01*
Y478131D01*
X233533D01*
Y478339D01*
X233429D01*
Y478546D01*
X233325D01*
Y478650D01*
X233222D01*
Y478754D01*
X233118D01*
Y478858D01*
X233014D01*
Y478962D01*
X232910D01*
Y479065D01*
X232702D01*
Y479169D01*
D02*
G37*
G36*
X194557Y447650D02*
X194466D01*
X194393Y447632D01*
X194211Y447577D01*
X194029Y447486D01*
X194011D01*
X193992Y447449D01*
X193883Y447358D01*
X193828Y447285D01*
X193756Y447194D01*
X193701Y447067D01*
X193628Y446939D01*
Y446921D01*
X193610Y446866D01*
X193592Y446794D01*
X193555Y446666D01*
X193537Y446520D01*
X193500Y446356D01*
X193482Y446156D01*
Y445937D01*
Y445919D01*
Y445846D01*
Y445737D01*
X193500Y445609D01*
X193519Y445445D01*
X193537Y445299D01*
X193610Y444972D01*
Y444953D01*
X193628Y444917D01*
X193665Y444844D01*
X193719Y444753D01*
X193828Y444571D01*
X193992Y444388D01*
X194011D01*
X194029Y444352D01*
X194156Y444297D01*
X194320Y444243D01*
X194521Y444206D01*
X194576D01*
X194685Y444225D01*
X194849Y444279D01*
X195013Y444388D01*
X195031Y444407D01*
X195049Y444425D01*
X195140Y444534D01*
X195213Y444607D01*
X195268Y444698D01*
X195323Y444826D01*
X195377Y444953D01*
Y444972D01*
X195395Y445026D01*
X195414Y445099D01*
X195450Y445227D01*
X195468Y445354D01*
X195486Y445518D01*
X195505Y445718D01*
Y445919D01*
Y445937D01*
Y445955D01*
Y446065D01*
X195486Y446210D01*
X195468Y446393D01*
X195450Y446593D01*
X195414Y446812D01*
X195341Y447012D01*
X195268Y447194D01*
X195250Y447213D01*
X195231Y447267D01*
X195177Y447340D01*
X195086Y447431D01*
X194995Y447504D01*
X194867Y447577D01*
X194721Y447632D01*
X194557Y447650D01*
D02*
G37*
G36*
X282779Y449654D02*
X282250D01*
Y446648D01*
X282888D01*
X282979Y446666D01*
X283088Y446684D01*
X283325Y446739D01*
X283453Y446794D01*
X283580Y446866D01*
X283598Y446885D01*
X283635Y446903D01*
X283689Y446957D01*
X283762Y447030D01*
X283926Y447213D01*
X284072Y447449D01*
Y447468D01*
X284090Y447522D01*
X284127Y447595D01*
X284163Y447686D01*
X284181Y447796D01*
X284218Y447941D01*
X284236Y448233D01*
Y448269D01*
Y448360D01*
X284218Y448488D01*
X284200Y448634D01*
X284145Y448816D01*
X284090Y448998D01*
X283999Y449162D01*
X283890Y449308D01*
X283872Y449326D01*
X283835Y449363D01*
X283744Y449417D01*
X283635Y449490D01*
X283471Y449545D01*
X283289Y449599D01*
X283052Y449636D01*
X282779Y449654D01*
D02*
G37*
G36*
X245573Y445627D02*
X245136D01*
X245008Y445609D01*
X244845Y445591D01*
X244681Y445554D01*
X244353Y445445D01*
X244334D01*
X244280Y445409D01*
X244225Y445372D01*
X244152Y445318D01*
X244061Y445245D01*
X244006Y445135D01*
X243952Y445026D01*
X243934Y444880D01*
Y444862D01*
Y444826D01*
X243952Y444753D01*
Y444662D01*
X244006Y444498D01*
X244043Y444407D01*
X244097Y444334D01*
X244134Y444316D01*
X244225Y444261D01*
X244389Y444188D01*
X244626Y444170D01*
X244662D01*
X244790Y444188D01*
X244954Y444261D01*
X245045Y444297D01*
X245136Y444370D01*
X245154Y444388D01*
X245191Y444407D01*
X245300Y444516D01*
X245427Y444662D01*
X245573Y444862D01*
Y445627D01*
D02*
G37*
G36*
X157388Y449654D02*
X156878D01*
Y444480D01*
X157516D01*
X157644Y444498D01*
X157808Y444516D01*
X157990Y444571D01*
X158190Y444625D01*
X158391Y444716D01*
X158573Y444826D01*
X158591Y444844D01*
X158646Y444899D01*
X158719Y444972D01*
X158828Y445081D01*
X158937Y445227D01*
X159028Y445372D01*
X159138Y445573D01*
X159211Y445773D01*
X159229Y445791D01*
X159247Y445883D01*
X159283Y445992D01*
X159320Y446156D01*
X159356Y446338D01*
X159374Y446557D01*
X159411Y446812D01*
Y447067D01*
Y447085D01*
Y447121D01*
Y447176D01*
Y447249D01*
X159393Y447468D01*
X159356Y447723D01*
X159283Y448014D01*
X159211Y448324D01*
X159083Y448634D01*
X158919Y448925D01*
X158901Y448962D01*
X158828Y449035D01*
X158719Y449162D01*
X158554Y449290D01*
X158336Y449417D01*
X158081Y449545D01*
X157753Y449618D01*
X157388Y449654D01*
D02*
G37*
G36*
X216166Y449745D02*
X216130D01*
X216039Y449727D01*
X215893Y449709D01*
X215729Y449654D01*
X215528Y449581D01*
X215328Y449454D01*
X215146Y449290D01*
X214964Y449053D01*
X214945Y449016D01*
X214891Y448925D01*
X214836Y448761D01*
X214763Y448543D01*
X214672Y448251D01*
X214617Y447905D01*
X214563Y447504D01*
X214545Y447030D01*
Y447012D01*
Y446994D01*
Y446885D01*
X214563Y446721D01*
Y446502D01*
X214599Y446265D01*
X214636Y446010D01*
X214672Y445755D01*
X214745Y445518D01*
X214763Y445500D01*
X214781Y445427D01*
X214836Y445318D01*
X214891Y445172D01*
X215073Y444880D01*
X215182Y444735D01*
X215310Y444607D01*
X215328Y444589D01*
X215383Y444571D01*
X215456Y444516D01*
X215565Y444461D01*
X215692Y444407D01*
X215856Y444370D01*
X216020Y444334D01*
X216203Y444316D01*
X216276D01*
X216367Y444334D01*
X216494Y444352D01*
X216622Y444388D01*
X216749Y444443D01*
X216895Y444516D01*
X217041Y444607D01*
X217059Y444625D01*
X217114Y444662D01*
X217168Y444735D01*
X217259Y444844D01*
X217351Y444972D01*
X217460Y445135D01*
X217551Y445318D01*
X217642Y445536D01*
X217660Y445573D01*
X217678Y445646D01*
X217715Y445773D01*
X217751Y445955D01*
X217788Y446174D01*
X217824Y446429D01*
X217861Y446721D01*
Y447049D01*
Y447067D01*
Y447103D01*
Y447176D01*
Y447267D01*
X217842Y447376D01*
Y447504D01*
X217806Y447796D01*
X217751Y448124D01*
X217678Y448452D01*
X217569Y448761D01*
X217423Y449053D01*
X217405Y449089D01*
X217351Y449162D01*
X217241Y449271D01*
X217095Y449399D01*
X216931Y449527D01*
X216713Y449636D01*
X216458Y449709D01*
X216166Y449745D01*
D02*
G37*
G36*
X189073Y447723D02*
X188982D01*
X188891Y447705D01*
X188781Y447668D01*
X188654Y447632D01*
X188526Y447559D01*
X188399Y447468D01*
X188271Y447340D01*
X188253Y447322D01*
X188235Y447267D01*
X188180Y447194D01*
X188126Y447067D01*
X188071Y446939D01*
X188034Y446757D01*
X187980Y446575D01*
X187962Y446356D01*
X189838D01*
Y446393D01*
Y446484D01*
X189820Y446611D01*
Y446775D01*
X189747Y447121D01*
X189711Y447285D01*
X189638Y447413D01*
Y447431D01*
X189601Y447468D01*
X189492Y447577D01*
X189310Y447668D01*
X189201Y447705D01*
X189073Y447723D01*
D02*
G37*
G36*
X164039D02*
X163948D01*
X163857Y447705D01*
X163747Y447668D01*
X163620Y447632D01*
X163492Y447559D01*
X163365Y447468D01*
X163237Y447340D01*
X163219Y447322D01*
X163201Y447267D01*
X163146Y447194D01*
X163091Y447067D01*
X163037Y446939D01*
X163000Y446757D01*
X162946Y446575D01*
X162927Y446356D01*
X164804D01*
Y446393D01*
Y446484D01*
X164786Y446611D01*
Y446775D01*
X164713Y447121D01*
X164676Y447285D01*
X164604Y447413D01*
Y447431D01*
X164567Y447468D01*
X164458Y447577D01*
X164276Y447668D01*
X164166Y447705D01*
X164039Y447723D01*
D02*
G37*
G36*
X202793Y447650D02*
X202738D01*
X202683Y447632D01*
X202592Y447613D01*
X202410Y447559D01*
X202319Y447486D01*
X202228Y447413D01*
Y447395D01*
X202191Y447376D01*
X202155Y447322D01*
X202100Y447249D01*
X202046Y447158D01*
X201991Y447067D01*
X201882Y446794D01*
Y446775D01*
X201864Y446721D01*
X201845Y446648D01*
X201827Y446538D01*
X201809Y446393D01*
X201791Y446247D01*
X201772Y445883D01*
Y445864D01*
Y445791D01*
Y445700D01*
X201791Y445591D01*
X201827Y445299D01*
X201882Y445008D01*
Y444990D01*
X201900Y444953D01*
X201936Y444880D01*
X201973Y444789D01*
X202082Y444589D01*
X202228Y444407D01*
X202246D01*
X202264Y444370D01*
X202319Y444352D01*
X202392Y444316D01*
X202556Y444243D01*
X202665Y444225D01*
X202775Y444206D01*
X202829D01*
X202939Y444225D01*
X203102Y444279D01*
X203266Y444388D01*
X203285Y444407D01*
X203303Y444425D01*
X203358Y444461D01*
X203412Y444534D01*
X203467Y444607D01*
X203521Y444716D01*
X203594Y444826D01*
X203649Y444972D01*
Y444990D01*
X203667Y445044D01*
X203704Y445135D01*
X203722Y445245D01*
X203758Y445391D01*
X203777Y445573D01*
X203795Y445755D01*
Y445974D01*
Y445992D01*
Y446065D01*
Y446174D01*
X203777Y446302D01*
X203740Y446611D01*
X203649Y446921D01*
Y446939D01*
X203631Y446976D01*
X203594Y447049D01*
X203558Y447140D01*
X203449Y447322D01*
X203376Y447395D01*
X203285Y447468D01*
X203266D01*
X203248Y447504D01*
X203139Y447559D01*
X202993Y447613D01*
X202793Y447650D01*
D02*
G37*
G36*
X222616D02*
X222507D01*
X222434Y447632D01*
X222252Y447577D01*
X222070Y447486D01*
X222051D01*
X222033Y447449D01*
X221924Y447358D01*
X221869Y447285D01*
X221796Y447194D01*
X221742Y447067D01*
X221669Y446939D01*
Y446921D01*
X221650Y446866D01*
X221632Y446794D01*
X221596Y446666D01*
X221578Y446538D01*
X221541Y446356D01*
X221523Y446174D01*
Y445955D01*
Y445919D01*
Y445810D01*
X221541Y445664D01*
X221559Y445482D01*
X221596Y445281D01*
X221632Y445081D01*
X221705Y444880D01*
X221796Y444698D01*
X221814Y444680D01*
X221851Y444625D01*
X221905Y444571D01*
X221997Y444498D01*
X222106Y444407D01*
X222252Y444352D01*
X222397Y444297D01*
X222561Y444279D01*
X222634D01*
X222725Y444297D01*
X222835Y444334D01*
X222944Y444388D01*
X223072Y444461D01*
X223181Y444571D01*
X223290Y444716D01*
X223308Y444735D01*
X223327Y444789D01*
X223363Y444899D01*
X223418Y445044D01*
X223472Y445208D01*
X223509Y445427D01*
X223527Y445682D01*
X223545Y445974D01*
Y445992D01*
Y446010D01*
Y446101D01*
X223527Y446247D01*
X223509Y446429D01*
X223491Y446611D01*
X223454Y446812D01*
X223381Y447012D01*
X223308Y447194D01*
X223290Y447213D01*
X223272Y447267D01*
X223217Y447340D01*
X223145Y447431D01*
X223035Y447504D01*
X222926Y447577D01*
X222780Y447632D01*
X222616Y447650D01*
D02*
G37*
G36*
X177175D02*
X177066D01*
X176993Y447632D01*
X176811Y447577D01*
X176629Y447486D01*
X176611D01*
X176592Y447449D01*
X176483Y447358D01*
X176428Y447285D01*
X176356Y447194D01*
X176301Y447067D01*
X176228Y446939D01*
Y446921D01*
X176210Y446866D01*
X176191Y446794D01*
X176155Y446666D01*
X176137Y446538D01*
X176100Y446356D01*
X176082Y446174D01*
Y445955D01*
Y445919D01*
Y445810D01*
X176100Y445664D01*
X176119Y445482D01*
X176155Y445281D01*
X176191Y445081D01*
X176264Y444880D01*
X176356Y444698D01*
X176374Y444680D01*
X176410Y444625D01*
X176465Y444571D01*
X176556Y444498D01*
X176665Y444407D01*
X176811Y444352D01*
X176957Y444297D01*
X177121Y444279D01*
X177194D01*
X177285Y444297D01*
X177394Y444334D01*
X177503Y444388D01*
X177631Y444461D01*
X177740Y444571D01*
X177849Y444716D01*
X177868Y444735D01*
X177886Y444789D01*
X177922Y444899D01*
X177977Y445044D01*
X178032Y445208D01*
X178068Y445427D01*
X178086Y445682D01*
X178105Y445974D01*
Y445992D01*
Y446010D01*
Y446101D01*
X178086Y446247D01*
X178068Y446429D01*
X178050Y446611D01*
X178014Y446812D01*
X177941Y447012D01*
X177868Y447194D01*
X177849Y447213D01*
X177831Y447267D01*
X177777Y447340D01*
X177704Y447431D01*
X177594Y447504D01*
X177485Y447577D01*
X177339Y447632D01*
X177175Y447650D01*
D02*
G37*
G36*
X196762Y427747D02*
X196671D01*
X196598Y427729D01*
X196416Y427674D01*
X196233Y427583D01*
X196215D01*
X196197Y427547D01*
X196088Y427455D01*
X196033Y427383D01*
X195960Y427291D01*
X195905Y427164D01*
X195833Y427036D01*
Y427018D01*
X195815Y426963D01*
X195796Y426891D01*
X195760Y426763D01*
X195742Y426617D01*
X195705Y426453D01*
X195687Y426253D01*
Y426034D01*
Y426016D01*
Y425943D01*
Y425834D01*
X195705Y425706D01*
X195723Y425542D01*
X195742Y425396D01*
X195815Y425069D01*
Y425050D01*
X195833Y425014D01*
X195869Y424941D01*
X195924Y424850D01*
X196033Y424668D01*
X196197Y424485D01*
X196215D01*
X196233Y424449D01*
X196361Y424394D01*
X196525Y424340D01*
X196725Y424303D01*
X196780D01*
X196889Y424322D01*
X197053Y424376D01*
X197217Y424485D01*
X197236Y424504D01*
X197254Y424522D01*
X197345Y424631D01*
X197418Y424704D01*
X197473Y424795D01*
X197527Y424923D01*
X197582Y425050D01*
Y425069D01*
X197600Y425123D01*
X197618Y425196D01*
X197655Y425324D01*
X197673Y425451D01*
X197691Y425615D01*
X197709Y425816D01*
Y426016D01*
Y426034D01*
Y426052D01*
Y426162D01*
X197691Y426307D01*
X197673Y426490D01*
X197655Y426690D01*
X197618Y426909D01*
X197545Y427109D01*
X197473Y427291D01*
X197454Y427310D01*
X197436Y427364D01*
X197381Y427437D01*
X197290Y427528D01*
X197199Y427601D01*
X197072Y427674D01*
X196926Y427729D01*
X196762Y427747D01*
D02*
G37*
G36*
X187871Y425725D02*
X187433D01*
X187306Y425706D01*
X187142Y425688D01*
X186978Y425652D01*
X186650Y425542D01*
X186632D01*
X186577Y425506D01*
X186522Y425469D01*
X186449Y425415D01*
X186358Y425342D01*
X186304Y425233D01*
X186249Y425123D01*
X186231Y424977D01*
Y424959D01*
Y424923D01*
X186249Y424850D01*
Y424759D01*
X186304Y424595D01*
X186340Y424504D01*
X186395Y424431D01*
X186431Y424413D01*
X186522Y424358D01*
X186686Y424285D01*
X186923Y424267D01*
X186960D01*
X187087Y424285D01*
X187251Y424358D01*
X187342Y424394D01*
X187433Y424467D01*
X187452Y424485D01*
X187488Y424504D01*
X187597Y424613D01*
X187725Y424759D01*
X187871Y424959D01*
Y425725D01*
D02*
G37*
G36*
X175718Y429769D02*
X174898D01*
Y427710D01*
X175809D01*
X175882Y427729D01*
X175955D01*
X176137Y427783D01*
X176301Y427874D01*
X176319D01*
X176337Y427911D01*
X176428Y427984D01*
X176520Y428111D01*
X176611Y428275D01*
Y428294D01*
X176629Y428312D01*
X176647Y428366D01*
X176665Y428439D01*
X176702Y428603D01*
X176720Y428804D01*
Y428822D01*
Y428895D01*
X176702Y428986D01*
X176683Y429095D01*
X176647Y429223D01*
X176574Y429350D01*
X176501Y429460D01*
X176392Y429551D01*
X176374Y429569D01*
X176337Y429587D01*
X176264Y429624D01*
X176155Y429660D01*
X176046Y429696D01*
X175900Y429733D01*
X175718Y429769D01*
D02*
G37*
G36*
X175663Y426727D02*
X174898D01*
Y424467D01*
X175809D01*
X175918Y424485D01*
X176046Y424504D01*
X176356Y424577D01*
X176501Y424631D01*
X176647Y424704D01*
X176665Y424722D01*
X176702Y424759D01*
X176756Y424814D01*
X176829Y424923D01*
X176902Y425032D01*
X176957Y425196D01*
X176993Y425396D01*
X177011Y425615D01*
Y425652D01*
Y425725D01*
X176993Y425834D01*
X176957Y425980D01*
X176920Y426125D01*
X176847Y426253D01*
X176756Y426399D01*
X176629Y426490D01*
X176611Y426508D01*
X176556Y426526D01*
X176483Y426563D01*
X176374Y426617D01*
X176228Y426654D01*
X176064Y426690D01*
X175882Y426708D01*
X175663Y426727D01*
D02*
G37*
G36*
X181639Y427783D02*
X181548D01*
X181457Y427765D01*
X181348Y427729D01*
X181220Y427674D01*
X181075Y427601D01*
X180947Y427510D01*
X180838Y427364D01*
X180819Y427346D01*
X180801Y427291D01*
X180765Y427182D01*
X180710Y427055D01*
X180655Y426872D01*
X180619Y426654D01*
X180601Y426380D01*
X180582Y426071D01*
Y426052D01*
Y426034D01*
Y425925D01*
X180601Y425761D01*
X180619Y425561D01*
X180637Y425342D01*
X180692Y425141D01*
X180746Y424923D01*
X180838Y424759D01*
X180856Y424741D01*
X180892Y424704D01*
X180947Y424631D01*
X181038Y424558D01*
X181147Y424485D01*
X181293Y424413D01*
X181457Y424376D01*
X181639Y424358D01*
X181712D01*
X181803Y424376D01*
X181913Y424413D01*
X182040Y424467D01*
X182168Y424540D01*
X182277Y424631D01*
X182386Y424777D01*
X182404Y424795D01*
X182423Y424868D01*
X182459Y424959D01*
X182514Y425105D01*
X182569Y425287D01*
X182605Y425506D01*
X182623Y425761D01*
X182641Y426071D01*
Y426089D01*
Y426107D01*
Y426216D01*
X182623Y426362D01*
X182605Y426544D01*
X182587Y426745D01*
X182532Y426963D01*
X182477Y427164D01*
X182386Y427346D01*
X182368Y427364D01*
X182332Y427419D01*
X182277Y427492D01*
X182204Y427565D01*
X182095Y427638D01*
X181967Y427710D01*
X181822Y427765D01*
X181639Y427783D01*
D02*
G37*
G36*
X216385Y429879D02*
X216330D01*
X216276Y429860D01*
X216203Y429842D01*
X216093Y429787D01*
X216002Y429733D01*
X215893Y429642D01*
X215784Y429532D01*
X215656Y429387D01*
X215547Y429205D01*
X215456Y428986D01*
X215365Y428713D01*
X215273Y428403D01*
X215219Y428020D01*
X215182Y427601D01*
X215164Y427109D01*
Y427091D01*
Y427055D01*
Y426982D01*
Y426891D01*
X215182Y426799D01*
Y426672D01*
X215200Y426380D01*
X215237Y426052D01*
X215292Y425725D01*
X215365Y425396D01*
X215456Y425087D01*
X215474Y425050D01*
X215510Y424977D01*
X215583Y424850D01*
X215674Y424722D01*
X215820Y424577D01*
X215966Y424449D01*
X216166Y424376D01*
X216385Y424340D01*
X216440D01*
X216494Y424358D01*
X216567Y424376D01*
X216658Y424431D01*
X216768Y424485D01*
X216877Y424577D01*
X216986Y424686D01*
X217095Y424832D01*
X217205Y425014D01*
X217314Y425233D01*
X217405Y425506D01*
X217478Y425834D01*
X217533Y426198D01*
X217569Y426617D01*
X217587Y427109D01*
Y427146D01*
Y427237D01*
Y427364D01*
X217569Y427547D01*
X217551Y427747D01*
X217533Y427984D01*
X217442Y428494D01*
X217296Y429004D01*
X217205Y429241D01*
X217077Y429441D01*
X216950Y429624D01*
X216786Y429769D01*
X216603Y429842D01*
X216385Y429879D01*
D02*
G37*
%LPD*%
D10*
X405905Y371654D02*
G03*
X405905Y371654I-394J0D01*
G01*
X557480Y178740D02*
G03*
X557480Y178740I-394J0D01*
G01*
X668504Y243937D02*
G03*
X668504Y243937I-394J0D01*
G01*
X302559Y421870D02*
G03*
X302559Y421870I-394J0D01*
G01*
X134035Y151464D02*
G03*
X134035Y230032I-9232J39284D01*
G01*
X397654Y151449D02*
G03*
X397654Y151449I-394J0D01*
G01*
X505118Y429921D02*
G03*
X505118Y429921I-394J0D01*
G01*
X609055Y429921D02*
G03*
X609055Y429921I-394J0D01*
G01*
X612992Y155315D02*
G03*
X612992Y155315I-394J0D01*
G01*
X576378D02*
G03*
X576378Y155315I-394J0D01*
G01*
X539764D02*
G03*
X539764Y155315I-394J0D01*
G01*
X507480Y155315D02*
G03*
X507480Y155315I-394J0D01*
G01*
X211575Y386988D02*
G03*
X211575Y386988I-394J0D01*
G01*
X549016Y341339D02*
G03*
X549016Y341339I-394J0D01*
G01*
X357480Y416339D02*
G03*
X357480Y416339I-394J0D01*
G01*
Y458071D02*
G03*
X357480Y458071I-394J0D01*
G01*
X288976Y308071D02*
G03*
X288976Y308071I-394J0D01*
G01*
X211024Y321063D02*
G03*
X211024Y321063I-394J0D01*
G01*
X253740Y351181D02*
G03*
X253740Y351181I-394J0D01*
G01*
X216929Y326181D02*
G03*
X216929Y326181I-394J0D01*
G01*
X226378Y335236D02*
G03*
X226378Y335236I-394J0D01*
G01*
X219685Y297047D02*
G03*
X219685Y297047I-394J0D01*
G01*
X230315D02*
G03*
X230315Y297047I-394J0D01*
G01*
X687402Y257677D02*
G03*
X687402Y257677I-394J0D01*
G01*
X577165Y251378D02*
G03*
X577165Y251378I-394J0D01*
G01*
X566929D02*
G03*
X566929Y251378I-394J0D01*
G01*
X487598Y226772D02*
G03*
X487598Y226772I-394J0D01*
G01*
X552658Y303642D02*
X559449D01*
Y309744D01*
X546850Y303642D02*
X552658D01*
X546850Y309744D02*
X559449D01*
X546850Y305807D02*
Y309744D01*
Y303642D02*
Y305807D01*
X262106Y329331D02*
X263583D01*
Y327854D02*
Y329331D01*
Y304528D02*
Y306004D01*
X262106Y304528D02*
X263583D01*
X238779D02*
X240256D01*
X238779D02*
Y306004D01*
Y329331D02*
X240256D01*
X238779Y327854D02*
Y329331D01*
X565945Y433268D02*
Y447835D01*
X586024Y433268D02*
Y447835D01*
X565945Y433268D02*
X586024D01*
X565945Y447835D02*
X586024D01*
X464764D02*
X484842D01*
X464764Y433268D02*
X484842D01*
Y447835D01*
X464764Y433268D02*
Y447835D01*
X425492Y234252D02*
Y235138D01*
X417028Y234744D02*
X425492D01*
X417028Y234350D02*
Y235138D01*
X425492D01*
X417028Y220177D02*
X425492D01*
X417028D02*
Y234547D01*
X425492Y220177D02*
Y234547D01*
X417028Y234350D02*
X425492D01*
X423819Y227165D02*
Y227559D01*
X418701Y227165D02*
Y227559D01*
X204035Y267913D02*
X206102D01*
X189961D02*
X192027D01*
X189961Y278051D02*
Y280118D01*
Y267913D02*
Y269980D01*
X204035Y280118D02*
X206102D01*
X189961D02*
X192027D01*
X206102Y278051D02*
Y280118D01*
Y267913D02*
Y269980D01*
X598332Y494868D02*
X630380D01*
X598332D02*
Y522441D01*
X630380D01*
Y494868D02*
Y522441D01*
X667782Y494868D02*
Y522441D01*
X635734D02*
X667782D01*
X635734Y494868D02*
Y522441D01*
Y494868D02*
X667782D01*
X560931D02*
X592979D01*
X560931D02*
Y522441D01*
X592979D01*
Y494868D02*
Y522441D01*
X505577Y494868D02*
Y522441D01*
X473529D02*
X505577D01*
X473529Y494868D02*
Y522441D01*
Y494868D02*
X505577D01*
X510537D02*
X542585D01*
X510537D02*
Y522441D01*
X542585D01*
Y494868D02*
Y522441D01*
X468176Y494868D02*
Y522441D01*
X436128D02*
X468176D01*
X436128Y494868D02*
Y522441D01*
Y494868D02*
X468176D01*
X161432Y380025D02*
Y412073D01*
X133858Y380025D02*
X161432D01*
X133858D02*
Y412073D01*
X161432D01*
X389042Y494474D02*
Y522047D01*
X356994D02*
X389042D01*
X356994Y494474D02*
Y522047D01*
Y494474D02*
X389042D01*
X393608D02*
X425656D01*
X393608D02*
Y522047D01*
X425656D01*
Y494474D02*
Y522047D01*
X419717Y289008D02*
Y340976D01*
X367748Y289008D02*
Y340976D01*
X419717D01*
X367748Y289008D02*
X419717D01*
X451476Y220472D02*
Y221358D01*
X443012Y220965D02*
X451476D01*
X443012Y220571D02*
Y221358D01*
X451476D01*
X443012Y206398D02*
X451476D01*
X443012D02*
Y220768D01*
X451476Y206398D02*
Y220768D01*
X443012Y220571D02*
X451476D01*
X449803Y213386D02*
Y213779D01*
X444685Y213386D02*
Y213779D01*
X387303Y234449D02*
Y235335D01*
X378839Y234941D02*
X387303D01*
X378839Y234547D02*
Y235335D01*
X387303D01*
X378839Y220374D02*
X387303D01*
X378839D02*
Y234744D01*
X387303Y220374D02*
Y234744D01*
X378839Y234547D02*
X387303D01*
X385630Y227362D02*
Y227756D01*
X380512Y227362D02*
Y227756D01*
X361614Y226969D02*
Y227362D01*
X366732Y226969D02*
Y227362D01*
X359941Y234154D02*
X368406D01*
Y219980D02*
Y234350D01*
X359941Y219980D02*
Y234350D01*
Y219980D02*
X368406D01*
X359941Y234941D02*
X368406D01*
X359941Y234154D02*
Y234941D01*
Y234547D02*
X368406D01*
Y234055D02*
Y234941D01*
X433169Y206398D02*
Y207283D01*
Y206791D02*
X441634D01*
Y206398D02*
Y207185D01*
X433169Y206398D02*
X441634D01*
X433169Y221358D02*
X441634D01*
Y206988D02*
Y221358D01*
X433169Y206988D02*
Y221358D01*
Y207185D02*
X441634D01*
X434842Y213976D02*
Y214370D01*
X439961Y213976D02*
Y214370D01*
X406595Y234154D02*
Y235039D01*
X398130Y234646D02*
X406595D01*
X398130Y234252D02*
Y235039D01*
X406595D01*
X398130Y220079D02*
X406595D01*
X398130D02*
Y234449D01*
X406595Y220079D02*
Y234449D01*
X398130Y234252D02*
X406595D01*
X404921Y227067D02*
Y227461D01*
X399803Y227067D02*
Y227461D01*
X271063Y104724D02*
Y139370D01*
Y104724D02*
X322638D01*
Y139370D01*
X271063Y151181D02*
Y160236D01*
X322638D01*
Y151181D02*
Y160236D01*
X630709Y140764D02*
Y141764D01*
Y137764D02*
Y138764D01*
Y140764D02*
X632709Y138764D01*
X628709D02*
X630709Y140764D01*
X628709Y138764D02*
X632709D01*
X628709Y140764D02*
X632709D01*
X530315Y302756D02*
Y327165D01*
X505905Y302756D02*
Y327165D01*
X530315D01*
X505905Y302756D02*
X530315D01*
X527756Y232677D02*
X536221D01*
Y273622D01*
X527756D02*
X536221D01*
X398138Y429724D02*
Y444291D01*
X378059Y429724D02*
Y444291D01*
X398138D01*
X378059Y429724D02*
X398138D01*
X602362Y331890D02*
X605512D01*
X602362Y343701D02*
X605512D01*
Y331890D02*
Y343701D01*
X602362Y331890D02*
Y343701D01*
X603543Y307087D02*
X606693D01*
X603543Y318898D02*
X606693D01*
Y307087D02*
Y318898D01*
X603543Y307087D02*
Y318898D01*
X267126Y485827D02*
Y488976D01*
X278937Y485827D02*
Y488976D01*
X267126Y485827D02*
X278937D01*
X267126Y488976D02*
X278937D01*
X305315Y485827D02*
Y488976D01*
X317126Y485827D02*
Y488976D01*
X305315Y485827D02*
X317126D01*
X305315Y488976D02*
X317126D01*
X282677Y175000D02*
X285827D01*
X282677Y163189D02*
X285827D01*
X282677D02*
Y175000D01*
X285827Y163189D02*
Y175000D01*
X572016Y194669D02*
X576016D01*
X572016Y196669D02*
X576016D01*
X574016Y194669D02*
X576016Y196669D01*
X572016D02*
X574016Y194669D01*
Y196669D02*
Y197669D01*
Y193669D02*
Y194669D01*
X338189Y444095D02*
X341339D01*
X338189D02*
Y448032D01*
X346850Y444095D02*
X350000D01*
Y448032D01*
X586417Y169095D02*
Y217520D01*
X634842Y169095D02*
Y217520D01*
X586417Y169095D02*
X598917D01*
X586417Y217520D02*
X598917D01*
X622342Y169095D02*
X634842D01*
X622342Y217520D02*
X634842D01*
X429331Y108465D02*
Y111811D01*
X384055Y108465D02*
X429331D01*
X384055D02*
Y111811D01*
Y123802D02*
Y127149D01*
X429331D01*
Y123802D02*
Y127149D01*
X275984Y410827D02*
X279331D01*
Y365551D02*
Y410827D01*
X275984Y365551D02*
X279331D01*
X260647D02*
X263993D01*
X260647D02*
Y410827D01*
X263993D01*
X563878Y370965D02*
Y372539D01*
X558957Y370965D02*
Y372539D01*
X518012Y285138D02*
X519587D01*
X518012Y280217D02*
X519587D01*
X471949Y324705D02*
Y326279D01*
X476870Y324705D02*
Y326279D01*
X669390Y286122D02*
X670965D01*
X669390Y291043D02*
X670965D01*
X669193Y374902D02*
X670768D01*
X669193Y369980D02*
X670768D01*
X481398Y341240D02*
Y342815D01*
X486319Y341240D02*
Y342815D01*
X545374Y349016D02*
Y350590D01*
X540453Y349016D02*
Y350590D01*
X580020Y344980D02*
Y346555D01*
X575098Y344980D02*
Y346555D01*
X375008Y411319D02*
Y412894D01*
X379929Y411319D02*
Y412894D01*
X367134Y411319D02*
Y412894D01*
X372055Y411319D02*
Y412894D01*
X382882Y411319D02*
Y412894D01*
X387803Y411319D02*
Y412894D01*
X390756Y411319D02*
Y412894D01*
X395677Y411319D02*
Y412894D01*
X398630Y411319D02*
Y412894D01*
X403551Y411319D02*
Y412894D01*
X406504Y411319D02*
Y412894D01*
X411425Y411319D02*
Y412894D01*
X329429Y436516D02*
Y438091D01*
X334350Y436516D02*
Y438091D01*
X199114Y312106D02*
Y313681D01*
X204035Y312106D02*
Y313681D01*
X204035Y333563D02*
Y335138D01*
X199114Y333563D02*
Y335138D01*
X268406Y343602D02*
Y345177D01*
X273327Y343602D02*
Y345177D01*
X281398Y343602D02*
Y345177D01*
X286319Y343602D02*
Y345177D01*
X269783Y285138D02*
Y286713D01*
X264862Y285138D02*
Y286713D01*
X253346Y257776D02*
X254921D01*
X253346Y262697D02*
X254921D01*
X236811D02*
X238386D01*
X236811Y257776D02*
X238386D01*
X242224Y284744D02*
Y286319D01*
X237303Y284744D02*
Y286319D01*
X220276Y268012D02*
X221850D01*
X220276Y272933D02*
X221850D01*
X544783Y464862D02*
Y466437D01*
X549705Y464862D02*
Y466437D01*
X544783Y449508D02*
Y451083D01*
X549705Y449508D02*
Y451083D01*
X439272Y158760D02*
X440846D01*
X439272Y153839D02*
X440846D01*
X434941Y196457D02*
Y198031D01*
X439862Y196457D02*
Y198031D01*
X444783Y196358D02*
Y197933D01*
X449705Y196358D02*
Y197933D01*
X468405Y196752D02*
Y198327D01*
X473327Y196752D02*
Y198327D01*
X429429Y140453D02*
Y142028D01*
X434350Y140453D02*
Y142028D01*
X458563Y196653D02*
Y198228D01*
X463484Y196653D02*
Y198228D01*
X438878Y140453D02*
Y142028D01*
X443799Y140453D02*
Y142028D01*
X335252Y336799D02*
X336827D01*
X335252Y331878D02*
X336827D01*
X335252Y326957D02*
X336827D01*
X335252Y322035D02*
X336827D01*
X335252Y317114D02*
X336827D01*
X335252Y312193D02*
X336827D01*
X335252Y307272D02*
X336827D01*
X335252Y302350D02*
X336827D01*
X335252Y297429D02*
X336827D01*
X335252Y292508D02*
X336827D01*
X388090Y139272D02*
Y140847D01*
X393012Y139272D02*
Y140847D01*
X395965Y139173D02*
Y140748D01*
X400886Y139173D02*
Y140748D01*
X439272Y168996D02*
X440846D01*
X439272Y164075D02*
X440846D01*
X381988Y179626D02*
Y181201D01*
X377067Y179626D02*
Y181201D01*
X354528Y191437D02*
X356102D01*
X354528Y186516D02*
X356102D01*
X354528Y181201D02*
X356102D01*
X354528Y176279D02*
X356102D01*
X354528Y170965D02*
X356102D01*
X354528Y166043D02*
X356102D01*
X416437Y208366D02*
X418012D01*
X416437Y203445D02*
X418012D01*
X354528Y160728D02*
X356102D01*
X354528Y155807D02*
X356102D01*
X354528Y150492D02*
X356102D01*
X354528Y145571D02*
X356102D01*
X435532Y233366D02*
X437106D01*
X435532Y238287D02*
X437106D01*
X354035Y263878D02*
Y265453D01*
X349114Y263878D02*
Y265453D01*
X357185Y226476D02*
Y228051D01*
X352264Y226476D02*
Y228051D01*
X376083Y226575D02*
Y228150D01*
X371161Y226575D02*
Y228150D01*
X395374Y226575D02*
Y228150D01*
X390453Y226575D02*
Y228150D01*
X414272Y226575D02*
Y228150D01*
X409350Y226575D02*
Y228150D01*
X467421Y314272D02*
Y315846D01*
X462500Y314272D02*
Y315846D01*
X304823Y323524D02*
X306398D01*
X304823Y328445D02*
X306398D01*
X467815Y294587D02*
Y296161D01*
X462894Y294587D02*
Y296161D01*
X304429Y280020D02*
X306004D01*
X304429Y284941D02*
X306004D01*
X409350Y373130D02*
Y374705D01*
X414272Y373130D02*
Y374705D01*
X400295Y365846D02*
X401870D01*
X400295Y360925D02*
X401870D01*
X174902Y395276D02*
Y396850D01*
X169980Y395276D02*
Y396850D01*
X194783Y383169D02*
X196358D01*
X194783Y378248D02*
X196358D01*
X375886Y485236D02*
Y486811D01*
X380807Y485236D02*
Y486811D01*
X365256Y485236D02*
Y486811D01*
X370177Y485236D02*
Y486811D01*
X412106Y485236D02*
Y486811D01*
X417028Y485236D02*
Y486811D01*
X401083Y485236D02*
Y486811D01*
X406004Y485236D02*
Y486811D01*
X444390Y464862D02*
Y466437D01*
X449311Y464862D02*
Y466437D01*
X444390Y450689D02*
Y452264D01*
X449311Y450689D02*
Y452264D01*
X387106Y394783D02*
X388681D01*
X387106Y399705D02*
X388681D01*
X515748Y352362D02*
X517323D01*
X515748Y357874D02*
X517323D01*
X481102Y302362D02*
Y303937D01*
X486614Y302362D02*
Y303937D01*
X557087Y334646D02*
X558661D01*
X557087Y329134D02*
X558661D01*
X515748Y344094D02*
X517323D01*
X515748Y349606D02*
X517323D01*
X567323Y312598D02*
X568898D01*
X567323Y307087D02*
X568898D01*
X522835Y368504D02*
Y370079D01*
X517323Y368504D02*
Y370079D01*
X567323Y300000D02*
X568898D01*
X567323Y294488D02*
X568898D01*
X557874Y353150D02*
X559449D01*
X557874Y347638D02*
X559449D01*
X557087Y324016D02*
X558661D01*
X557087Y318504D02*
X558661D01*
X481102Y324410D02*
Y325984D01*
X486614Y324410D02*
Y325984D01*
X638189Y285433D02*
X639764D01*
X638189Y290945D02*
X639764D01*
X638976Y370472D02*
X640551D01*
X638976Y375984D02*
X640551D01*
X381102Y470866D02*
X382677D01*
X381102Y476378D02*
X382677D01*
X372047Y461417D02*
X373622D01*
X372047Y466929D02*
X373622D01*
X363779Y429134D02*
Y430709D01*
X369291Y429134D02*
Y430709D01*
Y446063D02*
Y447638D01*
X363779Y446063D02*
Y447638D01*
X363386Y470866D02*
X364961D01*
X363386Y476378D02*
X364961D01*
X417323Y470866D02*
X418898D01*
X417323Y476378D02*
X418898D01*
X408268Y461417D02*
X409842D01*
X408268Y466929D02*
X409842D01*
X399213Y470866D02*
X400787D01*
X399213Y476378D02*
X400787D01*
X341339Y427953D02*
Y429528D01*
X346850Y427953D02*
Y429528D01*
X189370Y314173D02*
Y315748D01*
X194882Y314173D02*
Y315748D01*
X273622Y317323D02*
Y318898D01*
X279134Y317323D02*
Y318898D01*
X231890Y310630D02*
Y312205D01*
X226378Y310630D02*
Y312205D01*
X222047Y310630D02*
Y312205D01*
X216535Y310630D02*
Y312205D01*
X279134Y300787D02*
Y302362D01*
X273622Y300787D02*
Y302362D01*
X238583Y338583D02*
X240158D01*
X238583Y344094D02*
X240158D01*
X255906D02*
X257480D01*
X255906Y338583D02*
X257480D01*
X194882Y333858D02*
Y335433D01*
X189370Y333858D02*
Y335433D01*
X253543Y273228D02*
X255118D01*
X253543Y267717D02*
X255118D01*
X220079Y262992D02*
X221654D01*
X220079Y257480D02*
X221654D01*
X236614Y273228D02*
X238189D01*
X236614Y267717D02*
X238189D01*
X260236Y284646D02*
Y286221D01*
X254724Y284646D02*
Y286221D01*
X251969Y284646D02*
Y286221D01*
X246457Y284646D02*
Y286221D01*
X185433Y273228D02*
Y274803D01*
X179921Y273228D02*
Y274803D01*
X201575Y291339D02*
X203150D01*
X201575Y296850D02*
X203150D01*
X485827Y420866D02*
X487402D01*
X485827Y415354D02*
X487402D01*
X485827Y411024D02*
X487402D01*
X485827Y405512D02*
X487402D01*
X466535Y466142D02*
X468110D01*
X466535Y460630D02*
X468110D01*
X587008Y411024D02*
X588583D01*
X587008Y405512D02*
X588583D01*
X587008Y420866D02*
X588583D01*
X587008Y415354D02*
X588583D01*
X567323Y468110D02*
X568898D01*
X567323Y462598D02*
X568898D01*
X676772Y248425D02*
Y250000D01*
X671260Y248425D02*
Y250000D01*
X672835Y267323D02*
Y268898D01*
X678346Y267323D02*
Y268898D01*
X590158Y240551D02*
Y242126D01*
X584646Y240551D02*
Y242126D01*
Y262205D02*
Y263779D01*
X590158Y262205D02*
Y263779D01*
X574016Y262205D02*
Y263779D01*
X579528Y262205D02*
Y263779D01*
X563779Y262205D02*
Y263779D01*
X569291Y262205D02*
Y263779D01*
X537795Y229528D02*
X539370D01*
X537795Y224016D02*
X539370D01*
X519685D02*
X521260D01*
X519685Y229528D02*
X521260D01*
X394402Y212910D02*
X395976D01*
X394402Y207398D02*
X395976D01*
X376378Y146063D02*
X377953D01*
X376378Y151575D02*
X377953D01*
X416535Y133071D02*
X418110D01*
X416535Y138583D02*
X418110D01*
X440158Y178740D02*
Y180315D01*
X434646Y178740D02*
Y180315D01*
X394402Y204642D02*
X395976D01*
X394402Y199130D02*
X395976D01*
X376772Y165748D02*
Y167323D01*
X382283Y165748D02*
Y167323D01*
X416535Y141339D02*
X418110D01*
X416535Y146850D02*
X418110D01*
X376378Y137795D02*
X377953D01*
X376378Y143307D02*
X377953D01*
X369291Y121260D02*
Y122835D01*
X374803Y121260D02*
Y122835D01*
X483071Y144095D02*
Y145669D01*
X477559Y144095D02*
Y145669D01*
X440158Y122047D02*
Y123622D01*
X445669Y122047D02*
Y123622D01*
X403543Y268504D02*
X405118D01*
X403543Y274016D02*
X405118D01*
X368110D02*
X369685D01*
X368110Y268504D02*
X369685D01*
X435039Y345276D02*
Y346850D01*
X440551Y345276D02*
Y346850D01*
Y292520D02*
Y294094D01*
X435039Y292520D02*
Y294094D01*
X351575Y350394D02*
Y351969D01*
X357087Y350394D02*
Y351969D01*
X351181Y285827D02*
Y287402D01*
X356693Y285827D02*
Y287402D01*
X383071Y268504D02*
X384646D01*
X383071Y274016D02*
X384646D01*
X418504Y268504D02*
X420079D01*
X418504Y274016D02*
X420079D01*
X434646D02*
X436221D01*
X434646Y268504D02*
X436221D01*
X418504Y259055D02*
X420079D01*
X418504Y264567D02*
X420079D01*
X434646D02*
X436221D01*
X434646Y259055D02*
X436221D01*
X373228Y245669D02*
Y247244D01*
X378740Y245669D02*
Y247244D01*
X479528Y239764D02*
Y241339D01*
X474016Y239764D02*
Y241339D01*
X391339Y253937D02*
X392913D01*
X391339Y259449D02*
X392913D01*
X312598Y263386D02*
Y264961D01*
X318110Y263386D02*
Y264961D01*
X441732Y337008D02*
X443307D01*
X441732Y331496D02*
X443307D01*
X366535Y353150D02*
X368110D01*
X366535Y358661D02*
X368110D01*
X336221Y411417D02*
Y412992D01*
X330709Y411417D02*
Y412992D01*
X289370Y407480D02*
Y409055D01*
X294882Y407480D02*
Y409055D01*
X256299Y406299D02*
Y407874D01*
X250787Y406299D02*
Y407874D01*
Y379134D02*
Y380709D01*
X256299Y379134D02*
Y380709D01*
X377559Y377953D02*
Y379528D01*
X372047Y377953D02*
Y379528D01*
X402756Y400000D02*
X404331D01*
X402756Y394488D02*
X404331D01*
X376772Y362992D02*
X378346D01*
X376772Y368504D02*
X378346D01*
X371654Y394094D02*
X373228D01*
X371654Y399606D02*
X373228D01*
X222047Y395276D02*
Y396850D01*
X216535Y395276D02*
Y396850D01*
X559449Y313878D02*
Y316043D01*
Y309941D02*
Y313878D01*
X546850Y309941D02*
X559449D01*
X553642Y316043D02*
X559449D01*
X546850Y309941D02*
Y316043D01*
X553642D01*
X559449Y301280D02*
Y303445D01*
Y297342D02*
Y301280D01*
X546850Y297342D02*
X559449D01*
X553642Y303445D02*
X559449D01*
X546850Y297342D02*
Y303445D01*
X553642D01*
X546850Y291043D02*
Y293209D01*
Y297146D01*
X559449D01*
X546850Y291043D02*
X552658D01*
X559449D02*
Y297146D01*
X552658Y291043D02*
X559449D01*
X418504Y254724D02*
X420079D01*
X418504Y249213D02*
X420079D01*
D11*
X263484Y331890D02*
G03*
X263484Y331890I-492J0D01*
G01*
X588484Y451968D02*
G03*
X588484Y451968I-492J0D01*
G01*
X487303D02*
G03*
X487303Y451968I-492J0D01*
G01*
X210138Y275787D02*
G03*
X210138Y275787I-492J0D01*
G01*
X367846Y284579D02*
G03*
X367846Y284579I-492J0D01*
G01*
X505020Y298228D02*
G03*
X505020Y298228I-492J0D01*
G01*
X550295Y237441D02*
G03*
X550295Y237441I-492J0D01*
G01*
X378059Y425984D02*
G03*
X378059Y425984I-492J0D01*
G01*
X600098Y344882D02*
G03*
X600098Y344882I-492J0D01*
G01*
X601279Y320079D02*
G03*
X601279Y320079I-492J0D01*
G01*
X280610Y491732D02*
G03*
X280610Y491732I-492J0D01*
G01*
X318799D02*
G03*
X318799Y491732I-492J0D01*
G01*
X289075Y162008D02*
G03*
X289075Y162008I-492J0D01*
G01*
X351673Y450984D02*
G03*
X351673Y450984I-492J0D01*
G01*
X598819Y166535D02*
G03*
X598819Y166535I-492J0D01*
G01*
D12*
X372866Y292945D02*
G03*
X372866Y292945I-1181J0D01*
G01*
X511024Y306693D02*
G03*
X511024Y306693I-1181J0D01*
G01*
X383177Y433661D02*
G03*
X383177Y433661I-1181J0D01*
G01*
D13*
X277362Y496654D02*
G03*
X277362Y496654I-591J0D01*
G01*
X315551D02*
G03*
X315551Y496654I-591J0D01*
G01*
X401575Y370669D02*
Y371699D01*
X400545Y370669D02*
X401575D01*
X400545Y386417D02*
X401575D01*
Y385388D02*
Y386417D01*
X385827Y385388D02*
Y386417D01*
X386856D01*
X385827Y370669D02*
X386856D01*
X385827D02*
Y371699D01*
X521299Y173701D02*
X531705D01*
Y213701D01*
X521299D02*
X531705D01*
X631299Y233937D02*
X643102D01*
Y273937D01*
X631299D02*
X643102D01*
X305315Y379528D02*
X320669D01*
X305293Y379523D02*
Y418893D01*
X305315Y418898D02*
X320669D01*
X320669Y379528D02*
Y418898D01*
X256890Y518504D02*
Y521850D01*
Y504134D02*
Y505315D01*
Y521850D02*
X286417D01*
X256890Y502165D02*
Y504134D01*
Y502165D02*
X258366D01*
X284842D02*
X286417D01*
Y505807D01*
Y518110D02*
Y521850D01*
X295079Y518504D02*
Y521850D01*
Y504134D02*
Y505315D01*
Y521850D02*
X324606D01*
X295079Y502165D02*
Y504134D01*
Y502165D02*
X296555D01*
X323031D02*
X324606D01*
Y505807D01*
Y518110D02*
Y521850D01*
X636457Y129508D02*
Y150020D01*
X624961Y129508D02*
Y150020D01*
X133465Y327953D02*
X140945D01*
X133465Y321260D02*
Y327953D01*
Y318307D02*
Y321260D01*
Y318307D02*
X138583D01*
Y300590D02*
Y318307D01*
X133465Y300590D02*
X138583D01*
X133465Y297638D02*
Y300590D01*
Y292520D02*
Y297638D01*
Y292520D02*
X140354D01*
X121653Y297638D02*
X133465D01*
X121653D02*
Y321260D01*
X133465D01*
X148819Y327953D02*
X178740D01*
Y320079D02*
Y327953D01*
Y292520D02*
Y297638D01*
X168504Y292520D02*
X178740D01*
X149016D02*
X161024D01*
X394087Y158776D02*
X395622D01*
X394087D02*
Y160311D01*
Y185587D02*
Y187122D01*
X395622D01*
X420898D02*
X422433D01*
Y185587D02*
Y187122D01*
X420898Y158776D02*
X422433D01*
Y160311D01*
X515551Y460039D02*
X524016D01*
Y439370D02*
Y460039D01*
X518701Y434055D02*
X524016Y439370D01*
X515551Y434055D02*
X518701D01*
X498032Y460039D02*
X506496D01*
X498032Y439370D02*
Y460039D01*
Y439370D02*
X503346Y434055D01*
X506496D01*
X619488Y460039D02*
X627953D01*
Y439370D02*
Y460039D01*
X622638Y434055D02*
X627953Y439370D01*
X619488Y434055D02*
X622638D01*
X601968Y460039D02*
X610433D01*
X601968Y439370D02*
Y460039D01*
Y439370D02*
X607283Y434055D01*
X610433D01*
X593307Y125197D02*
X601772D01*
X593307D02*
Y145866D01*
X598622Y151181D01*
X601772D01*
X610827Y125197D02*
X619291D01*
Y145866D01*
X613976Y151181D02*
X619291Y145866D01*
X610827Y151181D02*
X613976D01*
X556693Y125197D02*
X565158D01*
X556693D02*
Y145866D01*
X562008Y151181D01*
X565158D01*
X574213Y125197D02*
X582677D01*
Y145866D01*
X577362Y151181D02*
X582677Y145866D01*
X574213Y151181D02*
X577362D01*
X520079Y125197D02*
X528543D01*
X520079D02*
Y145866D01*
X525394Y151181D01*
X528543D01*
X537598Y125197D02*
X546063D01*
Y145866D01*
X540748Y151181D02*
X546063Y145866D01*
X537598Y151181D02*
X540748D01*
X487795Y125197D02*
X496260D01*
X487795D02*
Y145866D01*
X493110Y151181D01*
X496260D01*
X505315Y125197D02*
X513779D01*
Y145866D01*
X508465Y151181D02*
X513779Y145866D01*
X505315Y151181D02*
X508465D01*
X187598Y386122D02*
X202953D01*
X187598Y406004D02*
X202953D01*
X666831Y210335D02*
X673819Y203346D01*
Y177756D02*
Y203346D01*
X666831Y177756D02*
X673819D01*
X641142Y203346D02*
X648130Y210335D01*
X641142Y177756D02*
Y203346D01*
Y177756D02*
X648130D01*
X579764Y185413D02*
Y205925D01*
X568268Y185413D02*
Y205925D01*
X553150Y345197D02*
X565748D01*
X553150Y337480D02*
X565748D01*
X353228Y420866D02*
Y433465D01*
X360945Y420866D02*
Y433465D01*
Y440945D02*
Y453543D01*
X353228Y440945D02*
Y453543D01*
X284724Y312598D02*
Y325197D01*
X292441Y312598D02*
Y325197D01*
X214488Y303937D02*
Y316535D01*
X206772Y303937D02*
Y316535D01*
X236221Y347323D02*
X248819D01*
X236221Y355039D02*
X248819D01*
X212677Y330709D02*
Y343307D01*
X220394Y330709D02*
Y343307D01*
X222126Y339764D02*
Y352362D01*
X229842Y339764D02*
Y352362D01*
X223150Y279921D02*
Y292520D01*
X215433Y279921D02*
Y292520D01*
X233780Y279921D02*
Y292520D01*
X226063Y279921D02*
Y292520D01*
X683150Y262205D02*
Y274803D01*
X690866Y262205D02*
Y274803D01*
X580630Y234252D02*
Y246850D01*
X572913Y234252D02*
Y246850D01*
X570394Y234252D02*
Y246850D01*
X562677Y234252D02*
Y246850D01*
X491732Y230630D02*
X504331D01*
X491732Y222913D02*
X504331D01*
D14*
X382776Y240748D02*
G03*
X382776Y240748I-492J0D01*
G01*
X503445Y379134D02*
G03*
X503445Y379134I-492J0D01*
G01*
X436083Y109843D02*
G03*
X436083Y109843I-847J0D01*
G01*
X435375D02*
G03*
X435375Y109843I-139J0D01*
G01*
X278799Y416732D02*
G03*
X278799Y416732I-847J0D01*
G01*
X278092D02*
G03*
X278092Y416732I-139J0D01*
G01*
X427283Y478835D02*
X437284D01*
Y376835D02*
Y478835D01*
X427283Y376835D02*
X437284D01*
X427283D02*
Y478835D01*
X317358Y288575D02*
X327358D01*
X317358D02*
Y349575D01*
X327358D01*
Y288575D02*
Y349575D01*
X335551Y142740D02*
X345551D01*
X335551D02*
Y203740D01*
X345551D01*
Y142740D02*
Y203740D01*
X179622Y352480D02*
Y362480D01*
X137622Y352480D02*
X179622D01*
X137622D02*
Y362480D01*
X179622D01*
X449724Y287543D02*
X459724D01*
X449724D02*
Y319543D01*
X459724D01*
Y287543D02*
Y319543D01*
X300512Y288331D02*
X310512D01*
X300512D02*
Y320331D01*
X310512D01*
Y288331D02*
Y320331D01*
X553661Y425732D02*
X563661D01*
X553661D02*
Y457732D01*
X563661D01*
Y425732D02*
Y457732D01*
X452480Y425969D02*
X462480D01*
X452480D02*
Y457969D01*
X462480D01*
Y425969D02*
Y457969D01*
X699083Y298974D02*
Y361774D01*
X649504Y298974D02*
X699083D01*
X649504Y361774D02*
X699083D01*
X613483D02*
X638212D01*
X613483Y298974D02*
X638212D01*
X613483D02*
Y361774D01*
X169882Y248228D02*
X245079D01*
X134055D02*
X156890D01*
X134055Y134449D02*
Y248228D01*
X247835Y134449D02*
Y152953D01*
X174606Y134449D02*
X247835D01*
X134055D02*
X161614D01*
X640945Y113976D02*
Y120669D01*
Y113976D02*
X697638D01*
Y150591D01*
X665945D02*
X697638D01*
X640945Y142323D02*
Y150591D01*
X644390D01*
X557480Y378346D02*
X565354D01*
Y365354D02*
Y378346D01*
X557480Y365354D02*
X565354D01*
X557480D02*
Y378346D01*
X512205Y278740D02*
Y286614D01*
X525197D01*
Y278740D02*
Y286614D01*
X512205Y278740D02*
X525197D01*
X470472Y318898D02*
X478346D01*
X470472D02*
Y331890D01*
X478346D01*
Y318898D02*
Y331890D01*
X676772Y284646D02*
Y292520D01*
X663779Y284646D02*
X676772D01*
X663779D02*
Y292520D01*
X676772D01*
X663386Y368504D02*
Y376378D01*
X676378D01*
Y368504D02*
Y376378D01*
X663386Y368504D02*
X676378D01*
X479921Y335433D02*
X487795D01*
X479921D02*
Y348425D01*
X487795D01*
Y335433D02*
Y348425D01*
X538976Y356398D02*
X546850D01*
Y343406D02*
Y356398D01*
X538976Y343406D02*
X546850D01*
X538976D02*
Y356398D01*
X573622Y352362D02*
X581496D01*
Y339370D02*
Y352362D01*
X573622Y339370D02*
X581496D01*
X573622D02*
Y352362D01*
X373532Y405512D02*
X381405D01*
X373532D02*
Y418504D01*
X381405D01*
Y405512D02*
Y418504D01*
X365657Y405512D02*
X373532D01*
X365657D02*
Y418504D01*
X373532D01*
Y405512D02*
Y418504D01*
X381405Y405512D02*
X389280D01*
X381405D02*
Y418504D01*
X389280D01*
Y405512D02*
Y418504D01*
Y405512D02*
X397153D01*
X389280D02*
Y418504D01*
X397153D01*
Y405512D02*
Y418504D01*
X397153Y405512D02*
X405028D01*
X397153D02*
Y418504D01*
X405028D01*
Y405512D02*
Y418504D01*
Y405512D02*
X412902D01*
X405028D02*
Y418504D01*
X412902D01*
Y405512D02*
Y418504D01*
X327953Y430709D02*
X335827D01*
X327953D02*
Y443701D01*
X335827D01*
Y430709D02*
Y443701D01*
X197638Y306299D02*
X205512D01*
X197638D02*
Y319291D01*
X205512D01*
Y306299D02*
Y319291D01*
X197638Y340945D02*
X205512D01*
Y327953D02*
Y340945D01*
X197638Y327953D02*
X205512D01*
X197638D02*
Y340945D01*
X266929Y337795D02*
X274803D01*
X266929D02*
Y350787D01*
X274803D01*
Y337795D02*
Y350787D01*
X279921Y337795D02*
X287795D01*
X279921D02*
Y350787D01*
X287795D01*
Y337795D02*
Y350787D01*
X263386Y292520D02*
X271260D01*
Y279528D02*
Y292520D01*
X263386Y279528D02*
X271260D01*
X263386D02*
Y292520D01*
X260728Y256299D02*
Y264173D01*
X247736Y256299D02*
X260728D01*
X247736D02*
Y264173D01*
X260728D01*
X231004Y256299D02*
Y264173D01*
X243996D01*
Y256299D02*
Y264173D01*
X231004Y256299D02*
X243996D01*
X235827Y292126D02*
X243701D01*
Y279134D02*
Y292126D01*
X235827Y279134D02*
X243701D01*
X235827D02*
Y292126D01*
X227658Y266535D02*
Y274410D01*
X214665Y266535D02*
X227658D01*
X214665D02*
Y274410D01*
X227658D01*
X543307Y459055D02*
X551181D01*
X543307D02*
Y472047D01*
X551181D01*
Y459055D02*
Y472047D01*
X543307Y443701D02*
X551181D01*
X543307D02*
Y456693D01*
X551181D01*
Y443701D02*
Y456693D01*
X433465Y152362D02*
Y160236D01*
X446457D01*
Y152362D02*
Y160236D01*
X433465Y152362D02*
X446457D01*
X433465Y190650D02*
X441339D01*
X433465D02*
Y203642D01*
X441339D01*
Y190650D02*
Y203642D01*
X443307Y190551D02*
X451181D01*
X443307D02*
Y203543D01*
X451181D01*
Y190551D02*
Y203543D01*
X466929Y190945D02*
X474803D01*
X466929D02*
Y203937D01*
X474803D01*
Y190945D02*
Y203937D01*
X427953Y134646D02*
X435827D01*
X427953D02*
Y147638D01*
X435827D01*
Y134646D02*
Y147638D01*
X457087Y190847D02*
X464961D01*
X457087D02*
Y203839D01*
X464961D01*
Y190847D02*
Y203839D01*
X437402Y134646D02*
X445276D01*
X437402D02*
Y147638D01*
X445276D01*
Y134646D02*
Y147638D01*
X329445Y330402D02*
Y338276D01*
X342437D01*
Y330402D02*
Y338276D01*
X329445Y330402D02*
X342437D01*
X329445Y320559D02*
Y328433D01*
X342437D01*
Y320559D02*
Y328433D01*
X329445Y320559D02*
X342437D01*
X329445Y310717D02*
Y318590D01*
X342437D01*
Y310717D02*
Y318590D01*
X329445Y310717D02*
X342437D01*
X329445Y300874D02*
Y308748D01*
X342437D01*
Y300874D02*
Y308748D01*
X329445Y300874D02*
X342437D01*
X329445Y291032D02*
Y298905D01*
X342437D01*
Y291032D02*
Y298905D01*
X329445Y291032D02*
X342437D01*
X386614Y133465D02*
X394488D01*
X386614D02*
Y146457D01*
X394488D01*
Y133465D02*
Y146457D01*
Y133366D02*
X402362D01*
X394488D02*
Y146358D01*
X402362D01*
Y133366D02*
Y146358D01*
X433465Y162598D02*
Y170472D01*
X446457D01*
Y162598D02*
Y170472D01*
X433465Y162598D02*
X446457D01*
X375590Y187008D02*
X383465D01*
Y174016D02*
Y187008D01*
X375590Y174016D02*
X383465D01*
X375590D02*
Y187008D01*
X348721Y185039D02*
Y192913D01*
X361713D01*
Y185039D02*
Y192913D01*
X348721Y185039D02*
X361713D01*
X348721Y174803D02*
Y182677D01*
X361713D01*
Y174803D02*
Y182677D01*
X348721Y174803D02*
X361713D01*
X348721Y164567D02*
Y172441D01*
X361713D01*
Y164567D02*
Y172441D01*
X348721Y164567D02*
X361713D01*
X410630Y201969D02*
Y209842D01*
X423622D01*
Y201969D02*
Y209842D01*
X410630Y201969D02*
X423622D01*
X348721Y154331D02*
Y162205D01*
X361713D01*
Y154331D02*
Y162205D01*
X348721Y154331D02*
X361713D01*
X348721Y144095D02*
Y151969D01*
X361713D01*
Y144095D02*
Y151969D01*
X348721Y144095D02*
X361713D01*
X442913Y231890D02*
Y239764D01*
X429921Y231890D02*
X442913D01*
X429921D02*
Y239764D01*
X442913D01*
X347638Y271260D02*
X355512D01*
Y258268D02*
Y271260D01*
X347638Y258268D02*
X355512D01*
X347638D02*
Y271260D01*
X350787Y233858D02*
X358661D01*
Y220866D02*
Y233858D01*
X350787Y220866D02*
X358661D01*
X350787D02*
Y233858D01*
X369685Y233957D02*
X377559D01*
Y220965D02*
Y233957D01*
X369685Y220965D02*
X377559D01*
X369685D02*
Y233957D01*
X388976D02*
X396850D01*
Y220965D02*
Y233957D01*
X388976Y220965D02*
X396850D01*
X388976D02*
Y233957D01*
X407874D02*
X415748D01*
Y220965D02*
Y233957D01*
X407874Y220965D02*
X415748D01*
X407874D02*
Y233957D01*
X461024Y321654D02*
X468898D01*
Y308661D02*
Y321654D01*
X461024Y308661D02*
X468898D01*
X461024D02*
Y321654D01*
X312205Y322047D02*
Y329921D01*
X299213Y322047D02*
X312205D01*
X299213D02*
Y329921D01*
X312205D01*
X461417Y301969D02*
X469291D01*
Y288976D02*
Y301969D01*
X461417Y288976D02*
X469291D01*
X461417D02*
Y301969D01*
X311811Y278543D02*
Y286417D01*
X298819Y278543D02*
X311811D01*
X298819D02*
Y286417D01*
X311811D01*
X407874Y367323D02*
X415748D01*
X407874D02*
Y380315D01*
X415748D01*
Y367323D02*
Y380315D01*
X394488Y359449D02*
Y367323D01*
X407480D01*
Y359449D02*
Y367323D01*
X394488Y359449D02*
X407480D01*
X168504Y402658D02*
X176378D01*
Y389665D02*
Y402658D01*
X168504Y389665D02*
X176378D01*
X168504D02*
Y402658D01*
X188976Y376772D02*
Y384646D01*
X201969D01*
Y376772D02*
Y384646D01*
X188976Y376772D02*
X201969D01*
X374410Y479429D02*
X382283D01*
X374410D02*
Y492421D01*
X382283D01*
Y479429D02*
Y492421D01*
X363779Y479429D02*
X371654D01*
X363779D02*
Y492421D01*
X371654D01*
Y479429D02*
Y492421D01*
X410630Y479429D02*
X418504D01*
X410630D02*
Y492421D01*
X418504D01*
Y479429D02*
Y492421D01*
X399606Y479429D02*
X407480D01*
X399606D02*
Y492421D01*
X407480D01*
Y479429D02*
Y492421D01*
X442913Y459055D02*
X450787D01*
X442913D02*
Y472047D01*
X450787D01*
Y459055D02*
Y472047D01*
X442913Y444882D02*
X450787D01*
X442913D02*
Y457874D01*
X450787D01*
Y444882D02*
Y457874D01*
X394488Y393307D02*
Y401181D01*
X381496Y393307D02*
X394488D01*
X381496D02*
Y401181D01*
X394488D01*
X509055Y350984D02*
X524016D01*
Y359252D01*
X509055D02*
X524016D01*
X509055Y350984D02*
Y359252D01*
X479724Y295669D02*
Y310630D01*
Y295669D02*
X487992D01*
Y310630D01*
X479724D02*
X487992D01*
X550394Y336024D02*
X565354D01*
X550394Y327756D02*
Y336024D01*
Y327756D02*
X565354D01*
Y336024D01*
X509055Y342717D02*
X524016D01*
Y350984D01*
X509055D02*
X524016D01*
X509055Y342717D02*
Y350984D01*
X560630Y313976D02*
X575591D01*
X560630Y305709D02*
Y313976D01*
Y305709D02*
X575591D01*
Y313976D01*
X524213Y361811D02*
Y376772D01*
X515945D02*
X524213D01*
X515945Y361811D02*
Y376772D01*
Y361811D02*
X524213D01*
X560630Y301378D02*
X575591D01*
X560630Y293110D02*
Y301378D01*
Y293110D02*
X575591D01*
Y301378D01*
X551181Y354528D02*
X566142D01*
X551181Y346260D02*
Y354528D01*
Y346260D02*
X566142D01*
Y354528D01*
X550394Y325394D02*
X565354D01*
X550394Y317126D02*
Y325394D01*
Y317126D02*
X565354D01*
Y325394D01*
X479724Y317717D02*
Y332677D01*
Y317717D02*
X487992D01*
Y332677D01*
X479724D02*
X487992D01*
X631496Y284055D02*
X646457D01*
Y292323D01*
X631496D02*
X646457D01*
X631496Y284055D02*
Y292323D01*
X632283Y369094D02*
X647244D01*
Y377362D01*
X632283D02*
X647244D01*
X632283Y369094D02*
Y377362D01*
X374410Y469488D02*
X389370D01*
Y477756D01*
X374410D02*
X389370D01*
X374410Y469488D02*
Y477756D01*
X365354Y460039D02*
X380315D01*
Y468307D01*
X365354D02*
X380315D01*
X365354Y460039D02*
Y468307D01*
X362402Y422441D02*
Y437402D01*
Y422441D02*
X370669D01*
Y437402D01*
X362402D02*
X370669D01*
Y439370D02*
Y454331D01*
X362402D02*
X370669D01*
X362402Y439370D02*
Y454331D01*
Y439370D02*
X370669D01*
X356693Y469488D02*
X371654D01*
Y477756D01*
X356693D02*
X371654D01*
X356693Y469488D02*
Y477756D01*
X410630Y469488D02*
X425591D01*
Y477756D01*
X410630D02*
X425591D01*
X410630Y469488D02*
Y477756D01*
X401575Y460039D02*
X416535D01*
Y468307D01*
X401575D02*
X416535D01*
X401575Y460039D02*
Y468307D01*
X392520Y469488D02*
X407480D01*
Y477756D01*
X392520D02*
X407480D01*
X392520Y469488D02*
Y477756D01*
X339961Y421260D02*
Y436221D01*
Y421260D02*
X348228D01*
Y436221D01*
X339961D02*
X348228D01*
X187992Y307480D02*
Y322441D01*
Y307480D02*
X196260D01*
Y322441D01*
X187992D02*
X196260D01*
X272244Y310630D02*
Y325591D01*
Y310630D02*
X280512D01*
Y325591D01*
X272244D02*
X280512D01*
X233268Y303937D02*
Y318898D01*
X225000D02*
X233268D01*
X225000Y303937D02*
Y318898D01*
Y303937D02*
X233268D01*
X223425D02*
Y318898D01*
X215158D02*
X223425D01*
X215158Y303937D02*
Y318898D01*
Y303937D02*
X223425D01*
X280512Y294094D02*
Y309055D01*
X272244D02*
X280512D01*
X272244Y294094D02*
Y309055D01*
Y294094D02*
X280512D01*
X231890Y337205D02*
X246850D01*
Y345472D01*
X231890D02*
X246850D01*
X231890Y337205D02*
Y345472D01*
X249213D02*
X264173D01*
X249213Y337205D02*
Y345472D01*
Y337205D02*
X264173D01*
Y345472D01*
X196260Y327165D02*
Y342126D01*
X187992D02*
X196260D01*
X187992Y327165D02*
Y342126D01*
Y327165D02*
X196260D01*
X246850Y274606D02*
X261811D01*
X246850Y266339D02*
Y274606D01*
Y266339D02*
X261811D01*
Y274606D01*
X213386Y264370D02*
X228346D01*
X213386Y256102D02*
Y264370D01*
Y256102D02*
X228346D01*
Y264370D01*
X229921Y274606D02*
X244882D01*
X229921Y266339D02*
Y274606D01*
Y266339D02*
X244882D01*
Y274606D01*
X261614Y277953D02*
Y292913D01*
X253346D02*
X261614D01*
X253346Y277953D02*
Y292913D01*
Y277953D02*
X261614D01*
X253346D02*
Y292913D01*
X245079D02*
X253346D01*
X245079Y277953D02*
Y292913D01*
Y277953D02*
X253346D01*
X186811Y266535D02*
Y281496D01*
X178543D02*
X186811D01*
X178543Y266535D02*
Y281496D01*
Y266535D02*
X186811D01*
X194882Y289961D02*
X209842D01*
Y298228D01*
X194882D02*
X209842D01*
X194882Y289961D02*
Y298228D01*
X479134Y422244D02*
X494095D01*
X479134Y413976D02*
Y422244D01*
Y413976D02*
X494095D01*
Y422244D01*
X479134Y412402D02*
X494095D01*
X479134Y404134D02*
Y412402D01*
Y404134D02*
X494095D01*
Y412402D01*
X459842Y467520D02*
X474803D01*
X459842Y459252D02*
Y467520D01*
Y459252D02*
X474803D01*
Y467520D01*
X580315Y412402D02*
X595276D01*
X580315Y404134D02*
Y412402D01*
Y404134D02*
X595276D01*
Y412402D01*
X580315Y422244D02*
X595276D01*
X580315Y413976D02*
Y422244D01*
Y413976D02*
X595276D01*
Y422244D01*
X560630Y469488D02*
X575591D01*
X560630Y461221D02*
Y469488D01*
Y461221D02*
X575591D01*
Y469488D01*
X678150Y241732D02*
Y256693D01*
X669882D02*
X678150D01*
X669882Y241732D02*
Y256693D01*
Y241732D02*
X678150D01*
X671457Y260630D02*
Y275590D01*
Y260630D02*
X679724D01*
Y275590D01*
X671457D02*
X679724D01*
X591535Y233858D02*
Y248819D01*
X583268D02*
X591535D01*
X583268Y233858D02*
Y248819D01*
Y233858D02*
X591535D01*
X583268Y255512D02*
Y270472D01*
Y255512D02*
X591535D01*
Y270472D01*
X583268D02*
X591535D01*
X572638Y255512D02*
Y270472D01*
Y255512D02*
X580905D01*
Y270472D01*
X572638D02*
X580905D01*
X562402Y255512D02*
Y270472D01*
Y255512D02*
X570669D01*
Y270472D01*
X562402D02*
X570669D01*
X531102Y230906D02*
X546063D01*
X531102Y222638D02*
Y230906D01*
Y222638D02*
X546063D01*
Y230906D01*
X512992Y222638D02*
X527953D01*
Y230906D01*
X512992D02*
X527953D01*
X512992Y222638D02*
Y230906D01*
X387709Y214287D02*
X402669D01*
X387709Y206020D02*
Y214287D01*
Y206020D02*
X402669D01*
Y214287D01*
X369685Y144685D02*
X384646D01*
Y152953D01*
X369685D02*
X384646D01*
X369685Y144685D02*
Y152953D01*
X409842Y131693D02*
X424803D01*
Y139961D01*
X409842D02*
X424803D01*
X409842Y131693D02*
Y139961D01*
X441535Y172047D02*
Y187008D01*
X433268D02*
X441535D01*
X433268Y172047D02*
Y187008D01*
Y172047D02*
X441535D01*
X387709Y206020D02*
X402669D01*
X387709Y197752D02*
Y206020D01*
Y197752D02*
X402669D01*
Y206020D01*
X375394Y159055D02*
Y174016D01*
Y159055D02*
X383661D01*
Y174016D01*
X375394D02*
X383661D01*
X409842Y139961D02*
X424803D01*
Y148228D01*
X409842D02*
X424803D01*
X409842Y139961D02*
Y148228D01*
X369685Y136417D02*
X384646D01*
Y144685D01*
X369685D02*
X384646D01*
X369685Y136417D02*
Y144685D01*
X367913Y114567D02*
Y129528D01*
Y114567D02*
X376181D01*
Y129528D01*
X367913D02*
X376181D01*
X484449Y137402D02*
Y152362D01*
X476181D02*
X484449D01*
X476181Y137402D02*
Y152362D01*
Y137402D02*
X484449D01*
X438779Y115354D02*
Y130315D01*
Y115354D02*
X447047D01*
Y130315D01*
X438779D02*
X447047D01*
X396850Y267126D02*
X411811D01*
Y275394D01*
X396850D02*
X411811D01*
X396850Y267126D02*
Y275394D01*
X361417D02*
X376378D01*
X361417Y267126D02*
Y275394D01*
Y267126D02*
X376378D01*
Y275394D01*
X433661Y338583D02*
Y353543D01*
Y338583D02*
X441929D01*
Y353543D01*
X433661D02*
X441929D01*
Y285827D02*
Y300787D01*
X433661D02*
X441929D01*
X433661Y285827D02*
Y300787D01*
Y285827D02*
X441929D01*
X350197Y343701D02*
Y358661D01*
Y343701D02*
X358465D01*
Y358661D01*
X350197D02*
X358465D01*
X349803Y279134D02*
Y294094D01*
Y279134D02*
X358071D01*
Y294094D01*
X349803D02*
X358071D01*
X376378Y267126D02*
X391339D01*
Y275394D01*
X376378D02*
X391339D01*
X376378Y267126D02*
Y275394D01*
X411811Y267126D02*
X426772D01*
Y275394D01*
X411811D02*
X426772D01*
X411811Y267126D02*
Y275394D01*
X427953D02*
X442913D01*
X427953Y267126D02*
Y275394D01*
Y267126D02*
X442913D01*
Y275394D01*
X411811Y257677D02*
X426772D01*
Y265945D01*
X411811D02*
X426772D01*
X411811Y257677D02*
Y265945D01*
X427953D02*
X442913D01*
X427953Y257677D02*
Y265945D01*
Y257677D02*
X442913D01*
Y265945D01*
X371850Y238976D02*
Y253937D01*
Y238976D02*
X380118D01*
Y253937D01*
X371850D02*
X380118D01*
X480905Y233071D02*
Y248031D01*
X472638D02*
X480905D01*
X472638Y233071D02*
Y248031D01*
Y233071D02*
X480905D01*
X384646Y252559D02*
X399606D01*
Y260827D01*
X384646D02*
X399606D01*
X384646Y252559D02*
Y260827D01*
X311221Y256693D02*
Y271654D01*
Y256693D02*
X319488D01*
Y271654D01*
X311221D02*
X319488D01*
X435039Y338386D02*
X450000D01*
X435039Y330118D02*
Y338386D01*
Y330118D02*
X450000D01*
Y338386D01*
X359842Y351772D02*
X374803D01*
Y360039D01*
X359842D02*
X374803D01*
X359842Y351772D02*
Y360039D01*
X337598Y404724D02*
Y419685D01*
X329331D02*
X337598D01*
X329331Y404724D02*
Y419685D01*
Y404724D02*
X337598D01*
X287992Y400787D02*
Y415748D01*
Y400787D02*
X296260D01*
Y415748D01*
X287992D02*
X296260D01*
X257677Y399606D02*
Y414567D01*
X249409D02*
X257677D01*
X249409Y399606D02*
Y414567D01*
Y399606D02*
X257677D01*
X249409Y372441D02*
Y387402D01*
Y372441D02*
X257677D01*
Y387402D01*
X249409D02*
X257677D01*
X378937Y371260D02*
Y386221D01*
X370669D02*
X378937D01*
X370669Y371260D02*
Y386221D01*
Y371260D02*
X378937D01*
X396063Y401378D02*
X411024D01*
X396063Y393110D02*
Y401378D01*
Y393110D02*
X411024D01*
Y401378D01*
X370079Y361614D02*
X385039D01*
Y369882D01*
X370079D02*
X385039D01*
X370079Y361614D02*
Y369882D01*
X364961Y392717D02*
X379921D01*
Y400984D01*
X364961D02*
X379921D01*
X364961Y392717D02*
Y400984D01*
X223425Y388583D02*
Y403543D01*
X215158D02*
X223425D01*
X215158Y388583D02*
Y403543D01*
Y388583D02*
X223425D01*
X411811Y247835D02*
Y256102D01*
X426772D01*
Y247835D02*
Y256102D01*
X411811Y247835D02*
X426772D01*
X454724Y321654D02*
Y327953D01*
X453543Y326772D02*
X454724Y327953D01*
Y327953D02*
Y327953D01*
Y327953D02*
Y327953D01*
Y327953D02*
X455905Y326772D01*
X305906Y338189D02*
X307087Y337008D01*
X305906Y338189D02*
Y338189D01*
Y338189D02*
Y338189D01*
X304724Y337008D02*
X305906Y338189D01*
Y331890D02*
Y338189D01*
X346208Y503807D02*
X343584D01*
X342272Y505119D01*
X343584Y506431D01*
X346208D01*
X344240D01*
Y503807D01*
X342272Y507743D02*
X346208D01*
Y509711D01*
X345552Y510367D01*
X342928D01*
X342272Y509711D01*
Y507743D01*
X342928Y514303D02*
X342272Y513647D01*
Y512335D01*
X342928Y511679D01*
X345552D01*
X346208Y512335D01*
Y513647D01*
X345552Y514303D01*
X349395Y498232D02*
Y499544D01*
Y498888D01*
X353331D01*
Y498232D01*
Y499544D01*
Y501512D02*
X349395D01*
X353331Y504135D01*
X349395D01*
X353331Y505447D02*
X349395D01*
Y507415D01*
X350051Y508071D01*
X351363D01*
X352019Y507415D01*
Y505447D01*
X349395Y509383D02*
X352675D01*
X353331Y510039D01*
Y511351D01*
X352675Y512007D01*
X349395D01*
Y513319D02*
Y515943D01*
Y514631D01*
X353331D01*
X350051Y519878D02*
X349395Y519222D01*
Y517910D01*
X350051Y517255D01*
X350707D01*
X351363Y517910D01*
Y519222D01*
X352019Y519878D01*
X352675D01*
X353331Y519222D01*
Y517910D01*
X352675Y517255D01*
X299593Y176002D02*
X298773Y176822D01*
X297133D01*
X296313Y176002D01*
Y175182D01*
X297133Y174362D01*
X298773D01*
X299593Y173542D01*
Y172722D01*
X298773Y171902D01*
X297133D01*
X296313Y172722D01*
X301233Y176822D02*
X304513D01*
X302873D01*
Y171902D01*
X306153Y176822D02*
Y171902D01*
X309433D01*
X311072Y176822D02*
X312712D01*
X311892D01*
Y171902D01*
X311072D01*
X312712D01*
X315172D02*
Y176822D01*
X318452Y171902D01*
Y176822D01*
X320092D02*
Y171902D01*
Y173542D01*
X323372Y176822D01*
X320912Y174362D01*
X323372Y171902D01*
X303283Y168518D02*
Y164418D01*
X304103Y163598D01*
X305743D01*
X306563Y164418D01*
Y168518D01*
X311482Y167698D02*
X310663Y168518D01*
X309023D01*
X308203Y167698D01*
Y166878D01*
X309023Y166058D01*
X310663D01*
X311482Y165238D01*
Y164418D01*
X310663Y163598D01*
X309023D01*
X308203Y164418D01*
X313122Y168518D02*
Y163598D01*
X315582D01*
X316402Y164418D01*
Y165238D01*
X315582Y166058D01*
X313122D01*
X315582D01*
X316402Y166878D01*
Y167698D01*
X315582Y168518D01*
X313122D01*
X599740Y488438D02*
Y492374D01*
X601052Y491062D01*
X602363Y492374D01*
Y488438D01*
X603675Y492374D02*
X606299D01*
X604987D01*
Y488438D01*
X607611D02*
Y492374D01*
X609579D01*
X610235Y491718D01*
Y490406D01*
X609579Y489750D01*
X607611D01*
X608923D02*
X610235Y488438D01*
X611547D02*
X612859D01*
X612203D01*
Y492374D01*
X611547Y491718D01*
X601052Y485251D02*
X599740D01*
X599084Y484595D01*
Y481971D01*
X599740Y481315D01*
X601052D01*
X601708Y481971D01*
Y484595D01*
X601052Y485251D01*
X603019D02*
Y481971D01*
X603675Y481315D01*
X604987D01*
X605643Y481971D01*
Y485251D01*
X606955D02*
X609579D01*
X608267D01*
Y481315D01*
X613515D02*
X610891D01*
X613515Y483939D01*
Y484595D01*
X612859Y485251D01*
X611547D01*
X610891Y484595D01*
X297230Y463260D02*
X300510D01*
X301166Y463915D01*
Y465227D01*
X300510Y465883D01*
X297230D01*
X297886Y469819D02*
X297230Y469163D01*
Y467851D01*
X297886Y467195D01*
X298542D01*
X299198Y467851D01*
Y469163D01*
X299853Y469819D01*
X300510D01*
X301166Y469163D01*
Y467851D01*
X300510Y467195D01*
X297230Y471131D02*
X301166D01*
Y473099D01*
X300510Y473755D01*
X299853D01*
X299198Y473099D01*
Y471131D01*
Y473099D01*
X298542Y473755D01*
X297886D01*
X297230Y473099D01*
Y471131D01*
X301166Y475067D02*
X298542Y477691D01*
X297230Y479002D02*
X300510D01*
X301166Y479658D01*
Y480970D01*
X300510Y481626D01*
X297230D01*
X301166Y482938D02*
X298542D01*
X297230Y484250D01*
X298542Y485562D01*
X301166D01*
X299198D01*
Y482938D01*
X301166Y486874D02*
X297230D01*
Y488842D01*
X297886Y489498D01*
X299198D01*
X299853Y488842D01*
Y486874D01*
Y488186D02*
X301166Y489498D01*
X297230Y490810D02*
Y493434D01*
Y492122D01*
X301166D01*
X168637Y409792D02*
X167981Y410448D01*
X166669D01*
X166013Y409792D01*
Y407168D01*
X166669Y406512D01*
X167981D01*
X168637Y407168D01*
X169949Y406512D02*
Y409136D01*
X171260Y410448D01*
X172572Y409136D01*
Y406512D01*
Y408480D01*
X169949D01*
X173884Y406512D02*
Y410448D01*
X176508Y406512D01*
Y410448D01*
X177820Y408480D02*
X180444D01*
X491997Y488438D02*
Y492374D01*
X493309Y491062D01*
X494621Y492374D01*
Y488438D01*
X495933Y492374D02*
X498557D01*
X497245D01*
Y488438D01*
X499869D02*
Y492374D01*
X501836D01*
X502492Y491718D01*
Y490406D01*
X501836Y489750D01*
X499869D01*
X501181D02*
X502492Y488438D01*
X503804Y491718D02*
X504460Y492374D01*
X505772D01*
X506428Y491718D01*
Y491062D01*
X505772Y490406D01*
X505116D01*
X505772D01*
X506428Y489750D01*
Y489094D01*
X505772Y488438D01*
X504460D01*
X503804Y489094D01*
X494621Y485251D02*
X493309D01*
X492653Y484595D01*
Y481971D01*
X493309Y481315D01*
X494621D01*
X495277Y481971D01*
Y484595D01*
X494621Y485251D01*
X496589D02*
Y481971D01*
X497245Y481315D01*
X498557D01*
X499213Y481971D01*
Y485251D01*
X500525D02*
X503148D01*
X501836D01*
Y481315D01*
X504460D02*
X505772D01*
X505116D01*
Y485251D01*
X504460Y484595D01*
X454596Y488438D02*
Y492374D01*
X455907Y491062D01*
X457219Y492374D01*
Y488438D01*
X458531Y492374D02*
X461155D01*
X459843D01*
Y488438D01*
X462467D02*
Y492374D01*
X464435D01*
X465091Y491718D01*
Y490406D01*
X464435Y489750D01*
X462467D01*
X463779D02*
X465091Y488438D01*
X468371D02*
Y492374D01*
X466403Y490406D01*
X469027D01*
X456563Y485251D02*
X455252D01*
X454596Y484595D01*
Y481971D01*
X455252Y481315D01*
X456563D01*
X457219Y481971D01*
Y484595D01*
X456563Y485251D01*
X458531D02*
Y481971D01*
X459187Y481315D01*
X460499D01*
X461155Y481971D01*
Y485251D01*
X462467D02*
X465091D01*
X463779D01*
Y481315D01*
X469027D02*
X466403D01*
X469027Y483939D01*
Y484595D01*
X468371Y485251D01*
X467059D01*
X466403Y484595D01*
X168637Y384201D02*
X167981Y384857D01*
X166669D01*
X166013Y384201D01*
Y381577D01*
X166669Y380921D01*
X167981D01*
X168637Y381577D01*
X169949Y380921D02*
Y383545D01*
X171260Y384857D01*
X172572Y383545D01*
Y380921D01*
Y382889D01*
X169949D01*
X173884Y380921D02*
Y384857D01*
X176508Y380921D01*
Y384857D01*
X177820Y382889D02*
X180444D01*
X179132Y384201D02*
Y381577D01*
X474281Y488438D02*
Y492374D01*
X475593Y491062D01*
X476904Y492374D01*
Y488438D01*
X478216Y492374D02*
X480840D01*
X479528D01*
Y488438D01*
X482152D02*
Y492374D01*
X484120D01*
X484776Y491718D01*
Y490406D01*
X484120Y489750D01*
X482152D01*
X483464D02*
X484776Y488438D01*
X486088Y491718D02*
X486744Y492374D01*
X488056D01*
X488712Y491718D01*
Y491062D01*
X488056Y490406D01*
X487400D01*
X488056D01*
X488712Y489750D01*
Y489094D01*
X488056Y488438D01*
X486744D01*
X486088Y489094D01*
X476248Y485251D02*
X474936D01*
X474281Y484595D01*
Y481971D01*
X474936Y481315D01*
X476248D01*
X476904Y481971D01*
Y484595D01*
X476248Y485251D01*
X478216D02*
Y481971D01*
X478872Y481315D01*
X480184D01*
X480840Y481971D01*
Y485251D01*
X482152D02*
X484776D01*
X483464D01*
Y481315D01*
X488712D02*
X486088D01*
X488712Y483939D01*
Y484595D01*
X488056Y485251D01*
X486744D01*
X486088Y484595D01*
X259828Y467196D02*
X263108D01*
X263764Y467852D01*
Y469164D01*
X263108Y469820D01*
X259828D01*
X260484Y473755D02*
X259828Y473099D01*
Y471788D01*
X260484Y471132D01*
X261140D01*
X261796Y471788D01*
Y473099D01*
X262452Y473755D01*
X263108D01*
X263764Y473099D01*
Y471788D01*
X263108Y471132D01*
X259828Y475067D02*
X263764D01*
Y477035D01*
X263108Y477691D01*
X262452D01*
X261796Y477035D01*
Y475067D01*
Y477035D01*
X261140Y477691D01*
X260484D01*
X259828Y477035D01*
Y475067D01*
Y482939D02*
X262452D01*
X263764Y484251D01*
X262452Y485563D01*
X259828D01*
X260484Y489498D02*
X259828Y488842D01*
Y487531D01*
X260484Y486874D01*
X263108D01*
X263764Y487531D01*
Y488842D01*
X263108Y489498D01*
X263764Y490810D02*
X259828D01*
Y492778D01*
X260484Y493434D01*
X261796D01*
X262452Y492778D01*
Y490810D01*
X561682Y488438D02*
Y492374D01*
X562994Y491062D01*
X564306Y492374D01*
Y488438D01*
X565618Y492374D02*
X568242D01*
X566930D01*
Y488438D01*
X569554D02*
Y492374D01*
X571522D01*
X572177Y491718D01*
Y490406D01*
X571522Y489750D01*
X569554D01*
X570865D02*
X572177Y488438D01*
X576113D02*
X573489D01*
X576113Y491062D01*
Y491718D01*
X575457Y492374D01*
X574145D01*
X573489Y491718D01*
X564306Y485251D02*
X562994D01*
X562338Y484595D01*
Y481971D01*
X562994Y481315D01*
X564306D01*
X564962Y481971D01*
Y484595D01*
X564306Y485251D01*
X566274D02*
Y481971D01*
X566930Y481315D01*
X568242D01*
X568898Y481971D01*
Y485251D01*
X570210D02*
X572833D01*
X571522D01*
Y481315D01*
X574145D02*
X575457D01*
X574801D01*
Y485251D01*
X574145Y484595D01*
X552102Y423476D02*
Y419540D01*
X554070D01*
X554726Y420196D01*
Y422820D01*
X554070Y423476D01*
X552102D01*
X556038Y419540D02*
Y423476D01*
X558006D01*
X558661Y422820D01*
Y421508D01*
X558006Y420852D01*
X556038D01*
X557349D02*
X558661Y419540D01*
X559973Y423476D02*
Y420852D01*
X561285Y419540D01*
X562597Y420852D01*
Y423476D01*
X563909Y419540D02*
X565221D01*
X564565D01*
Y423476D01*
X563909Y422820D01*
X543574Y416353D02*
Y412417D01*
X545542D01*
X546198Y413073D01*
Y415697D01*
X545542Y416353D01*
X543574D01*
X550134Y415697D02*
X549478Y416353D01*
X548166D01*
X547510Y415697D01*
Y413073D01*
X548166Y412417D01*
X549478D01*
X550134Y413073D01*
X551446Y416353D02*
Y415697D01*
X552758Y414385D01*
X554070Y415697D01*
Y416353D01*
X552758Y414385D02*
Y412417D01*
X555382D02*
X558006Y415041D01*
X559317Y416353D02*
X561941D01*
X560629D01*
Y412417D01*
X565221Y416353D02*
X563909D01*
X563253Y415697D01*
Y413073D01*
X563909Y412417D01*
X565221D01*
X565877Y413073D01*
Y415697D01*
X565221Y416353D01*
X569813D02*
X567189D01*
Y414385D01*
X568501D01*
X567189D01*
Y412417D01*
X573748Y416353D02*
X571125D01*
Y414385D01*
X572437D01*
X571125D01*
Y412417D01*
X579399Y488438D02*
Y492374D01*
X580711Y491062D01*
X582022Y492374D01*
Y488438D01*
X583334Y492374D02*
X585958D01*
X584646D01*
Y488438D01*
X587270D02*
Y492374D01*
X589238D01*
X589894Y491718D01*
Y490406D01*
X589238Y489750D01*
X587270D01*
X588582D02*
X589894Y488438D01*
X593830D02*
X591206D01*
X593830Y491062D01*
Y491718D01*
X593174Y492374D01*
X591862D01*
X591206Y491718D01*
X581366Y485251D02*
X580055D01*
X579399Y484595D01*
Y481971D01*
X580055Y481315D01*
X581366D01*
X582022Y481971D01*
Y484595D01*
X581366Y485251D01*
X583334D02*
Y481971D01*
X583990Y481315D01*
X585302D01*
X585958Y481971D01*
Y485251D01*
X587270D02*
X589894D01*
X588582D01*
Y481315D01*
X593830D02*
X591206D01*
X593830Y483939D01*
Y484595D01*
X593174Y485251D01*
X591862D01*
X591206Y484595D01*
X436879Y488438D02*
Y492374D01*
X438191Y491062D01*
X439503Y492374D01*
Y488438D01*
X440815Y492374D02*
X443438D01*
X442127D01*
Y488438D01*
X444750D02*
Y492374D01*
X446718D01*
X447374Y491718D01*
Y490406D01*
X446718Y489750D01*
X444750D01*
X446062D02*
X447374Y488438D01*
X450654D02*
Y492374D01*
X448686Y490406D01*
X451310D01*
X439503Y485251D02*
X438191D01*
X437535Y484595D01*
Y481971D01*
X438191Y481315D01*
X439503D01*
X440159Y481971D01*
Y484595D01*
X439503Y485251D01*
X441471D02*
Y481971D01*
X442127Y481315D01*
X443438D01*
X444095Y481971D01*
Y485251D01*
X445406D02*
X448030D01*
X446718D01*
Y481315D01*
X449342D02*
X450654D01*
X449998D01*
Y485251D01*
X449342Y484595D01*
X450462Y423476D02*
Y419540D01*
X452429D01*
X453086Y420196D01*
Y422820D01*
X452429Y423476D01*
X450462D01*
X454397Y419540D02*
Y423476D01*
X456365D01*
X457021Y422820D01*
Y421508D01*
X456365Y420852D01*
X454397D01*
X455709D02*
X457021Y419540D01*
X458333Y423476D02*
Y420852D01*
X459645Y419540D01*
X460957Y420852D01*
Y423476D01*
X464893Y419540D02*
X462269D01*
X464893Y422164D01*
Y422820D01*
X464237Y423476D01*
X462925D01*
X462269Y422820D01*
X442590Y416353D02*
Y412417D01*
X444558D01*
X445214Y413073D01*
Y415697D01*
X444558Y416353D01*
X442590D01*
X449150Y415697D02*
X448494Y416353D01*
X447182D01*
X446526Y415697D01*
Y413073D01*
X447182Y412417D01*
X448494D01*
X449150Y413073D01*
X450462Y416353D02*
Y415697D01*
X451774Y414385D01*
X453086Y415697D01*
Y416353D01*
X451774Y414385D02*
Y412417D01*
X454397D02*
X457021Y415041D01*
X458333Y416353D02*
X460957D01*
X459645D01*
Y412417D01*
X464237Y416353D02*
X462925D01*
X462269Y415697D01*
Y413073D01*
X462925Y412417D01*
X464237D01*
X464893Y413073D01*
Y415697D01*
X464237Y416353D01*
X468828D02*
X466205D01*
Y414385D01*
X467517D01*
X466205D01*
Y412417D01*
X472764Y416353D02*
X470140D01*
Y414385D01*
X471452D01*
X470140D01*
Y412417D01*
X358253Y481055D02*
Y482039D01*
Y481547D01*
X361205D01*
Y481055D01*
Y482039D01*
Y483515D02*
X358253D01*
X361205Y485483D01*
X358253D01*
X361205Y488434D02*
Y486466D01*
X359237Y488434D01*
X358745D01*
X358253Y487942D01*
Y486958D01*
X358745Y486466D01*
X359729Y489418D02*
Y491386D01*
X393686Y481301D02*
Y482285D01*
Y481793D01*
X396638D01*
Y481301D01*
Y482285D01*
Y483761D02*
X393686D01*
X396638Y485729D01*
X393686D01*
X396638Y486712D02*
Y487696D01*
Y487204D01*
X393686D01*
X394178Y486712D01*
X395162Y489172D02*
Y491140D01*
X385812Y481055D02*
Y482039D01*
Y481547D01*
X388764D01*
Y481055D01*
Y482039D01*
Y483515D02*
X385812D01*
X388764Y485483D01*
X385812D01*
X388764Y488434D02*
Y486466D01*
X386796Y488434D01*
X386304D01*
X385812Y487942D01*
Y486958D01*
X386304Y486466D01*
X387288Y489418D02*
Y491386D01*
X386304Y490402D02*
X388272D01*
X421245Y481301D02*
Y482285D01*
Y481793D01*
X424197D01*
Y481301D01*
Y482285D01*
Y483761D02*
X421245D01*
X424197Y485729D01*
X421245D01*
X424197Y486712D02*
Y487696D01*
Y487204D01*
X421245D01*
X421737Y486712D01*
X422721Y489172D02*
Y491140D01*
X421737Y490156D02*
X423705D01*
X617456Y488438D02*
Y492374D01*
X618768Y491062D01*
X620080Y492374D01*
Y488438D01*
X621392Y492374D02*
X624016D01*
X622704D01*
Y488438D01*
X625328D02*
Y492374D01*
X627295D01*
X627951Y491718D01*
Y490406D01*
X627295Y489750D01*
X625328D01*
X626640D02*
X627951Y488438D01*
X629263D02*
X630575D01*
X629919D01*
Y492374D01*
X629263Y491718D01*
X619424Y485251D02*
X618112D01*
X617456Y484595D01*
Y481971D01*
X618112Y481315D01*
X619424D01*
X620080Y481971D01*
Y484595D01*
X619424Y485251D01*
X621392D02*
Y481971D01*
X622048Y481315D01*
X623360D01*
X624016Y481971D01*
Y485251D01*
X625328D02*
X627951D01*
X626640D01*
Y481315D01*
X629263D02*
X630575D01*
X629919D01*
Y485251D01*
X629263Y484595D01*
X439189Y470685D02*
X441188D01*
X440189D01*
Y476683D01*
X439189Y475683D01*
X419081Y454247D02*
X418589Y454739D01*
X417605D01*
X417113Y454247D01*
Y452279D01*
X417605Y451787D01*
X418589D01*
X419081Y452279D01*
Y453263D01*
X418097D01*
X420065Y451787D02*
Y454739D01*
X422032Y451787D01*
Y454739D01*
X423016D02*
Y451787D01*
X424492D01*
X424984Y452279D01*
Y454247D01*
X424492Y454739D01*
X423016D01*
X415047Y382102D02*
Y385054D01*
X416523D01*
X417015Y384562D01*
Y383578D01*
X416523Y383086D01*
X415047D01*
X419966Y385054D02*
X417998D01*
Y382102D01*
X419966D01*
X417998Y383578D02*
X418982D01*
X420950Y382102D02*
X421934D01*
X421442D01*
Y385054D01*
X420950Y384562D01*
X425378Y382102D02*
X423410D01*
X425378Y384070D01*
Y384562D01*
X424886Y385054D01*
X423902D01*
X423410Y384562D01*
X417215Y431709D02*
Y434660D01*
X418690D01*
X419182Y434168D01*
Y433185D01*
X418690Y432693D01*
X417215D01*
X420166Y434660D02*
Y431709D01*
X421642D01*
X422134Y432201D01*
Y432693D01*
X421642Y433185D01*
X420166D01*
X421642D01*
X422134Y433676D01*
Y434168D01*
X421642Y434660D01*
X420166D01*
X423118Y434168D02*
X423610Y434660D01*
X424594D01*
X425086Y434168D01*
Y432201D01*
X424594Y431709D01*
X423610D01*
X423118Y432201D01*
Y434168D01*
X418592Y421866D02*
Y424818D01*
X420068D01*
X420560Y424326D01*
Y423342D01*
X420068Y422850D01*
X418592D01*
X421544Y424818D02*
Y421866D01*
X423020D01*
X423512Y422358D01*
Y422850D01*
X423020Y423342D01*
X421544D01*
X423020D01*
X423512Y423834D01*
Y424326D01*
X423020Y424818D01*
X421544D01*
X424496Y421866D02*
X425480D01*
X424988D01*
Y424818D01*
X424496Y424326D01*
X417608Y411866D02*
Y414818D01*
X419084D01*
X419576Y414326D01*
Y413342D01*
X419084Y412850D01*
X417608D01*
X422528Y414818D02*
X420560D01*
Y411866D01*
X422528D01*
X420560Y413342D02*
X421544D01*
X423512Y414818D02*
X425480D01*
Y414326D01*
X423512Y412358D01*
Y411866D01*
X417507Y402575D02*
Y405527D01*
X418982D01*
X419474Y405035D01*
Y404051D01*
X418982Y403559D01*
X417507D01*
X422426Y405527D02*
X420458D01*
Y402575D01*
X422426D01*
X420458Y404051D02*
X421442D01*
X423410Y405035D02*
X423902Y405527D01*
X424886D01*
X425378Y405035D01*
Y404543D01*
X424886Y404051D01*
X425378Y403559D01*
Y403067D01*
X424886Y402575D01*
X423902D01*
X423410Y403067D01*
Y403559D01*
X423902Y404051D01*
X423410Y404543D01*
Y405035D01*
X423902Y404051D02*
X424886D01*
X415047Y392732D02*
Y395684D01*
X416523D01*
X417015Y395192D01*
Y394208D01*
X416523Y393716D01*
X415047D01*
X419966Y395684D02*
X417998D01*
Y392732D01*
X419966D01*
X417998Y394208D02*
X418982D01*
X420950Y392732D02*
X421934D01*
X421442D01*
Y395684D01*
X420950Y395192D01*
X423410D02*
X423902Y395684D01*
X424886D01*
X425378Y395192D01*
Y393224D01*
X424886Y392732D01*
X423902D01*
X423410Y393224D01*
Y395192D01*
X417113Y441945D02*
Y444897D01*
X418589D01*
X419081Y444405D01*
Y443421D01*
X418589Y442929D01*
X417113D01*
X420065Y441945D02*
Y443913D01*
X421048Y444897D01*
X422032Y443913D01*
Y441945D01*
Y443421D01*
X420065D01*
X424984Y444897D02*
X424000Y444405D01*
X423016Y443421D01*
Y442437D01*
X423508Y441945D01*
X424492D01*
X424984Y442437D01*
Y442929D01*
X424492Y443421D01*
X423016D01*
X313205Y291158D02*
X315204D01*
X314204D01*
Y297155D01*
X313205Y296156D01*
X333551Y151740D02*
X331552D01*
X332552D01*
Y145742D01*
X333551Y146742D01*
X170685Y366323D02*
Y364323D01*
Y365323D01*
X176683D01*
X175683Y366323D01*
X447724Y296543D02*
X445725D01*
X446725D01*
Y290545D01*
X447724Y291545D01*
X296276Y291158D02*
X298275D01*
X297275D01*
Y297155D01*
X296276Y296156D01*
X551661Y434732D02*
X549662D01*
X550662D01*
Y428734D01*
X551661Y429734D01*
X448244Y428953D02*
X450243D01*
X449244D01*
Y434951D01*
X448244Y433951D01*
X320291Y227770D02*
Y224491D01*
X320947Y223835D01*
X322259D01*
X322915Y224491D01*
Y227770D01*
X326851Y227114D02*
X326195Y227770D01*
X324883D01*
X324227Y227114D01*
Y226459D01*
X324883Y225802D01*
X326195D01*
X326851Y225147D01*
Y224491D01*
X326195Y223835D01*
X324883D01*
X324227Y224491D01*
X328163Y223835D02*
Y227770D01*
X330131D01*
X330787Y227114D01*
Y225802D01*
X330131Y225147D01*
X328163D01*
X329475D02*
X330787Y223835D01*
X336034Y227770D02*
Y223835D01*
X338002D01*
X338658Y224491D01*
Y225147D01*
X338002Y225802D01*
X336034D01*
X338002D01*
X338658Y226459D01*
Y227114D01*
X338002Y227770D01*
X336034D01*
X339970D02*
X342594D01*
X341282D01*
Y223835D01*
X343906D02*
Y227770D01*
X346530Y223835D01*
Y227770D01*
X451394Y224228D02*
Y228164D01*
X453362D01*
X454017Y227508D01*
Y226196D01*
X453362Y225540D01*
X451394D01*
X452706D02*
X454017Y224228D01*
X457953Y227508D02*
X457297Y228164D01*
X455985D01*
X455329Y227508D01*
Y226852D01*
X455985Y226196D01*
X457297D01*
X457953Y225540D01*
Y224884D01*
X457297Y224228D01*
X455985D01*
X455329Y224884D01*
X459265Y228164D02*
X461889D01*
X460577D01*
Y224228D01*
X338404Y121406D02*
X337584Y120586D01*
Y118946D01*
X338404Y118126D01*
X339224D01*
X340044Y118946D01*
Y120586D01*
X340864Y121406D01*
X341684D01*
X342504Y120586D01*
Y118946D01*
X341684Y118126D01*
X337584Y123046D02*
X342504D01*
X340864Y124686D01*
X342504Y126325D01*
X337584D01*
Y127965D02*
X342504D01*
Y130425D01*
X341684Y131245D01*
X338404D01*
X337584Y130425D01*
Y127965D01*
Y132885D02*
Y134525D01*
Y133705D01*
X342504D01*
Y132885D01*
Y134525D01*
X337584Y139444D02*
Y137805D01*
X338404Y136985D01*
X341684D01*
X342504Y137805D01*
Y139444D01*
X341684Y140264D01*
X338404D01*
X337584Y139444D01*
X452348Y330134D02*
X457268D01*
Y332594D01*
X456448Y333414D01*
X455628D01*
X454808Y332594D01*
Y330134D01*
Y332594D01*
X453988Y333414D01*
X453168D01*
X452348Y332594D01*
Y330134D01*
Y337513D02*
Y335874D01*
X453168Y335053D01*
X456448D01*
X457268Y335874D01*
Y337513D01*
X456448Y338333D01*
X453168D01*
X452348Y337513D01*
Y342433D02*
Y340793D01*
X453168Y339973D01*
X456448D01*
X457268Y340793D01*
Y342433D01*
X456448Y343253D01*
X453168D01*
X452348Y342433D01*
Y344893D02*
Y348173D01*
Y346533D01*
X457268D01*
Y349813D02*
Y351452D01*
Y350633D01*
X452348D01*
X453168Y349813D01*
X320491Y355067D02*
X319671Y354247D01*
Y352607D01*
X320491Y351787D01*
X321311D01*
X322131Y352607D01*
Y354247D01*
X322951Y355067D01*
X323771D01*
X324590Y354247D01*
Y352607D01*
X323771Y351787D01*
X319671Y356707D02*
X324590D01*
X322951Y358347D01*
X324590Y359987D01*
X319671D01*
Y361627D02*
X324590D01*
Y364087D01*
X323771Y364907D01*
X320491D01*
X319671Y364087D01*
Y361627D01*
Y366546D02*
Y368186D01*
Y367366D01*
X324590D01*
Y366546D01*
Y368186D01*
X319671Y373106D02*
Y371466D01*
X320491Y370646D01*
X323771D01*
X324590Y371466D01*
Y373106D01*
X323771Y373926D01*
X320491D01*
X319671Y373106D01*
X303529Y340370D02*
X308449D01*
Y342830D01*
X307629Y343650D01*
X306809D01*
X305989Y342830D01*
Y340370D01*
Y342830D01*
X305169Y343650D01*
X304349D01*
X303529Y342830D01*
Y340370D01*
Y347750D02*
Y346110D01*
X304349Y345290D01*
X307629D01*
X308449Y346110D01*
Y347750D01*
X307629Y348569D01*
X304349D01*
X303529Y347750D01*
Y352669D02*
Y351029D01*
X304349Y350209D01*
X307629D01*
X308449Y351029D01*
Y352669D01*
X307629Y353489D01*
X304349D01*
X303529Y352669D01*
Y355129D02*
Y358409D01*
Y356769D01*
X308449D01*
X304349Y360049D02*
X303529Y360869D01*
Y362509D01*
X304349Y363329D01*
X307629D01*
X308449Y362509D01*
Y360869D01*
X307629Y360049D01*
X304349D01*
X514910Y491320D02*
X514090Y492140D01*
X512450D01*
X511630Y491320D01*
Y488040D01*
X512450Y487220D01*
X514090D01*
X514910Y488040D01*
Y489680D01*
X513270D01*
X516550Y487220D02*
Y492140D01*
X519829Y487220D01*
Y492140D01*
X521469D02*
Y487220D01*
X523929D01*
X524749Y488040D01*
Y491320D01*
X523929Y492140D01*
X521469D01*
X529347D02*
Y488860D01*
X530986Y487220D01*
X532626Y488860D01*
Y492140D01*
X534266D02*
X535906D01*
X535086D01*
Y487220D01*
X534266D01*
X535906D01*
X538366D02*
Y492140D01*
X541646Y487220D01*
Y492140D01*
X640106Y491320D02*
X639287Y492140D01*
X637647D01*
X636827Y491320D01*
Y488040D01*
X637647Y487220D01*
X639287D01*
X640106Y488040D01*
Y489680D01*
X638467D01*
X641746Y487220D02*
Y492140D01*
X645026Y487220D01*
Y492140D01*
X646666D02*
Y487220D01*
X649126D01*
X649946Y488040D01*
Y491320D01*
X649126Y492140D01*
X646666D01*
X654543D02*
Y488860D01*
X656183Y487220D01*
X657823Y488860D01*
Y492140D01*
X659463D02*
X661103D01*
X660283D01*
Y487220D01*
X659463D01*
X661103D01*
X663563D02*
Y492140D01*
X666843Y487220D01*
Y492140D01*
D15*
X631181Y154724D02*
G03*
X631181Y154724I-472J0D01*
G01*
X574488Y180709D02*
G03*
X574488Y180709I-472J0D01*
G01*
D16*
X140157Y331102D02*
G03*
X140157Y331102I-787J0D01*
G01*
D17*
X632366Y368774D02*
G03*
X632366Y368774I-1500J0D01*
G01*
D18*
X552854Y305020D02*
X553445D01*
X552854Y308366D02*
X553445D01*
X383858Y238779D02*
Y252559D01*
X400394Y238779D02*
Y252559D01*
X383858D02*
X400394D01*
X383858Y238779D02*
X400394D01*
X501279Y377165D02*
X514468D01*
X501279Y361417D02*
X514468D01*
Y377165D01*
X501279Y361417D02*
Y377165D01*
X530315Y410630D02*
X555905D01*
X530315Y365354D02*
X555905D01*
Y410630D01*
X530315Y365354D02*
Y410630D01*
X448622Y180118D02*
X474213D01*
X448622Y134843D02*
X474213D01*
Y180118D01*
X448622Y134843D02*
Y180118D01*
X444354Y275430D02*
X469945D01*
X444354Y230154D02*
X469945D01*
Y275430D01*
X444354Y230154D02*
Y275430D01*
X320669Y230118D02*
X346260D01*
X320669Y275394D02*
X346260D01*
X320669Y230118D02*
Y275394D01*
X346260Y230118D02*
Y275394D01*
X552854Y311319D02*
X553445D01*
X552854Y314665D02*
X553445D01*
X552854Y298721D02*
X553445D01*
X552854Y302067D02*
X553445D01*
X552854Y295768D02*
X553445D01*
X552854Y292421D02*
X553445D01*
D19*
X140415Y339173D02*
X139923Y338681D01*
Y337697D01*
X140415Y337205D01*
X140907D01*
X141399Y337697D01*
Y338681D01*
X141891Y339173D01*
X142383D01*
X142875Y338681D01*
Y337697D01*
X142383Y337205D01*
X142875Y340157D02*
X139923D01*
Y341632D01*
X140415Y342124D01*
X141399D01*
X141891Y341632D01*
Y340157D01*
X139923Y343108D02*
X142875D01*
X141891D01*
X139923Y345076D01*
X141399Y343600D01*
X142875Y345076D01*
Y346060D02*
X139923D01*
Y347536D01*
X140415Y348028D01*
X141399D01*
X141891Y347536D01*
Y346060D01*
Y347044D02*
X142875Y348028D01*
X144883Y338681D02*
Y337697D01*
X145375Y337205D01*
X147343D01*
X147835Y337697D01*
Y338681D01*
X147343Y339173D01*
X145375D01*
X144883Y338681D01*
Y340157D02*
X147343D01*
X147835Y340649D01*
Y341632D01*
X147343Y342124D01*
X144883D01*
Y343108D02*
Y345076D01*
Y344092D01*
X147835D01*
X144883Y346060D02*
X147835D01*
Y347536D01*
X147343Y348028D01*
X146851D01*
X146359Y347536D01*
Y346060D01*
Y347536D01*
X145867Y348028D01*
X145375D01*
X144883Y347536D01*
Y346060D01*
X146359Y349012D02*
Y350980D01*
X150652Y339173D02*
X150160Y338681D01*
Y337697D01*
X150652Y337205D01*
X151144D01*
X151636Y337697D01*
Y338681D01*
X152128Y339173D01*
X152619D01*
X153111Y338681D01*
Y337697D01*
X152619Y337205D01*
X153111Y340157D02*
X150160D01*
Y341632D01*
X150652Y342124D01*
X151636D01*
X152128Y341632D01*
Y340157D01*
X150160Y343108D02*
X153111D01*
X152128D01*
X150160Y345076D01*
X151636Y343600D01*
X153111Y345076D01*
Y346060D02*
X150160D01*
Y347536D01*
X150652Y348028D01*
X151636D01*
X152128Y347536D01*
Y346060D01*
Y347044D02*
X153111Y348028D01*
X155119Y338681D02*
Y337697D01*
X155611Y337205D01*
X157579D01*
X158071Y337697D01*
Y338681D01*
X157579Y339173D01*
X155611D01*
X155119Y338681D01*
Y340157D02*
X157579D01*
X158071Y340649D01*
Y341632D01*
X157579Y342124D01*
X155119D01*
Y343108D02*
Y345076D01*
Y344092D01*
X158071D01*
X155119Y346060D02*
X158071D01*
Y347536D01*
X157579Y348028D01*
X157087D01*
X156595Y347536D01*
Y346060D01*
Y347536D01*
X156103Y348028D01*
X155611D01*
X155119Y347536D01*
Y346060D01*
X156595Y349012D02*
Y350980D01*
X155611Y349996D02*
X157579D01*
X160888Y339173D02*
X160396Y338681D01*
Y337697D01*
X160888Y337205D01*
X161380D01*
X161872Y337697D01*
Y338681D01*
X162364Y339173D01*
X162856D01*
X163348Y338681D01*
Y337697D01*
X162856Y337205D01*
X163348Y340157D02*
X160396D01*
Y341632D01*
X160888Y342124D01*
X161872D01*
X162364Y341632D01*
Y340157D01*
X160396Y343108D02*
X163348D01*
X162364D01*
X160396Y345076D01*
X161872Y343600D01*
X163348Y345076D01*
Y346060D02*
X160396D01*
Y347536D01*
X160888Y348028D01*
X161872D01*
X162364Y347536D01*
Y346060D01*
Y347044D02*
X163348Y348028D01*
X165355Y338681D02*
Y337697D01*
X165847Y337205D01*
X167815D01*
X168307Y337697D01*
Y338681D01*
X167815Y339173D01*
X165847D01*
X165355Y338681D01*
Y340157D02*
X167815D01*
X168307Y340649D01*
Y341632D01*
X167815Y342124D01*
X165355D01*
Y343108D02*
Y345076D01*
Y344092D01*
X168307D01*
Y346060D02*
X166339D01*
X165355Y347044D01*
X166339Y348028D01*
X168307D01*
X166831D01*
Y346060D01*
Y349012D02*
Y350980D01*
X171124Y339173D02*
X170632Y338681D01*
Y337697D01*
X171124Y337205D01*
X171616D01*
X172108Y337697D01*
Y338681D01*
X172600Y339173D01*
X173092D01*
X173584Y338681D01*
Y337697D01*
X173092Y337205D01*
X173584Y340157D02*
X170632D01*
Y341632D01*
X171124Y342124D01*
X172108D01*
X172600Y341632D01*
Y340157D01*
X170632Y343108D02*
X173584D01*
X172600D01*
X170632Y345076D01*
X172108Y343600D01*
X173584Y345076D01*
Y346060D02*
X170632D01*
Y347536D01*
X171124Y348028D01*
X172108D01*
X172600Y347536D01*
Y346060D01*
Y347044D02*
X173584Y348028D01*
X175592Y338681D02*
Y337697D01*
X176084Y337205D01*
X178051D01*
X178543Y337697D01*
Y338681D01*
X178051Y339173D01*
X176084D01*
X175592Y338681D01*
Y340157D02*
X178051D01*
X178543Y340649D01*
Y341632D01*
X178051Y342124D01*
X175592D01*
Y343108D02*
Y345076D01*
Y344092D01*
X178543D01*
Y346060D02*
X176576D01*
X175592Y347044D01*
X176576Y348028D01*
X178543D01*
X177067D01*
Y346060D01*
Y349012D02*
Y350980D01*
M02*
