M48
;Layer_Color=9474304
;FILE_FORMAT=2:5
INCH,LZ
;TYPE=PLATED
T1F00S00C0.01181
T2F00S00C0.01575
T3F00S00C0.01968
T5F00S00C0.02756
T6F00S00C0.02800
T7F00S00C0.03500
T8F00S00C0.03543
T9F00S00C0.03622
T10F00S00C0.03937
T12F00S00C0.04000
T13F00S00C0.04331
T14F00S00C0.06700
T16F00S00C0.11811
T17F00S00C0.12800
;TYPE=NON_PLATED
T18F00S00C0.04331
T19F00S00C0.05906
%
T01
X0441339Y0132382
X0470882Y0208283
X050315Y0290551
X0501181Y0293307
X051063Y0288976
X0527165Y0307874
X0545276Y0308268
Y0311417
Y0305118
Y0301969
Y0298819
Y0295669
Y029252
X0495669Y031063
X0437008Y0307874
X0434252Y0305118
X0431496Y0302362
X0416535Y030315
Y0306693
Y0310236
X0417717Y0299213
Y0295669
X0415354Y0291339
X042126Y0284646
X0402756Y027874
X039252Y0291732
X0388583
X0384646
X0375984
X0371654
X0369685Y0278346
X0372835Y0277559
X0375984
X0366929Y0280315
X0353937Y0301575
X0351575Y0299213
X0356299Y0303937
X0394094Y0305906
X0391732Y0309449
X0396063Y0301969
X0399213Y0298819
X0427559Y0244488
X0417323Y0212598
X0413386
X0409449
X0405905Y0196063
X0402756
X0401354Y0182402
X0409228
X0419598Y0171965
X0409244Y016161
X0364173Y0158268
X0364173Y0168504
X0430398Y019352
X0461039Y0208185
X0293701Y0170866
X0293701Y0167323
X0257874Y0206693
X0250394Y025315
X0249213Y0276378
X025748
X0267717Y0307087
X0294488Y0299213
X0297638Y0301181
X0294094Y0247638
X0216535Y025315
X019252Y0263779
X0235039Y0322835
X023937Y0332283
X0246063Y0335039
X0249606
X0254724
X0258268Y0334646
X0266929Y0329134
X0268898Y0322047
X0267323Y0318504
X0277559Y0340551
X0289764
X0294488Y032874
X0297638Y0330686
X0297244Y039252
Y0396063
X030747Y0406703
X030748Y0411811
X0212205Y0403543
Y0388976
X0179134Y0393307
Y0398819
X0369685Y0403543
X0377559Y0403543
X0387008
X0393307
X0403937
X0409055
X0406693Y0387795
X0386221Y0388583
X0388583Y0362992
X0390551Y0355906
X0381496
X037874
X0376772Y0358268
X0383465
X0398425Y0336614
Y0332677
X0416535Y032441
Y0320866
Y0317323
Y0313779
X0432677Y0333858
X0441339Y0356299
Y0361024
X0417667Y0370128
X0374803Y0327953
Y0324016
Y0320079
Y0316142
X0355512Y0317323
X0351575Y0319685
X0348425Y0322047
X0345669Y0325197
X0357087Y0325984
Y0329528
X0490158Y0338189
X0495669Y0321654
X0494488Y0313779
X0507087Y0322835
X051063Y0323228
X0513386Y0325197
X0518504Y0340551
X0521654Y0340158
X0526772Y0316142
X0545276Y0314567
X0561417Y0422047
X0576378Y0416535
X0316535Y0496457
X0312992
X0309449
X0305906
X0278346
X0274803
X027126
X0267717
T02
X024685Y0312598
X0251181
X0255512
Y0316929
Y032126
X0251181
Y0316929
X024685
Y032126
X0391142Y0375984
X0393701Y0378543
X039626Y0375984
Y0381102
X0391142
X0472638Y0438386
X0476968
Y0442717
X0472638
X0573819
Y0438386
X057815
Y0442717
T03
X016811Y0129921
X0372047Y0132283
X0381496Y0134646
X0390551Y0130413
X0398425Y0130315
X0412992Y0129528
X0421654
X043189Y0131595
X0448819Y0127165
X0441339Y015
X0381496Y0155512
X0366929Y0148819
Y0140551
X0480315Y0155118
X0498819Y0116732
X050315Y0116732
X0531102Y0115945
X0535433Y0115945
X0567717Y0115945
X0572047Y0115945
X0604331Y0115945
X0608661Y0115945
X065315Y016811
X065748Y016811
X0661811Y016811
X0661811Y0219094
X065748Y0219094
X065315Y0219094
X0653543Y0238583
X0658268
X0662992
X0674016Y0238189
X068189Y0245276
Y0250394
Y0255512
X0677953Y0277953
X0673228
X0684252Y0280315
X0689764
X0660532Y0288583
X0649213Y0288189
X062874
X0596282Y0273271
X0596282Y026894
X0596282Y0264609
X0596063Y0260236
X0596063Y0255906
X0596063Y0251575
Y0247244
X0596063Y0242913
X0596063Y0238583
Y0234252
X0587402Y0231102
X0576772Y0228346
X0566535Y0229134
X0554724Y0237402
X055Y0237256
X0545276
X0548819Y0226772
X0546654Y021298
X0551378
X0541929Y0212835
X0534252Y0220472
X0524803
X0516142Y0220079
X050315
X0492913Y0220866
X0485445Y0212795
Y0208071
X0485591Y0203346
X0485445Y0198622
Y0193898
X0485591Y0189173
X0485445Y0184449
Y0179724
X0485591Y0175
X0477165Y0174409
X0476772Y0250787
X0488791Y0249016
Y0244291
X0488937Y0239567
Y025374
X0488791Y0258465
Y0263189
X0488937Y0267913
X0472244Y0269488
X0472047Y0298819
X0477559
Y030748
X0528445Y0282677
X0545669Y0269291
X0550394
X0555118
X0564567Y0273228
X0568504
X0574803
X057874
X0585433
X058937
X0589764Y0252756
X0585039
X0579528
X0574016
X0569291
X0563779
X0572441Y0290158
X0571654Y0211811
X0575984
X055748Y0207087
Y0200394
Y0193701
X0606299Y022185
X061063Y022185
X0614961Y022185
X0453937Y0217323
X0430709Y0217717
X0432579Y0242913
X042126Y0237008
X0409842Y0237008
X0402362Y0236909
X0403543Y0244488
X0409055Y0251969
X0408661Y0259055
Y0264567
X04
X0388189Y0265354
X0379528
X0373228
X0364567
X0357874Y0276378
X0348031Y0286221
X0345276Y0308268
X0379953Y0291665
X038189Y0257874
X0375984Y0256693
X0373622Y0236221
X0364173Y0236811
X0354724Y023691
X0348228Y0236024
X0351575Y025502
X0315354Y0253937
X0318701Y0236024
X0314961Y0283465
X0383071Y0237205
X0392913Y0237008
X0384646Y0210236
Y0201575
X0379528Y0190059
X036811Y0188976
X0373622Y0170866
X0372441Y0161811
X0405425Y0201886
X0405512Y0210236
X0444488Y0183858
Y0175197
X0449705Y0166535
X0452362Y0156693
Y0182677
X0439764Y0255906
Y0277953
X0443701Y0289435
Y0297638
X0464961Y0305906
X0453543Y0269685
X0283465Y0297244
X0282677Y0305906
X0288976
X0224803Y0301575
X0219291Y0301181
X0212598Y0294094
X0213386Y0281102
X0204724Y0285039
X0198031Y0284744
X0192126Y0294094
X0204724Y0301969
X0198031Y0260236
X0182677Y0263779
X0175197Y0278346
X0163386Y0255906
X0225197Y0253543
X0241339
X0263779Y0259842
X0258661Y0216535
X0258858Y0196732
X0258661Y0189764
X0274016Y0169291
X0283071Y0313779
X0282677Y0322835
X0288583Y0330709
X030187Y033189
X0283858Y0354035
X0270866
X0261024Y0348425
X0254331Y0347638
X025315Y0355512
X0231496Y0351181
X0225984Y0357087
X0236614Y0335039
X0225197Y032126
X0219291
X0213779
X0201575
X0207874Y0330315
X0205118Y0380709
X0225984Y0391732
Y0400394
X0253543Y039685
Y0390158
X0285827Y0403937
X0291959Y0419471
X0333465Y0422047
X033189Y0427658
X0350787Y0424409
X035Y0433071
X0351969Y0437402
X0348031Y0438976
X0345276Y0418504
X0353937Y0414961
X0363386Y0419685
X0373622Y0434252
Y044252
X0385433Y0441339
X0386221Y0467717
X0395669Y0467717
X0422441
X044685Y0437795
X0413779Y0397244
X0411811Y0383563
X0411024Y0363386
X0444882Y0350787
X0444488Y0341732
X0449472Y0341339
X0376016Y0338319
X0347244Y034685
X0339779Y0340244
X0345276Y0313779
X0354331Y0361417
X0362992Y0362992
X0367717Y0367717
X0367717Y037441
Y0383071
X036811Y0390158
X0382283Y040315
X0398425Y0403543
X0333465Y0401968
X0359842Y0467717
X0496457Y041811
X0496063Y0407874
X0482283Y0401181
X0528346Y0404724
X0557874
X0583465Y0401181
X0598032Y0408268
Y041811
X0612992Y0424803
X0617323Y0424803
X0547244Y044065
X0513386Y0424803
X0509055Y0424803
X0511122Y0379331
X0520079Y0379528
X0525984Y0364961
X0526378Y0355118
Y0346457
X0506693
Y0355118
X0498819Y0364961
X0483858Y0351673
X0474409Y0335138
X0490158Y0329921
X0547638Y0334252
X0548819Y0353543
X0568898Y0350394
X0570472Y0341339
X056811Y033189
X056811Y032126
X0572441Y0316929
X0583465Y0349606
X0567323Y0368012
X0614961Y0337795
X0616535Y0312992
X0629528Y0373228
X065
X0660335Y0372441
X0616929Y0469291
X0612598Y0469291
X0572441Y0472441
X0563779Y0472047
X0547244Y0475295
X0512992Y0469291
X0508661Y0469291
X0472047Y0470079
X0462598Y0469685
X044685Y0477953
X0314961Y0506299
X0311221Y0477953
X0273031Y0478543
X0276772Y0506299
T05
X0319488Y0501575
X0300197
X0281299
X0262008
T06
X0389764Y0153543
X0492126Y011811
X0511811
X0523622
X0543307Y011811
X0555118
X0551181Y0129921
X0588583
X0590551Y011811
X057874
X0620079Y011811
X0661417Y011811
X0673228
X0679134Y0129921
Y0141732
X0679134Y0155512
Y0167323
Y0179134
X0669291Y0161417
X0647638Y0161417
X0643701Y0177165
X0635039Y0200787
X0640945Y0212598
X0629134
X0643701Y0234646
X0637795Y0248031
X0643701Y0259842
X0637795Y0271654
X0623228Y0200787
X0611417
X0599606
X0587795
X0593701Y0212598
X058189
X0564173Y0200787
X052559Y0200787
X0531496Y0212598
Y0188976
X0277559Y0354331
X0265748
X0507874Y0413386
X0501968Y0425197
X0496063Y0437008
X0519685
X0531496
X0537401Y0448819
X052559
X0531496Y046063
X0590551Y0437008
X0602362
X0608267Y0425197
X0596456
X0602362Y0413386
X0596456Y0401575
X0625984Y0437008
X063189Y0448819
X0643701
X0649606Y046063
X0637795
X0655512Y0472441
X0537401
X0531496Y0484252
X0537401Y0496063
T07
X0620866Y0307874
Y0317874
Y0327874
Y0337874
Y0347874
X0630866Y0342874
Y0332874
Y0322874
Y0312874
Y0352874
T08
X0432283Y0382835
Y0392835
Y0402835
Y0412835
Y0422835
Y0432835
Y0442835
Y0452835
Y0462835
T09
X0283071Y0155945
X0292913
X0300787
X031063
T10
X0409842Y0443307
T12
X0665866Y0303898
X0673858
Y035685
X0665866
T13
X0340551Y014874
Y015874
Y016874
Y017874
Y018874
Y019874
X0322358Y0294575
Y0304575
X0454724Y0303543
Y0293543
X0305512Y0294331
Y0304331
X0176772Y030315
X0164567Y0295276
X0144882Y0291732
Y0328346
X0143622Y035748
X0153622
X0148031Y0389173
Y0402953
X0163622Y035748
X0173622
X0176772Y0315748
X0305512Y0314331
X0322358Y0314575
Y0324575
Y0334575
Y0344575
X0454724Y0313543
X045748Y0431968
Y0441968
Y0451968
X0558661Y0451732
Y0441732
Y0431732
X0644882Y0508268
X0658661
X062126
X060748
X0583858
X0570079
X0533465
X0519685
X0496457
X0482677
X0459055
X0445276
X0416535Y0507874
X0402756
X0379921
X0366142
X0432283Y0472835
T14
X0643858Y029937
Y0361378
T16
X0147638Y0116142
X0687008Y0509842
X0147638
T17
X0655866Y0307874
Y0352874
T18
X0164567Y0309449
X0144882
T19
X0155118Y0146653
Y0241929
M30
