G04*
G04 #@! TF.GenerationSoftware,Altium Limited,Altium Designer,22.4.2 (48)*
G04*
G04 Layer_Physical_Order=4*
G04 Layer_Color=16711680*
%FSLAX25Y25*%
%MOIN*%
G70*
G04*
G04 #@! TF.SameCoordinates,507B7574-AD96-49B3-9928-A38505287C88*
G04*
G04*
G04 #@! TF.FilePolarity,Positive*
G04*
G01*
G75*
%ADD10C,0.00787*%
%ADD14C,0.01000*%
%ADD131C,0.05500*%
%ADD145C,0.00667*%
%ADD146C,0.00500*%
%ADD147C,0.00754*%
%ADD154C,0.00633*%
%ADD155O,0.07874X0.05906*%
%ADD156R,0.07874X0.06299*%
%ADD157C,0.06496*%
%ADD158R,0.06496X0.06496*%
%ADD159R,0.06496X0.06496*%
%ADD160O,0.04724X0.09449*%
%ADD161O,0.04134X0.08268*%
%ADD162O,0.05906X0.07874*%
%ADD163R,0.06299X0.07874*%
%ADD164C,0.12992*%
%ADD165R,0.05622X0.05622*%
%ADD166C,0.05622*%
%ADD167C,0.04331*%
%ADD168C,0.06000*%
%ADD169C,0.12800*%
%ADD170C,0.08700*%
G04:AMPARAMS|DCode=171|XSize=177.17mil|YSize=78.74mil|CornerRadius=19.68mil|HoleSize=0mil|Usage=FLASHONLY|Rotation=90.000|XOffset=0mil|YOffset=0mil|HoleType=Round|Shape=RoundedRectangle|*
%AMROUNDEDRECTD171*
21,1,0.17717,0.03937,0,0,90.0*
21,1,0.13780,0.07874,0,0,90.0*
1,1,0.03937,0.01968,0.06890*
1,1,0.03937,0.01968,-0.06890*
1,1,0.03937,-0.01968,-0.06890*
1,1,0.03937,-0.01968,0.06890*
%
%ADD171ROUNDEDRECTD171*%
G04:AMPARAMS|DCode=172|XSize=177.17mil|YSize=78.74mil|CornerRadius=19.68mil|HoleSize=0mil|Usage=FLASHONLY|Rotation=180.000|XOffset=0mil|YOffset=0mil|HoleType=Round|Shape=RoundedRectangle|*
%AMROUNDEDRECTD172*
21,1,0.17717,0.03937,0,0,180.0*
21,1,0.13780,0.07874,0,0,180.0*
1,1,0.03937,-0.06890,0.01968*
1,1,0.03937,0.06890,0.01968*
1,1,0.03937,0.06890,-0.01968*
1,1,0.03937,-0.06890,-0.01968*
%
%ADD172ROUNDEDRECTD172*%
%ADD173C,0.19685*%
%ADD174C,0.01968*%
%ADD175C,0.02362*%
%ADD176C,0.02953*%
%ADD177C,0.04921*%
%ADD178C,0.05000*%
%ADD199C,0.03937*%
%ADD200C,0.00760*%
D10*
X348901Y328661D02*
G03*
X348901Y326690I986J-986D01*
G01*
X349810Y329570D02*
G03*
X349810Y331541I-986J986D01*
G01*
D02*
G03*
X347839Y331541I-986J-986D01*
G01*
X344959Y330632D02*
G03*
X346930Y330632I986J986D01*
G01*
X289370Y386221D02*
X344681Y330910D01*
X349606Y325984D02*
X353150D01*
X348901Y326690D02*
X349606Y325984D01*
X348901Y326690D02*
X348901Y326690D01*
Y328661D02*
X349810Y329570D01*
X347839Y331541D02*
Y331541D01*
X346930Y330632D02*
X347839Y331541D01*
X344959Y330632D02*
X344959Y330632D01*
X344681Y330910D02*
X344959Y330632D01*
X353150Y325984D02*
X357087D01*
X278740Y405512D02*
X354724Y329528D01*
X212205Y388976D02*
X214961Y386221D01*
X289370D01*
X386221Y286614D02*
X400787Y272047D01*
X411024D01*
X386221Y286614D02*
Y289370D01*
X402362Y275197D02*
X412205D01*
X389764Y287795D02*
Y288976D01*
Y287795D02*
X402362Y275197D01*
X412205D02*
X470882Y216520D01*
X411024Y272047D02*
X461039Y222031D01*
Y208185D02*
Y222031D01*
X470882Y208283D02*
Y216520D01*
X427559Y242126D02*
Y244488D01*
X433858Y186224D02*
Y235827D01*
X427559Y242126D02*
X433858Y235827D01*
X378071Y182402D02*
X401354D01*
X364173Y168504D02*
X378071Y182402D01*
X358661Y251181D02*
Y267323D01*
Y251181D02*
X373622Y236221D01*
X358661Y267323D02*
X369685Y278346D01*
X419598Y171965D02*
X433858Y186224D01*
X329134Y262402D02*
X346260Y279528D01*
X348425D02*
X370866Y301969D01*
X346260Y279528D02*
X348425D01*
X225787Y262402D02*
X329134D01*
X198425Y269685D02*
X330315D01*
X348228Y282480D02*
X351378Y285630D01*
X343110Y282480D02*
X348228D01*
X330315Y269685D02*
X343110Y282480D01*
X192520Y263779D02*
X198425Y269685D01*
X216535Y253150D02*
X225787Y262402D01*
X370866Y301969D02*
X396063D01*
X331496Y259055D02*
X368898Y296457D01*
X406693D01*
X331496Y259055D02*
X331496Y259055D01*
X296457Y259055D02*
X331496D01*
X351378Y285630D02*
Y287992D01*
X369291Y305906D01*
X394094D01*
X287008Y235827D02*
Y249606D01*
X257874Y206693D02*
X287008Y235827D01*
Y249606D02*
X296457Y259055D01*
X409449Y299213D02*
X417717D01*
X406693Y296457D02*
X409449Y299213D01*
X368504Y309449D02*
X391732D01*
X355118Y296063D02*
X368504Y309449D01*
X386221Y289370D02*
X388583Y291732D01*
X389764Y288976D02*
X392520Y291732D01*
X561179Y421892D02*
X566297D01*
X331890Y275984D02*
X351969Y296063D01*
X262598Y304331D02*
X290945Y275984D01*
X331890D01*
X301969Y279921D02*
X329921D01*
X349213Y299213D01*
X351575D01*
X331496Y287008D02*
X346063Y301575D01*
X353937D01*
X300000Y287008D02*
X331496D01*
X351969Y296063D02*
X355118D01*
X384646Y253150D02*
X396850Y240945D01*
X406491D01*
X409842Y237594D01*
Y237008D02*
Y237594D01*
X277559Y340551D02*
X281496Y344488D01*
X290945D02*
X297638Y337795D01*
X281496Y344488D02*
X290945D01*
X297638Y330686D02*
Y337795D01*
X289764Y340551D02*
X294488Y335827D01*
Y328740D02*
Y335827D01*
X307087Y329134D02*
X329134D01*
X301969Y324016D02*
X307087Y329134D01*
X288189Y324016D02*
X301969D01*
X283071Y329134D02*
X288189Y324016D01*
X266929Y329134D02*
X283071D01*
X329134D02*
X333071Y325197D01*
X345669D01*
X294488Y287402D02*
Y299213D01*
Y287402D02*
X301969Y279921D01*
X297638Y289370D02*
X300000Y287008D01*
X297638Y289370D02*
Y301181D01*
X271503Y319685D02*
X331102D01*
X333465Y322047D01*
X269141D02*
X271503Y319685D01*
X317126Y289567D02*
X328150D01*
X342520Y303937D02*
X356299D01*
X328150Y289567D02*
X342520Y303937D01*
X313779Y292913D02*
X317126Y289567D01*
X313779Y292913D02*
Y301575D01*
X430376Y193498D02*
X430398Y193520D01*
X428932Y193498D02*
X430376D01*
X417835Y182402D02*
X428932Y193498D01*
X409228Y182402D02*
X417835D01*
X409244Y161610D02*
X412110D01*
X441339Y132382D01*
X364173Y158268D02*
X375984D01*
X379327Y161610D02*
X409244D01*
X375984Y158268D02*
X379327Y161610D01*
X566297Y421892D02*
X571809Y416380D01*
X576140D01*
X262598Y304331D02*
Y309842D01*
X267323Y314567D02*
Y318504D01*
X262598Y309842D02*
X267323Y314567D01*
X310236Y305118D02*
X313779Y301575D01*
X333465Y322047D02*
X348425D01*
X305512Y305118D02*
X310236D01*
X268898Y322047D02*
X269141D01*
X436614Y286221D02*
X503150D01*
X435433Y287402D02*
X436614Y286221D01*
X503150D02*
X513386Y296457D01*
Y325197D01*
X214173Y405512D02*
X278740D01*
X212205Y403543D02*
X214173Y405512D01*
X354724Y329528D02*
X357087D01*
X375984Y242520D02*
X387402D01*
X367323Y251181D02*
X375984Y242520D01*
X387402D02*
X392913Y237008D01*
X375197Y253150D02*
X384646D01*
X367323Y251181D02*
Y272047D01*
X372835Y277559D01*
X370472Y267717D02*
X375984Y273228D01*
X370472Y257874D02*
Y267717D01*
X375984Y273228D02*
Y277559D01*
X370472Y257874D02*
X375197Y253150D01*
X354724Y268110D02*
X366929Y280315D01*
X354724Y236910D02*
Y268110D01*
X385827Y347638D02*
X396850Y336614D01*
X307470Y400010D02*
X359842Y347638D01*
X385827D01*
X398272Y332830D02*
X398425Y332677D01*
X397091Y332830D02*
X398272D01*
X384646Y345276D02*
X397091Y332830D01*
X358268Y345276D02*
X384646D01*
X303543Y400000D02*
X358268Y345276D01*
X307470Y400010D02*
Y406703D01*
X303543Y410630D02*
X304724Y411811D01*
X303543Y400000D02*
Y410630D01*
X304724Y411811D02*
X307480D01*
X396850Y336614D02*
X398425D01*
D14*
X143622Y356496D02*
X173346Y326772D01*
X233858D02*
X239370Y332283D01*
X173346Y326772D02*
X233858D01*
X324410Y247638D02*
X371260Y294488D01*
X409055D01*
X410236Y295669D01*
X402658Y360138D02*
X405315Y357480D01*
Y329331D02*
Y357480D01*
X400787Y320079D02*
X409563Y328854D01*
X400000Y324016D02*
X405315Y329331D01*
X407382Y361713D02*
X409563Y359531D01*
Y328854D02*
Y359531D01*
X414173Y328740D02*
Y377953D01*
X401575Y316142D02*
X414173Y328740D01*
Y377953D02*
X416535Y380315D01*
X411417Y409449D02*
X421654Y399213D01*
Y374114D02*
Y399213D01*
X392913Y409449D02*
X411417D01*
X403937Y399213D02*
X416535Y386614D01*
Y380315D02*
Y386614D01*
X369685Y403543D02*
X373622Y399606D01*
Y373622D02*
Y399606D01*
X401181Y385152D02*
Y390551D01*
Y385152D02*
X408366Y377967D01*
Y371739D02*
Y377967D01*
X402658Y360138D02*
Y366030D01*
X393307Y398425D02*
X401181Y390551D01*
X406693Y384350D02*
Y387795D01*
X411221Y368602D02*
Y379823D01*
X406693Y384350D02*
X411221Y379823D01*
X402658Y366030D02*
X408366Y371739D01*
X407382Y361713D02*
Y364764D01*
X411221Y368602D01*
X294094Y247638D02*
X324410D01*
X410236Y295669D02*
X417717D01*
X371654Y286614D02*
Y291732D01*
X375984Y287402D02*
Y291732D01*
X399213Y298819D02*
Y306299D01*
X392520Y312992D02*
X399213Y306299D01*
X368504Y312992D02*
X392520D01*
X347244Y310236D02*
X365748D01*
X368504Y312992D01*
X383071Y287664D02*
X384646Y289239D01*
Y291732D01*
X383071Y285039D02*
Y287664D01*
X375984Y287402D02*
X395669Y267717D01*
X371654Y286614D02*
X392126Y266142D01*
X412205Y255512D02*
X424409Y243307D01*
X404331Y257874D02*
X406693Y255512D01*
X412205D01*
X416142Y208268D02*
X422441D01*
X424409Y210236D02*
Y243307D01*
X422441Y208268D02*
X424409Y210236D01*
X413386Y211024D02*
Y212598D01*
Y211024D02*
X416142Y208268D01*
X401575Y268504D02*
X404331Y265748D01*
Y257874D02*
Y265748D01*
X399606Y268504D02*
X401575D01*
X383071Y285039D02*
X399606Y268504D01*
X365354Y315748D02*
Y327658D01*
X376016Y338319D01*
X345276Y308268D02*
X347244Y310236D01*
X417323Y212598D02*
Y239370D01*
X395669Y261024D02*
X417323Y239370D01*
X409449Y223622D02*
X414173Y228346D01*
Y238583D01*
X392126Y260630D02*
X414173Y238583D01*
X395669Y261024D02*
Y267717D01*
X392126Y260630D02*
Y266142D01*
X270079Y309449D02*
X326378D01*
X334252Y317323D01*
X267717Y307087D02*
X270079Y309449D01*
X409449Y212598D02*
Y223622D01*
X398425Y327953D02*
X401575Y331102D01*
X374803Y327953D02*
X398425D01*
X374803Y316142D02*
X401575D01*
X374803Y320079D02*
X400787D01*
X374803Y324016D02*
X400000D01*
X386221Y366929D02*
X390551D01*
X225590Y344094D02*
X240551D01*
X171083Y349035D02*
X220650D01*
X225590Y344094D01*
X153622Y356496D02*
X165689Y344429D01*
X221260Y341453D02*
X237681D01*
X165689Y344429D02*
X218284D01*
X221260Y341453D01*
X222335Y354043D02*
X229134Y347244D01*
X242520D01*
X176272Y354043D02*
X222335D01*
X163622Y356496D02*
X171083Y349035D01*
X240551Y344094D02*
X249606Y335039D01*
X244094D02*
X246063D01*
X237681Y341453D02*
X244094Y335039D01*
X242520Y347244D02*
X254724Y335039D01*
X143622Y356496D02*
Y357480D01*
X153622Y356496D02*
Y357480D01*
X163622Y356496D02*
Y357480D01*
X173622Y356693D02*
Y357480D01*
Y356693D02*
X176272Y354043D01*
X334252Y317323D02*
X355512D01*
X363386Y313779D02*
X365354Y315748D01*
X345276Y313779D02*
X363386D01*
X387008Y356693D02*
X392126Y361811D01*
X387008Y354724D02*
Y356693D01*
Y354724D02*
X401575Y340158D01*
Y331102D02*
Y340158D01*
X392913Y370079D02*
X395669Y367323D01*
Y361024D02*
Y367323D01*
X390158Y370079D02*
X392913D01*
X392126Y361811D02*
Y365354D01*
X390551Y366929D02*
X392126Y365354D01*
X373622Y373622D02*
X384252Y362992D01*
X388583D01*
X403937Y399213D02*
Y403543D01*
X377559Y390945D02*
X379528Y388976D01*
Y373622D02*
Y388976D01*
X377559Y390945D02*
Y403543D01*
X379528Y373622D02*
X386221Y366929D01*
X390551Y355906D02*
X395669Y361024D01*
X386221Y374016D02*
X390158Y370079D01*
X386221Y374016D02*
Y388583D01*
X393307Y398425D02*
Y403543D01*
X387008D02*
X392913Y409449D01*
X417667Y370128D02*
X421654Y374114D01*
D131*
X620866Y307874D02*
D03*
X630866Y312874D02*
D03*
X620866Y317874D02*
D03*
X630866Y322874D02*
D03*
X620866Y327874D02*
D03*
X630866Y332874D02*
D03*
X620866Y337874D02*
D03*
X630866Y342874D02*
D03*
Y352874D02*
D03*
X620866Y347874D02*
D03*
D145*
X569798Y308909D02*
X571211D01*
X569407Y308519D02*
X569798Y308909D01*
X569407Y303083D02*
Y308519D01*
X568314Y301989D02*
X569407Y303083D01*
X564101Y301989D02*
X568314D01*
X563008Y303083D02*
X564101Y301989D01*
X563008Y303083D02*
Y317502D01*
X560341D02*
X563008D01*
X560341Y303083D02*
Y317502D01*
X559248Y301989D02*
X560341Y303083D01*
X555035Y301989D02*
X559248D01*
X553942Y303083D02*
X555035Y301989D01*
X553942Y303083D02*
Y317502D01*
X551275D02*
X553942D01*
X551275Y310393D02*
Y317502D01*
X549791Y308909D02*
X551275Y310393D01*
X548138Y308909D02*
X549791D01*
X571211Y310776D02*
Y310776D01*
X569025Y310776D02*
X571211D01*
X567541Y309292D02*
X569025Y310776D01*
X567541Y303856D02*
Y309292D01*
X564874Y303856D02*
X567541D01*
X564874D02*
Y318275D01*
X563781Y319368D02*
X564874Y318275D01*
X559568Y319368D02*
X563781D01*
X558475Y318275D02*
X559568Y319368D01*
X558475Y303856D02*
Y318275D01*
X555808Y303856D02*
X558475D01*
X555808D02*
Y318275D01*
X554715Y319368D02*
X555808Y318275D01*
X550502Y319368D02*
X554715D01*
X549409Y318275D02*
X550502Y319368D01*
X549409Y311166D02*
Y318275D01*
X549018Y310776D02*
X549409Y311166D01*
X548138Y310776D02*
X549018D01*
X548138D02*
Y310776D01*
X571211Y308909D02*
X607233D01*
X571211Y310776D02*
X608006D01*
X546270Y308909D02*
X548138D01*
X546270Y310776D02*
X548138D01*
X615591Y303190D02*
Y303190D01*
X608006Y310776D02*
X615591Y303190D01*
X624364Y313807D02*
X626968Y311203D01*
Y302971D02*
Y311203D01*
X625102Y303744D02*
Y310430D01*
X621257Y311941D02*
X623591D01*
X625102Y310430D01*
X621257Y313807D02*
X624364D01*
X624114Y302756D02*
X625102Y303744D01*
X624887Y300889D02*
X626968Y302971D01*
X620866Y314198D02*
Y317874D01*
Y314198D02*
X621257Y313807D01*
X620866Y307874D02*
Y311550D01*
X621257Y311941D01*
X615252Y300889D02*
X624887D01*
X616025Y302756D02*
X624114D01*
X615591Y303190D02*
X616025Y302756D01*
X545276Y308268D02*
X545628D01*
X546270Y308909D01*
X545276Y311417D02*
X545628D01*
X546270Y310776D01*
X607233Y308909D02*
X615252Y300889D01*
X631257Y338807D02*
X639623D01*
X630866Y339198D02*
Y342874D01*
X639623Y338807D02*
X645174Y333257D01*
X630866Y339198D02*
X631257Y338807D01*
X645174Y312416D02*
Y333257D01*
X630866Y332874D02*
Y336550D01*
X643307Y313189D02*
Y332484D01*
X638850Y336941D02*
X643307Y332484D01*
X631257Y336941D02*
X638850D01*
X630866Y336550D02*
X631257Y336941D01*
X629069Y296311D02*
X645174Y312416D01*
X628296Y298177D02*
X643307Y313189D01*
X545628Y298819D02*
X546270Y298177D01*
X628296D01*
X545276Y295669D02*
X545628D01*
X545276Y298819D02*
X545628D01*
Y295669D02*
X546270Y296311D01*
X629069D01*
D146*
X148031Y398356D02*
Y402953D01*
X178107Y394063D02*
X178862Y393307D01*
X148325Y394063D02*
X178107D01*
X148031Y393770D02*
X148325Y394063D01*
X148031Y389173D02*
Y393770D01*
X178862Y398819D02*
X179134D01*
X178862Y393307D02*
X179134D01*
X178107Y398063D02*
X178862Y398819D01*
X148325Y398063D02*
X178107D01*
X148031Y398356D02*
X148325Y398063D01*
D147*
X490114Y310630D02*
X490716D01*
X490114D02*
Y315583D01*
X487361D02*
X490114D01*
X487361Y308236D02*
Y315583D01*
X484607Y308236D02*
X487361D01*
X484607D02*
Y315583D01*
X481854D02*
X484607D01*
X481854Y309408D02*
Y315583D01*
X479100Y309408D02*
X481854D01*
X479100D02*
Y315583D01*
X476347D02*
X479100D01*
X476347Y309737D02*
Y315583D01*
X473593Y309737D02*
X476347D01*
X473593D02*
Y315583D01*
X470840D02*
X473593D01*
X470840Y308236D02*
Y315583D01*
X468086Y308236D02*
X470840D01*
X468086D02*
Y315583D01*
X465333D02*
X468086D01*
X465333Y308359D02*
Y315583D01*
X462579Y308359D02*
X465333D01*
X462579D02*
Y315583D01*
X459826D02*
X462579D01*
X459826Y309055D02*
Y315583D01*
X459449Y309055D02*
X459826D01*
X490716Y310630D02*
X495669D01*
X448007Y309055D02*
X450394D01*
X448007D02*
Y313850D01*
X445254D02*
X448007D01*
X445254Y301861D02*
Y313850D01*
X442500Y301861D02*
X445254D01*
X442500D02*
Y313850D01*
X439747D02*
X442500D01*
X439747Y309055D02*
Y313850D01*
X439370Y309055D02*
X439747D01*
X485380Y319235D02*
X488089D01*
X485380D02*
Y324423D01*
X482627D02*
X485380D01*
X482627Y318100D02*
Y324423D01*
X479873Y318100D02*
X482627D01*
X479873D02*
Y324423D01*
X477120D02*
X479873D01*
X477120Y318100D02*
Y324423D01*
X474366Y318100D02*
X477120D01*
X474366D02*
Y324423D01*
X471613D02*
X474366D01*
X471613Y318100D02*
Y324423D01*
X468859Y318100D02*
X471613D01*
X468859D02*
Y324423D01*
X466106D02*
X468859D01*
X466106Y318100D02*
Y324423D01*
X463352Y318100D02*
X466106D01*
X463352D02*
Y324423D01*
X460599D02*
X463352D01*
X460599Y318100D02*
Y324423D01*
X457845Y318100D02*
X460599D01*
X457845D02*
Y324423D01*
X455092D02*
X457845D01*
X455092Y318100D02*
Y324423D01*
X452338Y318100D02*
X455092D01*
X452338D02*
Y324423D01*
X449585D02*
X452338D01*
X449585Y318100D02*
Y324423D01*
X446831Y318100D02*
X449585D01*
X446831D02*
Y324423D01*
X444078D02*
X446831D01*
X444078Y319235D02*
Y324423D01*
X443701Y319235D02*
X444078D01*
X458236Y329528D02*
X459449D01*
X458236Y327321D02*
Y329528D01*
X455483Y327321D02*
X458236D01*
X455483D02*
Y336218D01*
X452729D02*
X455483D01*
X452729Y327321D02*
Y336218D01*
X449976Y327321D02*
X452729D01*
X449976D02*
Y336218D01*
X447222D02*
X449976D01*
X447222Y327321D02*
Y336218D01*
X444469Y327321D02*
X447222D01*
X444469D02*
Y336218D01*
X441715D02*
X444469D01*
X441715Y329528D02*
Y336218D01*
X441339Y329528D02*
X441715D01*
X462454Y346063D02*
X464173D01*
X462454D02*
Y351963D01*
X459701D02*
X462454D01*
X459701Y344590D02*
Y351963D01*
X456947Y344590D02*
X459701D01*
X456947D02*
Y351963D01*
X454194D02*
X456947D01*
X454194Y344590D02*
Y351963D01*
X451440Y344590D02*
X454194D01*
X451440D02*
Y351963D01*
X448687D02*
X451440D01*
X448687Y346063D02*
Y351963D01*
X448310Y346063D02*
X448687D01*
X455879Y356532D02*
X457477D01*
X455879Y354421D02*
Y356532D01*
X453125Y354421D02*
X455879D01*
X453125D02*
Y360602D01*
X450372D02*
X453125D01*
X450372Y354421D02*
Y360602D01*
X447618Y354421D02*
X450372D01*
X447618D02*
Y360602D01*
X444865D02*
X447618D01*
X444865Y356532D02*
Y360602D01*
X444488Y356532D02*
X444865D01*
X454241Y364173D02*
X457154D01*
X454241D02*
Y366523D01*
X451488D02*
X454241D01*
X451488Y363407D02*
Y366523D01*
X448734Y363407D02*
X451488D01*
X448734D02*
Y366523D01*
X445981D02*
X448734D01*
X445981Y364173D02*
Y366523D01*
X445604Y364173D02*
X445981D01*
X431033Y278810D02*
X431299Y278543D01*
X430145Y279698D02*
X431033Y278810D01*
X427312Y276865D02*
X430145Y279698D01*
X425365Y278812D02*
X427312Y276865D01*
X425365Y278812D02*
X429745Y283192D01*
X427798Y285139D02*
X429745Y283192D01*
X426251Y283592D02*
X427798Y285139D01*
X426251Y283592D02*
X426251Y283592D01*
X425984Y283858D02*
X426251Y283592D01*
X450394Y309055D02*
X459449D01*
X444488Y364173D02*
X445604D01*
X457154D02*
X483465D01*
X441339Y361024D02*
X444488Y364173D01*
X483465D02*
X515354Y332283D01*
Y293701D02*
Y332283D01*
X431299Y278543D02*
X436614Y273228D01*
X425197Y284646D02*
X425984Y283858D01*
X457477Y356532D02*
X484413D01*
X441571D02*
X444488D01*
X484413D02*
X503937Y337008D01*
X441339Y356299D02*
X441571Y356532D01*
X459449Y329528D02*
X484252D01*
X436417Y318307D02*
Y324606D01*
X431496Y302362D02*
Y313386D01*
X436417Y318307D01*
Y324606D02*
X441339Y329528D01*
X484252D02*
X492126Y321654D01*
X495669D01*
X442520Y346063D02*
X448310D01*
X464173D02*
X487008D01*
X436221Y333858D02*
X440354Y337992D01*
Y343898D01*
X442520Y346063D01*
X489033Y319235D02*
X494488Y313779D01*
X488089Y319235D02*
X489033D01*
X442463D02*
X443701D01*
X438518Y309055D02*
X439370D01*
X430709Y287795D02*
X434646Y283858D01*
X510630D01*
X518504Y291732D01*
X507874Y273228D02*
X521654Y287008D01*
X436614Y273228D02*
X507874D01*
X521654Y287008D02*
Y340158D01*
X421260Y284646D02*
X425197D01*
X434252Y305118D02*
Y311024D01*
X442463Y319235D01*
X437008Y307874D02*
X437337D01*
X438518Y309055D01*
X441339Y379730D02*
Y393779D01*
X421260Y359651D02*
X441339Y379730D01*
X425984Y357695D02*
X446850Y378561D01*
X425984Y319685D02*
Y357695D01*
X423622Y358673D02*
X444095Y379145D01*
X446850Y378561D02*
Y408268D01*
X438583Y380315D02*
Y387402D01*
X430709Y317323D02*
Y355738D01*
X452362Y377391D01*
X444095Y379145D02*
Y401024D01*
X449606Y377976D02*
Y415512D01*
X421260Y322047D02*
Y359651D01*
X418898Y323228D02*
Y360630D01*
X452362Y377391D02*
Y422756D01*
X418898Y360630D02*
X438583Y380315D01*
X428346Y318504D02*
Y356716D01*
X449606Y377976D01*
X423622Y320866D02*
Y358673D01*
X432283Y442835D02*
X452362Y422756D01*
X432283Y432835D02*
X449606Y415512D01*
X432283Y422835D02*
X446850Y408268D01*
X432283Y412835D02*
X444095Y401024D01*
X432283Y402835D02*
X441339Y393779D01*
X433150Y392835D02*
X438583Y387402D01*
X432283Y392835D02*
X433150D01*
X416535Y324410D02*
Y364567D01*
Y320866D02*
X418898Y323228D01*
X416535Y317323D02*
X421260Y322047D01*
X416535Y303150D02*
X430709Y317323D01*
X416535Y306693D02*
X428346Y318504D01*
X416535Y310236D02*
X425984Y319685D01*
X416535Y313779D02*
X423622Y320866D01*
X432283Y380315D02*
Y382835D01*
X416535Y364567D02*
X432283Y380315D01*
X487008Y346063D02*
X500394Y332677D01*
X432677Y333858D02*
X436221D01*
X503937Y321654D02*
Y337008D01*
X410236Y278740D02*
X419291Y287795D01*
X402756Y278740D02*
X410236D01*
X419291Y287795D02*
X430709D01*
X503150Y290551D02*
X509269Y296671D01*
Y316322D01*
X503937Y321654D02*
X509269Y316322D01*
X518504Y291732D02*
Y340551D01*
X505905Y298031D02*
Y311811D01*
X501181Y293307D02*
X505905Y298031D01*
X510630Y288976D02*
X515354Y293701D01*
X490158Y338189D02*
X495669Y332677D01*
Y321654D02*
Y332677D01*
X500394Y317323D02*
X505905Y311811D01*
X500394Y317323D02*
Y332677D01*
D154*
X357918Y359365D02*
Y369796D01*
X368702Y360432D02*
X371656Y363386D01*
X359338Y369796D02*
Y372158D01*
X357918Y369796D02*
Y371569D01*
X311931Y488857D02*
X341317Y459470D01*
X310510Y488268D02*
X339897Y458882D01*
Y380184D02*
Y458882D01*
X359338Y359953D02*
Y369796D01*
X341317Y380772D02*
Y459470D01*
X339897Y380184D02*
X346348Y373733D01*
X366144Y357874D02*
X368702Y360432D01*
X341317Y380772D02*
X346936Y375153D01*
X405905Y195889D02*
Y196063D01*
X405041Y195024D02*
X405905Y195889D01*
X405041Y193665D02*
Y195024D01*
X378948Y198217D02*
X387247Y189918D01*
X401295D02*
X405041Y193665D01*
X387247Y189918D02*
X401295D01*
X336261Y205512D02*
X371654D01*
X299133Y168384D02*
X336261Y205512D01*
X378948Y198217D02*
Y198217D01*
X371654Y205512D02*
X378948Y198217D01*
X294762Y168384D02*
X299133D01*
X293701Y167323D02*
X294762Y168384D01*
X403620Y194253D02*
Y195024D01*
X402756Y195889D02*
Y196063D01*
Y195889D02*
X403620Y195024D01*
X400706Y191339D02*
X403620Y194253D01*
X380369Y198805D02*
X387836Y191339D01*
X400706D01*
X372242Y206932D02*
X380369Y198805D01*
X335672Y206932D02*
X372242D01*
X380369Y198805D02*
Y198805D01*
X293701Y170866D02*
X294762Y169805D01*
X298545D02*
X335672Y206932D01*
X294762Y169805D02*
X298545D01*
X274803Y496360D02*
Y496457D01*
X273861Y489131D02*
X283858Y479134D01*
X273861Y489131D02*
Y495418D01*
X271260Y496427D02*
X272441Y495246D01*
Y488543D02*
X282438Y478546D01*
X271260Y496427D02*
Y496457D01*
X272441Y488543D02*
Y495246D01*
X273861Y495418D02*
X274803Y496360D01*
X283858Y415748D02*
Y479134D01*
X282438Y415160D02*
Y478546D01*
Y415160D02*
X291493Y406105D01*
X283858Y415748D02*
X292913Y406693D01*
X291493Y396262D02*
Y406105D01*
X292913Y396850D02*
Y406693D01*
X294762Y395002D02*
X296183D01*
X297244Y396063D01*
X291493Y396262D02*
X294174Y393581D01*
X292913Y396850D02*
X294762Y395002D01*
X294174Y393581D02*
X296183D01*
X297244Y392520D01*
X361417Y357874D02*
X366144D01*
X357918Y359365D02*
X360829Y356454D01*
X366732D01*
X359338Y359953D02*
X361417Y357874D01*
X366732Y356454D02*
X372244Y361965D01*
X377364D01*
X379408Y359922D01*
X377953Y363386D02*
X380828Y360510D01*
X371656Y363386D02*
X377953D01*
X379408Y356935D02*
Y359922D01*
X380828Y356935D02*
Y360510D01*
X346348Y373733D02*
X355755D01*
X346936Y375153D02*
X356343D01*
X355755Y373733D02*
X357918Y371569D01*
X356343Y375153D02*
X359338Y372158D01*
X310510Y488268D02*
Y495395D01*
X378740Y356267D02*
X379408Y356935D01*
X378740Y355906D02*
Y356267D01*
X309449Y496457D02*
X310510Y495395D01*
X311931Y488857D02*
Y495395D01*
X381496Y355906D02*
Y356267D01*
X380828Y356935D02*
X381496Y356267D01*
X311931Y495395D02*
X312992Y496457D01*
D155*
X432283Y462835D02*
D03*
Y452835D02*
D03*
Y442835D02*
D03*
Y432835D02*
D03*
Y422835D02*
D03*
Y412835D02*
D03*
Y402835D02*
D03*
Y392835D02*
D03*
Y382835D02*
D03*
X322358Y334575D02*
D03*
Y344575D02*
D03*
Y314575D02*
D03*
Y304575D02*
D03*
Y324575D02*
D03*
X340551Y188740D02*
D03*
Y198740D02*
D03*
Y168740D02*
D03*
Y158740D02*
D03*
Y178740D02*
D03*
X454724Y313543D02*
D03*
Y303543D02*
D03*
X305512Y314331D02*
D03*
Y304331D02*
D03*
X558661Y451732D02*
D03*
Y441732D02*
D03*
X457480Y451968D02*
D03*
Y441968D02*
D03*
D156*
X432283Y472835D02*
D03*
X322358Y294575D02*
D03*
X340551Y148740D02*
D03*
X454724Y293543D02*
D03*
X305512Y294331D02*
D03*
X558661Y431732D02*
D03*
X457480Y431968D02*
D03*
D157*
X621260Y508268D02*
D03*
X658661D02*
D03*
X583858D02*
D03*
X496457D02*
D03*
X533465D02*
D03*
X459055D02*
D03*
X148031Y402953D02*
D03*
X379921Y507874D02*
D03*
X416535D02*
D03*
X164567Y295276D02*
D03*
X176772Y315748D02*
D03*
X144882Y291732D02*
D03*
X176772Y303150D02*
D03*
D158*
X607480Y508268D02*
D03*
X644882D02*
D03*
X570079D02*
D03*
X482677D02*
D03*
X519685D02*
D03*
X445276D02*
D03*
X366142Y507874D02*
D03*
X402756D02*
D03*
X144882Y328346D02*
D03*
D159*
X148031Y389173D02*
D03*
D160*
X257480Y512008D02*
D03*
X285827D02*
D03*
X295669D02*
D03*
X324016D02*
D03*
D161*
X262008Y501575D02*
D03*
X281299D02*
D03*
X300197D02*
D03*
X319488D02*
D03*
D162*
X153622Y357480D02*
D03*
X163622D02*
D03*
X143622D02*
D03*
D163*
X173622D02*
D03*
D164*
X322716Y145276D02*
D03*
X270984D02*
D03*
D165*
X283071Y155945D02*
D03*
D166*
X292913D02*
D03*
X300787D02*
D03*
X310630D02*
D03*
D167*
X144882Y309449D02*
D03*
X164567D02*
D03*
D168*
X673858Y303898D02*
D03*
X665866D02*
D03*
Y356850D02*
D03*
X673858D02*
D03*
D169*
X655866Y307874D02*
D03*
Y352874D02*
D03*
D170*
X643858Y299370D02*
D03*
Y361378D02*
D03*
D171*
X666929Y131496D02*
D03*
X643307D02*
D03*
D172*
X655118Y150000D02*
D03*
D173*
X147638Y116142D02*
D03*
Y509842D02*
D03*
X687008D02*
D03*
D174*
X545276Y298819D02*
D03*
Y295669D02*
D03*
Y311417D02*
D03*
Y308268D02*
D03*
X179134Y398819D02*
D03*
Y393307D02*
D03*
X437008Y307874D02*
D03*
X434252Y305118D02*
D03*
X431496Y302362D02*
D03*
X441339Y356299D02*
D03*
Y361024D02*
D03*
X416535Y324410D02*
D03*
Y320866D02*
D03*
Y317323D02*
D03*
Y303150D02*
D03*
Y306693D02*
D03*
Y310236D02*
D03*
Y313779D02*
D03*
X432677Y333858D02*
D03*
X364173Y168504D02*
D03*
X249213Y276378D02*
D03*
X257480D02*
D03*
X212205Y388976D02*
D03*
X235039Y322835D02*
D03*
X216535Y253150D02*
D03*
X294094Y247638D02*
D03*
X250394Y253150D02*
D03*
X371654Y291732D02*
D03*
X375984D02*
D03*
X417717Y295669D02*
D03*
X394094Y305906D02*
D03*
X399213Y298819D02*
D03*
X391732Y309449D02*
D03*
X396063Y301969D02*
D03*
X384646Y291732D02*
D03*
X388583D02*
D03*
X392520D02*
D03*
X427559Y244488D02*
D03*
X402756Y278740D02*
D03*
X294488Y328740D02*
D03*
X297638Y330686D02*
D03*
X294488Y299213D02*
D03*
X297638Y301181D02*
D03*
X277559Y340551D02*
D03*
X409449Y212598D02*
D03*
X413386D02*
D03*
X374803Y316142D02*
D03*
Y320079D02*
D03*
Y324016D02*
D03*
Y327953D02*
D03*
X417323Y212598D02*
D03*
X461039Y208185D02*
D03*
X409228Y182402D02*
D03*
X470882Y208283D02*
D03*
X405905Y196063D02*
D03*
X402756D02*
D03*
X293701Y170866D02*
D03*
X293701Y167323D02*
D03*
X401354Y182402D02*
D03*
X419598Y171965D02*
D03*
X441339Y132382D02*
D03*
X409244Y161610D02*
D03*
X364173Y158268D02*
D03*
X430398Y193520D02*
D03*
X239370Y332283D02*
D03*
X192520Y263779D02*
D03*
X351575Y319685D02*
D03*
X345669Y325197D02*
D03*
X348425Y322047D02*
D03*
X267717Y307087D02*
D03*
X355512Y317323D02*
D03*
X351575Y299213D02*
D03*
X353937Y301575D02*
D03*
X356299Y303937D02*
D03*
X415354Y291339D02*
D03*
X503150Y290551D02*
D03*
X501181Y293307D02*
D03*
X513386Y325197D02*
D03*
X510630Y323228D02*
D03*
X507087Y322835D02*
D03*
X212205Y403543D02*
D03*
X357087Y325984D02*
D03*
Y329528D02*
D03*
X375984Y277559D02*
D03*
X372835D02*
D03*
X369685Y278346D02*
D03*
X366929Y280315D02*
D03*
X289764Y340551D02*
D03*
X258268Y334646D02*
D03*
X254724Y335039D02*
D03*
X249606D02*
D03*
X246063D02*
D03*
X268898Y322047D02*
D03*
X267323Y318504D02*
D03*
X266929Y329134D02*
D03*
X398425Y332677D02*
D03*
Y336614D02*
D03*
X307470Y406703D02*
D03*
X307480Y411811D02*
D03*
X297244Y392520D02*
D03*
Y396063D02*
D03*
X378740Y355906D02*
D03*
X309449Y496457D02*
D03*
X381496Y355906D02*
D03*
X312992Y496457D02*
D03*
X383465Y358268D02*
D03*
X376772D02*
D03*
X305906Y496457D02*
D03*
X316535D02*
D03*
X267717D02*
D03*
X278346D02*
D03*
X274803D02*
D03*
X271260D02*
D03*
X406693Y387795D02*
D03*
X388583Y362992D02*
D03*
X390551Y355906D02*
D03*
X369685Y403543D02*
D03*
X377559Y403543D02*
D03*
X409055D02*
D03*
X403937D02*
D03*
X387008D02*
D03*
X393307D02*
D03*
X417667Y370128D02*
D03*
X561417Y422047D02*
D03*
X576378Y416535D02*
D03*
X257874Y206693D02*
D03*
X417717Y299213D02*
D03*
X545276Y292520D02*
D03*
Y301969D02*
D03*
Y305118D02*
D03*
Y314567D02*
D03*
X386221Y388583D02*
D03*
X518504Y340551D02*
D03*
X521654Y340158D02*
D03*
X490158Y338189D02*
D03*
X495669Y310630D02*
D03*
X510630Y288976D02*
D03*
X495669Y321654D02*
D03*
X494488Y313779D02*
D03*
X421260Y284646D02*
D03*
X527165Y307874D02*
D03*
X526772Y316142D02*
D03*
D175*
X255512Y321260D02*
D03*
Y316929D02*
D03*
Y312598D02*
D03*
X251181Y321260D02*
D03*
Y316929D02*
D03*
Y312598D02*
D03*
X246850Y321260D02*
D03*
Y316929D02*
D03*
Y312598D02*
D03*
X573819Y438386D02*
D03*
Y442717D02*
D03*
X578150Y438386D02*
D03*
Y442717D02*
D03*
X476968D02*
D03*
Y438386D02*
D03*
X472638Y442717D02*
D03*
Y438386D02*
D03*
X393701Y378543D02*
D03*
X391142Y381102D02*
D03*
X396260D02*
D03*
Y375984D02*
D03*
X391142D02*
D03*
D176*
X224803Y301575D02*
D03*
X219291Y301181D02*
D03*
X283071Y313779D02*
D03*
X204724Y285039D02*
D03*
X566535Y229134D02*
D03*
X204724Y301969D02*
D03*
X446850Y477953D02*
D03*
Y437795D02*
D03*
X444882Y350787D02*
D03*
X368110Y188976D02*
D03*
X301870Y331890D02*
D03*
X314961Y283465D02*
D03*
X589370Y273228D02*
D03*
X585433D02*
D03*
X578740D02*
D03*
X574803D02*
D03*
X568504D02*
D03*
X564567D02*
D03*
X689764Y280315D02*
D03*
X684252D02*
D03*
X677953Y277953D02*
D03*
X673228D02*
D03*
X373622Y236221D02*
D03*
X375984Y256693D02*
D03*
X385433Y441339D02*
D03*
X382283Y403150D02*
D03*
X472047Y298819D02*
D03*
X498819Y364961D02*
D03*
X547244Y440650D02*
D03*
X568898Y350394D02*
D03*
X570472Y341339D02*
D03*
X568110Y331890D02*
D03*
X477559Y298819D02*
D03*
Y307480D02*
D03*
X490158Y329921D02*
D03*
X225984Y400394D02*
D03*
Y391732D02*
D03*
X674016Y238189D02*
D03*
X503150Y220079D02*
D03*
X516142D02*
D03*
X207874Y330315D02*
D03*
X201575Y321260D02*
D03*
X585039Y252756D02*
D03*
X163386Y255906D02*
D03*
X168110Y129921D02*
D03*
X219291Y321260D02*
D03*
X363386Y419685D02*
D03*
X353937Y414961D02*
D03*
X285827Y403937D02*
D03*
X276772Y506299D02*
D03*
X314961D02*
D03*
X333465Y422047D02*
D03*
X288976Y305906D02*
D03*
X492913Y220866D02*
D03*
X524803Y220472D02*
D03*
X534252D02*
D03*
X583465Y401181D02*
D03*
X482283D02*
D03*
X282677Y305906D02*
D03*
X508661Y469291D02*
D03*
X512992Y469291D02*
D03*
X513386Y424803D02*
D03*
X509055Y424803D02*
D03*
X612598Y469291D02*
D03*
X616929Y469291D02*
D03*
X617323Y424803D02*
D03*
X612992Y424803D02*
D03*
X236614Y335039D02*
D03*
X225197Y321260D02*
D03*
X225984Y357087D02*
D03*
X368110Y390158D02*
D03*
X503150Y116732D02*
D03*
X498819Y116732D02*
D03*
X535433Y115945D02*
D03*
X531102Y115945D02*
D03*
X608661Y115945D02*
D03*
X604331Y115945D02*
D03*
X567717D02*
D03*
X572047Y115945D02*
D03*
X506693Y346457D02*
D03*
Y355118D02*
D03*
X526378D02*
D03*
X548819Y353543D02*
D03*
X547638Y334252D02*
D03*
X568110Y321260D02*
D03*
X596282Y264609D02*
D03*
X596282Y268940D02*
D03*
X596282Y273271D02*
D03*
X555118Y269291D02*
D03*
X550394D02*
D03*
X545669D02*
D03*
X653543Y238583D02*
D03*
X681890Y255512D02*
D03*
Y245276D02*
D03*
X658268Y238583D02*
D03*
X662992D02*
D03*
X576772Y228346D02*
D03*
X587402Y231102D02*
D03*
X596063Y234252D02*
D03*
X596063Y242913D02*
D03*
X596063Y238583D02*
D03*
X554724Y237402D02*
D03*
X550000Y237256D02*
D03*
X545276D02*
D03*
X548819Y226772D02*
D03*
X596063Y247244D02*
D03*
X589764Y252756D02*
D03*
X563779D02*
D03*
X574016D02*
D03*
X579528D02*
D03*
X569291D02*
D03*
X596063Y255906D02*
D03*
X596063Y260236D02*
D03*
Y251575D02*
D03*
X488791Y258465D02*
D03*
Y263189D02*
D03*
X488937Y267913D02*
D03*
Y239567D02*
D03*
X488791Y244291D02*
D03*
Y249016D02*
D03*
X488937Y253740D02*
D03*
X557480Y200394D02*
D03*
X485591Y175000D02*
D03*
X485445Y179724D02*
D03*
Y184449D02*
D03*
X485591Y189173D02*
D03*
X485445Y193898D02*
D03*
Y198622D02*
D03*
X485591Y203346D02*
D03*
X485445Y208071D02*
D03*
Y212795D02*
D03*
X541929Y212835D02*
D03*
X546654Y212980D02*
D03*
X551378D02*
D03*
X681890Y250394D02*
D03*
X610630Y221850D02*
D03*
X614961Y221850D02*
D03*
X606299D02*
D03*
X657480Y219094D02*
D03*
X661811Y219094D02*
D03*
X653150D02*
D03*
X575984Y211811D02*
D03*
X571654D02*
D03*
X557480Y207087D02*
D03*
Y193701D02*
D03*
X430709Y217717D02*
D03*
X453937Y217323D02*
D03*
X213779Y321260D02*
D03*
X614961Y337795D02*
D03*
X616535Y312992D02*
D03*
X213386Y281102D02*
D03*
X198031Y260236D02*
D03*
Y284744D02*
D03*
X263779Y259842D02*
D03*
X357874Y276378D02*
D03*
X411024Y363386D02*
D03*
X403543Y244488D02*
D03*
X409842Y237008D02*
D03*
X288583Y330709D02*
D03*
X282677Y322835D02*
D03*
X439764Y277953D02*
D03*
X274016Y169291D02*
D03*
X441339Y150000D02*
D03*
X381496Y155512D02*
D03*
X372441Y161811D02*
D03*
X572441Y472441D02*
D03*
X563779Y472047D02*
D03*
X598032Y408268D02*
D03*
X462598Y469685D02*
D03*
X472047Y470079D02*
D03*
X175197Y278346D02*
D03*
X345276Y313779D02*
D03*
X443701Y289435D02*
D03*
X661811Y168110D02*
D03*
X653150D02*
D03*
X657480Y168110D02*
D03*
X405425Y201886D02*
D03*
X364173Y236811D02*
D03*
X383071Y237205D02*
D03*
X402362Y236909D02*
D03*
X421260Y237008D02*
D03*
X392913Y237008D02*
D03*
X354724Y236910D02*
D03*
X270866Y354035D02*
D03*
X311221Y477953D02*
D03*
X273031Y478543D02*
D03*
X398425Y403543D02*
D03*
X367717Y367717D02*
D03*
X464961Y305906D02*
D03*
X449472Y341339D02*
D03*
X496063Y407874D02*
D03*
X496457Y418110D02*
D03*
X598032D02*
D03*
X318701Y236024D02*
D03*
X351575Y255020D02*
D03*
X364567Y265354D02*
D03*
X345276Y308268D02*
D03*
X348031Y286221D02*
D03*
X526378Y346457D02*
D03*
X567323Y368012D02*
D03*
X583465Y349606D02*
D03*
X421654Y129528D02*
D03*
X412992D02*
D03*
X384646Y201575D02*
D03*
Y210236D02*
D03*
X405512D02*
D03*
X261024Y348425D02*
D03*
X254331Y347638D02*
D03*
X253150Y355512D02*
D03*
X347244Y346850D02*
D03*
X367717Y374410D02*
D03*
Y383071D02*
D03*
X413779Y397244D02*
D03*
X443701Y297638D02*
D03*
X379953Y291665D02*
D03*
X376016Y338319D02*
D03*
X557874Y404724D02*
D03*
X528346D02*
D03*
X572441Y290158D02*
D03*
Y316929D02*
D03*
X408661Y264567D02*
D03*
X400000D02*
D03*
X408661Y259055D02*
D03*
X432579Y242913D02*
D03*
X452362Y156693D02*
D03*
X258661Y216535D02*
D03*
Y189764D02*
D03*
X258858Y196732D02*
D03*
X283465Y297244D02*
D03*
X362992Y362992D02*
D03*
X444488Y175197D02*
D03*
Y183858D02*
D03*
X205118Y380709D02*
D03*
X253543Y396850D02*
D03*
Y390158D02*
D03*
X291959Y419471D02*
D03*
X333465Y401968D02*
D03*
X345276Y418504D02*
D03*
X331890Y427658D02*
D03*
X348031Y438976D02*
D03*
X351969Y437402D02*
D03*
X350000Y433071D02*
D03*
X350787Y424409D02*
D03*
X373622Y434252D02*
D03*
Y442520D02*
D03*
X359842Y467717D02*
D03*
X386221D02*
D03*
X395669Y467717D02*
D03*
X422441D02*
D03*
X547244Y475295D02*
D03*
X411811Y383563D02*
D03*
X649213Y288189D02*
D03*
X628740D02*
D03*
X660532Y288583D02*
D03*
X660335Y372441D02*
D03*
X650000Y373228D02*
D03*
X629528D02*
D03*
X453543Y269685D02*
D03*
X439764Y255906D02*
D03*
X472244Y269488D02*
D03*
X476772Y250787D02*
D03*
X480315Y155118D02*
D03*
X477165Y174409D02*
D03*
X452362Y182677D02*
D03*
X449705Y166535D02*
D03*
X448819Y127165D02*
D03*
X431890Y131595D02*
D03*
X372047Y132283D02*
D03*
X366929Y148819D02*
D03*
Y140551D02*
D03*
X381496Y134646D02*
D03*
X398425Y130315D02*
D03*
X390551Y130413D02*
D03*
X373622Y170866D02*
D03*
X379528Y190059D02*
D03*
X241339Y253543D02*
D03*
X225197D02*
D03*
X182677Y263779D02*
D03*
X212598Y294094D02*
D03*
X192126D02*
D03*
X231496Y351181D02*
D03*
X283858Y354035D02*
D03*
X339779Y340244D02*
D03*
X348228Y236024D02*
D03*
X315354Y253937D02*
D03*
X381890Y257874D02*
D03*
X409055Y251969D02*
D03*
X373228Y265354D02*
D03*
X379528D02*
D03*
X388189D02*
D03*
X528445Y282677D02*
D03*
X525984Y364961D02*
D03*
X520079Y379528D02*
D03*
X511122Y379331D02*
D03*
X483858Y351673D02*
D03*
X474409Y335138D02*
D03*
X444488Y341732D02*
D03*
X354331Y361417D02*
D03*
D177*
X409842Y443307D02*
D03*
D178*
X679134Y141732D02*
D03*
X669291Y161417D02*
D03*
X679134Y179134D02*
D03*
Y167323D02*
D03*
Y155512D02*
D03*
X620079Y118110D02*
D03*
X588583Y129921D02*
D03*
X551181D02*
D03*
X492126Y118110D02*
D03*
X511811D02*
D03*
X523622D02*
D03*
X647638Y161417D02*
D03*
X673228Y118110D02*
D03*
X679134Y129921D02*
D03*
X655512Y472441D02*
D03*
X649606Y460630D02*
D03*
X637795D02*
D03*
X643701Y448819D02*
D03*
X631890D02*
D03*
X625984Y437008D02*
D03*
X602362D02*
D03*
X608267Y425197D02*
D03*
X602362Y413386D02*
D03*
X590551Y437008D02*
D03*
X596456Y425197D02*
D03*
Y401575D02*
D03*
X537401Y496063D02*
D03*
X531496Y484252D02*
D03*
X537401Y472441D02*
D03*
X531496Y460630D02*
D03*
X537401Y448819D02*
D03*
X531496Y437008D02*
D03*
X525590Y448819D02*
D03*
X519685Y437008D02*
D03*
X507874Y413386D02*
D03*
X496063Y437008D02*
D03*
X501968Y425197D02*
D03*
X640945Y212598D02*
D03*
X635039Y200787D02*
D03*
X629134Y212598D02*
D03*
X623228Y200787D02*
D03*
X611417D02*
D03*
X599606D02*
D03*
X593701Y212598D02*
D03*
X587795Y200787D02*
D03*
X581890Y212598D02*
D03*
X564173Y200787D02*
D03*
X643701Y234646D02*
D03*
X637795Y271654D02*
D03*
X643701Y259842D02*
D03*
X637795Y248031D02*
D03*
X389764Y153543D02*
D03*
X277559Y354331D02*
D03*
X265748D02*
D03*
X661417Y118110D02*
D03*
X643701Y177165D02*
D03*
X590551Y118110D02*
D03*
X578740D02*
D03*
X555118D02*
D03*
X543307D02*
D03*
X531496Y212598D02*
D03*
Y188976D02*
D03*
X525590Y200787D02*
D03*
D199*
X409842Y443307D02*
Y465354D01*
X417323Y472835D01*
X432283D01*
D200*
X415354Y291339D02*
X431496D01*
X435433Y287402D01*
M02*
